<?xml version="1.0" encoding="UTF-8"?>
<svg width="255px" height="43px" viewBox="0 0 255 43" version="1.1" xmlns="http://www.w3.org/2000/svg" xmlns:xlink="http://www.w3.org/1999/xlink">
    <title>active-directory-seeklogo.com</title>
    <g id="Website" stroke="none" stroke-width="1" fill="none" fill-rule="evenodd" opacity="0.75">
        <g id="Enterprise" transform="translate(-115.000000, -2991.000000)" fill="#00AAF2" fill-rule="nonzero">
            <g id="active-directory-seeklogo.com" transform="translate(115.000000, 2991.000000)">
                <path d="M42.1904555,32.2791111 L42.1904555,41.1095904 C42.1904555,42.1437906 41.867842,42.3559343 40.873117,42.1968265 C34.2057708,41.2156622 27.4577713,40.3140517 20.7366563,39.3859232 C19.5268556,39.2268155 19.0967042,38.8025282 19.0967042,37.5031484 C19.204242,32.8094702 19.1504731,28.0892741 19.0967042,23.34256 C19.0967042,22.3083597 19.4193177,21.9901442 20.4678117,21.9901442 C27.3502335,22.0431801 34.1251174,22.0431801 40.873117,22.0431801 C41.9753798,22.0431801 42.2442244,22.4674674 42.2442244,23.4486318 C42.1366866,26.4186428 42.1904555,29.335618 42.1904555,32.2791111 Z" id="path6"></path>
                <path d="M30.7935256,19.6753922 C27.3898316,19.6753922 23.9861376,19.6233942 20.5824436,19.6753922 C19.5289193,19.6753922 19.0967042,19.4674004 19.0967042,18.2974464 C19.1507311,13.5916313 19.1507311,8.9638132 19.0967042,4.30999611 C19.0967042,3.40003187 19.4208655,3.08804413 20.3123092,2.93205026 C27.2817778,1.97008807 34.2512464,1.03412486 41.220715,0.0201647105 C42.43632,-0.135829158 42.2202125,0.644140186 42.2202125,1.29411464 C42.2202125,5.45395115 42.2742394,9.69178458 42.2202125,13.8516211 C42.2202125,15.3855608 42.1661856,16.9195005 42.2202125,18.4534402 C42.2742394,19.4154024 41.8960511,19.6753922 40.9505806,19.6753922 C37.6009135,19.6233942 34.1972195,19.6753922 30.7935256,19.6753922 Z" id="path8"></path>
                <path d="M8.70694684,22.0696917 L16.21569,22.0696917 C17.0144924,22.0696917 17.3606402,22.3348499 17.3606402,23.1568404 L17.3606402,37.8996376 C17.3606402,38.7481439 16.9878657,38.8276914 16.21569,38.7481439 C11.236488,38.0057009 6.25728595,37.2897737 1.30471069,36.6003623 C0.319520985,36.4412674 0,36.1230775 0,35.0889605 C0.0532534975,31.1646188 0.0532534975,27.240277 0,23.2363879 C0,22.2553024 0.266267487,21.9901442 1.25145719,21.9901442 C3.78099832,22.0696917 6.20403245,22.0696917 8.70694684,22.0696917 L8.70694684,22.0696917 Z" id="path10"></path>
                <path d="M8.62722944,19.6753922 L1.2476301,19.6753922 C0.318543856,19.6753922 0,19.3634644 0,18.4016869 C0.0530906427,14.6065649 0.0530906427,10.8114428 0,6.99032685 C0,6.08053733 0.265453214,5.76860949 1.2476301,5.61264557 C6.2116052,4.9887899 11.1755803,4.28695227 16.1130101,3.50713268 C17.2544589,3.35116876 17.3606402,3.71508457 17.3606402,4.62487409 L17.3606402,18.4536748 C17.3606402,19.4674403 16.935915,19.6234042 16.0068288,19.6234042 C13.5381139,19.6234042 11.0428537,19.6753922 8.62722944,19.6753922 L8.62722944,19.6753922 Z" id="path12"></path>
                <path d="M60.9218787,8.44884488 C60.8719918,7.67726088 60.8221049,6.67420167 60.8221049,5.95405659 L60.772218,5.95405659 C60.6225573,6.62276273 60.3232359,7.42006621 60.0738014,8.19165022 L59.1010069,10.9693526 L58.5522511,10.9693526 L57.6792304,8.24308915 C57.4297959,7.52294408 57.2302483,6.7256406 57.0307007,6.00549553 C56.9808138,6.67420167 56.9808138,7.67726088 56.9309269,8.55172275 L56.7812662,10.9950721 L56.1327366,10.9950721 L56.5318317,5.20819205 L57.4547393,5.20819205 L58.4275338,8.03733341 C58.6769683,8.70603955 58.826629,9.40046516 58.9762897,10.0177324 L59.0261766,10.0177324 C59.1758373,9.45190409 59.3753849,8.75747849 59.6248194,8.03733341 L60.6475007,5.20819205 L61.5704083,5.20819205 L61.9196166,10.9950721 L61.1214263,10.9950721 L60.9218787,8.44884488 L60.9218787,8.44884488 Z" id="path14"></path>
                <path d="M63.6556806,5.669094 C63.6556806,5.92515064 63.4120225,6.12999596 63.1074499,6.12999596 L63.0465354,6.12999596 C62.7419627,6.12999596 62.4983046,5.92515064 62.4983046,5.669094 C62.4983046,5.41303736 62.7419627,5.20819205 63.0465354,5.20819205 C63.4120225,5.20819205 63.6556806,5.41303736 63.6556806,5.669094 Z M62.6810482,10.9950721 L62.6810482,6.89816587 L63.5947661,6.89816587 L63.5947661,10.9950721 L62.6810482,10.9950721 Z" id="path16"></path>
                <path d="M68.2851847,10.7567888 C67.9056692,10.8997588 67.4719373,10.9950721 67.0110971,10.9950721 C65.6827931,10.9950721 64.8153292,10.2325656 64.8153292,9.01732075 C64.7611127,7.89738926 65.6827931,6.99191273 66.9568806,6.94425607 L67.1737466,6.94425607 C67.553262,6.94425607 67.9327775,6.99191273 68.2851847,7.13488271 L68.1225352,7.65910596 C67.8514527,7.56379264 67.5261538,7.46847932 67.1737466,7.51613598 C66.1707415,7.51613598 65.6285766,8.13567255 65.6285766,8.96966409 C65.6285766,9.89896895 66.2791745,10.4231922 67.1737466,10.4231922 C67.4990456,10.4231922 67.8243445,10.3755355 68.1225352,10.2325656 L68.2851847,10.7567888 L68.2851847,10.7567888 Z" id="path18"></path>
                <path d="M68.9196498,8.22866116 C68.9196498,7.78405939 68.8638727,7.36415773 68.8638727,7.01835636 L69.5889757,7.01835636 L69.6447529,7.80875949 L69.70053,7.80875949 C69.8678615,7.31475754 70.3698559,6.94425607 70.9555161,6.94425607 C71.0112932,6.94425607 71.1228476,6.94425607 71.1786247,6.99365627 L71.1786247,7.63585881 C71.1228476,7.58645861 71.0112932,7.58645861 70.8997389,7.58645861 C70.3419674,7.58645861 69.9236387,7.98166018 69.8120844,8.54976243 C69.8120844,8.64856282 69.7563072,8.74736321 69.7563072,8.8461636 L69.7563072,10.9950721 L68.975427,10.9950721 L68.9196498,8.22866116 L68.9196498,8.22866116 Z" id="path20"></path>
                <path d="M75.8058235,8.99377609 C75.8577274,10.0305921 75.0272637,10.9468481 73.911328,10.9950721 L73.7556161,10.9950721 C72.6396804,10.9950721 71.7573127,10.2234881 71.7573127,8.99377609 C71.7573127,7.66761608 72.7175364,6.94425607 73.8594241,6.94425607 C74.8975037,6.94425607 75.8058235,7.78817608 75.8058235,8.99377609 Z M72.4839685,8.99377609 C72.4839685,9.7653601 72.8992004,10.4646081 73.7556161,10.4646081 C74.5860798,10.4646081 75.0272637,9.7412481 75.0272637,8.99377609 C75.0272637,8.31864008 74.7158398,7.47472007 73.7556161,7.47472007 C72.7434884,7.52294408 72.4839685,8.31864008 72.4839685,8.99377609 Z" id="path22"></path>
                <path d="M77.1019878,10.2629969 C77.429547,10.458217 77.7571063,10.555827 78.1665553,10.555827 C78.7124874,10.555827 78.9854535,10.3118019 78.9854535,9.97016685 C78.9854535,9.67733677 78.7670806,9.48211672 78.1665553,9.23809166 C77.4022504,8.9940666 76.9928014,8.6036265 76.9928014,8.09117386 C76.9928014,7.4567087 77.5387335,6.94425607 78.4941146,6.94425607 C78.8762671,6.94425607 79.2584195,7.04186609 79.6132754,7.18828113 L79.4494957,7.67633126 C79.1765297,7.52991622 78.8489704,7.43230619 78.5760044,7.43230619 C78.193852,7.38350118 77.8662927,7.62752624 77.8662927,7.96916133 C77.8662927,8.26199141 78.1392587,8.40840645 78.6851908,8.6036265 C79.3949025,8.84765156 79.8589448,9.18928665 79.8589448,9.7993493 C79.8589448,10.4826195 79.2584195,10.9950721 78.193852,10.9950721 C77.7571063,10.9950721 77.3749538,10.8974621 76.9655048,10.702242 L77.1019878,10.2629969 L77.1019878,10.2629969 Z" id="path24"></path>
                <path d="M84.4861435,8.99377609 C84.5380475,10.0305921 83.7075838,10.9468481 82.5916481,10.9950721 L82.4359362,10.9950721 C81.3200005,10.9950721 80.4376328,10.2234881 80.4376328,8.99377609 C80.4376328,7.66761608 81.3978565,6.94425607 82.5397442,6.94425607 C83.6037758,6.94425607 84.4861435,7.78817608 84.4861435,8.99377609 Z M81.1902406,8.99377609 C81.1902406,9.7653601 81.6054724,10.4646081 82.4618882,10.4646081 C83.3183039,10.4646081 83.7335358,9.7412481 83.7335358,8.99377609 C83.7335358,8.31864008 83.4221119,7.47472007 82.4618882,7.47472007 C81.5016645,7.47472007 81.1902406,8.31864008 81.1902406,8.99377609 Z" id="path26"></path>
                <path d="M85.1064652,10.9950721 L85.1064652,7.32766664 L84.4884488,7.32766664 L84.4884488,6.75136007 L85.1064652,6.75136007 L85.1064652,6.54179404 C85.0502819,6.01787897 85.2188318,5.46776815 85.6121149,5.0486361 C85.8930314,4.78667857 86.2863145,4.62950405 86.7076893,4.62950405 C86.9324225,4.62950405 87.1571557,4.68189555 87.3818889,4.73428706 L87.2695223,5.31059363 C87.1009724,5.25820213 86.9324225,5.20581062 86.7638726,5.20581062 C86.0896729,5.20581062 85.921123,5.78211719 85.921123,6.43701103 L85.921123,6.69896856 L87.0166974,6.69896856 L87.0166974,7.27527513 L85.921123,7.27527513 L85.921123,10.8902891 L85.1064652,10.9950721 L85.1064652,10.9950721 Z" id="path28"></path>
                <path d="M88.648911,5.78688006 L88.648911,6.95252304 L89.6966409,6.95252304 L89.6966409,7.49814316 L88.648911,7.49814316 L88.648911,9.65582273 C88.648911,10.151841 88.7951059,10.3998502 89.1849589,10.3998502 C89.3311537,10.3998502 89.4773486,10.3998502 89.5748118,10.3502483 L89.6235435,10.8958685 C89.428617,10.9950721 89.2336905,10.9950721 88.9900324,10.9950721 C88.6976427,10.9950721 88.4539845,10.8958685 88.2103264,10.6974611 C88.0154,10.3998502 87.9179367,10.0030355 87.9666683,9.63102181 L87.9666683,7.42374042 L87.3818889,7.42374042 L87.3818889,6.8781203 L87.9666683,6.8781203 L87.9666683,5.91088463 L88.648911,5.78688006 L88.648911,5.78688006 Z" id="path30"></path>
                <path d="M60.3071648,27.3697994 L58.2625282,33.5639043 L55.5540486,33.5639043 L62.4049088,13.8885121 L65.4851405,13.8885121 L72.3360007,33.5378787 L69.5744137,33.5378787 L67.4235622,27.3437737 L60.3071648,27.3437737 L60.3071648,27.3697994 Z M66.8924878,25.4178756 L64.9540661,19.7703093 C64.5292065,18.4950524 64.2105619,17.2978724 63.9184709,16.1787694 L63.812256,16.1787694 C63.5467188,17.3499237 63.2280742,18.5471037 62.8297683,19.718258 L60.8913466,25.4178756 L66.8924878,25.4178756 L66.8924878,25.4178756 Z" id="path32"></path>
                <path d="M85.0671369,32.7102369 C83.7358828,33.2971333 82.2959549,33.5639043 80.8288585,33.5639043 C76.4275694,33.5639043 73.4933767,30.5760684 73.4933767,26.2010229 C73.4933767,21.8259774 76.644917,18.5180162 81.3722275,18.5180162 C82.6491447,18.5180162 83.8988935,18.731433 85.0671369,19.2649752 L84.4694309,21.2657582 C83.5185351,20.7855703 82.4317971,20.5721534 81.3178906,20.5721534 C77.9490027,20.5721534 76.1287165,23.0531243 76.1287165,26.0409603 C76.1287165,29.4022757 78.329361,31.4564129 81.2635537,31.4564129 C82.3774602,31.4564129 83.5185351,31.2429961 84.5237678,30.7628081 L85.0671369,32.7102369 L85.0671369,32.7102369 Z" id="path34"></path>
                <path d="M91.7211531,15.0458882 L91.7211531,19.1251617 L95.483521,19.1251617 L95.483521,21.0340525 L91.7211531,21.0340525 L91.7211531,28.6696158 C91.7211531,30.4216115 92.2048861,31.4414299 93.6829592,31.4414299 C94.1666922,31.4414299 94.7310474,31.3891315 95.2147804,31.2845348 L95.3222766,33.1934256 C94.8385436,33.4549175 94.0054479,33.5595142 92.9304856,33.5595142 C91.8286493,33.6118126 90.8074352,33.1934256 90.0818357,32.4873975 C89.3831102,31.6506234 89.0874956,30.4739099 89.0874956,28.7742126 L89.0874956,21.0340525 L86.8032009,21.0340525 L86.8032009,19.1251617 L89.0337475,19.1251617 L89.0337475,15.6734687 L91.7211531,15.0458882 Z" id="path36"></path>
                <path d="M101.270401,15.4393219 C101.270401,16.2750375 100.692234,16.9801726 99.8972542,17.0324048 L99.800893,17.0324048 C99.0300036,17.0324048 98.3795656,16.4056181 98.3795656,15.5960186 L98.3795656,15.4915541 C98.331385,14.6558385 98.9577327,13.8984712 99.7527124,13.8984712 L99.8490736,13.8984712 C100.644053,13.7940068 101.270401,14.5252579 101.270401,15.4393219 C101.270401,15.3870897 101.270401,15.3870897 101.270401,15.4393219 Z M98.6445589,33.5639043 L98.6445589,19.4089711 L100.981317,19.4089711 L100.981317,33.5116721 L98.6445589,33.5116721 L98.6445589,33.5639043 Z" id="path38"></path>
                <path d="M106.373685,19.0967042 L109.243436,27.2679932 C109.730752,28.5807576 110.109776,29.8131487 110.461726,31.0187488 L110.570019,31.0187488 C110.894896,29.8131487 111.328066,28.5807576 111.788309,27.2679932 L114.65806,19.0967042 L117.473665,19.0967042 L111.70709,33.5639043 L109.135143,33.5639043 L103.585153,19.0967042 L106.373685,19.0967042 Z" id="path40"></path>
                <path d="M120.603896,26.4634613 C120.657053,30.0242962 122.916232,31.4858329 125.520932,31.4858329 C127.408011,31.4858329 128.604046,31.1669522 129.507718,30.7417779 L129.932975,32.6284889 C128.417996,33.2662504 126.796703,33.6117045 125.122253,33.5585577 C120.71021,33.5585577 118.052353,30.5823375 118.052353,26.2774475 C118.052353,21.9194107 120.577318,18.5180162 124.856468,18.5180162 C129.560875,18.5180162 130.783489,22.610319 130.783489,25.2676585 C130.783489,25.6928328 130.730332,26.0648604 130.677175,26.5166081 L120.603896,26.5166081 L120.603896,26.4634613 L120.603896,26.4634613 Z M128.258525,24.5767502 C128.311682,22.9557731 127.567482,20.3781538 124.643839,20.3781538 C122.01256,20.3781538 120.816525,22.7963328 120.603896,24.5767502 L128.258525,24.5767502 Z" id="path42"></path>
                <path d="M141.251974,13.7312354 C143.049442,13.4678534 144.84691,13.3098241 146.696479,13.3098241 C150.343516,13.3098241 152.948542,14.1526467 154.64181,15.8119537 C156.387177,17.4185842 157.403138,19.7626845 157.403138,22.9232692 C157.403138,26.1892067 156.387177,28.7966891 154.537609,30.6667017 C152.68804,32.5367143 149.666209,33.5639043 145.862871,33.5639043 C144.325905,33.5639043 142.736839,33.5112279 141.199873,33.3005223 L141.251974,13.7312354 L141.251974,13.7312354 Z M143.857,31.3251568 C144.690609,31.4305097 145.550267,31.4831861 146.383876,31.4831861 C151.828381,31.4831861 154.798111,28.4279542 154.798111,23.028622 C154.850212,18.3140832 152.219135,15.3905424 146.852781,15.3905424 C145.83682,15.3905424 144.84691,15.4958952 143.83095,15.6539244 L143.857,31.3251568 Z" id="path44"></path>
                <path d="M163.190018,15.4393219 C163.190018,16.2750375 162.611851,16.9801726 161.816871,17.0324048 L161.72051,17.0324048 C160.94962,17.0324048 160.299182,16.4056181 160.299182,15.5960186 L160.299182,15.4915541 C160.251002,14.6558385 160.877349,13.8984712 161.672329,13.8984712 L161.76869,13.8984712 C162.515489,13.7940068 163.190018,14.5252579 163.190018,15.4393219 C163.190018,15.3870897 163.190018,15.3870897 163.190018,15.4393219 Z M160.515995,33.5639043 L160.515995,19.4089711 L162.852754,19.4089711 L162.852754,33.5116721 L160.515995,33.5116721 L160.515995,33.5639043 Z" id="path46"></path>
                <path d="M167.929748,23.2617901 C167.929748,21.6106423 167.874635,20.169164 167.819522,18.8325205 L170.216943,18.8325205 L170.32717,21.6106423 L170.437396,21.6106423 C171.153867,19.6974075 172.834818,18.5180162 174.625995,18.5180162 C174.901561,18.5180162 175.122013,18.5180162 175.342466,18.5704336 L175.342466,21.0078423 C175.0669,20.9554249 174.791334,20.9030075 174.460655,20.9030075 C172.504139,20.9030075 171.20898,22.2920684 170.823188,24.2053032 C170.712962,24.5722249 170.712962,24.9915641 170.712962,25.3846945 L170.712962,32.9852163 L168.039974,32.9852163 L167.929748,23.2617901 Z" id="path48"></path>
                <path d="M178.472697,26.4634613 C178.525854,30.0242962 180.785032,31.4858329 183.389733,31.4858329 C185.276811,31.4858329 186.472847,31.1669522 187.376518,30.7417779 L187.801776,32.6284889 C186.286797,33.2662504 184.665504,33.6117045 182.991054,33.5585577 C178.579011,33.5585577 175.921154,30.5823375 175.921154,26.2774475 C175.921154,21.9194107 178.446118,18.5180162 182.725268,18.5180162 C187.429676,18.5180162 188.65229,22.610319 188.65229,25.2676585 C188.65229,25.6928328 188.599133,26.0648604 188.545976,26.5166081 L178.472697,26.5166081 L178.472697,26.4634613 L178.472697,26.4634613 Z M186.127326,24.5767502 C186.180483,22.9557731 185.436283,20.3781538 182.51264,20.3781538 C179.881361,20.3781538 178.685325,22.7963328 178.472697,24.5767502 L186.127326,24.5767502 L186.127326,24.5767502 Z" id="path50"></path>
                <path d="M201.962114,32.7102369 C200.63086,33.2971333 199.190932,33.5639043 197.723836,33.5639043 C193.322547,33.5639043 190.388354,30.5760684 190.388354,26.2010229 C190.388354,21.8259774 193.539894,18.5180162 198.267205,18.5180162 C199.544122,18.5180162 200.793871,18.731433 201.962114,19.2649752 L201.364408,21.2657582 C200.413512,20.7855703 199.326774,20.5721534 198.212868,20.5721534 C194.84398,20.5721534 193.023694,23.0531243 193.023694,26.0409603 C193.023694,29.4022757 195.224338,31.4564129 198.158531,31.4564129 C199.272437,31.4564129 200.413512,31.2429961 201.418745,30.7628081 L201.962114,32.7102369 L201.962114,32.7102369 Z" id="path52"></path>
                <path d="M208.592689,15.0458882 L208.592689,19.1251617 L212.378498,19.1251617 L212.378498,21.0340525 L208.592689,21.0340525 L208.592689,28.6696158 C208.592689,30.4216115 209.079436,31.4414299 210.566718,31.4414299 C211.053465,31.4414299 211.621336,31.3891315 212.108083,31.2845348 L212.216249,33.1934256 C211.729502,33.4549175 210.891216,33.5595142 209.809556,33.5595142 C208.700855,33.6118126 207.673278,33.1934256 206.943158,32.4873975 C206.240079,31.6506234 205.942622,30.4739099 205.942622,28.7742126 L205.942622,21.0340525 L203.698178,21.0340525 L203.698178,19.1251617 L205.942622,19.1251617 L205.942622,15.6734687 L208.592689,15.0458882 L208.592689,15.0458882 Z" id="path54"></path>
                <path d="M228.581762,26.0143774 C228.581762,31.3043628 224.75587,33.5639043 221.454073,33.5639043 C217.733,33.5639043 214.69325,30.7461232 214.69325,26.0675431 C214.69325,21.2560488 217.942638,18.5180162 221.76853,18.5180162 C225.75165,18.5180162 228.581762,21.388963 228.581762,26.0143774 Z M217.339929,26.0675431 C217.339929,28.9916556 218.78119,31.5701912 221.637506,31.5701912 C224.467618,31.5701912 225.987493,28.9916556 225.987493,26.0143774 C225.987493,23.4890075 224.80828,20.4053979 221.637506,20.4053979 C218.466733,20.4053979 217.339929,23.4890075 217.339929,26.0675431 Z" id="path56"></path>
                <path d="M231.585429,23.2617901 C231.585429,21.6106423 231.530315,20.169164 231.475202,18.8325205 L233.872624,18.8325205 L233.98285,21.6106423 L234.093077,21.6106423 C234.809547,19.6974075 236.490498,18.5180162 238.281676,18.5180162 C238.557241,18.5180162 238.777694,18.5180162 238.998146,18.5704336 L238.998146,21.0078423 C238.722581,20.9554249 238.447015,20.9030075 238.116336,20.9030075 C236.15982,20.9030075 234.864661,22.2920684 234.478869,24.2053032 C234.368642,24.5722249 234.368642,24.9915641 234.368642,25.3846945 L234.368642,32.9852163 L231.695655,32.9852163 L231.585429,23.2617901 Z" id="path58"></path>
                <path d="M243.511457,19.0967042 L246.603109,27.742596 C246.917515,28.6912048 247.284321,29.8295354 247.520125,30.7781442 L247.572526,30.7781442 C247.83453,29.9108447 248.096534,28.7996173 248.489541,27.742596 L251.319189,19.0967042 L254.044035,19.0967042 L250.166369,29.5585043 C248.306138,34.5725795 247.074717,37.2015811 245.319288,38.8006645 C244.402272,39.6137578 243.354255,40.1829231 242.175235,40.5081604 L241.546424,38.2586023 C242.384838,37.9875713 243.144651,37.5539215 243.825862,36.93055 C244.742878,36.1174567 245.47649,35.1146417 245.948098,33.949208 C246.0529,33.7323831 246.157702,33.5155582 246.157702,33.2987334 C246.157702,33.0277023 246.0529,32.8108774 245.948098,32.5940525 L240.73421,19.1238073 L243.511457,19.1238073 L243.511457,19.0967042 Z" id="path60"></path>
            </g>
        </g>
    </g>
</svg>