<?xml version="1.0" encoding="UTF-8"?>
<svg width="116px" height="42px" viewBox="0 0 116 42" version="1.1" xmlns="http://www.w3.org/2000/svg" xmlns:xlink="http://www.w3.org/1999/xlink">
    <title>auth0-ar21</title>
    <g id="Website" stroke="none" stroke-width="1" fill="none" fill-rule="evenodd" opacity="0.75">
        <g id="Enterprise" transform="translate(-676.000000, -2992.000000)" fill-rule="nonzero">
            <g id="auth0-ar21" transform="translate(676.000000, 2992.000000)">
                <path d="M29.8877888,33.7953795 L25.7225083,21.1221122 L36.6215182,13.2910891 L23.1434983,13.2910891 L18.9782178,0.612541254 L32.4572937,0.612541254 L36.6267987,13.290033 C39.0410561,20.6405281 36.5507591,29.0048845 29.8677228,33.7932673 L29.8877888,33.7953795 Z M8.08343234,33.7953795 L18.9824422,41.6316832 L29.8877888,33.7953795 L18.9887789,25.9643564 L8.08343234,33.7953795 Z M1.34547855,13.2858086 C-1.20290429,21.0407921 1.75524752,29.2541254 8.08026403,33.7985479 L8.08026403,33.7953795 L12.2455446,21.1221122 L1.34653465,13.2858086 L14.8224422,13.290033 L18.9782178,0.612541254 L5.49174917,0.612541254 L1.34547855,13.2858086 Z" id="Shape" fill="#EB5424"></path>
                <path d="M108.456766,10.5135314 C106.285413,10.5135314 104.448845,11.5273927 103.144554,13.4410561 C101.850825,15.3452145 101.162244,18.0013201 101.162244,21.1221122 C101.162244,24.2429043 101.845545,26.8990099 103.144554,28.8031683 C104.447789,30.7178878 106.285413,31.7306931 108.456766,31.7306931 C110.628119,31.7306931 112.464686,30.7168317 113.768977,28.8031683 C115.062706,26.8990099 115.751287,24.2429043 115.751287,21.1221122 C115.751287,18.0013201 115.067987,15.3452145 113.768977,13.4410561 C112.465743,11.5263366 110.629175,10.5135314 108.456766,10.5135314 Z M108.456766,29.0935974 C107.41967,29.0935974 106.595908,28.5127393 105.946403,27.3151155 C105.161716,25.8714191 104.729769,23.6715512 104.729769,21.1115512 C104.729769,18.5515512 105.16066,16.3527393 105.946403,14.9079868 C106.595908,13.7114191 107.42495,13.129505 108.456766,13.129505 C109.488581,13.129505 110.317624,13.710363 110.967129,14.9079868 C111.751815,16.3516832 112.183762,18.5515512 112.183762,21.1115512 C112.183762,23.6715512 111.752871,25.870363 110.967129,27.3151155 C110.312343,28.5169637 109.493861,29.0935974 108.456766,29.0935974 Z M61.3808581,18.2389439 L61.3808581,27.3594719 C61.3808581,29.7631683 63.3578878,31.7211881 65.7911551,31.7211881 C67.9033663,31.7211881 69.5192079,30.6788119 70.1042904,30.2426403 C70.1380858,30.2183498 70.1813861,30.2088449 70.209901,30.2236304 C70.2384158,30.2384158 70.2774917,30.2658746 70.2922772,30.3060066 L70.6460726,31.4592739 L73.2937294,31.4592739 L73.2937294,18.2389439 L69.9163036,18.2389439 L69.9163036,28.1156436 C69.9163036,28.1642244 69.8920132,28.2033003 69.8487129,28.2275908 C69.2150495,28.5518152 67.9477228,29.0935974 66.7036304,29.0935974 C65.6327393,29.0935974 64.760396,28.2307591 64.760396,27.1746535 L64.760396,18.24 L61.3808581,18.2389439 Z M95.2026403,31.440264 L98.580066,31.440264 L98.580066,22.319736 C98.580066,19.9160396 96.6030363,17.9580198 94.169769,17.9580198 C92.3817822,17.9580198 90.9423102,18.7184158 90.2442244,19.1746535 C90.2049414,19.2006012 90.154512,19.2026347 90.1132673,19.179934 C90.071738,19.1580213 90.0457282,19.1149426 90.0456766,19.0679868 L90.0456766,10.7807261 L86.6682508,10.7807261 L86.6682508,31.4444884 L90.0456766,31.4444884 L90.0456766,21.5635644 C90.0456766,21.5149835 90.069967,21.4759076 90.1132673,21.4516172 C90.7469307,21.1273927 92.0142574,20.5856106 93.2583498,20.5856106 C93.7864026,20.5856106 94.2658746,20.7841584 94.6312871,21.1474587 C94.9966997,21.5107591 95.1984158,21.990231 95.1984158,22.5045545 L95.2026403,31.440264 Z M75.7259406,20.8792079 L77.7811221,20.8792079 C77.8487129,20.8792079 77.9078548,20.9372937 77.9078548,21.0059406 L77.9078548,28.2751155 C77.9078548,30.1845545 79.4782838,31.7391419 81.4120132,31.7391419 C82.1143234,31.7391419 82.8029043,31.6377558 83.4671947,31.4434323 L83.4671947,29.0587459 L82.3181518,29.1115512 C81.7478548,29.1115512 81.2863366,28.6510891 81.2863366,28.0892409 L81.2863366,20.999604 C81.2863366,20.9320132 81.3444224,20.8728713 81.4130693,20.8728713 L83.4682508,20.8728713 L83.4682508,18.2389439 L81.4130693,18.2389439 C81.3454785,18.2389439 81.2863366,18.1808581 81.2863366,18.1122112 L81.2863366,13.750495 L77.9089109,13.750495 L77.9089109,18.1122112 C77.9089109,18.179802 77.8508251,18.2389439 77.7821782,18.2389439 L75.7269967,18.2389439 L75.7259406,20.8792079 Z M55.9735974,31.4487129 L59.4872607,31.4487129 L54.1433663,13.0238944 C53.7166997,11.5453465 52.3310891,10.5135314 50.7638284,10.5135314 C49.1965677,10.5135314 47.8225743,11.5453465 47.3842904,13.0238944 L42.040396,31.4487129 L45.5540594,31.4487129 L47.100198,26.1132673 C47.1149835,26.060462 47.1635644,26.0213861 47.2216502,26.0213861 L54.2838284,26.0213861 C54.3402522,26.0215617 54.3897642,26.0590186 54.4052805,26.1132673 L55.9735974,31.4487129 Z M53.4685149,23.3990759 L48.0844884,23.3990759 C48.0454125,23.3990759 48.0073927,23.380066 47.9831023,23.350495 C47.9588119,23.3209241 47.9535314,23.2765677 47.9640924,23.2448845 L50.6571617,13.9511551 C50.6719472,13.8983498 50.7205281,13.8592739 50.7786139,13.8592739 C50.8350377,13.8594495 50.8845497,13.8969064 50.900066,13.9511551 L53.5931353,23.2448845 C53.6036964,23.2839604 53.5984158,23.3219802 53.5741254,23.350495 C53.549835,23.3790099 53.5160396,23.3990759 53.4769637,23.3990759 L53.4685149,23.3990759 Z" id="Shape" fill="#21264C"></path>
            </g>
        </g>
    </g>
</svg>