<svg xmlns="http://www.w3.org/2000/svg" xmlns:xlink="http://www.w3.org/1999/xlink" width="170" height="140" viewBox="0 0 170 140"><defs><clipPath id="b"><rect width="170" height="140"/></clipPath></defs><g id="a" clip-path="url(#b)"><path d="M5.38,1.211A5.14,5.14,0,0,0,0,6.066a4.45,4.45,0,0,0,.069.858L22.634,133.811A7.1,7.1,0,0,0,29.7,139.4h108.26a5.24,5.24,0,0,0,5.325-4.138L165.9,6.969a5.235,5.235,0,0,0-5.311-5.707Zm95.031,91.7H65.848L56.5,47.666h52.287Z" transform="translate(4 0.178)" fill="#fff" opacity="0.75"/><path d="M5.38,1.211A5.14,5.14,0,0,0,0,6.066a4.45,4.45,0,0,0,.069.858L22.634,133.811A7.1,7.1,0,0,0,29.7,139.4h108.26a5.24,5.24,0,0,0,5.325-4.138L165.9,6.969a5.235,5.235,0,0,0-5.311-5.707Zm95.031,91.7H65.848L56.5,47.666h52.287Z" transform="translate(4 0.178)" fill="#fff" opacity="0.75"/><path d="M5.38,1.211A5.14,5.14,0,0,0,0,6.066a4.45,4.45,0,0,0,.069.858L22.634,133.811A7.1,7.1,0,0,0,29.7,139.4h108.26a5.24,5.24,0,0,0,5.325-4.138L165.9,6.969a5.235,5.235,0,0,0-5.311-5.707Zm95.031,91.7H65.848L56.5,47.666h52.287Z" transform="translate(4 0.178)" fill="#fff"/></g></svg>