<?xml version="1.0" encoding="UTF-8"?>
<svg width="112px" height="93px" viewBox="0 0 112 93" version="1.1" xmlns="http://www.w3.org/2000/svg" xmlns:xlink="http://www.w3.org/1999/xlink">
    <title>carbon-cloud</title>
    <g id="Website" stroke="none" stroke-width="1" fill="none" fill-rule="evenodd">
        <g id="Enterprise" transform="translate(-918.000000, -2608.000000)" fill-rule="nonzero">
            <g id="carbon-cloud" transform="translate(918.000000, 2608.000000)">
                <g id="Icon" transform="translate(0.000000, 11.851852)" fill="#0B6FCC">
                    <path d="M55.6464746,7.60425252 C57.4101519,7.60425252 59.1695063,7.77909421 60.8986469,8.12641358 C72.0784565,10.2675773 80.8268158,19.0021596 82.9855967,30.1785808 L83.8899442,34.8742315 L88.585595,35.7090139 C98.4211429,37.4006017 105.303838,46.368836 104.393731,56.3072049 C103.483624,66.2455739 95.0865313,73.8145603 85.1073352,73.691611 L26.0812662,73.691611 C16.10207,73.8145603 7.70497745,66.2455739 6.7948704,56.3072049 C5.88476335,46.368836 12.7674584,37.4006017 22.6030063,35.7090139 L27.2638745,34.8742315 L28.168222,30.1785808 C30.6973181,17.0191621 42.2464279,7.53134911 55.6464746,7.60425252 M55.6464746,0.648142819 C38.9471683,0.634279432 24.5946455,12.4900765 21.4551806,28.8916247 C8.17851412,31.2953922 -1.07442355,43.4266177 0.117811243,56.8663553 C1.31004603,70.3060929 12.5539995,80.6190458 26.0464836,80.6481307 L85.1769004,80.6481307 C98.6693844,80.6190458 109.913338,70.3060929 111.105573,56.8663553 C112.297807,43.4266177 103.04487,31.2953922 89.7682033,28.8916247 C87.0876119,14.8983487 76.1440964,3.95483314 62.1508204,1.27424175 C60.0063864,0.867266392 57.8291644,0.65769422 55.6464746,0.648142819 Z" id="Icon-Shape"></path>
                </g>
                <rect id="ViewBox" x="0" y="0" width="80" height="80"></rect>
            </g>
        </g>
    </g>
</svg>