<?xml version="1.0" encoding="UTF-8"?>
<svg width="51px" height="48px" viewBox="0 0 51 48" version="1.1" xmlns="http://www.w3.org/2000/svg" xmlns:xlink="http://www.w3.org/1999/xlink">
    <title>Git_icon</title>
    <g id="Website" stroke="none" stroke-width="1" fill="none" fill-rule="evenodd">
        <g id="Use-Cases-/-API-Design" transform="translate(-1136.000000, -671.000000)" fill="#000000" fill-rule="nonzero">
            <g id="Group-10" transform="translate(150.000000, 636.000000)">
                <g id="Group-9" transform="translate(957.830123, 35.000000)">
                    <g id="Git_icon" transform="translate(29.025394, 0.000000)">
                        <path d="M47.136863,21.861884 L26.1610041,0.905421362 C24.9532413,-0.301807121 22.994156,-0.301807121 21.7853476,0.905421362 L17.4300818,5.25792146 L22.9549429,10.7779489 C24.2390405,10.3443705 25.7113608,10.6353382 26.7345607,11.6581652 C27.7640346,12.6872609 28.0526429,14.1708303 27.6077052,15.4585059 L32.9333638,20.7789828 C34.2221669,20.3349567 35.7080811,20.6222677 36.7370322,21.6518858 C38.1748451,23.0884406 38.1748451,25.4161819 36.7370322,26.8537816 C35.2981738,28.2908588 32.9683942,28.2908588 31.5290128,26.8537816 C30.4477776,25.7724475 30.180083,24.1844014 30.7285432,22.853368 L25.7615535,17.8912463 L25.7615535,30.9492689 C26.111857,31.1227003 26.4428154,31.3535938 26.7345607,31.6450839 C28.1723735,33.0816388 28.1723735,35.4093801 26.7345607,36.8475021 C25.2967479,38.2835346 22.9653997,38.2835346 21.5286326,36.8475021 C20.0908198,35.4088577 20.0908198,33.0811164 21.5286326,31.6450839 C21.8841645,31.2903854 22.2956404,31.0218803 22.7348268,30.8421803 L22.7348268,17.6624423 C22.2956404,17.4827423 21.8852102,17.216849 21.5286326,16.8595387 C20.4395548,15.771936 20.1776114,14.174487 20.7360056,12.8382298 L15.2895707,7.39551512 L0.906214201,21.7647206 C-0.3020714,22.9729939 -0.3020714,24.9303652 0.906214201,26.1375937 L21.8831188,47.0945786 C23.0908816,48.3018071 25.0494441,48.3018071 26.2587753,47.0945786 L47.136863,26.234757 C48.3451486,25.0275285 48.3451486,23.0691124 47.136863,21.861884 Z" id="Path"></path>
                    </g>
                </g>
            </g>
        </g>
    </g>
</svg>