<svg xmlns="http://www.w3.org/2000/svg" xmlns:xlink="http://www.w3.org/1999/xlink" width="170" height="140" viewBox="0 0 170 140"><defs><clipPath id="b"><rect width="170" height="140"/></clipPath></defs><g id="a" clip-path="url(#b)"><path d="M29.648,5.421C16.579,5.393-.925,13.7.039,34.535,1.548,67.077,34.89,70.094,48.214,70.357c1.459,6.106,17.142,27.159,28.752,28.264h50.86c30.5-2.026,53.34-92.243,36.41-92.583-28,1.318-44.6,1.983-58.829,2.1V36.291l-4.434-1.962-.028-26.181C84.61,8.141,70.23,7.383,42.937,6.037c-3.414-.021-8.174-.6-13.289-.616ZM31.5,16.932h1.558c1.856,16.682,4.874,26.436,10.98,41.34C28.451,56.43,15.191,51.9,12.754,35,11.493,26.254,15.743,17.123,31.5,16.925Zm60.614,16.4a7.815,7.815,0,0,1,3.166.68l5.306,2.288-3.8,6.935a5.3,5.3,0,0,0-1.707.269A3.991,3.991,0,0,0,93,50.147L86.438,62.09a5.29,5.29,0,0,0-1.573.269A4.12,4.12,0,0,0,82,67.771a4.941,4.941,0,0,0,6.092,2.55,4.6,4.6,0,0,0,2.7-2.182A3.8,3.8,0,0,0,90.95,64.9a4.2,4.2,0,0,0-1.119-1.558L96.22,51.712A5.323,5.323,0,0,0,98.3,51.5a4.919,4.919,0,0,0,1.509-.793c2.465,1.034,4.484,1.877,5.936,2.593,2.182,1.077,2.954,1.792,3.188,2.586s-.021,2.281-1.254,4.916c-.921,1.962-2.444,4.746-4.243,8.026a5.3,5.3,0,0,0-1.778.269,4.12,4.12,0,0,0-2.869,5.412,4.941,4.941,0,0,0,6.092,2.55,4.119,4.119,0,0,0,2.862-5.412,4.168,4.168,0,0,0-.97-1.431c1.778-3.244,3.308-6.035,4.293-8.132,1.332-2.848,2.026-4.966,1.417-7.013s-2.479-3.379-4.959-4.6c-1.629-.8-3.662-1.65-6.092-2.671a3.8,3.8,0,0,0-.269-1.693,4.183,4.183,0,0,0-1.027-1.48l3.74-6.822,20.713,8.947c3.74,1.622,5.284,5.6,3.471,8.925L113.816,81.74c-1.82,3.322-6.29,4.7-10.03,3.081L74.48,72.156c-3.74-1.615-5.291-5.6-3.471-8.925L85.248,37.17a7.575,7.575,0,0,1,6.411-3.754h.453Z" transform="translate(-0.001 17.579)" fill="#fff"/></g></svg>