<svg xmlns="http://www.w3.org/2000/svg" xmlns:xlink="http://www.w3.org/1999/xlink" width="170" height="140" viewBox="0 0 170 140"><defs><clipPath id="b"><rect width="170" height="140"/></clipPath></defs><g id="a" clip-path="url(#b)"><path d="M71.777.3a71.78,71.78,0,0,0-22.7,139.876c3.589.676,4.9-1.543,4.9-3.451,0-1.7-.06-6.221-.09-12.2-19.966,4.331-24.177-9.63-24.177-9.63-3.266-8.284-7.985-10.5-7.985-10.5-6.5-4.45.5-4.36.5-4.36,7.208.5,10.994,7.393,10.994,7.393,6.4,10.976,16.8,7.806,20.905,5.969.646-4.642,2.494-7.806,4.546-9.6C42.737,102,25.983,95.827,25.983,68.324a27.691,27.691,0,0,1,7.387-19.26c-.807-1.812-3.23-9.11.628-19,0,0,6.011-1.926,19.739,7.357a67.672,67.672,0,0,1,35.889,0c13.638-9.283,19.649-7.357,19.649-7.357,3.858,9.887,1.436,17.185.718,19a27.8,27.8,0,0,1,7.357,19.26c0,27.574-16.778,33.646-32.748,35.41,2.512,2.153,4.845,6.556,4.845,13.279,0,9.606-.09,17.322-.09,19.655,0,1.884,1.256,4.127,4.935,3.409A71.689,71.689,0,0,0,71.777.3" transform="translate(13 -0.297)" fill="#fff"/></g></svg>