<?xml version="1.0" encoding="UTF-8"?>
<svg width="70px" height="64px" viewBox="0 0 70 64" version="1.1" xmlns="http://www.w3.org/2000/svg" xmlns:xlink="http://www.w3.org/1999/xlink">
    <title>gitlab-2</title>
    <g id="Website" stroke="none" stroke-width="1" fill="none" fill-rule="evenodd">
        <g id="Home-Page" transform="translate(-757.000000, -3891.000000)" fill-rule="nonzero">
            <g id="gitlab-2" transform="translate(757.000000, 3891.000000)">
                <polygon id="Path" fill="#E24329" points="34.74495 63.9838727 47.5338293 24.6240769 21.9557993 24.6240769 34.7446785 63.9838727"></polygon>
                <polygon id="Path" fill="#FC6D26" points="34.74495 63.9836012 21.9557993 24.6238054 4.03279757 24.6238054"></polygon>
                <path d="M4.03279757,24.6238054 L0.146503041,36.5851434 C-0.20798232,37.6760128 0.180252228,38.8710781 1.10816681,39.545341 L34.74495,63.9838727 L4.03252606,24.6238054 L4.03279757,24.6238054 Z" id="Path" fill="#FCA326"></path>
                <path d="M4.03279757,24.6240769 L21.9557993,24.6240769 L14.2535295,0.917788879 C13.8571351,-0.302074283 12.1314618,-0.30180278 11.7353388,0.917788879 L4.03279757,24.6240769 Z" id="Path" fill="#E24329"></path>
                <polygon id="Path" fill="#FC6D26" points="34.74495 63.9836012 47.5338293 24.6238054 65.4571025 24.6238054 34.7446785 63.9836012"></polygon>
                <path d="M65.4571025,24.6238054 L69.343397,36.5851434 C69.6978251,37.6760716 69.3094764,38.8711508 68.3814618,39.545341 L34.74495,63.9838727 L65.4571025,24.6238054 L65.4571025,24.6238054 Z" id="Path" fill="#FCA326"></path>
                <path d="M65.4571025,24.6240769 L47.5338293,24.6240769 L55.2363705,0.917788879 C55.632765,-0.302074283 57.3584383,-0.30180278 57.7545613,0.917788879 L65.4571025,24.6240769 Z" id="Path" fill="#E24329"></path>
            </g>
        </g>
    </g>
</svg>