<svg xmlns="http://www.w3.org/2000/svg" xmlns:xlink="http://www.w3.org/1999/xlink" width="255" height="236" viewBox="0 0 255 236"><defs><clipPath id="b"><rect width="255" height="236"/></clipPath></defs><g id="a" clip-path="url(#b)"><path d="M4.844.9" transform="translate(87.156 70.096)"/><path d="M4.844.9" transform="translate(221.156 113.096)"/><g transform="translate(1.836 1.858)"><path d="M128.075,236.075l47.1-144.97H80.97l47.1,144.97Z" transform="translate(-1.237 -2.279)" fill="none" stroke="#fff" stroke-width="4"/><path d="M128.075,236.074,80.97,91.1H14.956Z" transform="translate(0 -2.279)" fill="none" stroke="#fff" stroke-width="4"/><path d="M14.956,91.1.642,135.16a9.752,9.752,0,0,0,3.542,10.9l123.891,90.012L14.955,91.105Z" transform="translate(0 -2.279)" fill="none" stroke="#fff" stroke-width="4"/><path d="M14.956,91.105H80.97L52.6,3.79a4.876,4.876,0,0,0-9.275,0L14.956,91.105Z" fill="none" stroke="#fff" stroke-width="4"/><path d="M128.075,236.074l47.1-144.97h66.015l-113.12,144.97Z" transform="translate(-2.474 -2.279)" fill="none" stroke="#fff" stroke-width="4"/><path d="M241.194,91.1l14.314,44.056a9.752,9.752,0,0,1-3.543,10.9l-123.89,90.012L241.194,91.105Z" transform="translate(-2.474 -2.279)" fill="none" stroke="#fff" stroke-width="4"/><path d="M241.194,91.105H175.179L203.549,3.79a4.876,4.876,0,0,1,9.275,0l28.37,87.315Z" transform="translate(-2.474)" fill="none" stroke="#fff" stroke-width="4"/></g></g></svg>