<?xml version="1.0" encoding="UTF-8"?>
<svg width="126px" height="43px" viewBox="0 0 126 43" version="1.1" xmlns="http://www.w3.org/2000/svg" xmlns:xlink="http://www.w3.org/1999/xlink">
    <title>Okta_logo</title>
    <g id="Website" stroke="none" stroke-width="1" fill="none" fill-rule="evenodd" opacity="0.75">
        <g id="Enterprise" transform="translate(-434.000000, -2991.000000)" fill="#007DC1" fill-rule="nonzero">
            <g id="Okta_logo" transform="translate(434.000000, 2991.000000)">
                <g id="Group">
                    <path d="M15.6662785,10.5767021 C7.00777863,10.5767021 0,17.6174062 0,26.3165872 C0,35.0157682 7.00777863,42.0564723 15.6662785,42.0564723 C24.3247783,42.0564723 31.3325569,35.0157682 31.3325569,26.3165872 C31.3325569,17.6174062 24.3247783,10.5767021 15.6662785,10.5767021 Z M15.6662785,34.2021758 C11.3370285,34.2021758 7.81756639,30.6661777 7.81756639,26.3165872 C7.81756639,21.9669967 11.3370285,18.4309987 15.6662785,18.4309987 C19.9955284,18.4309987 23.5149905,21.9669967 23.5149905,26.3165872 C23.5149905,30.6661777 19.9955284,34.2021758 15.6662785,34.2021758 Z" id="Shape"></path>
                    <path d="M43.1990621,31.6049383 C43.1990621,30.3532575 44.6940548,29.7587092 45.566134,30.6348857 C49.49049,34.640264 55.968792,41.524508 55.9999377,41.5558 C56.0933748,41.6496761 56.1868118,41.8061362 56.56056,41.9313042 C56.7162884,41.9938883 56.9654539,41.9938883 57.245765,41.9938883 L64.315835,41.9938883 C65.592808,41.9938883 65.9665562,40.5231634 65.3747882,39.772155 L53.6640115,27.724728 L53.0410978,27.0988877 C51.7018335,25.5029947 51.8575619,24.8771544 53.3837004,23.2499694 L62.6651138,12.8297274 C63.2568818,12.078719 62.8831336,10.6392862 61.5750149,10.6392862 L55.1590043,10.6392862 C54.9098388,10.6392862 54.7229647,10.6392862 54.5360906,10.7018702 C54.1623424,10.8270383 54.006614,10.9522063 53.913177,11.0773744 C53.8820313,11.1086664 48.7429936,16.6786456 45.566134,20.0894756 C44.6940548,21.0282362 43.1367707,20.4023958 43.1367707,19.1194231 L43.1367707,1.25168072 C43.1367707,0.344212199 42.3892743,0 41.7975063,0 L36.5650316,0 C35.6618068,0 35.2257673,0.594548344 35.2257673,1.12651265 L35.2257673,40.7422076 C35.2257673,41.6496761 35.9732637,41.9000122 36.5961773,41.9000122 L41.828652,41.9000122 C42.6384398,41.9000122 43.1679164,41.3054639 43.1679164,40.7109155 L43.1679164,40.3041193 L43.1679164,31.6049383 L43.1990621,31.6049383 Z" id="Path"></path>
                    <path d="M85.9309389,40.5544554 L85.3703166,35.2973964 C85.3080252,34.57768 84.6228202,34.0770077 83.9064695,34.2021758 C83.5015756,34.2647598 83.0966818,34.2960518 82.6917879,34.2960518 C78.5182664,34.2960518 75.123387,31.0103899 74.8742215,26.8485515 C74.8742215,26.7233834 74.8742215,26.5669234 74.8742215,26.4104633 L74.8742215,19.9643075 C74.8742215,19.1194231 75.4971352,18.4309987 76.3380686,18.4309987 L83.3458472,18.4309987 C83.8441781,18.4309987 84.5916745,17.9929104 84.5916745,17.0854419 L84.5916745,12.110011 C84.5916745,11.1399584 83.9687609,10.6392862 83.4081386,10.6392862 L76.3380686,10.6392862 C75.5282808,10.6392862 74.8742215,10.0447378 74.8430758,9.23114534 L74.8430758,1.25168072 C74.8430758,0.751008434 74.4693276,0 73.5038115,0 L68.3024824,0 C67.6484231,0 67.0255094,0.406796235 67.0255094,1.22038871 C67.0255094,1.22038871 67.0255094,26.7233834 67.0255094,26.8485515 C67.2435292,35.3599804 74.1890165,42.1503484 82.6917879,42.1503484 C83.4081386,42.1503484 84.0933436,42.0877643 84.7785486,41.9938883 C85.526045,41.9000122 86.0243759,41.2741719 85.9309389,40.5544554 Z" id="Path"></path>
                </g>
                <path d="M124.344974,33.6887878 C119.869215,33.6887878 119.175787,32.0951512 119.175787,26.1268256 C119.175787,26.0955779 119.175787,26.0955779 119.175787,26.0643301 L119.175787,11.7216001 C119.175787,11.2216357 118.797554,10.3779457 117.788932,10.3779457 L112.493668,10.3779457 C111.83176,10.3779457 111.106813,10.9091579 111.106813,11.7216001 L111.106813,12.3778035 C108.805895,11.0653968 106.126743,10.3154501 103.289994,10.3154501 C94.5275923,10.3154501 87.4357203,17.3462001 87.4357203,26.0330823 C87.4357203,34.7199645 94.5275923,41.7507145 103.289994,41.7507145 C107.229923,41.7507145 110.823138,40.3133167 113.596848,37.9697334 C115.078261,40.2195734 117.473738,41.7194667 121.22455,41.7507145 C121.854939,41.7507145 125.259038,41.8757056 125.259038,40.2820689 L125.259038,34.6887167 C125.259038,34.2200001 124.880804,33.6887878 124.344974,33.6887878 Z M103.321514,33.9387701 C98.9403126,33.9387701 95.3786169,30.4077712 95.3786169,26.0643301 C95.3786169,21.720889 98.9403126,18.1898901 103.321514,18.1898901 C107.702714,18.1898901 111.26441,21.720889 111.26441,26.0643301 C111.232891,30.4077712 107.671195,33.9387701 103.321514,33.9387701 Z" id="Shape"></path>
            </g>
        </g>
    </g>
</svg>