<?xml version="1.0" encoding="UTF-8"?>
<svg width="62px" height="80px" viewBox="0 0 62 80" version="1.1" xmlns="http://www.w3.org/2000/svg" xmlns:xlink="http://www.w3.org/1999/xlink">
    <title>Icon</title>
    <g id="Website" stroke="none" stroke-width="1" fill="none" fill-rule="evenodd">
        <g id="Enterprise" transform="translate(-379.000000, -2629.000000)" fill-rule="nonzero">
            <g id="Icon" transform="translate(379.000000, 2629.000000)">
                <path d="M55.1688312,0 L6.12987013,0 C2.74443634,0 0,2.75517077 0,6.15384615 L0,73.8461538 C0,77.2448292 2.74443634,80 6.12987013,80 L55.1688312,80 C58.554265,80 61.2987013,77.2448292 61.2987013,73.8461538 L61.2987013,6.15384615 C61.2987013,2.75517077 58.554265,0 55.1688312,0 Z M55.1688312,6.15384615 L55.1688312,24.6153846 L6.12987013,24.6153846 L6.12987013,6.15384615 L55.1688312,6.15384615 Z M6.12987013,49.2307692 L6.12987013,30.7692308 L55.1688312,30.7692308 L55.1688312,49.2307692 L6.12987013,49.2307692 Z M6.12987013,73.8461538 L6.12987013,55.3846154 L55.1688312,55.3846154 L55.1688312,73.8461538 L6.12987013,73.8461538 Z" id="Icon-Shape" fill="#0B6FCC"></path>
                <circle id="Icon-Oval" fill="#D271E8" cx="15.5844156" cy="15.5844156" r="3.11688312"></circle>
                <circle id="Icon-Oval" fill="#D271E8" cx="15.5844156" cy="40.5194805" r="3.11688312"></circle>
                <circle id="Icon-Oval" fill="#D271E8" cx="15.5844156" cy="64.4155844" r="3.11688312"></circle>
            </g>
        </g>
    </g>
</svg>