<?xml version="1.0" encoding="UTF-8"?>
<svg width="168px" height="42px" viewBox="0 0 168 42" version="1.1" xmlns="http://www.w3.org/2000/svg" xmlns:xlink="http://www.w3.org/1999/xlink">
    <title>OneLogin_logo</title>
    <g id="Website" stroke="none" stroke-width="1" fill="none" fill-rule="evenodd" opacity="0.75">
        <g id="Enterprise" transform="translate(-1072.000000, -2992.000000)" fill="#1C1F2A" fill-rule="nonzero">
            <g id="OneLogin_logo" transform="translate(1072.000000, 2992.000000)">
                <path d="M55.5042171,18.6578658 C55.8562523,16.3109644 57.9684635,13.3773377 61.9581958,13.3773377 C65.713238,13.3773377 67.8254492,16.0762743 68.1774844,18.6578658 L55.5042171,18.6578658 Z M50.3410341,20.5353869 C50.3410341,27.1067107 55.1521819,31.5658232 62.0755409,31.5658232 C66.6519985,31.5658232 69.7029703,29.336267 71.4631463,27.3414008 C71.6978365,27.1067107 71.6978365,26.8720205 71.4631463,26.6373304 L68.9988999,24.4077741 C68.7642098,24.173084 68.4121746,24.173084 68.2948295,24.4077741 C67.0040337,25.4638797 65.1265127,27.2240557 62.192886,27.2240557 C58.789879,27.2240557 56.3256326,25.1118445 55.7389072,22.412908 L72.7539421,22.412908 C73.2233223,22.412908 73.4580125,22.1782178 73.4580125,21.7088376 L73.4580125,20.6527319 C73.4580125,14.3160983 69.3509351,9.15291529 62.4275761,9.15291529 C54.8001467,9.15291529 50.3410341,14.1987532 50.3410341,20.5353869 L50.3410341,20.5353869 Z M76.3916392,30.7444078 C76.3916392,31.096443 76.6263293,31.3311331 76.9783645,31.3311331 L80.6160616,31.3311331 C80.9680968,31.3311331 81.2027869,31.096443 81.2027869,30.7444078 L81.2027869,0.469380271 C81.0854419,0.234690136 80.9680968,0 80.6160616,0 L76.8610194,0 C76.5089842,0 76.3916392,0.234690136 76.3916392,0.469380271 L76.3916392,30.7444078 Z M42.8309498,30.7444078 C42.8309498,31.096443 43.0656399,31.3311331 43.4176751,31.3311331 L46.9380271,31.3311331 C47.2900623,31.3311331 47.5247525,31.096443 47.5247525,30.7444078 L47.5247525,18.5405207 C47.5247525,13.3773377 44.4737807,9.15291529 38.019802,9.15291529 L37.9024569,9.15291529 C34.7341401,9.15291529 32.3872387,10.2090209 30.9790979,11.3824716 L30.9790979,10.2090209 C30.9790979,9.8569857 30.7444078,9.62229556 30.3923726,9.62229556 L26.7546755,9.62229556 C26.4026403,9.62229556 26.1679501,9.8569857 26.1679501,10.2090209 L26.1679501,30.6270627 C26.1679501,30.9790979 26.4026403,31.213788 26.7546755,31.213788 L30.3923726,31.213788 C30.7444078,31.213788 30.9790979,30.9790979 30.9790979,30.6270627 L30.9790979,19.3619362 C30.9790979,15.8415842 32.7392739,13.2599927 36.9636964,13.2599927 C41.1881188,13.2599927 42.8309498,15.8415842 42.8309498,19.3619362 L42.8309498,30.7444078 Z M111.477814,37.0810414 C113.120645,39.0759076 116.640997,41.4228089 121.56949,41.4228089 C128.492849,41.4228089 132.599927,37.1983865 132.599927,30.5097176 L132.599927,10.326366 C132.599927,9.97433077 132.365237,9.73964063 132.013201,9.73964063 L128.610194,9.73964063 C128.258159,9.73964063 128.023469,9.97433077 128.023469,10.326366 L128.023469,11.4998166 C126.497983,10.2090209 124.503117,9.27026036 121.217455,9.27026036 C114.998166,9.27026036 109.600293,13.846718 109.600293,20.5353869 C109.600293,27.3414008 114.880821,31.8005134 121.217455,31.8005134 C124.268427,31.8005134 126.263293,30.7444078 127.788779,29.5709571 L127.788779,30.9790979 C127.788779,34.7341401 125.559223,37.3157316 121.452145,37.3157316 C118.049138,37.3157316 115.819582,35.4382105 114.294096,34.0300697 C114.059406,33.7953795 113.590026,33.7953795 113.355336,34.0300697 L111.477814,36.1422809 C111.125779,36.376971 111.125779,36.7290062 111.477814,37.0810414 L111.477814,37.0810414 Z M18.3058306,20.4180418 C18.3058306,24.173084 15.489549,27.2240557 11.6171617,27.2240557 C7.74477448,27.2240557 5.16318298,23.9383938 5.16318298,20.4180418 L5.16318298,20.1833517 C5.16318298,16.5456546 7.86211955,13.4946828 11.6171617,13.4946828 C15.3722039,13.4946828 18.3058306,16.5456546 18.3058306,20.4180418 L18.3058306,20.4180418 Z M0,20.4180418 C0,26.5199853 4.92849285,31.6831683 11.6171617,31.6831683 C18.3058306,31.6831683 23.2343234,26.5199853 23.2343234,20.4180418 L23.2343234,20.1833517 C23.2343234,14.0814081 18.3058306,9.15291529 11.6171617,9.15291529 C4.92849285,9.15291529 0,14.0814081 0,20.4180418 L0,20.4180418 Z M102.207554,20.4180418 C102.207554,24.173084 99.3912725,27.2240557 95.5188852,27.2240557 C91.7638431,27.2240557 89.0649065,23.9383938 89.0649065,20.4180418 L89.0649065,20.1833517 C89.0649065,16.5456546 91.7638431,13.4946828 95.5188852,13.4946828 C99.3912725,13.4946828 102.207554,16.5456546 102.207554,20.4180418 L102.207554,20.4180418 Z M83.9017235,20.4180418 C83.9017235,26.5199853 88.8302164,31.6831683 95.5188852,31.6831683 C102.207554,31.6831683 107.136047,26.5199853 107.136047,20.4180418 L107.136047,20.1833517 C107.136047,14.0814081 102.207554,9.15291529 95.5188852,9.15291529 C88.8302164,9.15291529 83.9017235,14.0814081 83.9017235,20.4180418 L83.9017235,20.4180418 Z M137.059039,30.7444078 C137.059039,31.096443 137.293729,31.3311331 137.645765,31.3311331 L141.283462,31.3311331 C141.635497,31.3311331 141.870187,31.096443 141.870187,30.7444078 L141.870187,10.2090209 C141.870187,9.97433077 141.752842,9.73964063 141.400807,9.73964063 L137.645765,9.73964063 C137.293729,9.73964063 137.176384,9.97433077 137.176384,10.2090209 L137.176384,30.7444078 L137.059039,30.7444078 Z M137.059039,4.34176751 C137.059039,4.69380271 137.293729,4.92849285 137.645765,4.92849285 L141.283462,4.92849285 C141.635497,4.92849285 141.870187,4.69380271 141.870187,4.34176751 L141.870187,0.469380271 C141.870187,0.234690136 141.752842,0 141.400807,0 L137.645765,0 C137.293729,0 137.176384,0.234690136 137.176384,0.469380271 L137.176384,4.34176751 L137.059039,4.34176751 Z M162.757609,30.7444078 C162.757609,31.096443 162.992299,31.3311331 163.344334,31.3311331 L166.982032,31.3311331 C167.334067,31.3311331 167.568757,31.096443 167.568757,30.7444078 L167.568757,18.5405207 C167.568757,13.3773377 164.517785,9.15291529 158.063806,9.15291529 L157.946461,9.15291529 C154.778144,9.15291529 152.431243,10.2090209 151.023102,11.3824716 L151.023102,10.2090209 C151.023102,9.8569857 150.788412,9.62229556 150.436377,9.62229556 L146.79868,9.62229556 C146.446645,9.62229556 146.211955,9.8569857 146.211955,10.2090209 L146.211955,30.6270627 C146.211955,30.9790979 146.446645,31.213788 146.79868,31.213788 L150.436377,31.213788 C150.788412,31.213788 151.023102,30.9790979 151.023102,30.6270627 L151.023102,19.3619362 C151.023102,15.8415842 152.783278,13.2599927 157.007701,13.2599927 C161.232123,13.2599927 162.874954,15.8415842 162.874954,19.3619362 L162.874954,30.7444078 L162.757609,30.7444078 Z M127.906124,20.4180418 C127.906124,24.173084 125.089842,27.2240557 121.217455,27.2240557 C117.345068,27.2240557 114.763476,23.9383938 114.763476,20.4180418 L114.763476,20.1833517 C114.763476,16.5456546 117.462413,13.4946828 121.217455,13.4946828 C124.972497,13.4946828 127.906124,16.5456546 127.906124,20.4180418 Z" id="Shape"></path>
            </g>
        </g>
    </g>
</svg>