<?xml version="1.0" encoding="UTF-8"?>
<svg width="50px" height="48px" viewBox="0 0 50 48" version="1.1" xmlns="http://www.w3.org/2000/svg" xmlns:xlink="http://www.w3.org/1999/xlink">
    <title>OpenAPI_Logo_Pantone</title>
    <g id="Website" stroke="none" stroke-width="1" fill="none" fill-rule="evenodd">
        <g id="Use-Cases-/-API-Design" transform="translate(-276.000000, -669.000000)" fill-rule="nonzero">
            <g id="Group-10" transform="translate(150.000000, 636.000000)">
                <g id="Group-2" transform="translate(80.062172, 33.000000)">
                    <g id="OpenAPI_Logo_Pantone" transform="translate(46.040280, 0.000000)">
                        <g id="Group">
                            <g transform="translate(0.000000, 5.425245)">
                                <path d="M12.4927481,21.7297736 L12.445549,21.7297736 L0.147027562,21.7297736 C0.149116021,21.7898687 0.150786789,21.850381 0.154128325,21.910476 C0.159140628,22.0264928 0.167494467,22.1420922 0.17459523,22.258109 C0.177936765,22.3077708 0.180025225,22.3574327 0.183784452,22.4066772 C0.193391367,22.5410564 0.205086741,22.6746008 0.217199807,22.8081453 C0.220123651,22.8386102 0.222629802,22.8686577 0.225553646,22.8978705 C0.239755172,23.0464388 0.256045157,23.195007 0.273588219,23.3423232 C0.274423603,23.3569297 0.27609437,23.3711188 0.27818283,23.3853079 C0.297396659,23.5447266 0.317863564,23.7041453 0.341254312,23.8627294 C0.341254312,23.8643987 0.341672004,23.8669027 0.342507388,23.868572 C0.484104955,24.8517932 0.696710151,25.8258333 0.980322976,26.7831803 C0.981576052,26.7873535 0.983246819,26.7911095 0.984082203,26.7952827 C1.02835755,26.9459376 1.07513905,27.0957578 1.12317362,27.2447434 C1.12609746,27.2535072 1.12902131,27.2622711 1.13152746,27.2710349 C1.13403361,27.2797988 1.13695745,27.2885626 1.1398813,27.2973265 C1.18373895,27.432123 1.22968506,27.5665021 1.27563118,27.7012986 C1.28774424,27.735102 1.29902192,27.7693228 1.31155268,27.8031262 C1.35290418,27.9195603 1.39509107,28.0359944 1.43853103,28.1524285 C1.45858024,28.2050116 1.47862946,28.2571775 1.49826098,28.3101779 C1.53585325,28.4065803 1.57302783,28.5021481 1.6110378,28.5985505 C1.63985854,28.670748 1.66993236,28.7429455 1.70000618,28.815143 C1.73091539,28.8902618 1.76265997,28.9649632 1.79440456,29.0404993 C1.8336676,29.1323111 1.87460141,29.2237056 1.91511753,29.3151001 C1.93934366,29.3697699 1.96398749,29.4240224 1.98821362,29.4782748 C2.03833665,29.5880317 2.09013045,29.6977885 2.14192425,29.8067108 C2.15904962,29.8417662 2.17533961,29.8768216 2.19288267,29.911877 C2.253448,30.0374923 2.31526641,30.1618556 2.3779202,30.2853843 C2.38836249,30.3045813 2.39755172,30.323361 2.40715863,30.342558 C2.47774857,30.4794411 2.54959158,30.6163242 2.62352306,30.7519553 C2.62686459,30.7577979 2.63020613,30.7636404 2.63312997,30.7703177 C2.64858457,30.7986959 2.66570994,30.8258221 2.68116454,30.853783 L13.2249621,24.5074988 L13.2638075,24.4841286 C12.8477863,23.6081602 12.5888173,22.6766875 12.4927481,21.7297736 Z" id="Path" fill="#93D500"></path>
                                <polygon id="Path" fill="#93D500" points="0.730125506 27.386217 0.733884733 27.3970675 1.13194515 27.2718696"></polygon>
                                <path d="M15.5268624,27.3924769 L15.4972062,27.4221071 L6.80127781,36.1108449 C6.84597085,36.1525776 6.89024619,36.1947275 6.9361923,36.2352082 C7.01722454,36.3086577 7.09992754,36.3816898 7.18221285,36.45347 C7.22481743,36.4914467 7.26658663,36.5290061 7.3091912,36.5657308 C7.4077665,36.6508654 7.50717718,36.7339134 7.60617017,36.8169613 C7.63332015,36.839497 7.65963474,36.8616153 7.68636702,36.8837336 C7.79789077,36.9759627 7.91150298,37.0665226 8.02553287,37.1566651 C8.04015209,37.1679329 8.05477131,37.1796181 8.06939053,37.1913032 C8.19260965,37.288123 8.31708185,37.3824388 8.44280712,37.4775892 C8.44823711,37.4809278 8.45283173,37.4842664 8.45700865,37.4880224 C8.98079433,37.8790573 9.52379385,38.24547 10.0839187,38.586843 C10.1031326,38.5989455 10.1223464,38.6102133 10.1419779,38.6223158 C10.2484894,38.6861667 10.3550008,38.749183 10.4623476,38.8113647 C10.5279253,38.8489241 10.5935029,38.8860661 10.6590805,38.9232082 C10.7208989,38.9590983 10.7827174,38.993319 10.8453711,39.0279571 C10.958148,39.0897215 11.0717602,39.1510685 11.1853724,39.2111635 C11.200827,39.21951 11.2166993,39.2278565 11.2325716,39.2362031 C11.5487644,39.4014644 11.8703872,39.5550405 12.1945161,39.7027741 L12.1945161,39.7027741 L12.5031904,38.9540904 L16.8768427,28.3418947 L16.8931327,28.302666 C16.4152931,28.0472622 15.9575028,27.7447005 15.5268624,27.3924769 Z" id="Path" fill="#4D5A31"></path>
                                <path d="M14.6213062,26.5269418 C14.5273256,26.4226102 14.4379395,26.3157746 14.3502242,26.207687 C14.2725335,26.1117019 14.1973489,26.0148822 14.1246705,25.9168104 C14.0415498,25.8041323 13.9600999,25.6910368 13.8832446,25.5754374 C13.8055539,25.4594206 13.729534,25.3425692 13.657691,25.2236311 L3.10052725,31.5778444 C3.26259172,31.84702 3.43175695,32.1091011 3.60426372,32.3682608 C3.61011141,32.3770247 3.61554141,32.3866232 3.62138909,32.3953871 L3.62138909,32.3953871 C3.62347755,32.3987257 3.62556601,32.4016469 3.62765447,32.4049856 C3.63350216,32.4133321 3.63851446,32.4225133 3.64436215,32.4312771 C3.64477984,32.4321118 3.64561522,32.4329464 3.64603292,32.4337811 C3.65981675,32.4546474 3.67401828,32.4746791 3.6882198,32.4955454 C3.68905519,32.4967974 3.68989057,32.4980494 3.69072595,32.4993014 C3.69072595,32.4993014 3.69072595,32.4993014 3.69072595,32.4993014 C3.69114365,32.4997187 3.69156134,32.5005533 3.69197903,32.5009707 C3.87534579,32.7718156 4.06372485,33.0384872 4.2579516,33.2980643 C4.26212852,33.3034895 4.26672314,33.3093321 4.27090005,33.3147573 C4.27507697,33.3201826 4.27925389,33.3256078 4.28343081,33.3310331 C4.36780458,33.4428766 4.45259605,33.5543027 4.53989366,33.6648943 C4.55117134,33.6795007 4.56244903,33.6936898 4.57456209,33.7078789 C4.66394817,33.8222264 4.75500501,33.9349045 4.84773262,34.046748 C4.8694526,34.0730396 4.89200796,34.0997485 4.91372795,34.1264574 C4.99726633,34.2261984 5.08080472,34.3255221 5.16601388,34.4240112 C5.20235307,34.4661612 5.24036304,34.5083111 5.27711993,34.5500438 C5.34979833,34.6326744 5.42164134,34.7148878 5.49599051,34.7962664 C5.53650662,34.8409204 5.57869351,34.8859916 5.62004501,34.9306456 C5.63884115,34.9510946 5.65721959,34.9711262 5.67643342,34.9915752 C5.73073337,35.0500009 5.78461563,35.1084266 5.83933328,35.166435 C5.86105326,35.189388 5.88402631,35.2119236 5.90616399,35.2348766 C6.00223313,35.3350349 6.09913766,35.4351933 6.19813065,35.5336823 L14.9070075,26.8324248 C14.8071792,26.7326837 14.7136162,26.6300214 14.6213062,26.5269418 Z" id="Path" fill="#6BA43A"></path>
                                <path d="M26.1650583,27.3878864 C26.0694069,27.4650918 25.9725023,27.5406279 25.873927,27.6132427 L25.895647,27.6495501 L32.2453998,38.1807844 C32.539455,37.9888142 32.8301685,37.7910014 33.1141991,37.5831728 C33.7286239,37.1303735 34.3234172,36.6395976 34.8964906,36.1112622 L26.1997267,27.4221071 L26.1650583,27.3878864 Z" id="Path" fill="#4D5A31"></path>
                                <path d="M31.4430136,38.6824108 C31.4476082,38.6799068 31.4526205,38.6769856 31.4572151,38.6744816 L31.4567975,38.6740643 C31.4522028,38.6765682 31.4476082,38.6794895 31.4430136,38.6824108 L31.4430136,38.6824108 Z" id="Path" fill="#93D500"></path>
                                <polygon id="Path" fill="#93D500" points="31.4371659 38.6861667 31.4371659 38.6857494 31.4371659 38.6857494 31.4367482 38.6857494"></polygon>
                                <path d="M31.4567975,38.6740643 L31.4572151,38.6744816 C31.4847828,38.6590405 31.5127682,38.6444341 31.5403358,38.6281584 L31.5386651,38.6252371 C31.5110974,38.6415128 31.4839474,38.6577885 31.4567975,38.6740643 Z" id="Path" fill="#93D500"></path>
                                <polygon id="Path" fill="#93D500" points="31.4392544 38.6840801 31.4430136 38.6824108 31.4430136 38.6819935"></polygon>
                                <polygon id="Path" fill="#93D500" points="31.4367482 38.6857494 31.4371659 38.6857494 31.4217113 38.6594578"></polygon>
                                <path d="M31.4430136,38.6824108 L31.4430136,38.6824108 C31.4480259,38.6799068 31.4526205,38.6774029 31.4572151,38.6748989 L31.4572151,38.6748989 C31.4526205,38.6769856 31.4476082,38.6794895 31.4430136,38.6824108 Z" id="Path" fill="#93D500"></path>
                                <polygon id="Path" fill="#93D500" points="31.4313182 38.689088 31.4313182 38.689088 31.4350775 38.6870014 31.4350775 38.6870014"></polygon>
                                <polygon id="Path" fill="#93D500" points="31.4367482 38.6857494 31.4350775 38.6870014 31.4350775 38.6870014 31.4371659 38.6861667"></polygon>
                                <path d="M31.4392544,38.6840801 C31.438419,38.6844974 31.4375836,38.6849148 31.4367482,38.6853321 L31.4367482,38.6853321 C31.4388367,38.6840801 31.4409252,38.6832455 31.4430136,38.6819935 L31.4430136,38.6815762 C31.4417605,38.6828281 31.4405075,38.6836628 31.4392544,38.6840801 Z" id="Path" fill="#93D500"></path>
                                <path d="M31.4572151,38.6744816 C31.4847828,38.6582059 31.5127682,38.6444341 31.5399182,38.627741 C31.5127682,38.6444341 31.4847828,38.6590405 31.4572151,38.6744816 L31.4572151,38.6744816 Z" id="Path" fill="#93D500"></path>
                                <polygon id="Path" fill="#93D500" points="31.5403358 38.627741 31.5386651 38.6252371 31.5382474 38.6252371"></polygon>
                                <polygon id="Rectangle" fill="#93D500" transform="translate(31.454708, 38.714804) rotate(-33.688478) translate(-31.454708, -38.714804) " points="31.4338207 38.6939232 31.4755787 38.69394 31.4755955 38.7356839 31.4338376 38.7356671"></polygon>
                                <polygon id="Path" fill="#93D500" points="31.4279767 38.6911747 31.4283944 38.6907573 31.4288121 38.6907573"></polygon>
                                <polygon id="Path" fill="#93D500" points="31.4313182 38.689088 31.4288121 38.6907573 31.4288121 38.6907573 31.4313182 38.689088"></polygon>
                                <path d="M31.3227183,38.2671709 L31.1071893,37.9099395 L25.1801407,28.0798137 C25.0602631,28.1520112 24.9374617,28.2171141 24.815078,28.2830517 C24.6914412,28.3494066 24.566969,28.4115883 24.440826,28.471266 C23.3021978,29.0108691 22.0695889,29.2863046 20.8353092,29.2863046 C20.0266576,29.2863046 19.2184237,29.1694532 18.4369221,28.936585 C18.3036784,28.896939 18.1737762,28.8447732 18.0422032,28.7980326 C17.9106303,28.7517094 17.7773865,28.711646 17.647902,28.6582282 L13.2771736,39.2633293 L13.1059199,39.6789865 L12.95931,40.034966 L12.9584746,40.0366353 C12.9697523,40.0412259 12.9814477,40.0449818 12.9927254,40.0495724 C13.0048385,40.0545803 13.0165338,40.0583363 13.0286469,40.0633442 L13.0290646,40.0633442 C13.0294823,40.0633442 13.0299,40.0637615 13.0299,40.0637615 C13.0328238,40.0650135 13.0357477,40.0658482 13.0382538,40.0671001 C13.1414237,40.1092501 13.245429,40.1455575 13.3490166,40.1860382 C13.4789188,40.2365347 13.608821,40.2878659 13.7391409,40.3354411 C13.8055539,40.359646 13.8715492,40.3880242 13.9379622,40.4113945 L13.9383799,40.4113945 L13.9383799,40.4113945 C15.3075741,40.8946586 16.7243852,41.2326931 18.1650046,41.4221593 C18.2213931,41.4288365 18.2773638,41.4367657 18.3337522,41.4446949 C18.3926467,41.4513721 18.451959,41.4572147 18.5108536,41.4638919 C18.6219596,41.4764117 18.732648,41.4893489 18.8441717,41.5001993 C18.8717394,41.502286 18.8993071,41.5047899 18.9268747,41.5072939 C19.06346,41.520231 19.2000453,41.5319162 19.3357951,41.5415147 C19.3821589,41.5448533 19.4289404,41.5469399 19.4748866,41.5502785 C19.5947641,41.5582077 19.7138063,41.5657196 19.8332662,41.5711449 C19.9063623,41.5753181 19.9794584,41.5774048 20.0529722,41.5799087 C20.1477883,41.5832473 20.2421866,41.5870033 20.3378381,41.5899245 C20.4744234,41.5932632 20.6122617,41.5945151 20.7496823,41.5949325 C20.7822623,41.5949325 20.8144246,41.5957671 20.8465869,41.5961844 C21.9973282,41.5961844 23.1476518,41.5006167 24.2854446,41.3098985 L24.2854446,41.3098985 C24.3046584,41.3069772 24.3234546,41.3036386 24.3430861,41.3011346 C24.4633814,41.2802683 24.5836766,41.2577327 24.7039719,41.2356143 C24.7724734,41.2222599 24.8413926,41.2093228 24.9090587,41.1959683 C24.9792309,41.1813619 25.0498208,41.1667555 25.1199931,41.1517317 C25.2373645,41.1271095 25.3543183,41.1016525 25.4716897,41.0745263 C25.4925743,41.0699357 25.5138766,41.0657625 25.5351789,41.0599199 C27.2648412,40.6571998 28.9351912,40.033714 30.5044598,39.2086595 L30.5048775,39.2082422 L30.5048775,39.2082422 C30.6076297,39.1539898 30.7078758,39.0922254 30.8102103,39.036721 C30.9321764,38.9699488 31.053307,38.9010899 31.1744377,38.8318137 C31.2583938,38.7838211 31.3431853,38.7395845 31.4263059,38.6899227 C31.4263059,38.6899227 31.4267236,38.6895054 31.4267236,38.6895054 C31.427559,38.689088 31.4283944,38.6882534 31.4292298,38.6878361 C31.4292298,38.6878361 31.4292298,38.6878361 31.4296475,38.6878361 L31.4296475,38.6878361 C31.4309006,38.6870014 31.4321536,38.6865841 31.4334067,38.6857494 C31.4342421,38.6853321 31.4346598,38.6849148 31.4350775,38.6844974 L31.4196229,38.6582059 L31.4350775,38.6844974 C31.4359129,38.6840801 31.4367482,38.6836628 31.4375836,38.6832455 C31.4388367,38.6824108 31.4400898,38.6819935 31.4413429,38.6811588 C31.4459375,38.6782375 31.4505321,38.6757336 31.4551267,38.6728123 C31.4822767,38.6565366 31.5094266,38.6402608 31.5365766,38.6239851 L31.5365766,38.6239851 L31.3227183,38.2671709 Z" id="Path" fill="#93D500"></path>
                                <path d="M15.5318747,14.4027722 C15.6279438,14.3251495 15.7248483,14.2500307 15.823006,14.1774159 L15.801286,14.1411085 L9.45195084,3.60987424 C9.15706033,3.80226176 8.86551136,4.00049185 8.58106315,4.2091551 C7.967056,4.66070238 7.37268038,5.15106102 6.80086012,5.67897904 L15.4976239,14.3681341 L15.5318747,14.4027722 Z" id="Path" fill="#93D500"></path>
                                <path d="M6.19771296,6.25739357 C6.09871997,6.35629995 6.00515698,6.45854495 5.90867014,6.55870331 C5.8121833,6.65886167 5.7140257,6.7586027 5.61962732,6.86043037 C4.97721712,7.55527899 4.38994226,8.28309641 3.86030888,9.03887471 C3.83482967,9.07434746 3.80935046,9.11148952 3.78428895,9.14779693 C3.724559,9.23460084 3.66566444,9.32140475 3.60760526,9.40862599 C3.54703993,9.49918584 3.48689229,9.59099767 3.42841542,9.68239218 C3.40627775,9.7157783 3.38455776,9.74958174 3.36325548,9.78296786 C1.36292879,12.9183419 0.29113128,16.474381 0.147027562,20.0604676 C0.141597567,20.1994374 0.138673723,20.3388244 0.135749879,20.4777941 C0.132826036,20.6167639 0.128649117,20.7561509 0.128649117,20.8951206 L12.445549,20.8951206 C12.445549,20.7557336 12.4584974,20.6171812 12.4655982,20.4777941 C12.4726989,20.3384071 12.4747874,20.19902 12.4885712,20.0604676 C12.6477118,18.4579339 13.2667313,16.8933768 14.3460473,15.5787983 C14.4337626,15.4719627 14.5327556,15.3718044 14.6267362,15.2687247 C14.7202992,15.1656451 14.8071792,15.0583922 14.9070075,14.9590685 L6.19771296,6.25739357 Z" id="Path" fill="#4D5A31"></path>
                                <path d="M31.6113435,3.2029809 C31.5946358,3.19254774 31.5770927,3.1825319 31.5603851,3.17251607 C31.4522028,3.10616116 31.3427676,3.0423102 31.2333323,2.97845925 C31.1698431,2.94173451 31.1063539,2.90626176 31.0424471,2.86995435 C30.9781225,2.83406428 30.9146333,2.7981742 30.8498911,2.76311877 C30.738785,2.7021891 30.6272613,2.64209408 30.5153198,2.58283372 C30.4977768,2.57406986 30.4806514,2.56447136 30.4626906,2.55529017 C29.7405013,2.17802701 28.9986804,1.84583512 28.2414049,1.55746251 C28.2221911,1.5495333 28.2021419,1.54202143 28.1825104,1.53492687 C28.017522,1.47316255 27.852116,1.41181556 27.685457,1.3542245 C26.3400712,0.884732184 24.9487394,0.555461574 23.5352699,0.370168607 C23.4776284,0.362239404 23.4195692,0.3543102 23.3619277,0.346798323 C23.3038685,0.339703773 23.2462271,0.333861202 23.1885856,0.327601304 C23.0770618,0.314664183 22.9659558,0.302144388 22.8540143,0.291293898 C22.8231051,0.288372613 22.7917782,0.28628598 22.7604513,0.282947368 C22.628043,0.2708449 22.4947993,0.259159758 22.3623909,0.249561248 C22.3110148,0.24580531 22.2588033,0.242884024 22.2074272,0.239962739 C22.093815,0.232450862 21.9789497,0.224521658 21.8653375,0.21951374 C21.8043545,0.216175128 21.7442068,0.214505822 21.6840592,0.21241919 L21.6836415,12.5001807 L21.6836415,12.5481733 C22.3172802,12.6136935 22.9450712,12.74849 23.554066,12.9550666 L32.6405364,3.87654588 C32.303459,3.64284304 31.9622047,3.41581742 31.6113435,3.2029809 Z" id="Path" fill="#4D5A31"></path>
                                <polygon id="Path" fill="#6BA43A" points="10.3742146 3.522653 10.1586856 3.16542152 10.1586856 3.16542152"></polygon>
                                <polygon id="Path" fill="#6BA43A" points="10.1574325 3.16291756 10.1586856 3.16542152 10.1586856 3.16542152"></polygon>
                                <path d="M20.4309834,0.202403354 C20.291892,0.205324639 20.1523829,0.205741966 20.0132915,0.21116721 C19.1419861,0.246222636 18.2723515,0.335113181 17.4098176,0.479508151 C17.3910215,0.482846763 17.3722253,0.485768048 17.3530115,0.48910666 C17.2318809,0.509972986 17.1120033,0.53209129 16.991708,0.554626921 C16.9236242,0.567564043 16.8551227,0.580083838 16.7870389,0.593855612 C16.7160313,0.608044714 16.6454414,0.622651141 16.5748514,0.638092222 C16.4578977,0.662297159 16.340944,0.687754075 16.2239902,0.714880298 L16.2239902,0.714880298 C16.2026879,0.71947089 16.1818033,0.724478808 16.1600833,0.729069399 C14.430421,1.1322068 12.7592356,1.75610992 11.1903847,2.58116442 C11.1903847,2.58116442 11.1903847,2.58116442 11.1903847,2.58116442 L11.189967,2.58116442 C11.0876325,2.63541686 10.9878041,2.69676386 10.8858873,2.75268561 C10.7639212,2.81945785 10.6427906,2.88831672 10.5216599,2.95759292 C10.4318561,3.00934141 10.3403816,3.05691663 10.2509955,3.11033442 C10.2501601,3.11075175 10.2489071,3.1115864 10.2480717,3.11200373 C10.2480717,3.11200373 10.247654,3.11200373 10.247654,3.11200373 C10.2413886,3.11575966 10.2351232,3.11909828 10.2288578,3.12285422 C10.2054671,3.13704332 10.181241,3.14872846 10.1578502,3.16291756 L10.1591033,3.16500419 L10.3746323,3.522653 L10.3746323,3.522653 L16.5167923,13.7104276 C16.6366698,13.6382301 16.7594713,13.5727098 16.881855,13.5071896 C17.0050741,13.4408347 17.129964,13.378653 17.2556893,13.3189753 C18.1328424,12.9016488 19.0651308,12.6429064 20.0128738,12.5469213 C20.1519652,12.5327322 20.2910566,12.521047 20.4305657,12.5139525 C20.5696571,12.5068579 20.7087485,12.4997634 20.8482576,12.4997634 L20.8486753,0.194056823 C20.7091662,0.194056823 20.5700748,0.199899395 20.4309834,0.202403354 Z" id="Path" fill="#6BA43A"></path>
                                <path d="M41.5428047,19.8776786 C41.536957,19.7670871 41.5302739,19.6569129 41.5227554,19.5459041 C41.5194139,19.490817 41.5164901,19.4361472 41.5118955,19.3802254 C41.5027062,19.2504369 41.4918462,19.120231 41.4797332,18.9904425 C41.477227,18.956639 41.4738855,18.9232529 41.4709616,18.8894495 C41.4567601,18.7442198 41.4413055,18.5989902 41.4245978,18.4541779 C41.4229271,18.4424928 41.421674,18.4308076 41.4204209,18.4191225 C41.4195855,18.4136973 41.4191678,18.4078547 41.4183325,18.4024294 C41.3991186,18.245932 41.378234,18.0894346 41.3560964,17.9333544 C41.3556787,17.9287639 41.355261,17.9229213 41.3540079,17.918748 C41.2124103,16.9376134 41.0002228,15.9652427 40.7174454,15.0091476 C40.7153569,15.0024704 40.7136862,14.9966279 40.7115977,14.9907853 C40.6669047,14.842217 40.6213762,14.6944835 40.5745947,14.5471672 C40.5683294,14.5279702 40.5616463,14.5083558 40.5557986,14.4887415 C40.511941,14.3556143 40.4676656,14.2233218 40.4217195,14.090612 C40.408771,14.0551393 40.3962403,14.0192492 40.3837095,13.9829418 C40.3431934,13.868177 40.3014242,13.7538295 40.2588196,13.6394821 C40.2383527,13.5848123 40.2174681,13.5305599 40.1961659,13.4763074 C40.1602443,13.3815743 40.1230698,13.2868412 40.0854775,13.19336 C40.0554037,13.1182413 40.0253298,13.0443745 39.9944206,12.9705077 C39.9643468,12.8970582 39.9334376,12.8244434 39.9025284,12.7509939 C39.8620123,12.6575128 39.8210785,12.5640317 39.779727,12.4709679 C39.7563362,12.418802 39.7329455,12.3658016 39.7087194,12.3132184 C39.6577609,12.2022096 39.6055495,12.0912007 39.5529203,11.9806092 C39.5366303,11.9472231 39.520758,11.9130023 39.504468,11.8796162 C39.4430673,11.7531663 39.3808312,11.6267163 39.317342,11.5015184 C39.3081528,11.484408 39.2993813,11.4668803 39.290192,11.4493526 C39.2191844,11.3112175 39.146506,11.1726651 39.0725745,11.0361993 C39.0696507,11.0316088 39.0675622,11.0261835 39.0646384,11.0215929 C38.705841,10.362217 38.3119575,9.72454215 37.8859117,9.11107219 L28.7965175,18.1929315 C29.003275,18.8018109 29.1377718,19.4286353 29.2033495,20.0613023 L29.2518017,20.0613023 L41.5503231,20.0613023 C41.5473993,19.9991206 41.5457285,19.938191 41.5428047,19.8776786 Z" id="Path" fill="#4D5A31"></path>
                                <path d="M29.2509663,20.8951206 C29.2509663,21.0345077 29.2380179,21.1730601 29.2309171,21.3124471 C29.2242341,21.4518342 29.2217279,21.5912212 29.2079441,21.7297736 C29.0488034,23.3323074 28.429784,24.8972818 27.3508857,26.2118603 C27.2631704,26.3186959 27.1641774,26.4188542 27.0701967,26.5219339 C26.9766337,26.6250135 26.8897538,26.7322664 26.7899254,26.8315901 L35.49922,35.5328477 C35.598213,35.4339413 35.6913583,35.3316963 35.7878452,35.2311206 C35.884332,35.1305449 35.9824896,35.0312212 36.0764703,34.9293936 C36.7209689,34.232041 37.3099146,33.5025543 37.840801,32.744272 C37.8621033,32.7142245 37.8821525,32.6845943 37.9026194,32.6549641 C37.9673617,32.5619003 38.0304332,32.4680019 38.0939223,32.3741034 C38.1494754,32.2902208 38.2050284,32.2063381 38.2589106,32.1216209 C38.2856429,32.0811402 38.3123752,32.0389902 38.3382721,31.9985095 C40.335675,28.8648048 41.4045486,25.3125217 41.5482347,21.7293563 C41.5536646,21.5903866 41.5565885,21.4509995 41.5595123,21.3120298 C41.5624362,21.1730601 41.5666131,21.0340904 41.5666131,20.8947033 L29.2509663,20.8947033 L29.2509663,20.8951206 Z" id="Path" fill="#6BA43A"></path>
                            </g>
                            <path d="M45.2260122,1.96393852 C42.9725642,-0.28753796 39.3190128,-0.28753796 37.0659825,1.96393852 C35.2682364,3.75969446 34.9090213,6.44435585 35.9795657,8.60026456 L23.4107977,21.1584537 C21.2530011,20.0892632 18.5659889,20.4477466 16.7682428,22.2435026 C14.5147948,24.494979 14.5152125,28.145334 16.7682428,30.3968104 C19.0221085,32.6482869 22.6756599,32.6474523 24.9291079,30.3963931 C26.7264363,28.6006372 27.0852336,25.9159758 26.0146892,23.7596497 L38.5834573,11.201878 C40.7416715,12.2710685 43.4282661,11.912585 45.2255945,10.1164117 C47.4790425,7.86618724 47.4790425,4.215415 45.2260122,1.96393852 Z" id="Path" fill="#424143"></path>
                        </g>
                    </g>
                </g>
            </g>
        </g>
    </g>
</svg>