<?xml version="1.0" encoding="UTF-8"?>
<svg width="112px" height="92px" viewBox="0 0 112 92" version="1.1" xmlns="http://www.w3.org/2000/svg" xmlns:xlink="http://www.w3.org/1999/xlink">
    <title>carbon-virtual-private-cloud</title>
    <g id="Website" stroke="none" stroke-width="1" fill="none" fill-rule="evenodd">
        <g id="Enterprise" transform="translate(-653.000000, -2618.000000)" fill-rule="nonzero">
            <g id="carbon-virtual-private-cloud" transform="translate(653.000000, 2618.000000)">
                <g id="Icon">
                    <path d="M66,67 L66,59.5 C66,53.9771525 61.5228475,49.5 56,49.5 C50.4771525,49.5 46,53.9771525 46,59.5 L46,67 C43.2397187,67.0027561 41.0027561,69.2397187 41,72 L41,87 C41.0027561,89.7602813 43.2397187,91.9972439 46,92 L66,92 C68.7602813,91.9972439 70.9972439,89.7602813 71,87 L71,72 C70.9972439,69.2397187 68.7602813,67.0027561 66,67 L66,67 Z M51,59.5 C51,56.7385763 53.2385763,54.5 56,54.5 C58.7614237,54.5 61,56.7385763 61,59.5 L61,67 L51,67 L51,59.5 Z M46,87 L46,72 L66,72 L66.0025,87 L46,87 Z" id="Icon-Shape" fill="#C64BE2"></path>
                    <path d="M89.8462918,28.225444 C87.1509952,14.2457492 76.2137643,3.31678432 62.2320358,0.63205784 C53.166511,-1.11976274 43.7764289,0.804000043 36.130137,5.97960014 C28.4838452,11.1552002 23.2085769,19.1580778 21.4663122,28.225444 C8.17619378,30.6211402 -1.09036905,42.7610564 0.10340759,56.2125062 C1.29718423,69.6639561 12.5568454,79.9822303 26.0611518,80 L27.8316086,80 L27.8316086,73.0433919 L26.075065,73.0433919 C16.1755362,73.0252996 7.92374895,65.4603886 7.04752411,55.5996975 C6.17129927,45.7390064 12.9598834,36.8376021 22.7011101,35.0742247 L27.3968206,34.2220402 L28.2977013,29.5437212 C30.8231623,16.4286888 42.3003284,6.95074109 55.656302,6.95074109 C69.0122755,6.95074109 80.4894416,16.4286888 83.0149026,29.5437212 L83.9157833,34.2220402 L88.6080155,35.0742247 C98.3460633,36.8369113 105.134042,45.7332233 104.262585,55.591073 C103.391128,65.4489227 95.1477095,73.0164239 85.2514521,73.0433919 L83.4844736,73.0433919 L83.4844736,80 L85.2514521,80 C98.7550992,79.9804448 110.013076,69.6616536 111.205898,56.2107785 C112.39872,42.7599033 103.132288,30.62101 89.8428135,28.225444 L89.8462918,28.225444 Z" id="Icon-Path" fill="#0B6FCC"></path>
                </g>
                <rect id="ViewBox" x="16" y="7" width="80" height="80"></rect>
            </g>
        </g>
    </g>
</svg>