<?xml version="1.0" encoding="UTF-8"?>
<svg width="120px" height="96px" viewBox="0 0 120 96" version="1.1" xmlns="http://www.w3.org/2000/svg" xmlns:xlink="http://www.w3.org/1999/xlink">
    <title>collaboration</title>
    <g id="Website" stroke="none" stroke-width="1" fill="none" fill-rule="evenodd">
        <g id="Home-Page-Icons" transform="translate(-1035.000000, -3097.000000)" fill-rule="nonzero">
            <g id="collaboration" transform="translate(1035.000000, 3097.000000)">
                <g id="Icon" fill="#FFC100">
                    <path d="M36,48 C47.60625,48 57,38.60625 57,27 C57,15.39375 47.60625,6 36,6 C24.39375,6 15,15.39375 15,27 C15,38.60625 24.39375,48 36,48 Z M50.4,54 L48.84375,54 C44.94375,55.875 40.6125,57 36,57 C31.3875,57 27.075,55.875 23.15625,54 L21.6,54 C9.675,54 0,63.675 0,75.6 L0,81 C0,85.96875 4.03125,90 9,90 L63,90 C67.96875,90 72,85.96875 72,81 L72,75.6 C72,63.675 62.325,54 50.4,54 Z M90,48 C99.9375,48 108,39.9375 108,30 C108,20.0625 99.9375,12 90,12 C80.0625,12 72,20.0625 72,30 C72,39.9375 80.0625,48 90,48 Z M99,54 L98.2875,54 C95.68125,54.9 92.925,55.5 90,55.5 C87.075,55.5 84.31875,54.9 81.7125,54 L81,54 C77.175,54 73.65,55.10625 70.55625,56.8875 C75.13125,61.81875 78,68.3625 78,75.6 L78,82.8 C78,83.2125 77.90625,83.60625 77.8875,84 L111,84 C115.96875,84 120,79.96875 120,75 C120,63.39375 110.60625,54 99,54 L99,54 Z" id="Icon-Shape"></path>
                </g>
                <rect id="ViewBox" x="0" y="0" width="120" height="96"></rect>
            </g>
        </g>
    </g>
</svg>