<?xml version="1.0" encoding="UTF-8"?>
<svg width="199px" height="160px" viewBox="0 0 199 160" version="1.1" xmlns="http://www.w3.org/2000/svg" xmlns:xlink="http://www.w3.org/1999/xlink">
    <title>Group 12</title>
    <g id="Website" stroke="none" stroke-width="1" fill="none" fill-rule="evenodd">
        <g id="Enterprise" transform="translate(-937.000000, -2764.000000)">
            <g id="Group-12" transform="translate(937.000000, 2764.000000)">
                <g id="Group-13" transform="translate(0.000000, -0.000000)" fill-rule="nonzero">
                    <g id="iconmonstr-lock-18" transform="translate(139.000000, 78.000000)" fill="#C64BE2">
                        <path d="M10,26.6666667 L10,20 C10,8.95666667 18.9533333,0 30,0 C41.04,0 50,8.95666667 50,20 L50,26.6666667 L43.3333333,26.6666667 L43.3333333,20 C43.3333333,12.6466667 37.35,6.66666667 30,6.66666667 C22.65,6.66666667 16.6666667,12.6466667 16.6666667,20 L16.6666667,26.6666667 L10,26.6666667 Z M60,33.3333333 L60,80 L0,80 L0,33.3333333 L60,33.3333333 Z M53.3333333,40 L6.66666667,40 L6.66666667,73.3333333 L53.3333333,73.3333333 L53.3333333,40 Z" id="Shape"></path>
                    </g>
                    <path d="M131.733333,160 L48.8888889,160 C21.8933333,160 -4.54747351e-13,138.106667 -4.54747351e-13,111.111111 C-4.54747351e-13,87.0933333 17.3422222,67.1555556 40.1866667,63.04 C42.0711111,27.92 71.0577778,0 106.666667,0 C142,0 170.773333,27.4933333 173.066667,62.2311111 C141.333333,62.3822222 115.555556,88.2311111 115.555556,120 C115.555556,135.528889 121.742222,149.608889 131.733333,160 Z" id="Shape" fill="#0B73DA"></path>
                </g>
                <g id="iconmonstr-cloud-8" transform="translate(-0.000000, 0.000000)"></g>
            </g>
        </g>
    </g>
</svg>