<?xml version="1.0" encoding="UTF-8"?>
<svg width="72px" height="64px" viewBox="0 0 72 64" version="1.1" xmlns="http://www.w3.org/2000/svg" xmlns:xlink="http://www.w3.org/1999/xlink">
    <title>design</title>
    <g id="Website" stroke="none" stroke-width="1" fill="none" fill-rule="evenodd">
        <g id="Use-Cases-/-API-Documentation" transform="translate(-267.000000, -5337.000000)" fill-rule="nonzero">
            <g id="design" transform="translate(267.000000, 5337.000000)">
                <g id="Icon" fill="#0A72DA">
                    <path d="M50.325,10.4 L61.6,21.675 C62.075,22.15 62.075,22.925 61.6,23.4 L34.3,50.7 L22.7,51.9875 C21.15,52.1625 19.8375,50.85 20.0125,49.3 L21.3,37.7 L48.6,10.4 C49.075,9.925 49.85,9.925 50.325,10.4 Z M70.575,7.5375 L64.475,1.4375 C62.575,-0.4625 59.4875,-0.4625 57.575,1.4375 L53.15,5.8625 C52.675,6.3375 52.675,7.1125 53.15,7.5875 L64.425,18.8625 C64.9,19.3375 65.675,19.3375 66.15,18.8625 L70.575,14.4375 C72.475,12.525 72.475,9.4375 70.575,7.5375 Z M48,43.275 L48,56 L8,56 L8,16 L36.725,16 C37.125,16 37.5,15.8375 37.7875,15.5625 L42.7875,10.5625 C43.7375,9.6125 43.0625,8 41.725,8 L6,8 C2.6875,8 0,10.6875 0,14 L0,58 C0,61.3125 2.6875,64 6,64 L50,64 C53.3125,64 56,61.3125 56,58 L56,38.275 C56,36.9375 54.3875,36.275 53.4375,37.2125 L48.4375,42.2125 C48.1625,42.5 48,42.875 48,43.275 Z" id="Icon-Shape"></path>
                </g>
                <rect id="ViewBox" x="0" y="0" width="72" height="64"></rect>
            </g>
        </g>
    </g>
</svg>