<?xml version="1.0" encoding="UTF-8"?>
<svg width="72px" height="64px" viewBox="0 0 72 64" version="1.1" xmlns="http://www.w3.org/2000/svg" xmlns:xlink="http://www.w3.org/1999/xlink">
    <title>documentation</title>
    <g id="Website" stroke="none" stroke-width="1" fill="none" fill-rule="evenodd">
        <g id="Use-Cases-/-API-Design" transform="translate(-255.000000, -4941.000000)" fill-rule="nonzero">
            <g id="documentation" transform="translate(255.000000, 4941.000000)">
                <g id="Icon" fill="#0A72DA">
                    <path d="M67.7775,4.00625 C60.9275,4.395 47.3125,5.81 38.9075,10.955 C38.3275,11.31 37.99875,11.94125 37.99875,12.60125 L37.99875,58.085 C37.99875,59.52875 39.5775,60.44125 40.90875,59.77125 C49.55625,55.41875 62.0625,54.23125 68.24625,53.90625 C70.3575,53.795 71.99875,52.1025 71.99875,50.07375 L71.99875,7.84375 C72,5.63 70.08,3.87625 67.7775,4.00625 Z M33.09125,10.955 C24.6875,5.81 11.0725,4.39625 4.2225,4.00625 C1.92,3.87625 0,5.63 0,7.84375 L0,50.075 C0,52.105 1.64125,53.7975 3.7525,53.9075 C9.93875,54.2325 22.45125,55.42125 31.09875,59.77625 C32.42625,60.445 34,59.53375 34,58.09375 L34,12.57875 C34,11.9175 33.6725,11.31125 33.09125,10.955 Z" id="Icon-Shape"></path>
                </g>
                <rect id="ViewBox" x="0" y="0" width="72" height="64"></rect>
            </g>
        </g>
    </g>
</svg>