<?xml version="1.0" encoding="UTF-8"?>
<svg width="120px" height="96px" viewBox="0 0 120 96" version="1.1" xmlns="http://www.w3.org/2000/svg" xmlns:xlink="http://www.w3.org/1999/xlink">
    <title>governance</title>
    <g id="Website" stroke="none" stroke-width="1" fill="none" fill-rule="evenodd">
        <g id="Home-Page-Icons" transform="translate(-617.000000, -3097.000000)" fill="#BB27DD" fill-rule="nonzero">
            <g id="governance" transform="translate(617.000000, 3097.000000)">
                <g id="Icon">
                    <path d="M48,63 L47.99625,63 C47.99625,59.96625 48.2475,61.363125 32.049375,28.966875 C28.74,22.35 19.26375,22.336875 15.94875,28.966875 C-0.38625,61.640625 0.00375,60.061875 0.00375,63 L0,63 C0,71.28375 10.745625,78 24,78 C37.254375,78 48,71.28375 48,63 Z M24,33 L37.5,60 L10.5,60 L24,33 Z M119.99625,63 C119.99625,59.96625 120.2475,61.363125 104.049375,28.966875 C100.74,22.35 91.26375,22.336875 87.94875,28.966875 C71.61375,61.640625 72.00375,60.061875 72.00375,63 L72,63 C72,71.28375 82.745625,78 96,78 C109.254375,78 120,71.28375 120,63 L119.99625,63 Z M82.5,60 L96,33 L109.5,60 L82.5,60 Z M99,84 L66,84 L66,28.734375 C70.408125,26.805 73.7175,22.831875 74.698125,18 L99,18 C100.6575,18 102,16.6575 102,15 L102,9 C102,7.3425 100.6575,6 99,6 L71.9325,6 C69.195,2.3775 64.891875,0 60,0 C55.108125,0 50.805,2.3775 48.0675,6 L21,6 C19.3425,6 18,7.3425 18,9 L18,15 C18,16.6575 19.3425,18 21,18 L45.301875,18 C46.2825,22.83 49.59,26.805 54,28.734375 L54,84 L21,84 C19.3425,84 18,85.3425 18,87 L18,93 C18,94.6575 19.3425,96 21,96 L99,96 C100.6575,96 102,94.6575 102,93 L102,87 C102,85.3425 100.6575,84 99,84 Z" id="Icon-Shape"></path>
                </g>
            </g>
        </g>
    </g>
</svg>