<?xml version="1.0" encoding="UTF-8"?>
<svg width="240px" height="120px" viewBox="0 0 240 120" version="1.1" xmlns="http://www.w3.org/2000/svg" xmlns:xlink="http://www.w3.org/1999/xlink">
    <title>iconmonstr-infinity-5</title>
    <g id="Website" stroke="none" stroke-width="1" fill="none" fill-rule="evenodd">
        <g id="Enterprise" transform="translate(-585.000000, -2271.000000)" fill="#0B73DA" fill-rule="nonzero">
            <g id="iconmonstr-infinity-5" transform="translate(585.000000, 2271.000000)">
                <path d="M180,70 L180,120 L130,120 L146.07,103.92 C112.03,75.68 89.65,20 54.28,20 C33.15,20 19.49,35.78 19.49,60 C19.49,84.22 33.14,100 54.28,100 C70.92,100 82.88,89.32 94.43,76.08 L106.87,91.69 C91.88,107 76.37,120 54.28,120 C22.31,120 -2.66453526e-14,95.45 -2.66453526e-14,60 C-2.66453526e-14,24.55 22.31,0 54.28,0 C102.67,0 127.68,64.49 160.19,89.81 L180,70 Z M185.7,0 C163.59,0 148.08,13.01 133.09,28.33 L145.53,43.94 C157.09,30.69 169.05,20 185.7,20 C206.84,20 220.5,35.78 220.5,60 C220.5,78.19 212.79,91.62 199.99,97.18 L199.99,118.17 C224.11,111.94 239.990003,89.88 239.990003,60.01 C240,24.55 217.68,0 185.7,0 Z" id="Shape"></path>
            </g>
        </g>
    </g>
</svg>