<?xml version="1.0" encoding="UTF-8"?>
<svg width="57px" height="64px" viewBox="0 0 57 64" version="1.1" xmlns="http://www.w3.org/2000/svg" xmlns:xlink="http://www.w3.org/1999/xlink">
    <title>mocking</title>
    <g id="Website" stroke="none" stroke-width="1" fill="none" fill-rule="evenodd">
        <g id="Use-Cases-/-API-Design" transform="translate(-948.000000, -4941.000000)" fill-rule="nonzero">
            <g id="mocking" transform="translate(948.000000, 4941.000000)">
                <g id="Icon" fill="#5E6ECB">
                    <path d="M56.0490368,9.142875 L56.0490368,14.857125 C56.0490368,19.892875 43.4964296,24 28.0245184,24 C12.5526072,24 0,19.892875 0,14.857125 L0,9.142875 C0,4.107125 12.5526072,0 28.0245184,0 C43.4964296,0 56.0490368,4.107125 56.0490368,9.142875 Z M56.0490368,22 L56.0490368,34.857125 C56.0490368,39.892875 43.4964296,44 28.0245184,44 C12.5526072,44 0,39.892875 0,34.857125 L0,22 C6.02089262,26.142875 17.0409089,28.0715 28.0245184,28.0715 C39.0081278,28.0715 50.028019,26.142875 56.0490368,22 Z M56.0490368,42 L56.0490368,54.857125 C56.0490368,59.892875 43.4964296,64 28.0245184,64 C12.5526072,64 0,59.892875 0,54.857125 L0,42 C6.02089262,46.142875 17.0409089,48.0715 28.0245184,48.0715 C39.0081278,48.0715 50.028019,46.142875 56.0490368,42 Z" id="Icon-Shape"></path>
                </g>
                <rect id="ViewBox" x="0" y="0" width="56.0490368" height="64"></rect>
            </g>
        </g>
    </g>
</svg>