<?xml version="1.0" encoding="UTF-8"?>
<svg width="166px" height="160px" viewBox="0 0 166 160" version="1.1" xmlns="http://www.w3.org/2000/svg" xmlns:xlink="http://www.w3.org/1999/xlink">
    <title>undraw_agreement_aajr</title>
    <defs>
        <linearGradient x1="50.0009756%" y1="100%" x2="50.0009756%" y2="-2.00681439e-15%" id="linearGradient-1">
            <stop stop-color="#808080" stop-opacity="0.25" offset="0%"></stop>
            <stop stop-color="#808080" stop-opacity="0.12" offset="54%"></stop>
            <stop stop-color="#808080" stop-opacity="0.1" offset="100%"></stop>
        </linearGradient>
        <linearGradient x1="49.9959642%" y1="100%" x2="49.9959642%" y2="0%" id="linearGradient-2">
            <stop stop-color="#808080" stop-opacity="0.25" offset="0%"></stop>
            <stop stop-color="#808080" stop-opacity="0.12" offset="54%"></stop>
            <stop stop-color="#808080" stop-opacity="0.1" offset="100%"></stop>
        </linearGradient>
        <linearGradient x1="70.5051339%" y1="95.6889288%" x2="29.4841046%" y2="4.35102511%" id="linearGradient-3">
            <stop stop-color="#808080" stop-opacity="0.25" offset="0%"></stop>
            <stop stop-color="#808080" stop-opacity="0.12" offset="54%"></stop>
            <stop stop-color="#808080" stop-opacity="0.1" offset="100%"></stop>
        </linearGradient>
        <linearGradient x1="50%" y1="99.990649%" x2="50%" y2="0%" id="linearGradient-4">
            <stop stop-color="#808080" stop-opacity="0.25" offset="0%"></stop>
            <stop stop-color="#808080" stop-opacity="0.12" offset="54%"></stop>
            <stop stop-color="#808080" stop-opacity="0.1" offset="100%"></stop>
        </linearGradient>
        <linearGradient x1="50%" y1="99.990649%" x2="50%" y2="-0.00935103797%" id="linearGradient-5">
            <stop stop-color="#808080" stop-opacity="0.25" offset="0%"></stop>
            <stop stop-color="#808080" stop-opacity="0.12" offset="54%"></stop>
            <stop stop-color="#808080" stop-opacity="0.1" offset="100%"></stop>
        </linearGradient>
        <linearGradient x1="71.3879732%" y1="96.8011501%" x2="40.8391411%" y2="14.9426208%" id="linearGradient-6">
            <stop stop-color="#808080" stop-opacity="0.25" offset="0%"></stop>
            <stop stop-color="#808080" stop-opacity="0.12" offset="54%"></stop>
            <stop stop-color="#808080" stop-opacity="0.1" offset="100%"></stop>
        </linearGradient>
        <linearGradient x1="50.002825%" y1="99.9979296%" x2="50.002825%" y2="0%" id="linearGradient-7">
            <stop stop-color="#808080" stop-opacity="0.25" offset="0%"></stop>
            <stop stop-color="#808080" stop-opacity="0.12" offset="54%"></stop>
            <stop stop-color="#808080" stop-opacity="0.1" offset="100%"></stop>
        </linearGradient>
    </defs>
    <g id="Website" stroke="none" stroke-width="1" fill="none" fill-rule="evenodd">
        <g id="Enterprise" transform="translate(-174.000000, -3760.000000)" fill-rule="nonzero">
            <g id="undraw_agreement_aajr" transform="translate(174.000000, 3760.000000)">
                <g id="Group" opacity="0.5" transform="translate(14.002334, 0.000000)" fill="url(#linearGradient-1)">
                    <polygon id="Rectangle" transform="translate(70.984610, 79.998982) rotate(-24.520000) translate(-70.984610, -79.998982) " points="23.1423695 13.8958311 118.82685 13.8958311 118.82685 146.102132 23.1423695 146.102132"></polygon>
                </g>
                <polygon id="Rectangle" fill="#FFFFFF" transform="translate(84.783769, 79.556022) rotate(-24.520000) translate(-84.783769, -79.556022) " points="38.1587984 14.9137816 131.40874 14.9137816 131.40874 144.198262 38.1587984 144.198262"></polygon>
                <polygon id="Rectangle" fill="url(#linearGradient-2)" transform="translate(58.976706, 22.682414) rotate(-24.520000) translate(-58.976706, -22.682414) " points="35.8467173 17.0796132 82.106694 17.0796132 82.106694 28.2852141 35.8467173 28.2852141"></polygon>
                <path d="M52.1054842,7.6210035 C48.8569428,9.1033839 47.4529755,13.0016336 48.9708285,16.3285881 C50.4886814,19.6555426 54.3533256,21.1509918 57.601867,19.6686114 C60.8504084,18.186231 62.2543757,14.2879813 60.7365228,10.9610268 C59.2186698,7.63407235 55.3540257,6.1386231 52.1054842,7.6210035 Z M56.4387398,17.1201867 C55.0405589,17.7985119 53.3708564,17.5626425 52.2152837,16.5235629 C51.0597109,15.4844833 50.6484077,13.849133 51.1749062,12.3869995 C51.7014046,10.9248661 53.0608491,9.92714286 54.6135751,9.86329233 C56.166301,9.79944181 57.603073,10.6821802 58.2478413,12.0961494 C58.6744645,13.0025205 58.7235356,14.0412501 58.3842584,14.9838035 C58.0449812,15.926357 57.3451509,16.6955154 56.4387398,17.1220537 L56.4387398,17.1201867 Z" id="Shape" fill="url(#linearGradient-3)"></path>
                <polygon id="Rectangle" fill="#0B73DA" transform="translate(58.876474, 22.465773) rotate(-24.520000) translate(-58.876474, -22.465773) " points="36.2337673 17.109414 81.5191815 17.109414 81.5191815 27.8221328 36.2337673 27.8221328"></polygon>
                <path d="M52.3071179,8.06534422 C49.9771788,9.12773207 48.5166709,11.4890768 48.6066719,14.0482141 C48.6966729,16.6073514 50.3194571,18.8602615 52.7182727,19.7563462 C55.1170882,20.6524309 57.8194906,20.0152072 59.5652701,18.1418312 C61.3110497,16.2684552 61.7563768,13.5278866 60.6935823,11.198133 C59.2425947,8.01742067 55.4880834,6.6149118 52.3071179,8.06534422 L52.3071179,8.06534422 Z M56.4499417,17.1481914 C54.6150178,17.9847228 52.4493643,17.175556 51.6125438,15.340764 C50.7757234,13.5059719 51.584549,11.340191 53.4192092,10.5030815 C55.2538694,9.66597207 57.4197778,10.4744565 58.2571762,12.3089848 C59.0936932,14.1438412 58.2846266,16.3094316 56.4499417,17.1463244 L56.4499417,17.1481914 Z" id="Shape" fill="#0B73DA"></path>
                <polygon id="Rectangle" fill="url(#linearGradient-4)" transform="translate(41.439696, 62.264613) rotate(-24.520000) translate(-41.439696, -62.264613) " points="31.4569653 52.2818829 51.4224262 52.2818829 51.4224262 72.2473438 31.4569653 72.2473438"></polygon>
                <polygon id="Rectangle" fill="url(#linearGradient-5)" transform="translate(57.921458, 98.233618) rotate(-24.520000) translate(-57.921458, -98.233618) " points="47.9387274 88.2508879 67.9041883 88.2508879 67.9041883 108.216349 47.9387274 108.216349"></polygon>
                <polygon id="Rectangle" fill="#69F0AE" transform="translate(41.438459, 62.264151) rotate(-24.520000) translate(-41.438459, -62.264151) " points="32.1866504 53.0123428 50.6902677 53.0123428 50.6902677 71.5159601 32.1866504 71.5159601"></polygon>
                <polygon id="Rectangle" fill="#0B73DA" transform="translate(57.706703, 97.926993) rotate(-24.520000) translate(-57.706703, -97.926993) " points="48.454894 88.6751843 66.9585113 88.6751843 66.9585113 107.178802 48.454894 107.178802"></polygon>
                <polygon id="Rectangle" fill="#E0E0E0" transform="translate(71.367680, 45.694509) rotate(-24.520000) translate(-71.367680, -45.694509) " points="58.6862329 44.8095611 84.0491267 44.8095611 84.0491267 46.579456 58.6862329 46.579456"></polygon>
                <polygon id="Rectangle" fill="#E0E0E0" transform="translate(79.983703, 44.682643) rotate(-24.520000) translate(-79.983703, -44.682643) " points="59.0446128 43.7976953 100.922793 43.7976953 100.922793 45.5675903 59.0446128 45.5675903"></polygon>
                <polygon id="Rectangle" fill="#E0E0E0" transform="translate(79.741679, 47.709665) rotate(-24.520000) translate(-79.741679, -47.709665) " points="60.277502 46.8247177 99.2058567 46.8247177 99.2058567 48.5946127 60.277502 48.5946127"></polygon>
                <polygon id="Rectangle" fill="#E0E0E0" transform="translate(87.636698, 81.359049) rotate(-24.520000) translate(-87.636698, -81.359049) " points="74.9552513 80.4741011 100.318145 80.4741011 100.318145 82.2439961 74.9552513 82.2439961"></polygon>
                <polygon id="Rectangle" fill="#E0E0E0" transform="translate(96.251946, 80.345484) rotate(-24.520000) translate(-96.251946, -80.345484) " points="75.3128564 79.4605367 117.191036 79.4605367 117.191036 81.2304317 75.3128564 81.2304317"></polygon>
                <polygon id="Rectangle" fill="#E0E0E0" transform="translate(96.010698, 83.374205) rotate(-24.520000) translate(-96.010698, -83.374205) " points="76.5465204 82.4892578 115.474875 82.4892578 115.474875 84.2591527 76.5465204 84.2591527"></polygon>
                <polygon id="Path" fill="url(#linearGradient-6)" points="37.1603267 63.0030338 41.4954492 64.4107351 42.9218203 56.0672112 45.0315053 56.6441074 42.6585764 66.9591599 36.1204201 64.0933489"></polygon>
                <polygon id="Path" fill="#FFFFFF" points="37.7129522 62.8928821 41.4823804 64.1157526 42.7220537 56.8606768 44.5554259 57.3628938 42.4924154 66.3318553 36.8074679 63.8413069"></polygon>
                <polygon id="Path" fill="#FFFFFF" points="54.0826138 98.778063 57.852042 100.000933 59.0917153 92.7458576 60.9250875 93.2480747 58.862077 102.217036 53.1771295 99.7264877"></polygon>
                <polygon id="Rectangle" fill="#E0E0E0" transform="translate(103.629594, 120.867829) rotate(-24.520000) translate(-103.629594, -120.867829) " points="74.0473304 111.007386 133.211858 111.007386 133.211858 130.728272 74.0473304 130.728272"></polygon>
                <path d="M118.648308,113.919253 C116.579697,113.329288 114.462544,113.441307 113.803501,115.806768 C113.58133,116.603967 113.555193,117.841774 112.700117,118.252509 C111.441774,118.85741 109.923921,117.647608 108.831739,117.154726 C106.796733,116.236173 104.707585,116.86161 103.529522,118.792065 C102.932089,119.770362 102.676313,120.896149 102.472812,122.010735 C102.385064,122.494282 102.373862,123.091715 102.170362,123.547258 C101.780163,124.419137 100.55916,124.340723 99.7582264,124.307118 C99.5827305,124.307118 99.4035006,124.286581 99.2242707,124.267911 C99.8574648,123.395568 100.173641,122.333084 100.12042,121.256476 C100.068145,119.488448 98.9199533,117.554259 96.9129522,117.770828 C95.1150525,117.957526 93.8492415,119.693816 94.0508751,121.450642 C94.2226371,122.944224 95.1953326,124.10175 96.4424737,124.811202 C95.830105,125.081914 95.1766628,125.292882 94.5978996,125.572929 C94.3276055,125.703793 94.065162,125.850288 93.811902,126.011669 C92.0625438,125.167795 89.764294,125.009102 88.1904317,125.869778 C87.4287048,126.286114 87.9850642,127.523921 88.7505251,127.103851 C89.9491249,126.448541 91.2709452,126.612835 92.5236873,127.029172 L92.628238,127.066511 C92.5044565,127.225078 92.3951134,127.394403 92.3015169,127.572462 C91.5939323,128.946558 92.3015169,131.11972 94.0228705,131.269078 C96.4499417,131.476313 96.5638273,128.268845 95.245741,126.991832 C95.1897316,126.93769 95.1337223,126.885414 95.073979,126.835006 C95.6191365,126.571762 96.2091015,126.373862 96.7299883,126.151692 C97.183807,125.959498 97.6156855,125.719148 98.018203,125.434772 L98.1115519,125.459043 C99.9654609,125.879113 102.859277,126.009802 103.525788,123.763827 C104.097083,121.814702 104.151225,117.675613 107.231739,118.058343 C108.488215,118.213302 109.518786,119.17853 110.713652,119.527655 C111.783431,119.846908 113.021237,119.859977 113.898716,119.072112 C114.623104,118.422404 114.785531,117.462777 115.007701,116.566628 C115.121587,116.103617 115.233606,115.550992 115.610735,115.220537 C116.292182,114.624971 117.41797,114.975963 118.17783,115.192532 C119.008635,115.427771 119.490315,114.158226 118.648308,113.919253 Z M94.564294,129.712019 C94.1554259,130.117153 93.722287,129.796033 93.5038506,129.372229 C93.2387398,128.856943 93.3526254,128.349125 93.6905484,127.895449 C93.7457923,127.821361 93.8049996,127.750312 93.8679113,127.682614 C94.6763127,128.205368 95.3372229,128.954026 94.571762,129.712019 L94.564294,129.712019 Z M95.998133,119.630338 C96.838273,118.849942 98.0088681,119.021704 98.5092182,120.093349 C99.0095683,121.164994 98.7892649,122.677246 98.0872812,123.621937 C97.9942141,123.745876 97.8911885,123.862014 97.7792299,123.969195 C97.2899803,123.805641 96.8376772,123.547454 96.4480747,123.209335 C95.4548425,122.313186 94.8928821,120.657176 96.0056009,119.624737 L95.998133,119.630338 Z" id="Shape" fill="#0B73DA"></path>
                <path d="M129.844574,41.3927655 L114.774329,47.2681447 C111.940257,47.0571762 105.97713,46.2879813 100.05881,43.4968495 C93.470245,40.3901984 85.9220537,40.3976663 79.5220537,43.6518086 C64.7729288,44.0046674 56.6553092,42.1152859 52.3239207,40.3267211 L53.4665111,37.981797 L38.1908985,32.0261377 L0,14.9096849 L0,85.0632439 L13.3656943,91.0189032 L20.5348891,73.8203034 L36.2791132,81.1015169 L39.3017503,73.4207701 L49.6392065,81.092182 L50.3430572,81.684014 L49.3740957,82.6903151 C47.5293637,84.6385985 47.5293637,87.6890561 49.3740957,89.6373396 L49.3740957,89.6373396 C50.2429812,90.555856 51.4516148,91.0762573 52.715986,91.0762573 C53.9803572,91.0762573 55.1889908,90.555856 56.0578763,89.6373396 L55.5276546,90.1974329 C53.6829226,92.1457163 53.6829226,95.196174 55.5276546,97.1444574 L55.5276546,97.1444574 C56.3965402,98.0629738 57.6051737,98.5833752 58.8695449,98.5833752 C60.1339161,98.5833752 61.3425497,98.0629738 62.2114352,97.1444574 L65.2732789,93.9612602 L65.2732789,93.9612602 L63.1710618,96.1456243 C61.3263299,98.0939077 61.3263299,101.144365 63.1710618,103.092649 L63.1710618,103.092649 C64.0399474,104.011165 65.248581,104.531567 66.5129522,104.531567 C67.7773234,104.531567 68.9859569,104.011165 69.8548425,103.092649 L72.8774796,99.9505251 L72.8774796,99.9505251 L71.6060677,101.272345 C70.3163507,102.63339 70.3163507,104.765443 71.6060677,106.126488 C72.2129221,106.767746 73.0569061,107.131039 73.93979,107.131039 C74.8226739,107.131039 75.6666579,106.767746 76.2735123,106.126488 L78.2898483,104.031739 C81.7530922,106.561494 84.5554259,108.407935 85.9276546,108.885881 C91.6462077,110.868611 91.6462077,106.89755 91.6462077,106.89755 C99.284014,110.866744 103.103851,102.928355 103.103851,102.928355 C112.651575,106.89755 112.651575,96.9726954 112.651575,96.9726954 C115.037573,98.6268378 116.758926,97.8688448 117.96126,96.4126021 C119.5986,94.4373396 119.798366,91.6499417 118.674446,89.4133022 L127.800233,80.9801634 L131.747025,89.0492415 L147.491249,81.768028 L154.660443,97.6616103 L165.218203,92.9474912 L165.218203,23.5276546 L129.844574,41.3927655 Z" id="Path" fill="url(#linearGradient-7)"></path>
                <polygon id="Path" fill="#BE7C5E" points="127.309218 78.1292882 110.689382 92.9008168 97.764294 68.8952159 127.309218 61.5094516"></polygon>
                <path d="M47.9066511,39.3502917 C47.9066511,39.3502917 53.2406068,46.736056 84.8373396,44.8896149 L103.303617,72.588098 L115.677946,86.5101517 C117.62147,88.6982497 117.731622,92.0158693 115.823571,94.233839 C114.664177,95.57993 112.996966,96.2875146 110.689382,94.7472579 C110.689382,94.7472579 110.689382,103.979463 101.457176,100.286581 C101.457176,100.286581 97.764294,107.672345 90.3785298,103.979463 C90.3785298,103.979463 90.3785298,107.672345 84.8392065,105.825904 C79.2998833,103.979463 49.7530922,79.9757293 49.7530922,79.9757293 L36.8280047,70.7435239 L47.9066511,39.3502917 Z" id="Path" fill="#FDA57D"></path>
                <path d="M114.382264,48.5843641 C114.382264,48.5843641 106.4028,48.5843641 98.5129522,45.0016336 C91.3381564,41.7474912 82.9834306,42.1619603 76.3631272,46.4336056 C70.9675613,49.9155193 66.2926488,55.6807468 66.3803967,65.2023337 C66.3803967,65.2023337 73.5607935,72.588098 81.1519253,57.8165694 L86.6912485,57.8165694 C86.6912485,57.8165694 92.0252042,76.2828471 107.003967,74.4326721 C121.98273,72.5824971 125.470245,70.73979 125.470245,70.73979 L114.382264,48.5843641 Z" id="Path" fill="#BE7C5E"></path>
                <path d="M60.5265273,82.6426918 C63.0506684,82.6426918 65.096889,84.6889124 65.096889,87.2130535 L65.096889,92.4349905 C65.096889,94.9591316 63.0506684,97.0053522 60.5265273,97.0053522 C58.0023862,97.0053522 55.9561656,94.9591316 55.9561656,92.4349905 L55.9561656,87.2130535 C55.9561656,84.6889124 58.0023862,82.6426918 60.5265273,82.6426918 Z" id="Rectangle" fill="#BE7C5E" transform="translate(60.526527, 89.824022) rotate(45.000000) translate(-60.526527, -89.824022) "></path>
                <path d="M54.5749784,75.667102 C57.0991195,75.667102 59.1453402,77.7133227 59.1453402,80.2374638 L59.1453402,85.4594008 C59.1453402,87.9835418 57.0991195,90.0297625 54.5749784,90.0297625 C52.0508373,90.0297625 50.0046167,87.9835418 50.0046167,85.4594008 L50.0046167,80.2374638 C50.0046167,77.7133227 52.0508373,75.667102 54.5749784,75.667102 Z" id="Rectangle" fill="#BE7C5E" transform="translate(54.574978, 82.848432) rotate(45.000000) translate(-54.574978, -82.848432) "></path>
                <path d="M68.3734219,87.0663962 C70.897563,87.0663962 72.9437836,89.1126168 72.9437836,91.6367579 L72.9437836,98.1637124 C72.9437836,100.687854 70.897563,102.734074 68.3734219,102.734074 C65.8492808,102.734074 63.8030602,100.687854 63.8030602,98.1637124 L63.8030602,91.6367579 C63.8030602,89.1126168 65.8492808,87.0663962 68.3734219,87.0663962 Z" id="Rectangle" fill="#BE7C5E" transform="translate(68.373422, 94.900235) rotate(45.000000) translate(-68.373422, -94.900235) "></path>
                <path d="M74.682961,94.3462802 C76.4456322,94.3462802 77.8745596,95.7752076 77.8745596,97.5378788 L77.8745596,101.600423 C77.8745596,103.363094 76.4456322,104.792021 74.682961,104.792021 C72.9202897,104.792021 71.4913624,103.363094 71.4913624,101.600423 L71.4913624,97.5378788 C71.4913624,95.7752076 72.9202897,94.3462802 74.682961,94.3462802 Z" id="Rectangle" fill="#BE7C5E" transform="translate(74.682961, 99.569151) rotate(45.000000) translate(-74.682961, -99.569151) "></path>
                <polygon id="Path" fill="#FFFFFF" points="145.773629 81.8221704 129.155659 89.2079347 112.535823 48.5843641 127.309218 43.0450408"></polygon>
                <polygon id="Path" fill="#FFFFFF" points="20.210035 72.589965 36.8280047 79.9757293 53.4478413 39.3521587 38.6744457 33.8109685"></polygon>
                <polygon id="Path" fill="#333333" points="1.74375729 17.1929988 38.6744457 33.8109685 14.6707118 89.2079347 1.74375729 83.6686114"></polygon>
                <polygon id="Path" fill="#0B73DA" points="164.239907 26.4252042 127.309218 43.0450408 151.314819 98.44014 164.239907 92.9008168"></polygon>
            </g>
        </g>
    </g>
</svg>