<?xml version="1.0" encoding="UTF-8"?>
<svg width="165px" height="160px" viewBox="0 0 165 160" version="1.1" xmlns="http://www.w3.org/2000/svg" xmlns:xlink="http://www.w3.org/1999/xlink">
    <title>Group 4</title>
    <g id="Website" stroke="none" stroke-width="1" fill="none" fill-rule="evenodd">
        <g id="Enterprise" transform="translate(-1081.000000, -3760.000000)" fill-rule="nonzero">
            <g id="Group-4" transform="translate(1081.000000, 3760.000000)">
                <path d="M12.5060106,76.3561353 C12.5060106,76.3561353 10.4402931,101.19407 9.99676577,106.516392 C9.69263636,109.852731 8.94691026,113.133928 7.77913227,116.273983 C7.77913227,116.273983 6.89207767,118.048093 6.89207767,119.822199 L6.89207767,142.44207 C6.89207767,142.44207 5.11797147,142.44207 5.56149877,144.216179 C6.00502606,145.990288 6.44855037,149.094974 6.44855037,149.094974 L13.1014539,149.094974 C13.1014539,149.094974 12.6579296,147.764395 13.9885085,147.320867 C15.3190874,146.87734 13.9885085,143.329125 13.9885085,143.329125 L21.0849392,116.717511 L31.7295854,94.5411667 C31.7295854,94.5411667 37.9389616,114.499877 39.2695435,116.717511 C39.2695435,116.717511 44.1483378,141.555018 45.0353954,143.772652 C45.922453,145.990285 46.3659743,145.990285 45.922447,146.87734 C45.4789197,147.764395 45.4789227,148.651446 45.922447,149.094974 C46.3659713,149.538501 54.792987,149.094974 54.792987,149.094974 L52.5753505,117.604565 L48.5836108,79.9047659 L28.181373,73.6953897 L12.5060106,76.3561353 Z" id="Path" fill="#2F2E41"></path>
                <path d="M11.3273506,145.546746 C11.3273506,145.546746 9.10971715,137.563264 5.56149877,143.77264 C2.01328038,149.982016 2.01328337,152.19965 2.01328337,152.19965 C2.01328337,152.19965 -3.75256851,160.626662 4.23091687,159.739608 C12.2144023,158.852553 10.4402931,154.860814 10.4402931,154.860814 C10.4402931,154.860814 13.5449812,153.086704 13.5449812,151.756125 C13.5449812,150.425547 11.3273506,145.546746 11.3273506,145.546746 Z" id="Path" fill="#2F2E41"></path>
                <path d="M47.2530289,144.659695 C47.2530289,144.659695 49.4706624,136.676209 53.0188808,142.885585 C56.5670992,149.094962 56.5670962,151.312598 56.5670962,151.312598 C56.5670962,151.312598 62.3329481,159.739608 54.3494627,158.852553 C46.3659773,157.965499 48.1400865,153.973759 48.1400865,153.973759 C48.1400865,153.973759 45.0353984,152.19965 45.0353984,150.869071 C45.0353984,149.538492 47.2530289,144.659695 47.2530289,144.659695 Z" id="Path" fill="#2F2E41"></path>
                <path d="M26.4072638,16.4804221 C26.4072638,16.4804221 27.2943184,22.246274 24.6331576,23.5768499 C21.9719968,24.9074258 30.3990095,29.7862291 32.616643,29.7862291 C34.8342765,29.7862291 38.8260192,25.3509591 38.8260192,25.3509591 C38.8260192,25.3509591 36.6083827,18.6980556 37.05191,17.3674737 L26.4072638,16.4804221 Z" id="Path" fill="#A0616A"></path>
                <circle id="Oval" fill="#A0616A" cx="31.2860611" cy="11.6016278" r="9.31406429"></circle>
                <path d="M49.4706624,30.6732807 L38.3828534,23.9555345 C38.3828534,23.9555345 32.0742013,31.116808 25.2489884,23.1333256 L13.5449812,26.2380137 L15.3190904,56.39784 C15.3190904,56.39784 12.6579296,68.3730681 13.5449812,70.5907016 C14.4320328,72.8083351 11.3273477,73.6953897 12.2144023,74.138917 C13.1014569,74.5824443 12.2144023,77.6871324 12.2144023,77.6871324 C12.2144023,77.6871324 29.5119579,86.5576694 48.5835988,79.9047659 L46.8094897,74.138914 C47.3003992,72.6065527 46.9649524,70.9293198 45.9224351,69.703644 C45.9224351,69.703644 47.6965443,67.0424832 45.4789107,64.8248497 C45.4789107,64.8248497 46.3659624,60.8331071 44.1483289,59.0589979 L43.7048016,52.8496217 L45.0353835,49.7449336 L49.4706624,30.6732807 Z" id="Path" fill="#CFCCE0"></path>
                <path d="M26.5193906,7.27684457 C26.5193906,7.27684457 25.4089667,9.67993705 29.8506681,8.71869886 C29.8506681,8.71869886 31.5163188,9.67993705 31.5163188,8.23808276 C31.5163188,8.23808276 33.7371695,10.6411752 34.2923814,9.19931796 C34.8475934,7.75746068 35.9580321,9.67993705 35.9580321,9.67993705 L37.068456,7.27684457 L38.1788828,8.71869886 L42.0653364,8.71869886 C42.0653364,8.71869886 43.1757603,-0.893668056 29.8506561,0.0675701296 C16.525552,1.02880832 23.0808136,16.2586569 23.0808136,16.2586569 C23.0808136,16.2586569 23.188116,13.5248838 24.2985399,14.9667411 C25.4089637,16.4085984 26.5193906,7.27684457 26.5193906,7.27684457 Z" id="Path" fill="#2F2E41"></path>
                <path d="M53.4624051,48.4143666 L53.9059324,57.7284309 C53.9059324,57.7284309 55.6800416,75.0259866 52.1318262,82.5659237 L52.1318262,86.5576634 C52.1318262,86.5576634 51.2447716,96.7587823 46.8095016,96.315255 C42.3742316,95.8717277 48.1400835,81.6788691 48.1400835,81.6788691 L47.2530289,62.163686 L46.3659773,51.0755185 L53.4624051,48.4143666 Z" id="Path" fill="#A0616A"></path>
                <path d="M44.5918681,31.116811 L49.0162707,30.3979823 C52.2034052,33.4602397 54.3744755,37.4264675 55.2365143,41.7614571 C56.5670932,48.8578879 57.0106205,50.1884668 57.0106205,50.1884668 L46.3659773,52.8496276 L40.6001254,41.7614542 L44.5918681,31.116811 Z" id="Path" fill="#CFCCE0"></path>
                <path d="M6.89208066,43.0920361 C6.89208066,43.0920361 2.90034095,59.9460554 7.77913525,59.9460554 C12.6579296,59.9460554 24.1896303,40.8743996 24.1896303,40.8743996 C24.1896303,40.8743996 36.1648554,34.6650234 31.2860611,32.4473899 C26.4072668,30.2297564 20.1978876,35.9956053 20.1978876,35.9956053 L13.0331401,45.9428827 L12.6579206,40.8743996 L6.89208066,43.0920361 Z" id="Path" fill="#A0616A"></path>
                <path d="M16.2061479,28.8991745 L13.5449841,26.2380137 C13.5449841,26.2380137 8.22266255,29.3427018 7.77913227,32.4473899 C7.33560198,35.552078 5.11797147,45.3096696 5.11797147,45.3096696 L13.323219,45.974959 L15.9843798,41.9832163 L16.2061479,28.8991745 Z" id="Path" fill="#CFCCE0"></path>
                <path d="M75.8804536,22.5898802 C75.5463228,21.6032778 71.3562673,18.2495666 73.9238248,17.6858711 L76.0293854,20.4933947 L85.7098182,10.8131441 L86.6834262,11.7867522 L75.8804536,22.5898802 Z" id="Path" fill="#0B73DA"></path>
                <path d="M75.8804536,55.5067856 C75.5463228,54.5201863 71.3562673,51.166475 73.9238248,50.6027795 L76.0293854,53.4103031 L85.7098182,43.7300526 L86.6834262,44.7036607 L75.8804536,55.5067856 Z" id="Path" fill="#0B73DA"></path>
                <path d="M75.8804536,88.8939357 C75.5463228,87.9073364 71.3562673,84.5536251 73.9238248,83.9899296 L76.0293854,86.7974532 L85.7098182,77.1172027 L86.6834262,78.0908078 L75.8804536,88.8939357 Z" id="Path" fill="#0B73DA"></path>
                <circle id="Oval" fill="#3F3D56" cx="105.202218" cy="18.5871984" r="2.98717847"></circle>
                <rect id="Rectangle" fill="#3F3D56" x="116.404072" y="18.2884597" width="48.0935734" height="1"></rect>
                <circle id="Oval" fill="#3F3D56" cx="105.202218" cy="51.5041069" r="2.98717847"></circle>
                <rect id="Rectangle" fill="#3F3D56" x="116.404072" y="51.2053263" width="48.0935734" height="1"></rect>
                <circle id="Oval" fill="#3F3D56" cx="105.202218" cy="84.891257" r="2.98717847"></circle>
                <rect id="Rectangle" fill="#3F3D56" x="116.404072" y="84.5924435" width="48.0935734" height="1"></rect>
                <polygon id="Path" fill="#3F3D56" points="83.4252569 93.3448466 68.4893646 93.3448466 68.4893646 78.1102364 78.6457714 78.1102364 78.6457714 78.7076721 69.0868003 78.7076721 69.0868003 92.7474109 82.8278212 92.7474109 82.8278212 85.8769004 83.4252569 85.8769004"></polygon>
                <polygon id="Path" fill="#3F3D56" points="83.4252569 59.8884477 68.4893646 59.8884477 68.4893646 44.6538375 78.6457714 44.6538375 78.6457714 45.2512732 69.0868003 45.2512732 69.0868003 59.291012 82.8278212 59.291012 82.8278212 52.4205015 83.4252569 52.4205015"></polygon>
                <polygon id="Path" fill="#3F3D56" points="83.4252569 25.8346131 68.4893646 25.8346131 68.4893646 10.600003 78.6457714 10.600003 78.6457714 11.1974386 69.0868003 11.1974386 69.0868003 25.2371775 82.8278212 25.2371775 82.8278212 18.366667 83.4252569 18.366667"></polygon>
            </g>
        </g>
    </g>
</svg>