<?xml version="1.0" encoding="UTF-8"?>
<svg width="379px" height="157px" viewBox="0 0 379 157" version="1.1" xmlns="http://www.w3.org/2000/svg" xmlns:xlink="http://www.w3.org/1999/xlink">
    <title>Group 9</title>
    <g id="Website" stroke="none" stroke-width="1" fill="none" fill-rule="evenodd" opacity="0.75">
        <g id="Enterprise" transform="translate(-272.000000, -2778.000000)" fill-rule="nonzero">
            <g id="Group-11" transform="translate(272.000000, 2778.000000)">
                <g id="Group-9">
                    <g id="Okta_logo" transform="translate(240.000000, 107.000000)" fill="#007DC1">
                        <g id="Group">
                            <path d="M17.2670807,11.6574444 C7.72384327,11.6574444 0,19.4175774 0,29.005653 C0,38.5937285 7.72384327,46.3538616 17.2670807,46.3538616 C26.8103182,46.3538616 34.5341615,38.5937285 34.5341615,29.005653 C34.5341615,19.4175774 26.8103182,11.6574444 17.2670807,11.6574444 Z M17.2670807,37.697002 C12.495462,37.697002 8.61637627,33.7996907 8.61637627,29.005653 C8.61637627,24.2116152 12.495462,20.3143039 17.2670807,20.3143039 C22.0386995,20.3143039 25.9177852,24.2116152 25.9177852,29.005653 C25.9177852,33.7996907 22.0386995,37.697002 17.2670807,37.697002 Z" id="Shape"></path>
                            <path d="M47.6132027,34.8343751 C47.6132027,33.4547959 49.260956,32.7994958 50.2221454,33.7652012 C54.5474976,38.1798547 61.6877616,45.7675404 61.7220898,45.8020299 C61.8250744,45.9054983 61.9280589,46.0779457 62.3399972,46.2159036 C62.5116382,46.2848826 62.7862637,46.2848826 63.0952175,46.2848826 L70.8877171,46.2848826 C72.295173,46.2848826 72.7071113,44.663877 72.0548757,43.8361295 L59.1474754,30.5576796 L58.4609115,29.86789 C56.9847992,28.1089265 57.1564402,27.4191369 58.8385216,25.6256839 L69.0683229,14.1406869 C69.7205586,13.3129394 69.3086203,11.7264233 67.8668362,11.7264233 L60.7952286,11.7264233 C60.5206031,11.7264233 60.3146339,11.7264233 60.1086647,11.7954023 C59.6967264,11.9333602 59.5250855,12.0713181 59.4221009,12.209276 C59.3877727,12.2437655 53.723621,18.382893 50.2221454,22.1422464 C49.260956,23.1769308 47.5445464,22.4871412 47.5445464,21.0730725 L47.5445464,1.37957921 C47.5445464,0.379384284 46.7206697,0 46.0684341,0 L40.3012978,0 C39.3057802,0 38.8251855,0.655300126 38.8251855,1.24162129 L38.8251855,44.9053034 C38.8251855,45.9054983 39.6490621,46.1814142 40.335626,46.1814142 L46.1027623,46.1814142 C46.9952953,46.1814142 47.5788745,45.526114 47.5788745,44.8708139 L47.5788745,44.4224507 L47.5788745,34.8343751 L47.6132027,34.8343751 Z" id="Path"></path>
                            <path d="M94.7114826,44.6983665 L94.0935751,38.9041338 C94.0249188,38.1108758 93.2696985,37.5590441 92.4801501,37.697002 C92.0338836,37.765981 91.5876171,37.8004704 91.1413506,37.8004704 C86.5413728,37.8004704 82.7995999,34.179075 82.5249743,29.5919741 C82.5249743,29.4540162 82.5249743,29.2815688 82.5249743,29.1091214 L82.5249743,22.0042885 C82.5249743,21.0730725 83.2115382,20.3143039 84.1383994,20.3143039 L91.8622426,20.3143039 C92.4114937,20.3143039 93.2353703,19.8314512 93.2353703,18.8312563 L93.2353703,13.3474289 C93.2353703,12.278255 92.5488065,11.7264233 91.930899,11.7264233 L84.1383994,11.7264233 C83.2458664,11.7264233 82.5249743,11.0711232 82.4906461,10.1743967 L82.4906461,1.37957921 C82.4906461,0.827747528 82.0787078,0 81.0145339,0 L75.2817257,0 C74.5608337,0 73.8742699,0.448363244 73.8742699,1.34508973 C73.8742699,1.34508973 73.8742699,29.4540162 73.8742699,29.5919741 C74.1145672,38.9731128 81.7697541,46.45733 91.1413506,46.45733 C91.930899,46.45733 92.6861193,46.388351 93.4413395,46.2848826 C94.2652161,46.1814142 94.8144672,45.4916246 94.7114826,44.6983665 Z" id="Path"></path>
                        </g>
                        <path d="M137.050718,37.1311554 C132.117619,37.1311554 131.353336,35.3746787 131.353336,28.7965013 C131.353336,28.7620606 131.353336,28.7620606 131.353336,28.7276199 L131.353336,12.9193297 C131.353336,12.3682782 130.936455,11.4383787 129.82477,11.4383787 L123.988429,11.4383787 C123.258886,11.4383787 122.459863,12.023871 122.459863,12.9193297 L122.459863,13.6425848 C119.923833,12.1960746 116.970922,11.3694973 113.84431,11.3694973 C104.186554,11.3694973 96.3700247,19.1186592 96.3700247,28.6931791 C96.3700247,38.2676991 104.186554,46.016861 113.84431,46.016861 C118.186827,46.016861 122.147202,44.4325879 125.204333,41.8495339 C126.837119,44.3292657 129.477369,45.9824203 133.611445,46.016861 C134.306247,46.016861 138.058181,46.1546238 138.058181,44.3981472 L138.058181,38.2332584 C138.058181,37.7166476 137.6413,37.1311554 137.050718,37.1311554 Z M113.879051,37.4066811 C109.050172,37.4066811 105.124538,33.5148798 105.124538,28.7276199 C105.124538,23.9403599 109.050172,20.0485586 113.879051,20.0485586 C118.707929,20.0485586 122.633563,23.9403599 122.633563,28.7276199 C122.598823,33.5148798 118.673189,37.4066811 113.879051,37.4066811 Z" id="Shape"></path>
                    </g>
                    <g id="active-directory-seeklogo.com" style="mix-blend-mode: color-burn;" transform="translate(72.000000, 0.000000)" fill="#00AAF2">
                        <path d="M47.4133302,36.2750326 L47.4133302,46.1986617 C47.4133302,47.3608885 47.0507794,47.599294 45.9329146,47.4204899 C38.440199,46.3178644 30.8568457,45.304641 23.303705,44.261617 C21.9441397,44.0828128 21.4607387,43.6060018 21.4607387,42.1457681 C21.5815889,36.8710464 21.5211638,31.566524 21.4607387,26.2322008 C21.4607387,25.069974 21.8232894,24.7123658 23.0015794,24.7123658 C30.7359955,24.7719671 38.3495613,24.7719671 45.9329146,24.7719671 C47.1716296,24.7719671 47.4737553,25.2487781 47.4737553,26.3514036 C47.352905,29.6890806 47.4133302,32.9671563 47.4133302,36.2750326 Z" id="path6"></path>
                        <path d="M34.6055423,22.1110641 C30.7804955,22.1110641 26.9554488,22.0526292 23.130402,22.1110641 C21.9464589,22.1110641 21.4607387,21.8773244 21.4607387,20.5625385 C21.5214537,15.2741774 21.5214537,10.0734687 21.4607387,4.8435426 C21.4607387,3.82093134 21.8250289,3.47032176 22.8268268,3.29501698 C30.6590655,2.21397079 38.4913041,1.16214207 46.3235428,0.0226609565 C47.6896309,-0.15264383 47.4467708,0.723880104 47.4467708,1.45431672 C47.4467708,6.12911103 47.5074858,10.8915577 47.4467708,15.5663521 C47.4467708,17.2901825 47.3860558,19.0140129 47.4467708,20.7378433 C47.5074858,21.8188895 47.0824807,22.1110641 46.0199677,22.1110641 C42.2556359,22.0526292 38.4305891,22.1110641 34.6055423,22.1110641 Z" id="path8"></path>
                        <path d="M9.78480417,24.8017606 L18.2230757,24.8017606 C19.1207641,24.8017606 19.5097624,25.0997435 19.5097624,26.0234905 L19.5097624,42.5913399 C19.5097624,43.5448852 19.0908412,43.6342801 18.2230757,43.5448852 C12.6274843,42.7105331 7.0318929,41.9059792 1.46622448,41.1312237 C0.359075382,40.952434 0,40.5948545 0,39.4327212 C0.0598458971,35.0225742 0.0598458971,30.6124272 0,26.1128854 C0,25.0103487 0.299229485,24.7123658 1.40637858,24.7123658 C4.24905869,24.8017606 6.97204701,24.8017606 9.78480417,24.8017606 L9.78480417,24.8017606 Z" id="path10"></path>
                        <path d="M9.69521834,22.1110641 L1.40207773,22.1110641 C0.357977293,22.1110641 0,21.7605218 0,20.6796832 C0.0596628821,16.4147524 0.0596628821,12.1498216 0,7.85567899 C0,6.83326407 0.29831441,6.48272182 1.40207773,6.30745069 C6.9805572,5.60636617 12.5590367,4.8176461 18.1076847,3.94129045 C19.3904367,3.76601932 19.5097624,4.17498529 19.5097624,5.19740021 L19.5097624,20.7381069 C19.5097624,21.8773693 19.0324594,22.0526404 17.9883589,22.0526404 C15.2140349,22.0526404 12.4098795,22.1110641 9.69521834,22.1110641 L9.69521834,22.1110641 Z" id="path12"></path>
                    </g>
                    <g id="OneLogin_logo" transform="translate(0.000000, 108.850746)" fill="#1C1F2A">
                        <path d="M63.433391,21.3232752 C63.8357169,18.6411022 66.2496726,15.288386 70.8093667,15.288386 C75.1008434,15.288386 77.5147991,18.3728849 77.917125,21.3232752 L63.433391,21.3232752 Z M57.5326104,23.4690136 C57.5326104,30.9790979 63.031065,36.0752266 70.9434753,36.0752266 C76.1737126,36.0752266 79.6605375,33.5271622 81.6721672,31.2473152 C81.9403845,30.9790979 81.9403845,30.7108806 81.6721672,30.4426633 L78.8558856,27.894599 C78.5876683,27.6263817 78.1853423,27.6263817 78.0512337,27.894599 C76.5760386,29.1015768 74.4303002,31.1132066 71.0775839,31.1132066 C67.1884331,31.1132066 64.3721515,28.6992509 63.7016083,25.614752 L83.1473624,25.614752 C83.683797,25.614752 83.9520142,25.3465347 83.9520142,24.8101001 L83.9520142,23.6031222 C83.9520142,16.3612552 79.2582115,10.4604746 71.3458012,10.4604746 C62.6287391,10.4604746 57.5326104,16.2271465 57.5326104,23.4690136 L57.5326104,23.4690136 Z M87.3047305,35.136466 C87.3047305,35.538792 87.5729478,35.8070093 87.9752737,35.8070093 L92.1326418,35.8070093 C92.5349678,35.8070093 92.8031851,35.538792 92.8031851,35.136466 L92.8031851,0.536434596 C92.6690764,0.268217298 92.5349678,0 92.1326418,0 L87.8411651,0 C87.4388391,0 87.3047305,0.268217298 87.3047305,0.536434596 L87.3047305,35.136466 Z M48.9496569,35.136466 C48.9496569,35.538792 49.2178742,35.8070093 49.6202001,35.8070093 L53.6434596,35.8070093 C54.0457855,35.8070093 54.3140028,35.538792 54.3140028,35.136466 L54.3140028,21.1891665 C54.3140028,15.288386 50.827178,10.4604746 43.4512023,10.4604746 L43.3170936,10.4604746 C39.6961601,10.4604746 37.0139871,11.6674525 35.4046833,13.0085389 L35.4046833,11.6674525 C35.4046833,11.2651265 35.136466,10.9969092 34.7341401,10.9969092 L30.576772,10.9969092 C30.174446,10.9969092 29.9062287,11.2651265 29.9062287,11.6674525 L29.9062287,35.0023574 C29.9062287,35.4046833 30.174446,35.6729006 30.576772,35.6729006 L34.7341401,35.6729006 C35.136466,35.6729006 35.4046833,35.4046833 35.4046833,35.0023574 L35.4046833,22.1279271 C35.4046833,18.1046676 37.4163131,15.1542773 42.2442244,15.1542773 C47.0721358,15.1542773 48.9496569,18.1046676 48.9496569,22.1279271 L48.9496569,35.136466 Z M127.403217,42.3783331 C129.280738,44.6581801 133.303997,47.3403531 138.93656,47.3403531 C146.848971,47.3403531 151.542773,42.5124417 151.542773,34.8682487 L151.542773,11.8015611 C151.542773,11.3992352 151.274556,11.1310179 150.87223,11.1310179 L146.983079,11.1310179 C146.580753,11.1310179 146.312536,11.3992352 146.312536,11.8015611 L146.312536,13.1426476 C144.569124,11.6674525 142.289277,10.5945833 138.534234,10.5945833 C131.426476,10.5945833 125.257478,15.8248206 125.257478,23.4690136 C125.257478,31.2473152 131.292367,36.3434439 138.534234,36.3434439 C142.021059,36.3434439 144.300906,35.136466 146.044319,33.7953795 L146.044319,35.4046833 C146.044319,39.6961601 143.496254,42.6465504 138.802452,42.6465504 C134.913301,42.6465504 132.365237,40.500812 130.621824,38.8915082 C130.353607,38.6232909 129.817172,38.6232909 129.548955,38.8915082 L127.403217,41.3054639 C127.000891,41.5736812 127.000891,41.9760071 127.403217,42.3783331 L127.403217,42.3783331 Z M20.9209492,23.3349049 C20.9209492,27.6263817 17.7023417,31.1132066 13.2767562,31.1132066 C8.85117083,31.1132066 5.90078055,27.3581644 5.90078055,23.3349049 L5.90078055,23.0666876 C5.90078055,18.9093195 8.98527948,15.4224946 13.2767562,15.4224946 C17.568233,15.4224946 20.9209492,18.9093195 20.9209492,23.3349049 L20.9209492,23.3349049 Z M0,23.3349049 C0,30.3085547 5.63256326,36.2093352 13.2767562,36.2093352 C20.9209492,36.2093352 26.5535125,30.3085547 26.5535125,23.3349049 L26.5535125,23.0666876 C26.5535125,16.0930379 20.9209492,10.4604746 13.2767562,10.4604746 C5.63256326,10.4604746 0,16.0930379 0,23.3349049 L0,23.3349049 Z M116.808633,23.3349049 C116.808633,27.6263817 113.590026,31.1132066 109.16444,31.1132066 C104.872963,31.1132066 101.788465,27.3581644 101.788465,23.3349049 L101.788465,23.0666876 C101.788465,18.9093195 104.872963,15.4224946 109.16444,15.4224946 C113.590026,15.4224946 116.808633,18.9093195 116.808633,23.3349049 L116.808633,23.3349049 Z M95.887684,23.3349049 C95.887684,30.3085547 101.520247,36.2093352 109.16444,36.2093352 C116.808633,36.2093352 122.441197,30.3085547 122.441197,23.3349049 L122.441197,23.0666876 C122.441197,16.0930379 116.808633,10.4604746 109.16444,10.4604746 C101.520247,10.4604746 95.887684,16.0930379 95.887684,23.3349049 L95.887684,23.3349049 Z M156.638902,35.136466 C156.638902,35.538792 156.907119,35.8070093 157.309445,35.8070093 L161.466813,35.8070093 C161.869139,35.8070093 162.137357,35.538792 162.137357,35.136466 L162.137357,11.6674525 C162.137357,11.3992352 162.003248,11.1310179 161.600922,11.1310179 L157.309445,11.1310179 C156.907119,11.1310179 156.773011,11.3992352 156.773011,11.6674525 L156.773011,35.136466 L156.638902,35.136466 Z M156.638902,4.96202001 C156.638902,5.36434596 156.907119,5.63256326 157.309445,5.63256326 L161.466813,5.63256326 C161.869139,5.63256326 162.137357,5.36434596 162.137357,4.96202001 L162.137357,0.536434596 C162.137357,0.268217298 162.003248,0 161.600922,0 L157.309445,0 C156.907119,0 156.773011,0.268217298 156.773011,0.536434596 L156.773011,4.96202001 L156.638902,4.96202001 Z M186.008696,35.136466 C186.008696,35.538792 186.276913,35.8070093 186.679239,35.8070093 L190.836607,35.8070093 C191.238933,35.8070093 191.507151,35.538792 191.507151,35.136466 L191.507151,21.1891665 C191.507151,15.288386 188.020326,10.4604746 180.64435,10.4604746 L180.510242,10.4604746 C176.889308,10.4604746 174.207135,11.6674525 172.597831,13.0085389 L172.597831,11.6674525 C172.597831,11.2651265 172.329614,10.9969092 171.927288,10.9969092 L167.76992,10.9969092 C167.367594,10.9969092 167.099377,11.2651265 167.099377,11.6674525 L167.099377,35.0023574 C167.099377,35.4046833 167.367594,35.6729006 167.76992,35.6729006 L171.927288,35.6729006 C172.329614,35.6729006 172.597831,35.4046833 172.597831,35.0023574 L172.597831,22.1279271 C172.597831,18.1046676 174.609461,15.1542773 179.437372,15.1542773 C184.265284,15.1542773 186.142805,18.1046676 186.142805,22.1279271 L186.142805,35.136466 L186.008696,35.136466 Z M146.178427,23.3349049 C146.178427,27.6263817 142.95982,31.1132066 138.534234,31.1132066 C134.108649,31.1132066 131.158259,27.3581644 131.158259,23.3349049 L131.158259,23.0666876 C131.158259,18.9093195 134.242758,15.4224946 138.534234,15.4224946 C142.825711,15.4224946 146.178427,18.9093195 146.178427,23.3349049 Z" id="Shape"></path>
                    </g>
                    <g id="auth0-ar21" transform="translate(243.000000, 0.000000)">
                        <path d="M34.1574729,38.6232909 L29.3971523,24.1395568 L41.8531636,15.1898161 L26.4497124,15.1898161 L21.6893918,0.700047148 L37.09405,0.700047148 L41.8591985,15.1886091 C44.6183498,23.5891749 41.7722961,33.1484394 34.1345403,38.6208769 L34.1574729,38.6232909 Z M9.23820839,38.6232909 L21.6942197,47.5790665 L34.1574729,38.6232909 L21.7014616,29.6735502 L9.23820839,38.6232909 Z M1.53768977,15.1837812 C-1.37474776,24.0466195 2.00599717,33.4332862 9.23458746,38.6269118 L9.23458746,38.6232909 L13.9949081,24.1395568 L1.53889675,15.1837812 L16.939934,15.1886091 L21.6893918,0.700047148 L6.27628477,0.700047148 L1.53768977,15.1837812 Z" id="Shape" fill="#EB5424"></path>
                        <path d="M123.950589,12.0154644 C121.469043,12.0154644 119.370108,13.1741631 117.879491,15.361207 C116.400943,17.537388 115.613993,20.5729373 115.613993,24.1395568 C115.613993,27.7061763 116.394908,30.7417256 117.879491,32.9179066 C119.368901,35.1061575 121.469043,36.2636492 123.950589,36.2636492 C126.432136,36.2636492 128.53107,35.1049505 130.021688,32.9179066 C131.500236,30.7417256 132.287185,27.7061763 132.287185,24.1395568 C132.287185,20.5729373 131.506271,17.537388 130.021688,15.361207 C128.532277,13.1729562 126.433343,12.0154644 123.950589,12.0154644 Z M123.950589,33.2498256 C122.765337,33.2498256 121.823894,32.5859877 121.081603,31.2172749 C120.184818,29.5673362 119.691165,27.0532013 119.691165,24.127487 C119.691165,21.2017727 120.183612,18.6888449 121.081603,17.0376992 C121.823894,15.6701933 122.771372,15.0051485 123.950589,15.0051485 C125.129807,15.0051485 126.077284,15.6689863 126.819576,17.0376992 C127.71636,18.6876379 128.210014,21.2017727 128.210014,24.127487 C128.210014,27.0532013 127.717567,29.5661292 126.819576,31.2172749 C126.071249,32.5908157 125.135842,33.2498256 123.950589,33.2498256 Z M70.1495521,20.8445073 L70.1495521,31.2679679 C70.1495521,34.0150495 72.4090146,36.2527864 75.1898916,36.2527864 C77.6038472,36.2527864 79.4505233,35.0614993 80.1191891,34.5630174 C80.1578124,34.535257 80.2072984,34.5243942 80.2398868,34.5412918 C80.2724752,34.5581895 80.3171334,34.589571 80.3340311,34.6354361 L80.7383687,35.9534559 L83.7642621,35.9534559 L83.7642621,20.8445073 L79.904347,20.8445073 L79.904347,32.1321641 C79.904347,32.1876851 79.8765865,32.2323432 79.8271004,32.2601037 C79.1029137,32.6306459 77.6545403,33.2498256 76.2327204,33.2498256 C75.0088449,33.2498256 74.0118812,32.2637247 74.0118812,31.0567468 L74.0118812,20.8457143 L70.1495521,20.8445073 Z M108.803017,35.9317303 L112.662933,35.9317303 L112.662933,25.5082697 C112.662933,22.7611881 110.40347,20.5234512 107.622593,20.5234512 C105.57918,20.5234512 103.934069,21.3924752 103.136256,21.9138897 C103.091362,21.9435442 103.033728,21.9458682 102.986591,21.9199246 C102.939129,21.8948815 102.909404,21.8456487 102.909345,21.7919849 L102.909345,12.3208298 L99.0494295,12.3208298 L99.0494295,35.9365582 L102.909345,35.9365582 L102.909345,24.6440736 C102.909345,24.5885526 102.937105,24.5438944 102.986591,24.5161339 C103.710778,24.1455917 105.159151,23.5264121 106.580971,23.5264121 C107.18446,23.5264121 107.732428,23.7533239 108.150042,24.1685243 C108.567657,24.5837247 108.79819,25.1316926 108.79819,25.7194908 L108.803017,35.9317303 Z M86.5439321,23.8619519 L88.892711,23.8619519 C88.9699576,23.8619519 89.0375483,23.9283357 89.0375483,24.0067893 L89.0375483,32.3144177 C89.0375483,34.4966337 90.8323244,36.273305 93.0423008,36.273305 C93.8449411,36.273305 94.6318906,36.1574352 95.3910797,35.9353512 L95.3910797,33.2099953 L94.0778878,33.2703442 C93.4261198,33.2703442 92.8986704,32.7441018 92.8986704,32.1019896 L92.8986704,23.9995474 C92.8986704,23.9223008 92.9650542,23.85471 93.0435078,23.85471 L95.3922867,23.85471 L95.3922867,20.8445073 L93.0435078,20.8445073 C92.9662612,20.8445073 92.8986704,20.7781235 92.8986704,20.69967 L92.8986704,15.7148515 L89.0387553,15.7148515 L89.0387553,20.69967 C89.0387553,20.7769165 88.9723715,20.8445073 88.893918,20.8445073 L86.5451391,20.8445073 L86.5439321,23.8619519 Z M63.9698256,35.9413861 L67.9854408,35.9413861 L61.878133,14.8844507 C61.3905139,13.1946818 59.806959,12.0154644 58.0158039,12.0154644 C56.2246488,12.0154644 54.6543706,13.1946818 54.1534748,14.8844507 L48.0461669,35.9413861 L52.0617822,35.9413861 L53.8287977,29.8437341 C53.8456954,29.7833852 53.9012164,29.738727 53.9676002,29.738727 L62.038661,29.738727 C62.1031454,29.7389277 62.1597305,29.7817356 62.1774635,29.8437341 L63.9698256,35.9413861 Z M61.1068741,26.741801 L54.9537011,26.741801 C54.9090429,26.741801 54.8655917,26.7200754 54.8378312,26.6862801 C54.8100707,26.6524847 54.8040358,26.6017916 54.8161056,26.5655823 L57.8938991,15.9441773 C57.9107968,15.8838284 57.9663178,15.8391702 58.0327016,15.8391702 C58.0971859,15.8393709 58.153771,15.8821788 58.171504,15.9441773 L61.2492975,26.5655823 C61.2613673,26.6102405 61.2553324,26.6536917 61.2275719,26.6862801 C61.1998114,26.7188685 61.1611881,26.741801 61.1165299,26.741801 L61.1068741,26.741801 Z" id="Shape" fill="#21264C"></path>
                    </g>
                </g>
            </g>
        </g>
    </g>
</svg>