<?xml version="1.0" encoding="UTF-8"?>
<svg width="208px" height="162px" viewBox="0 0 208 162" version="1.1" xmlns="http://www.w3.org/2000/svg" xmlns:xlink="http://www.w3.org/1999/xlink">
    <title>undraw_active_support_6rwo</title>
    <defs>
        <linearGradient x1="50%" y1="100%" x2="50%" y2="0.00386996904%" id="linearGradient-1">
            <stop stop-color="#808080" stop-opacity="0.25" offset="0%"></stop>
            <stop stop-color="#808080" stop-opacity="0.12" offset="54%"></stop>
            <stop stop-color="#808080" stop-opacity="0.1" offset="100%"></stop>
        </linearGradient>
        <linearGradient x1="49.9968894%" y1="99.9831564%" x2="49.9968894%" y2="0%" id="linearGradient-2">
            <stop stop-color="#808080" stop-opacity="0.25" offset="0%"></stop>
            <stop stop-color="#808080" stop-opacity="0.12" offset="54%"></stop>
            <stop stop-color="#808080" stop-opacity="0.1" offset="100%"></stop>
        </linearGradient>
        <linearGradient x1="50%" y1="100%" x2="50%" y2="0%" id="linearGradient-3">
            <stop stop-color="#808080" stop-opacity="0.25" offset="0%"></stop>
            <stop stop-color="#808080" stop-opacity="0.12" offset="54%"></stop>
            <stop stop-color="#808080" stop-opacity="0.1" offset="100%"></stop>
        </linearGradient>
    </defs>
    <g id="Website" stroke="none" stroke-width="1" fill="none" fill-rule="evenodd">
        <g id="Enterprise" transform="translate(-624.000000, -3759.000000)">
            <g id="undraw_active_support_6rwo" transform="translate(625.000000, 3760.000000)">
                <g id="Group" opacity="0.8" transform="translate(10.483895, 32.819149)" fill="url(#linearGradient-1)" fill-rule="nonzero">
                    <path d="M176.669583,117.93698 L0.129909132,117.93698 L0.129909132,3.7536902 C0.129909132,1.76491834 1.74212727,0.152700208 3.73089912,0.152700208 L173.068593,0.152700208 C175.057365,0.152700208 176.669583,1.76491834 176.669583,3.7536902 L176.669583,117.93698 Z" id="Path"></path>
                </g>
                <path d="M16.6374854,35.0458374 L181.118401,35.0458374 C183.107173,35.0458374 184.719391,36.6580555 184.719391,38.6468274 L184.719391,150.75613 L13.0456111,150.75613 L13.0456111,38.6491065 C13.0456111,36.6629998 14.6513847,35.0508651 16.6374854,35.0458374 Z" id="Path" fill="#FFFFFF" fill-rule="nonzero"></path>
                <rect id="Rectangle" fill="#F5F5F5" fill-rule="nonzero" x="18.5724477" y="41.7783212" width="160.620107" height="105.351748"></rect>
                <rect id="Rectangle" fill="#E0E0E0" fill-rule="nonzero" opacity="0.8" x="19.1878068" y="46.8926386" width="159.938654" height="94.7835263"></rect>
                <rect id="Rectangle" fill="#F5F5F5" fill-rule="nonzero" x="19.1878068" y="41.8558108" width="159.938654" height="5.03682777"></rect>
                <circle id="Oval" fill="#FF5252" fill-rule="nonzero" cx="22.6178637" cy="44.2990142" r="1.22160167"></circle>
                <circle id="Oval" fill="#FFFF00" fill-rule="nonzero" cx="25.9749892" cy="44.2990142" r="1.22160167"></circle>
                <circle id="Oval" fill="#69F0AE" fill-rule="nonzero" cx="29.3343938" cy="44.2990142" r="1.22160167"></circle>
                <g id="Group" opacity="0.8" transform="translate(0.000000, 139.481384)" fill="url(#linearGradient-2)" fill-rule="nonzero">
                    <path d="M192.092304,18.8459406 C182.264792,19.5912088 13.4968751,19.3017622 7.6008238,18.8459406 C-0.129909132,15.1195997 0.0112197852,0.6609412 0.0112197852,0.6609412 L77.4098892,0.143583778 L77.6697075,4.54454053 L110.789699,4.54454053 L112.084232,0.670057631 L197.856167,0.670057631 C197.856167,0.670057631 199.560939,13.9253474 192.092304,18.8459406 Z" id="Path"></path>
                </g>
                <path d="M196.600379,141.306949 L112.501309,141.306949 C113.162933,142.072224 113.316748,143.153361 112.894809,144.072796 C112.47287,144.99223 111.552901,145.580596 110.541276,145.577997 L78.4332085,145.577997 C77.4215835,145.580596 76.5016148,144.99223 76.0796759,144.072796 C75.657737,143.153361 75.8115516,142.072224 76.473176,141.306949 L1.16448336,141.306949 C1.16448336,141.306949 1.03471484,153.862553 8.67200437,157.108002 C14.4951243,157.495451 181.200449,157.755269 190.907168,157.108002 C198.293756,152.825559 196.600379,141.306949 196.600379,141.306949 Z" id="Path" fill="#F5F5F5" fill-rule="nonzero"></path>
                <circle id="Oval" fill="#E0E0E0" fill-rule="nonzero" cx="18.6385418" cy="144.025925" r="1.03471484"></circle>
                <circle id="Oval" fill="#E0E0E0" fill-rule="nonzero" cx="21.7449655" cy="144.025925" r="1.03471484"></circle>
                <circle id="Oval" fill="#E0E0E0" fill-rule="nonzero" cx="24.84911" cy="144.025925" r="1.03471484"></circle>
                <path d="M95.6951694,85.6602587 L103.031617,85.6602587 C120.59071,85.6602587 134.825168,99.8947162 134.825168,117.453809 L134.825168,140.56624 L63.9016185,140.56624 L63.9016185,117.453809 C63.9016185,99.8947162 78.1360761,85.6602587 95.6951694,85.6602587 Z" id="Path" fill="#0B73DA" fill-rule="nonzero"></path>
                <circle id="Oval" fill="#333333" fill-rule="nonzero" cx="99.4329058" cy="40.884911" r="32.4134681"></circle>
                <path d="M94.6604545,76.220195 L104.034424,76.220195 C107.684701,76.220195 110.643836,79.1793296 110.643836,82.829607 L110.643836,89.2703651 C110.643836,94.8515134 106.119421,99.3759281 100.538273,99.3759281 L98.1474891,99.3759281 C92.5663408,99.3759281 88.0419261,94.8515134 88.0419261,89.2703651 L88.0419261,82.8387235 C88.0419261,79.188446 91.0010606,76.2293115 94.6513381,76.2293115 L94.6604545,76.220195 Z" id="Path" fill="#000000" fill-rule="nonzero" opacity="0.1"></path>
                <path d="M88.0419261,75.5592538 L110.655232,75.5592538 L110.655232,88.6185403 C110.655232,94.1996887 106.130817,98.7241033 100.549669,98.7241033 L98.1474891,98.7241033 C92.5663408,98.7241033 88.0419261,94.1996887 88.0419261,88.6185403 L88.0419261,75.5592538 Z" id="Path" fill="#FDB797" fill-rule="nonzero"></path>
                <path d="M88.08295,78.8206568 C95.3710658,81.5433841 103.393429,81.5652148 110.696255,78.8821927 L110.696255,76.1062397 L88.08295,76.1062397 L88.08295,78.8206568 Z" id="Path" fill="#000000" fill-rule="nonzero" opacity="0.1"></path>
                <circle id="Oval" fill="#FDB797" fill-rule="nonzero" cx="99.4329058" cy="47.9205161" r="32.4134681"></circle>
                <path d="M68.4438799,36.4474885 L130.253278,36.4474885 C130.253278,36.4474885 124.977144,11.4889813 101.609454,13.0684029 C78.2417635,14.6478245 68.4438799,36.4474885 68.4438799,36.4474885 Z" id="Path" fill="#000000" fill-rule="nonzero" opacity="0.1"></path>
                <path d="M68.4438799,35.6087769 L130.253278,35.6087769 C130.253278,35.6087769 124.977144,10.6502698 101.609454,12.2410868 C78.2417635,13.8319039 68.4438799,35.6087769 68.4438799,35.6087769 Z" id="Path" fill="#333333" fill-rule="nonzero"></path>
                <ellipse id="Oval" fill="#FDB797" fill-rule="nonzero" cx="67.6894953" cy="46.5393769" rx="3.01525934" ry="5.65446592"></ellipse>
                <ellipse id="Oval" fill="#FDB797" fill-rule="nonzero" cx="131.007662" cy="46.5393769" rx="3.01525934" ry="5.65446592"></ellipse>
                <path d="M73.2414014,19.0715723 C73.9821114,16.65116 75.329064,14.3378658 77.4076101,12.8951907 C78.9870316,11.79894 80.8764118,11.2724661 82.6883024,10.6297578 C85.3692109,9.679779 87.9421857,8.44905979 90.3643367,6.95811546 C93.1129405,5.26473853 95.6951694,3.22493724 98.7218242,2.10589541 C103.929585,0.180049499 109.729914,1.22160167 115.106329,2.60274086 C116.43049,2.94232789 117.770605,3.31154332 118.937509,4.02718311 C120.289019,4.85449916 121.326013,6.0988919 122.337937,7.31821446 L130.870916,17.6106643 C131.65265,18.5519358 132.438942,19.5046027 132.990486,20.5985744 C133.504913,21.658227 133.83333,22.7984346 133.961386,23.9693745 C134.189297,25.8564756 134.011526,27.857532 133.049743,29.5007686 C131.607068,31.9644839 128.632832,33.2020393 125.781669,33.3159947 C122.930505,33.4299501 120.131761,32.602634 117.392274,31.8003882 C108.558453,29.213601 99.6152344,26.8023052 90.4532219,25.7288455 C85.906352,25.1677483 81.3180545,25.0190005 76.7443898,25.2844196 C75.308552,25.377863 73.4123345,26.0365251 72.5394363,24.573338 C71.7850517,23.3038751 72.851674,20.3433143 73.2414014,19.0715723 Z" id="Path" fill="#333333" fill-rule="nonzero"></path>
                <line x1="77.7859419" y1="115.400334" x2="77.7859419" y2="140.56624" id="Path" stroke="#000000" stroke-width="4" opacity="0.05"></line>
                <line x1="121.508342" y1="115.400334" x2="121.508342" y2="140.56624" id="Path" stroke="#000000" stroke-width="4" opacity="0.05"></line>
                <g id="Group" opacity="0.8" transform="translate(141.532581, 0.000000)" fill="url(#linearGradient-3)" fill-rule="nonzero">
                    <polygon id="Path" points="63.6098928 45.2334483 22.9369388 45.2334483 9.20987376 56.6791266 9.20987376 45.2334483 0.0592567973 45.2334483 0.0592567973 0 63.6098928 0"></polygon>
                </g>
                <rect id="Rectangle" fill="#FFFFFF" fill-rule="nonzero" x="142.453341" y="0.537869391" width="61.8276306" height="43.2551829"></rect>
                <rect id="Rectangle" fill="#E0E0E0" fill-rule="nonzero" x="149.416014" y="6.89657956" width="48.9894176" height="1.28541668"></rect>
                <rect id="Rectangle" fill="#E0E0E0" fill-rule="nonzero" x="149.416014" y="12.6855128" width="33.6806519" height="1.28541668"></rect>
                <rect id="Rectangle" fill="#E0E0E0" fill-rule="nonzero" x="149.416014" y="18.472167" width="40.4176939" height="1.28541668"></rect>
                <rect id="Rectangle" fill="#0B73DA" fill-rule="nonzero" x="149.416014" y="24.2611003" width="32.4567711" height="1.28541668"></rect>
                <rect id="Rectangle" fill="#0B73DA" fill-rule="nonzero" x="149.416014" y="30.0477544" width="48.9894176" height="1.28541668"></rect>
                <rect id="Rectangle" fill="#E0E0E0" fill-rule="nonzero" x="149.416014" y="35.8366877" width="48.9894176" height="1.28541668"></rect>
                <polygon id="Path" fill="#FFFFFF" fill-rule="nonzero" points="153.030679 42.9520616 153.030679 54.3931817 165.613632 41.8079496"></polygon>
            </g>
        </g>
    </g>
</svg>