<?xml version="1.0" encoding="UTF-8"?>
<svg width="92px" height="97px" viewBox="0 0 92 97" version="1.1" xmlns="http://www.w3.org/2000/svg" xmlns:xlink="http://www.w3.org/1999/xlink">
    <title>visibility</title>
    <g id="Website" stroke="none" stroke-width="1" fill="none" fill-rule="evenodd">
        <g id="Home-Page-Icons" transform="translate(-158.000000, -3097.000000)" fill="#E3342F" fill-rule="nonzero">
            <g id="visibility" transform="translate(158.000000, 3097.000000)">
                <g id="Icon" transform="translate(0.671037, 0.183090)">
                    <path d="M78.5113043,4.76033058 C71.943692,4.76558066 66.6209,10.090688 66.6156522,16.661157 C66.6156522,18.360595 66.9867965,19.9743471 67.63392,21.4452893 L58.33152,31.9132562 C55.1713929,29.7310151 51.4224576,28.5621799 47.5826087,28.5619835 C44.0614957,28.5619835 40.8068452,29.5902149 37.97568,31.2563306 L27.1553948,20.4360992 L27.0459548,20.5455868 C27.9785739,18.6509752 28.5495652,16.5421488 28.5495652,14.2809917 C28.5495652,6.39381779 22.1585274,0 14.2747826,0 C6.39103787,0 0,6.39381779 0,14.2809917 C0,22.1681657 6.39103787,28.5619835 14.2747826,28.5619835 C16.5349565,28.5619835 18.6381078,27.9907438 20.5366539,27.057719 L20.4272139,27.1672066 L31.2474991,37.987438 C29.4994996,40.8913798 28.5674063,44.2135093 28.5495652,47.6033058 C28.5495652,52.3493554 30.3577043,56.6431736 33.2364522,59.9849256 L20.9744139,72.2475372 C19.6000761,71.6971857 18.1342466,71.4113215 16.653913,71.4049587 C10.0970296,71.4049587 4.75826087,76.7412893 4.75826087,83.3057851 C4.75826087,89.870281 10.0970296,95.2066116 16.653913,95.2066116 C23.2107965,95.2066116 28.5495652,89.870281 28.5495652,83.3057851 C28.5495652,81.777719 28.23552,80.3258182 27.707353,78.9786446 L41.2112974,65.4688264 C43.2145252,66.182876 45.3367096,66.6446281 47.5826087,66.6446281 C58.0793322,66.6446281 66.6156522,58.104595 66.6156522,47.6033058 C66.6156522,44.5757355 65.8400557,41.7528595 64.5791165,39.2060826 L74.6523548,27.8622149 C75.8704696,28.281124 77.1552,28.5619835 78.5113043,28.5619835 C85.0729461,28.5619835 90.4069565,23.2256529 90.4069565,16.661157 C90.4069565,10.0966612 85.0729461,4.76033058 78.5113043,4.76033058 Z M47.5826087,57.1239669 C42.334247,57.1239669 38.066087,52.8539504 38.066087,47.6033058 C38.066087,42.3526612 42.334247,38.0826446 47.5826087,38.0826446 C52.8309704,38.0826446 57.0991304,42.3526612 57.0991304,47.6033058 C57.0991304,52.8539504 52.8309704,57.1239669 47.5826087,57.1239669 Z" id="Icon-Shape"></path>
                </g>
            </g>
        </g>
    </g>
</svg>