<?xml version="1.0" encoding="UTF-8"?>
<svg width="1232px" height="771px" viewBox="0 0 1232 771" version="1.1" xmlns="http://www.w3.org/2000/svg" xmlns:xlink="http://www.w3.org/1999/xlink">
    <title>Group 3</title>
    <defs>
        <linearGradient x1="50%" y1="0%" x2="50%" y2="100%" id="linearGradient-1">
            <stop stop-color="#F3D99A" offset="0%"></stop>
            <stop stop-color="#E3B161" offset="80.012141%"></stop>
        </linearGradient>
    </defs>
    <g id="Symbols" stroke="none" stroke-width="1" fill="none" fill-rule="evenodd">
        <g id="Mocking-/-Hero" transform="translate(-10.000000, -8.000000)">
            <g id="Group-3" transform="translate(10.000000, 8.000000)">
                <g id="Background-Shape-2" opacity="0.345889137" transform="translate(167.000000, 130.000000)">
                    <path d="M0.206340551,172.384858 C7.10112455,95.3361561 377.035639,-53.3759549 445.712692,19.6030524 C514.389745,92.5820598 448.365277,229.544566 304.44354,264.617178 C160.521804,299.68979 -6.68844344,249.433559 0.206340551,172.384858 Z" id="Background-Shape" fill="#F2F2F2" transform="translate(236.500000, 138.000000) scale(-1, 1) translate(-236.500000, -138.000000) "></path>
                    <path d="M244.144372,222.447681 C250.320429,156.991794 581.692198,30.6550381 643.210212,92.65356 C704.728225,154.652082 689.156816,285.058789 560.237782,314.854345 C431.318748,344.649901 237.968315,287.903567 244.144372,222.447681 Z" id="Background-Shape" fill="#DDE3E9"></path>
                </g>
                <g id="Background-Shape-2-Copy" opacity="0.345889137" transform="translate(554.000000, 112.000000)">
                    <path d="M0.206340551,172.384858 C7.10112455,95.3361561 377.035639,-53.3759549 445.712692,19.6030524 C514.389745,92.5820598 448.365277,229.544566 304.44354,264.617178 C160.521804,299.68979 -6.68844344,249.433559 0.206340551,172.384858 Z" id="Background-Shape" fill="#F2F2F2" transform="translate(236.500000, 138.000000) scale(-1, 1) translate(-236.500000, -138.000000) "></path>
                    <path d="M244.144372,222.447681 C250.320429,156.991794 581.692198,30.6550381 643.210212,92.65356 C704.728225,154.652082 689.156816,285.058789 560.237782,314.854345 C431.318748,344.649901 237.968315,287.903567 244.144372,222.447681 Z" id="Background-Shape" fill="#DDE3E9"></path>
                </g>
                <g id="box" transform="translate(844.000000, 630.469877)">
                    <rect id="Rectangle" fill="#B27363" fill-rule="nonzero" x="0" y="15.5301229" width="97" height="67"></rect>
                    <polygon id="Path" fill="#98574C" fill-rule="nonzero" points="97 15.5301229 0 15.5301229 17.6589744 0.530122903 79.3410256 0.530122903"></polygon>
                    <line x1="49" y1="0.530122903" x2="49" y2="16.5301229" id="Path" stroke="#B27363" stroke-width="20"></line>
                    <line x1="30" y1="51.5301229" x2="67" y2="51.5301229" id="Path" stroke="#B27363" stroke-width="9"></line>
                    <line x1="30" y1="55.5301229" x2="67" y2="55.5301229" id="Path" stroke="#B27363" stroke-width="9"></line>
                </g>
                <g id="woman-sitting-laptop" transform="translate(825.000000, 456.469877)">
                    <path d="M166.403102,177.452364 C166.874596,180.230227 174.872862,243.738716 176.17185,244.788344 C177.470837,245.837972 191.268033,248.160991 192.449907,246.410405 C192.687159,243.632287 193.029397,199.344775 193.762073,195.383037" id="Path" fill="#224094" fill-rule="nonzero" transform="translate(180.082587, 212.248045) rotate(10.000000) translate(-180.082587, -212.248045) "></path>
                    <path d="M19.897247,151.910993 C14.3581208,149.190706 25.8894395,203.040898 56.2900183,203.029945 C86.6905971,203.018989 137.879035,156.883504 146.163991,156.880519 C164.453634,156.873928 207.736478,192.621769 211.131125,192.620545 C213.731262,190.031208 218.931943,185.499634 218.931943,183.720108 C218.931943,181.940583 177.504332,114.004423 146.487563,114.015599 C134.460657,114.008776 32.4036844,158.059516 19.897247,151.910993 Z" id="Path" fill="#224094" fill-rule="nonzero" transform="translate(118.744374, 158.522772) rotate(10.000000) translate(-118.744374, -158.522772) "></path>
                    <path d="M37.6447656,139.337675 C43.7323304,137.969107 51.3073835,134.428244 58.012885,130.80438 C39.7719816,136.709692 24.825016,140.542039 20.5115311,138.432933 C17.5723016,137.000965 19.4297072,151.352785 26.3364871,165.17512 C25.0863782,162.498365 23.3095329,142.558821 37.6447656,139.337675 Z" id="Path" fill="#224094" fill-rule="nonzero" transform="translate(38.590398, 147.989750) rotate(10.000000) translate(-38.590398, -147.989750) "></path>
                    <path d="M60.6516243,48.3054473 C65.4279611,48.432753 90.2933519,47.6889008 97.1064224,54.2051062 C102.160382,59.0333769 117.865532,100.61924 120.284763,115.220841 C109.724498,120.610114 33.5572894,157.258745 9.99402708,141.16132 C9.47900956,128.645902 11.9158786,78.9248103 27.3382094,52.8390011 C32.9762616,49.0671417 56.0596372,48.183685 60.6516243,48.3054473 Z" id="Path" fill="#17263F" fill-rule="nonzero" transform="translate(65.108453, 96.756138) rotate(10.000000) translate(-65.108453, -96.756138) "></path>
                    <path d="M78.9804488,36.3620148 L64.8563463,36.3671044 L64.8507187,51.9531957 C64.8493093,55.8566891 78.973424,55.818141 78.9748213,51.9481061 L78.9804488,36.3620148 Z" id="Path" fill="#F8CDBA" fill-rule="nonzero" transform="translate(71.915584, 45.613881) rotate(10.000000) translate(-71.915584, -45.613881) "></path>
                    <path d="M65.7405699,45.5953127 C65.7411927,43.8703909 70.652172,39.5340601 73.6869245,39.6832017 C73.761902,37.8024536 66.7559894,35.0228466 66.7559894,35.0228466 L65.7434288,37.677365 L65.7405699,45.5953127 Z" id="Path" fill="#1F161E" fill-rule="nonzero" transform="translate(69.714046, 40.309080) rotate(10.000000) translate(-69.714046, -40.309080) "></path>
                    <path d="M98.1574216,37.1516662 C98.4875617,35.6368878 98.6544935,34.0915647 98.6553927,32.5418562 C98.6595664,20.9785233 89.5771814,11.6055158 78.3595543,11.6095567 C67.1419272,11.6136003 58.0527715,20.9931559 58.0485962,32.5564887 C58.0485962,34.106197 58.214191,35.6514002 58.5432373,37.1659411 L98.1574216,37.1516662 Z" id="Path" fill="#1F161E" fill-rule="nonzero" transform="translate(78.351994, 24.387749) rotate(10.000000) translate(-78.351994, -24.387749) "></path>
                    <path d="M91.6485263,24.1338954 C89.2046087,23.7654689 86.7667903,21.8536674 85.065828,20.6030459 C75.3646616,27.6729847 69.1519701,27.7744403 68.4813802,27.7746819 C67.8107902,27.7749236 65.0771428,31.6784373 63.8189347,32.1198543 L63.7081173,32.0537497 C64.7335427,37.6473462 68.8421409,42.1859923 74.327796,43.7849925 C79.813451,45.3839928 85.7390745,43.7701976 89.6440217,39.6137434 C93.5489688,35.4572892 94.766176,29.4682035 92.7901918,24.133484 C92.411075,24.1804315 92.0276093,24.1805697 91.6485263,24.1338954 Z" id="Path" fill="#F8CDBA" fill-rule="nonzero" transform="translate(78.715465, 32.497827) rotate(10.000000) translate(-78.715465, -32.497827) "></path>
                    <ellipse id="Oval" fill="#1F161E" fill-rule="nonzero" transform="translate(70.247387, 6.856312) rotate(10.000000) translate(-70.247387, -6.856312) " cx="70.2473873" cy="6.85631246" rx="5.73791705" ry="5.72655544"></ellipse>
                    <path d="M69.7088317,24.9067168 C68.2263785,24.9740505 67.0601182,26.1380023 67.059608,27.5506965 C67.0590981,28.9633908 68.2245182,30.1265024 69.7069231,30.1927676" id="Path" stroke="#1F161E" stroke-linecap="round" transform="translate(68.384220, 27.549742) rotate(10.000000) translate(-68.384220, -27.549742) "></path>
                    <path d="M87.8559221,29.3765598 C88.8181369,30.3326427 91.2937376,32.0041362 87.8543316,33.7816021" id="Path" stroke="#1F161E" stroke-linecap="round" transform="translate(88.737442, 31.579081) rotate(10.000000) translate(-88.737442, -31.579081) "></path>
                    <path d="M79.2645531,33.2187114 C79.2643151,33.8782092 79.5571251,35.4538501 81.0291117,35.8611007" id="Path" stroke="#1F161E" stroke-linecap="round" transform="translate(80.146832, 34.539906) rotate(10.000000) translate(-80.146832, -34.539906) "></path>
                    <ellipse id="Oval" fill="#FA9E9F" fill-rule="nonzero" transform="translate(74.802326, 31.810426) rotate(10.000000) translate(-74.802326, -31.810426) " cx="74.8023262" cy="31.8104261" rx="2.20689108" ry="1.32151295"></ellipse>
                    <ellipse id="Oval" fill="#FA9E9F" fill-rule="nonzero" transform="translate(92.190338, 34.869942) rotate(10.000000) translate(-92.190338, -34.869942) " cx="92.1903381" cy="34.8699416" rx="2.20689108" ry="1.32151295"></ellipse>
                    <path d="M94.1925693,98.523908 L109.999142,94.4892664 C111.516744,97.0300546 118.901204,122.181538 118.901204,122.181538 L94.4988367,132.378211 C94.819049,127.61098 95.788075,105.826149 94.1925693,98.523908 Z" id="Path" fill="#F8CDBA" fill-rule="nonzero" transform="translate(106.546886, 113.433739) rotate(10.000000) translate(-106.546886, -113.433739) "></path>
                    <path d="M42.7167079,82.8291153 C42.7160327,84.6992704 41.0479952,91.8187053 40.0639853,95.1641881" id="Path" stroke="#1F161E" stroke-linecap="round" transform="translate(41.390347, 88.996652) rotate(10.000000) translate(-41.390347, -88.996652) "></path>
                    <path d="M99.3983182,96.6539832 C99.0316939,93.7177677 96.8864396,77.1717502 93.2292025,68.4639388" id="Path" stroke="#1F161E" stroke-linecap="round" transform="translate(96.313760, 82.558961) rotate(10.000000) translate(-96.313760, -82.558961) "></path>
                    <path d="M94.1925693,98.523908 L109.999142,94.4892664 C111.516744,97.0300546 118.901204,122.181538 118.901204,122.181538 L94.4988367,132.378211 C94.819049,127.61098 95.788075,105.826149 94.1925693,98.523908 Z" id="Path" fill="#F8CDBA" fill-rule="nonzero" transform="translate(106.546886, 113.433739) rotate(10.000000) translate(-106.546886, -113.433739) "></path>
                    <path d="M204.665134,208.539958 C205.009215,209.075638 209.604872,214.826827 211.231824,214.893922 C212.858775,214.961016 222.739697,208.155562 222.307104,206.694946 C221.874512,205.234331 215.677223,206.184091 214.611265,205.676871 C213.545307,205.169652 211.175125,202.756567 210.797922,201.679454" id="Path" fill="#1F161E" fill-rule="nonzero" transform="translate(213.493011, 208.286934) rotate(10.000000) translate(-213.493011, -208.286934) "></path>
                    <path d="M172.272214,245.437213 C172.156733,246.071399 171.533865,253.549953 172.647534,254.76071 C173.761203,255.971467 185.378983,258.069668 186.05453,256.692589 C186.730077,255.315511 181.665807,251.58674 181.276552,250.455704 C180.887298,249.324669 180.806217,245.885466 181.27859,244.81125" id="Path" fill="#1F161E" fill-rule="nonzero" transform="translate(179.055498, 250.977802) rotate(10.000000) translate(-179.055498, -250.977802) "></path>
                    <polygon id="Path" fill="#969696" fill-rule="nonzero" transform="translate(156.382234, 115.491899) rotate(10.000000) translate(-156.382234, -115.491899) " points="176.476522 132.223817 123.714203 132.242829 136.287947 98.759981 189.050266 98.7409683"></polygon>
                    <polygon id="Rectangle" fill="#969696" fill-rule="nonzero" transform="translate(103.990373, 122.822301) rotate(10.000000) translate(-103.990373, -122.822301) " points="77.5078399 122.39134 130.473225 122.372254 130.472906 123.253263 77.5075218 123.272348"></polygon>
                    <path d="M35.3945513,99.3668272 C34.3788264,103.146573 29.424497,119.267774 31.4634252,122.038956 C33.5023535,124.810137 83.7182675,118.49122 97.1642444,114.334067 C100.588813,113.219614 103.128571,110.296498 104.647444,109.923022 C108.67571,109.246678 112.56995,111.685344 113.690578,115.58605 C108.320821,118.170654 30.7893236,157.506367 5.67761225,140.021174 C0.932066044,136.666527 9.28038445,95.4744036 9.65661754,93.3925479 C13.8988086,93.9142323 35.3945513,99.3668272 35.3945513,99.3668272 Z" id="Path" fill="#F8CDBA" fill-rule="nonzero" transform="translate(58.956524, 118.939258) rotate(10.000000) translate(-58.956524, -118.939258) "></path>
                    <path d="M93.8632552,122.992552 C95.3652876,122.611863 96.6781882,122.243123 97.7574563,121.886346 C101.156618,120.697161 103.677591,117.577857 105.185192,117.179347 C109.185478,116.454385 113.054162,119.057585 114.166567,123.222827" id="Path" stroke="#1F161E" stroke-linecap="round" transform="translate(104.014911, 120.140675) rotate(10.000000) translate(-104.014911, -120.140675) "></path>
                </g>
                <g id="plant-4" transform="translate(1046.000000, 607.469877)">
                    <path d="M29,69.5301229 L29,69.0085134 L27.7578083,67.4436848 L24.911119,63.9228204 L21.8573978,60.1985283 C21.8573978,60.1985283 18.9175442,58.1486028 18.1618776,57.7939083 C15.4083527,56.5107488 12.6962342,55.5301229 9.45618419,55.5301229 C7.4635017,55.5301229 0.015527396,55.8326564 0,57.0949515 C0,58.9675298 10.4292343,66.0562034 18.0790648,69.4988263 C21.4122791,69.5301229 29,69.5301229 29,69.5301229 Z" id="Path" fill="#1F161E" fill-rule="nonzero"></path>
                    <path d="M27.8452585,69.5301229 C17.1444429,61.2871322 -4.69544695,16.22545 0.902785686,-0.469877097 C12.8296821,5.62731916 25.9148335,26.6508706 32.0869763,44.4033939 C32.4136821,45.5582378 32.6749681,46.7307046 32.869581,47.9151696 L35.3739162,59.4291883 L36,69.5301229 L27.8452585,69.5301229 Z" id="Path" fill="#FBDC8E" fill-rule="nonzero"></path>
                    <path d="M34.7987276,69.5301229 C31.1871528,66.5826474 30.0337452,57.8556024 30.002431,54.5986943 C29.9450216,48.5201816 30.8740105,44.0412775 36.0460778,37.354389 C41.2181452,30.6675006 39.8246619,19.5698881 46.713793,12.0910622 C53.6029241,4.61223641 58.1330497,2.5301229 66.2851882,2.5301229 C74.4373267,2.5301229 77.0207508,15.8094967 77,19.1503186 C76.905932,32.6184986 68.4563083,34.5222951 63.3103361,40.9574419 C59.5682854,45.6251523 59.2760192,49.4432344 58.1434878,51.6249957 C52.0580886,63.3676963 47.1313161,67.8046435 43.477989,69.5301229" id="Path" fill="#73E5E2" fill-rule="nonzero"></path>
                    <path d="M37,68.5301229 C37.1030928,45.7955793 60.9123711,11.6496745 66,6.5301229" id="Path" stroke="#FFFFFF" stroke-width="0.4" stroke-linecap="round" stroke-linejoin="round"></path>
                    <path d="M39,58.5301229 C36.2015721,55.6860538 33.6550574,47.6236029 34.0384037,45.5301229" id="Path" stroke="#FFFFFF" stroke-width="0.4" stroke-linecap="round" stroke-linejoin="round"></path>
                    <path d="M31,67.5301229 C27.2762675,60.8625235 9.60911095,28.4266746 3,4.5301229" id="Path" stroke="#FFFFFF" stroke-width="0.4" stroke-linecap="round" stroke-linejoin="round"></path>
                    <polyline id="Path" fill="#B37361" fill-rule="nonzero" points="43.7166031 69.5301229 55 69.5301229 45.5534351 104.530123 20.2943702 104.530123 11 69.5301229 43.7166031 69.5301229"></polyline>
                    <path d="M4,58.5301229 C9.39576399,58.9115799 16.1854766,59.1658845 21,62.5301229" id="Path" stroke="#FFFFFF" stroke-width="0.4" stroke-linecap="round" stroke-linejoin="round"></path>
                </g>
                <g id="Group-2" transform="translate(414.000000, 0.000000)" fill-rule="nonzero">
                    <g id="bi-lightning-fill" transform="translate(0.000000, 18.000000)">
                        <g id="Icon" transform="translate(68.530612, 0.000000)" fill="url(#linearGradient-1)">
                            <g id="Icon-Group" transform="translate(0.036029, 0.000000)">
                                <path d="M240.070639,2.13617374 C245.595821,5.33253247 248.176746,11.9131371 246.293593,18.002884 L196.921174,178.09252 L288.017536,178.09252 C293.489155,178.090344 298.43792,181.33567 300.606953,186.348472 C302.775986,191.361273 301.749724,197.181154 297.996192,201.153962 L78.6850588,433.683337 C74.3154807,438.320113 67.3183067,439.336398 61.8054995,436.134961 C56.2926922,432.933523 53.7213554,426.360544 55.602562,420.278703 L104.974981,260.161711 L13.8786188,260.161711 C8.4070001,260.163887 3.45823438,256.91856 1.28920164,251.905759 C-0.879831107,246.892957 0.14643105,241.073077 3.8999622,237.100268 L223.211096,4.57089308 C227.575037,-0.0592089563 234.560167,-1.07927924 240.070639,2.10881735 L240.070639,2.13617374 Z" id="Icon-Path"></path>
                            </g>
                        </g>
                        <rect id="ViewBox" x="0" y="0" width="438" height="438"></rect>
                    </g>
                    <g id="OpenAPI_Logo_Pantone" transform="translate(34.000000, 0.000000)">
                        <g id="Group">
                            <g transform="translate(0.000000, 24.750272)">
                                <path d="M59.8841704,104.133335 L59.6579204,104.133335 L0.704778761,104.133335 C0.714789823,104.421322 0.722798673,104.711309 0.738816372,104.999296 C0.76284292,105.555271 0.802887168,106.109247 0.836924779,106.665222 C0.852942478,106.903211 0.86295354,107.1412 0.880973451,107.37719 C0.927024336,108.021161 0.983086283,108.661132 1.04115044,109.301104 C1.05516593,109.447097 1.0671792,109.591091 1.08119469,109.731084 C1.14926991,110.443052 1.22735619,111.155021 1.31144912,111.860989 C1.31545354,111.930986 1.32346239,111.998983 1.33347345,112.06698 C1.42557522,112.830945 1.52368363,113.594911 1.63580752,114.354877 C1.63580752,114.362877 1.63780973,114.374876 1.64181416,114.382876 C2.32056416,119.094665 3.33969027,123.762456 4.69919248,128.35025 C4.70519912,128.370249 4.71320796,128.388249 4.71721239,128.408248 C4.9294469,129.130215 5.15369469,129.848183 5.38394912,130.562151 C5.3979646,130.604149 5.41198009,130.646147 5.42399336,130.688146 C5.43600664,130.730144 5.45002212,130.772142 5.46403761,130.81414 C5.67426991,131.460111 5.89451327,132.104082 6.11475664,132.750053 C6.1728208,132.912046 6.22688053,133.076039 6.2869469,133.238031 C6.48516593,133.796006 6.68738938,134.353981 6.89561947,134.911956 C6.99172566,135.163945 7.08783186,135.413934 7.18193584,135.667922 C7.36213496,136.129902 7.54033186,136.587881 7.72253319,137.049861 C7.86068584,137.395845 8.00484513,137.74183 8.14900442,138.087814 C8.29716814,138.447798 8.44933628,138.805782 8.60150442,139.167766 C8.78971239,139.607746 8.9859292,140.045726 9.18014381,140.483707 C9.29627212,140.745695 9.41440265,141.005683 9.53053097,141.265672 C9.77079646,141.791648 10.0190708,142.317625 10.2673451,142.839601 C10.3494358,143.007594 10.4275221,143.175586 10.511615,143.343579 C10.8019358,143.945552 11.0982633,144.541525 11.3985951,145.133498 C11.4486504,145.225494 11.4926991,145.31549 11.53875,145.407486 C11.8771239,146.063457 12.2215044,146.719427 12.575896,147.369398 C12.5919137,147.397397 12.6079314,147.425396 12.6219469,147.457394 C12.6960288,147.593388 12.7781195,147.723382 12.8522013,147.857376 L63.3940487,117.444739 L63.5802544,117.332744 C61.5860509,113.134932 60.3446792,108.671132 59.8841704,104.133335 Z" id="Path" fill="#93D500"></path>
                                <polygon id="Path" fill="#93D500" points="3.49986726 131.240121 3.51788717 131.292118 5.42599558 130.692145"></polygon>
                                <path d="M74.4282412,131.270119 L74.2860841,131.412113 L32.6020243,173.050248 C32.8162611,173.250239 33.0284956,173.45223 33.2487389,173.646221 C33.6371681,173.998205 34.0336062,174.34819 34.428042,174.692174 C34.6322677,174.874166 34.8324889,175.054158 35.0367146,175.23015 C35.5092367,175.638132 35.9857633,176.036114 36.4602876,176.434096 C36.5904314,176.542091 36.7165708,176.648087 36.8447124,176.754082 C37.3793031,177.196062 37.9239049,177.630043 38.4705088,178.062023 C38.5405863,178.116021 38.6106637,178.172018 38.6807412,178.228016 C39.2713938,178.691995 39.8680531,179.143975 40.470719,179.599954 C40.4967478,179.615954 40.5187721,179.631953 40.5387942,179.649952 C43.0495686,181.523868 45.6524447,183.27979 48.3374115,184.915716 C48.4295133,184.973714 48.521615,185.027711 48.615719,185.085709 C49.1262832,185.391695 49.6368473,185.693681 50.1514159,185.991668 C50.4657633,186.17166 50.7801106,186.349652 51.094458,186.527644 C51.3907854,186.699636 51.6871128,186.863629 51.9874447,187.029622 C52.528042,187.325608 53.0726438,187.619595 53.6172456,187.907582 C53.6913274,187.94758 53.7674115,187.987579 53.8434956,188.027577 C55.3591704,188.819541 56.9008739,189.555508 58.4545907,190.263477 L58.4545907,190.263477 L59.9342257,186.675637 L80.8993916,135.819916 L80.9774779,135.631924 C78.6869469,134.407979 76.4925221,132.958044 74.4282412,131.270119 Z" id="Path" fill="#4D5A31"></path>
                                <path d="M70.0874447,127.122305 C69.6369469,126.622328 69.2084735,126.110351 68.7880088,125.592374 C68.4155973,125.132394 68.0551991,124.668415 67.7068142,124.198436 C67.3083739,123.65846 66.9179425,123.116485 66.5495354,122.56251 C66.1771239,122.006534 65.8127212,121.44656 65.4683407,120.876585 L14.8624226,151.327221 C15.639281,152.617163 16.450177,153.873107 17.2770907,155.115051 C17.3051217,155.157049 17.3311504,155.203047 17.3591814,155.245045 L17.3591814,155.245045 C17.3691925,155.261045 17.3792035,155.275044 17.3892146,155.291043 C17.4172456,155.331042 17.4412721,155.37504 17.4693031,155.417038 C17.4713053,155.421038 17.4753097,155.425037 17.4773119,155.429037 C17.543385,155.529033 17.6114602,155.625028 17.6795354,155.725024 C17.6835398,155.731024 17.6875442,155.737023 17.6915487,155.743023 C17.6915487,155.743023 17.6915487,155.743023 17.6915487,155.743023 C17.6935509,155.745023 17.6955531,155.749023 17.6975553,155.751023 C18.5765265,157.048965 19.4795243,158.326907 20.4105531,159.570852 C20.4305752,159.59685 20.4525996,159.624849 20.4726217,159.650848 C20.4926438,159.676847 20.5126659,159.702846 20.5326881,159.728845 C20.937135,160.264821 21.3435841,160.798797 21.7620465,161.328773 C21.8161062,161.39877 21.8701659,161.466767 21.9282301,161.534764 C22.3567035,162.082739 22.7931858,162.622715 23.237677,163.158691 C23.341792,163.284685 23.4499115,163.41268 23.5540265,163.540674 C23.954469,164.018652 24.3549115,164.494631 24.7633628,164.96661 C24.9375553,165.168601 25.1197566,165.370592 25.2959513,165.570583 C25.6443363,165.966565 25.9887168,166.360547 26.3451106,166.75053 C26.5393252,166.96452 26.7415487,167.180511 26.9397677,167.394501 C27.0298673,167.492497 27.1179646,167.588492 27.2100664,167.686488 C27.470354,167.966476 27.7286394,168.246463 27.9909292,168.524451 C28.0950442,168.634446 28.2051659,168.742441 28.3112832,168.852436 C28.771792,169.332414 29.2363053,169.812393 29.7108296,170.284372 L71.456958,128.58624 C70.9784292,128.108261 70.5299336,127.616283 70.0874447,127.122305 Z" id="Path" fill="#6BA43A"></path>
                                <path d="M125.422588,131.24812 C124.964082,131.618104 124.499569,131.980088 124.027046,132.328072 L124.131162,132.502064 L154.568794,182.969803 C155.978352,182.049845 157.371892,181.101887 158.733396,180.105932 C161.67865,177.936029 164.529801,175.584134 167.276836,173.052248 L125.588772,131.412113 L125.422588,131.24812 Z" id="Path" fill="#4D5A31"></path>
                                <path d="M150.722544,185.373696 C150.744569,185.361696 150.768595,185.347697 150.790619,185.335697 L150.788617,185.333698 C150.766593,185.345697 150.744569,185.359696 150.722544,185.373696 L150.722544,185.373696 Z" id="Path" fill="#93D500"></path>
                                <polygon id="Path" fill="#93D500" points="150.694513 185.391695 150.694513 185.389695 150.694513 185.389695 150.692511 185.389695"></polygon>
                                <path d="M150.788617,185.333698 L150.790619,185.335697 C150.922765,185.261701 151.056914,185.191704 151.18906,185.113707 L151.181051,185.099708 C151.048905,185.177705 150.918761,185.255701 150.788617,185.333698 Z" id="Path" fill="#93D500"></path>
                                <polygon id="Path" fill="#93D500" points="150.704524 185.381695 150.722544 185.373696 150.722544 185.371696"></polygon>
                                <polygon id="Path" fill="#93D500" points="150.692511 185.389695 150.694513 185.389695 150.620431 185.263701"></polygon>
                                <path d="M150.722544,185.373696 L150.722544,185.373696 C150.746571,185.361696 150.768595,185.349697 150.790619,185.337697 L150.790619,185.337697 C150.768595,185.347697 150.744569,185.359696 150.722544,185.373696 Z" id="Path" fill="#93D500"></path>
                                <polygon id="Path" fill="#93D500" points="150.666482 185.405694 150.666482 185.405694 150.684502 185.395695 150.684502 185.395695"></polygon>
                                <polygon id="Path" fill="#93D500" points="150.692511 185.389695 150.684502 185.395695 150.684502 185.395695 150.694513 185.391695"></polygon>
                                <path d="M150.704524,185.381695 C150.70052,185.383695 150.696515,185.385695 150.692511,185.387695 L150.692511,185.387695 C150.702522,185.381695 150.712533,185.377696 150.722544,185.371696 L150.722544,185.369696 C150.716538,185.375696 150.710531,185.379695 150.704524,185.381695 Z" id="Path" fill="#93D500"></path>
                                <path d="M150.790619,185.335697 C150.922765,185.257701 151.056914,185.191704 151.187058,185.111707 C151.056914,185.191704 150.922765,185.261701 150.790619,185.335697 L150.790619,185.335697 Z" id="Path" fill="#93D500"></path>
                                <polygon id="Path" fill="#93D500" points="151.18906 185.111707 151.181051 185.099708 151.179049 185.099708"></polygon>
                                <polygon id="Rectangle" fill="#93D500" transform="translate(150.778602, 185.528928) rotate(-33.688478) translate(-150.778602, -185.528928) " points="150.678474 185.428844 150.878624 185.42895 150.87873 185.629012 150.67858 185.628906"></polygon>
                                <polygon id="Path" fill="#93D500" points="150.650465 185.415694 150.652467 185.413694 150.654469 185.413694"></polygon>
                                <polygon id="Path" fill="#93D500" points="150.666482 185.405694 150.654469 185.413694 150.654469 185.413694 150.666482 185.405694"></polygon>
                                <path d="M150.145907,183.383785 L149.112765,181.671862 L120.701372,134.563972 C120.126737,134.909956 119.538086,135.221942 118.951438,135.537928 C118.358783,135.855914 117.762124,136.153901 117.157456,136.439888 C111.699425,139.025772 105.790896,140.345713 99.8743584,140.345713 C95.9980752,140.345713 92.1237942,139.785738 88.3776549,138.669788 C87.7389491,138.479796 87.1162611,138.229808 86.4855642,138.005818 C85.8548673,137.783828 85.2161615,137.591836 84.5954757,137.335848 L63.6443252,188.157571 L62.8234181,190.149482 L62.1206416,191.855405 L62.1166372,191.863405 C62.1706969,191.885404 62.2267588,191.903403 62.2808186,191.925402 C62.3388827,191.949401 62.3949447,191.9674 62.4530088,191.991399 L62.4550111,191.991399 C62.4570133,191.991399 62.4590155,191.993399 62.4590155,191.993399 C62.473031,191.999399 62.4870465,192.003399 62.4990597,192.009398 C62.9936062,192.211389 63.4921571,192.385382 63.9887058,192.579373 C64.6113938,192.821362 65.2340819,193.067351 65.8587721,193.295341 C66.1771239,193.411336 66.4934735,193.54733 66.8118252,193.659325 L66.8138274,193.659325 L66.8138274,193.659325 C73.3770796,195.975221 80.1685841,197.595148 87.0742146,198.503108 C87.3445133,198.535106 87.6128097,198.573104 87.8831084,198.611103 C88.1654204,198.643101 88.4497345,198.6711 88.7320465,198.703099 C89.264635,198.763096 89.7952212,198.825093 90.3298119,198.877091 C90.461958,198.88709 90.594104,198.89909 90.72625,198.911089 C91.3809735,198.973087 92.0356969,199.029084 92.6864159,199.075082 C92.9086615,199.091081 93.1329093,199.101081 93.3531527,199.11708 C93.9277876,199.155078 94.4984181,199.191077 95.0710509,199.217076 C95.4214381,199.237075 95.7718252,199.247074 96.1242146,199.259074 C96.5787168,199.275073 97.0312168,199.293072 97.4897235,199.307072 C98.1444469,199.323071 98.805177,199.329071 99.4639049,199.33107 C99.6200774,199.33107 99.7742478,199.33507 99.9284181,199.33707 C105.444513,199.33707 110.958606,198.879091 116.412633,197.965132 L116.412633,197.965132 C116.504735,197.951132 116.594834,197.935133 116.688938,197.923134 C117.265575,197.823138 117.842212,197.715143 118.41885,197.609148 C118.747212,197.54515 119.077577,197.483153 119.401936,197.419156 C119.738308,197.349159 120.076681,197.279162 120.413053,197.207166 C120.975675,197.089171 121.536294,196.967176 122.098916,196.837182 C122.199027,196.815183 122.301139,196.795184 122.403252,196.767185 C130.694414,194.837272 138.701261,191.849406 146.223573,187.895583 L146.225575,187.893583 L146.225575,187.893583 C146.718119,187.633594 147.19865,187.337608 147.689192,187.07162 C148.273838,186.751634 148.85448,186.421649 149.435122,186.089664 C149.837566,185.859674 150.244015,185.647683 150.642456,185.409694 C150.642456,185.409694 150.644458,185.407694 150.644458,185.407694 C150.648462,185.405694 150.652467,185.401694 150.656471,185.399695 C150.656471,185.399695 150.656471,185.399695 150.658473,185.399695 L150.658473,185.399695 C150.66448,185.395695 150.670487,185.393695 150.676493,185.389695 C150.680498,185.387695 150.6825,185.385695 150.684502,185.383695 L150.61042,185.257701 L150.684502,185.383695 C150.688507,185.381695 150.692511,185.379695 150.696515,185.377696 C150.702522,185.373696 150.708529,185.371696 150.714535,185.367696 C150.73656,185.353697 150.758584,185.341697 150.780608,185.327698 C150.910752,185.249701 151.040896,185.171705 151.17104,185.093708 L151.17104,185.093708 L150.145907,183.383785 Z" id="Path" fill="#93D500"></path>
                                <path d="M74.4522677,69.020908 C74.9127765,68.6489247 75.3772898,68.2889408 75.8478097,67.9409564 L75.7436947,67.7669642 L45.3080642,17.299225 C43.8945022,18.2211837 42.496958,19.1711412 41.1334513,20.1710964 C38.1901991,22.3349994 35.3410509,24.6848942 32.6000221,27.2147808 L74.2880863,68.8549155 L74.4522677,69.020908 Z" id="Path" fill="#93D500"></path>
                                <path d="M29.7088274,29.9866567 C29.2343031,30.4606354 28.7858075,30.9506135 28.3232965,31.430592 C27.8607854,31.9105705 27.3902655,32.3885491 26.9377655,32.8765272 C23.8583628,36.206378 21.0432522,39.6942218 18.5044469,43.3160596 C18.3823119,43.4860519 18.260177,43.664044 18.1400442,43.8380362 C17.8537279,44.2540175 17.5714159,44.6699989 17.2931084,45.0879802 C17.0027876,45.5219607 16.714469,45.961941 16.4341593,46.3999214 C16.328042,46.5599142 16.223927,46.721907 16.1218142,46.8818998 C6.53321903,61.9072267 1.39554204,78.9484633 0.704778761,96.1336935 C0.67875,96.7996636 0.664734513,97.4676337 0.650719027,98.1336039 C0.63670354,98.799574 0.616681416,99.4675441 0.616681416,100.133514 L59.6579204,100.133514 C59.6579204,99.4655442 59.7199889,98.8015739 59.7540265,98.1336039 C59.7880642,97.4656338 59.7980752,96.7976637 59.8641482,96.1336935 C60.6269912,88.4540375 63.5942699,80.9563734 68.7679867,74.6566556 C69.1884513,74.1446785 69.6629757,73.6647 70.1134735,73.1707221 C70.561969,72.6767443 70.9784292,72.1627673 71.456958,71.6867886 L29.7088274,29.9866567 Z" id="Path" fill="#4D5A31"></path>
                                <path d="M151.529436,15.3493124 C151.449347,15.2993146 151.365254,15.2513168 151.285166,15.2033189 C150.766593,14.8853332 150.242013,14.5793469 149.717434,14.2733606 C149.413097,14.0973685 149.108761,13.9273761 148.802423,13.7533839 C148.494082,13.5813916 148.189746,13.4093993 147.879403,13.2414068 C147.346814,12.9494199 146.812223,12.6614328 146.275631,12.3774455 C146.191538,12.3354474 146.109447,12.2894495 146.023352,12.2454514 C142.561527,10.4375324 139.005597,8.84560374 135.375586,7.46366565 C135.283485,7.42566735 135.187378,7.38966896 135.093274,7.35567048 C134.3024,7.05968374 133.509524,6.76569691 132.710642,6.48970928 C126.261515,4.23981007 119.592146,2.66188075 112.816659,1.77392053 C112.540354,1.73592224 112.262046,1.69792394 111.985741,1.66192555 C111.707434,1.62792707 111.431128,1.59992833 111.154823,1.56992967 C110.620232,1.50793245 110.087644,1.44793514 109.551051,1.39593747 C109.402887,1.38193809 109.252721,1.37193854 109.102555,1.35593926 C108.467854,1.29794186 107.829148,1.24194436 107.194447,1.19594642 C106.948175,1.17794723 106.697898,1.16394786 106.451626,1.14994849 C105.907024,1.1139501 105.356416,1.0759518 104.811814,1.05195288 C104.519491,1.03595359 104.231173,1.02795395 103.942854,1.0179544 L103.940852,59.9033165 L103.940852,60.1333062 C106.978208,60.4472921 109.987533,61.0932632 112.906759,62.0832188 L156.462887,18.5771678 C154.847102,17.457218 153.211294,16.3692667 151.529436,15.3493124 Z" id="Path" fill="#4D5A31"></path>
                                <polygon id="Path" fill="#6BA43A" points="49.7289491 16.8812438 48.6958075 15.1693205 48.6958075 15.1693205"></polygon>
                                <polygon id="Path" fill="#6BA43A" points="48.6898009 15.157321 48.6958075 15.1693205 48.6958075 15.1693205"></polygon>
                                <path d="M97.9362168,0.969956548 C97.2694801,0.983955921 96.6007412,0.985955832 95.9340044,1.01195467 C91.7573894,1.17994714 87.5887832,1.60592806 83.4542146,2.29789706 C83.364115,2.31389634 83.2740155,2.32789572 83.1819137,2.343895 C82.6012721,2.44389052 82.0266372,2.54988577 81.45,2.65788093 C81.1236394,2.71987816 80.7952765,2.77987547 80.4689159,2.84587251 C80.1285398,2.91386947 79.7901659,2.98386633 79.451792,3.05786302 C78.8911726,3.17385782 78.3305531,3.29585235 77.7699336,3.42584653 L77.7699336,3.42584653 C77.6678208,3.44784555 77.5677102,3.47184447 77.4635951,3.49384348 C69.1724336,5.42575694 61.1615819,8.415623 53.6412721,12.3694459 C53.6412721,12.3694459 53.6412721,12.3694459 53.6412721,12.3694459 L53.6392699,12.3694459 C53.1487279,12.6294342 52.6701991,12.9234211 52.1816593,13.1914091 C51.5970133,13.5113947 51.0163717,13.8413799 50.4357301,14.1733651 C50.0052544,14.421354 49.5667699,14.6493437 49.1382965,14.9053323 C49.134292,14.9073322 49.1282854,14.911332 49.124281,14.9133319 C49.124281,14.9133319 49.1222788,14.9133319 49.1222788,14.9133319 C49.0922456,14.9313311 49.0622124,14.9473304 49.0321792,14.9653296 C48.9200553,15.0333265 48.803927,15.089324 48.6918031,15.157321 L48.6978097,15.1673205 L49.7309513,16.8812438 L49.7309513,16.8812438 L79.1734845,65.7030567 C79.7481195,65.3570722 80.3367699,65.0430862 80.9234181,64.7291003 C81.5140708,64.4111145 82.1127323,64.1131279 82.7153982,63.8271407 C86.9200442,61.8272303 91.3889823,60.5872858 95.9320022,60.1273064 C96.5987389,60.0593095 97.2654757,60.003312 97.9342146,59.9693135 C98.6009513,59.9353151 99.2676881,59.9013166 99.936427,59.9013166 L99.9384292,0.92995834 C99.2696903,0.92995834 98.6029535,0.957957086 97.9362168,0.969956548 Z" id="Path" fill="#6BA43A"></path>
                                <path d="M199.13604,95.2577327 C199.108009,94.7277564 199.075973,94.1997801 199.039934,93.6678039 C199.023916,93.4038157 199.0099,93.1418275 198.987876,92.8738395 C198.943827,92.2518674 198.89177,91.6278953 198.833706,91.0059232 C198.821692,90.8439304 198.805675,90.6839376 198.791659,90.5219448 C198.723584,89.825976 198.649502,89.1300072 198.569414,88.4360383 C198.561405,88.3800408 198.555398,88.3240433 198.549392,88.2680458 C198.545387,88.242047 198.543385,88.2140482 198.539381,88.1880494 C198.447279,87.438083 198.347168,86.6881166 198.241051,85.9401501 C198.239049,85.9181511 198.237046,85.8901523 198.23104,85.8701532 C197.55229,81.1683639 196.535166,76.5085726 195.179668,71.9267779 C195.169657,71.8947793 195.161648,71.8667806 195.151637,71.8387818 C194.9374,71.1268137 194.719159,70.4188454 194.494912,69.712877 C194.464878,69.6208812 194.432843,69.5268854 194.404812,69.4328896 C194.19458,68.7949182 193.982345,68.1609466 193.762102,67.5249751 C193.700033,67.3549827 193.639967,67.1829904 193.5799,67.0089982 C193.385686,66.4590228 193.185465,65.9110474 192.981239,65.3630719 C192.883131,65.1010836 192.78302,64.8410953 192.680907,64.5811069 C192.508717,64.1271273 192.33052,63.6731476 192.150321,63.2251677 C192.006162,62.8651838 191.862002,62.5111997 191.713838,62.1572155 C191.569679,61.8052313 191.421515,61.4572469 191.273352,61.1052626 C191.079137,60.6572827 190.88292,60.2093028 190.684701,59.7633228 C190.572577,59.513334 190.460454,59.2593453 190.344325,59.0073566 C190.100055,58.4753805 189.849779,57.9434043 189.5975,57.413428 C189.519414,57.2534352 189.44333,57.0894425 189.365243,56.9294497 C189.070918,56.3234769 188.772588,55.717504 188.468252,55.1175309 C188.424204,55.0355345 188.382157,54.9515383 188.338108,54.8675421 C187.997732,54.2055717 187.649347,53.5416015 187.294956,52.8876308 C187.28094,52.8656318 187.270929,52.8396329 187.256914,52.8176339 C185.537013,49.6577755 183.648927,46.6019124 181.60667,43.6620441 L138.036527,87.1840944 C139.027622,90.1019637 139.672334,93.1058291 139.986681,96.1376933 L140.218938,96.1376933 L199.17208,96.1376933 C199.158064,95.8397066 199.150055,95.5477197 199.13604,95.2577327 Z" id="Path" fill="#4D5A31"></path>
                                <path d="M140.214934,100.133514 C140.214934,100.801484 140.152865,101.465455 140.118827,102.133425 C140.086792,102.801395 140.074779,103.469365 140.008706,104.133335 C139.245863,111.812991 136.278584,119.312655 131.106869,125.612373 C130.686405,126.12435 130.211881,126.604328 129.761383,127.098306 C129.312887,127.592284 128.896427,128.106261 128.417898,128.58224 L170.166029,170.280372 C170.640553,169.806393 171.087046,169.316415 171.549558,168.834437 C172.012069,168.352458 172.482588,167.87648 172.933086,167.388501 C176.0225,164.046651 178.845619,160.550808 181.390431,156.916971 C181.492544,156.772977 181.58865,156.630983 181.686759,156.48899 C181.997102,156.04301 182.299436,155.59303 182.603772,155.14305 C182.870066,154.741068 183.136361,154.339086 183.394646,153.933104 C183.522788,153.739113 183.650929,153.537122 183.775066,153.343131 C193.349646,138.325803 198.473308,121.302566 199.162069,104.131335 C199.188097,103.465365 199.202113,102.797395 199.216128,102.131425 C199.230144,101.465455 199.250166,100.799484 199.250166,100.131514 L140.214934,100.131514 L140.214934,100.133514 Z" id="Path" fill="#6BA43A"></path>
                            </g>
                            <path d="M216.791549,8.16301553 C205.989613,-2.62650112 188.476261,-2.62650112 177.676327,8.16301553 C169.058805,16.76863 167.336903,29.6340537 172.468573,39.9655909 L112.22,100.146895 C101.876571,95.0231244 88.9963385,96.7410475 80.3788164,105.346662 C69.5768805,116.136179 69.5788827,133.629395 80.3788164,144.418912 C91.1827544,155.208428 108.696106,155.204428 119.498042,144.416912 C128.113562,135.811297 129.833462,122.945874 124.701792,112.612336 L184.950365,52.4330323 C195.295796,57.5568028 208.174027,55.8388798 216.789546,47.2312654 C227.591482,36.4477484 227.591482,18.9525322 216.791549,8.16301553 Z" id="Path" fill="#424143"></path>
                        </g>
                    </g>
                </g>
                <g id="A-Human/Sitting" transform="translate(387.500000, 545.000000) scale(-1, 1) translate(-387.500000, -545.000000) translate(269.000000, 377.000000)">
                    <g id="Head/Front/Short-2" transform="translate(126.400000, 98.591549) rotate(15.000000) translate(-126.400000, -98.591549) translate(72.680000, 57.577465)">
                        <g id="Head" stroke-width="1" transform="translate(42.660000, 24.450704)" fill="#B28B67">
                            <path d="M30.1332397,7.20422878 C34.7111402,15.7234234 34.1671666,37.3330671 28.2506381,38.8556848 C25.8912495,39.4628731 20.86518,37.9756069 15.7496905,34.8973667 L18.96,57.5774648 L0,57.5774648 L6.52675262,27.2029602 C2.88674761,22.9369984 0.423168216,17.7090735 0.834853304,11.8510622 C2.02108087,-5.02818524 25.5553392,-1.31496586 30.1332397,7.20422878 Z" id="Head-[skin]"></path>
                        </g>
                        <path d="M47.7303293,55.4538186 C45.3506627,44.8839675 38.5713808,37.6788541 39.6067398,32.9545827 C40.2969791,29.8050683 42.1366738,27.846496 45.1258238,27.0788655 C46.6717839,20.8347612 51.6578223,18.1789003 60.0839392,19.1112827 C72.7231145,20.5098564 80.4373636,25.7503449 77.1059607,37.2817065 C74.043618,37.2817065 70.3467159,36.1759895 65.2346687,38.0704389 C63.6126367,38.67154 62.4525119,40.5356075 61.7542943,43.6626412 L59.4441803,43.6626412 C57.2021174,39.9517071 54.991429,38.5880401 52.8121152,39.5716401 C50.6328013,40.5552402 50.1374078,42.9444087 51.3259347,46.7391457 L50.1879701,55.4538186 L47.7303293,55.4538186 Z" id="Hair" fill="#191847"></path>
                    </g>
                    <g id="Bottom/Sitting/Baggy-Pants" transform="translate(0.000000, 205.070423)">
                        <g id="Objects/Seat/Cube-2" transform="translate(7.900000, 33.126761)" fill="#C5CFD6">
                            <path d="M134.1,0 C142.936556,-1.623249e-15 150.1,7.163444 150.1,16 L150.1,81.8028169 C150.1,90.6393729 142.936556,97.8028169 134.1,97.8028169 L49.97,97.8028169 C41.133444,97.8028169 33.97,90.6393729 33.97,81.8028169 L33.97,16 C33.97,7.163444 41.133444,1.623249e-15 49.97,0 L134.1,0 Z M123.98,22.084507 L60.09,22.084507 C57.880861,22.084507 56.09,23.875368 56.09,26.084507 L56.09,26.084507 L56.09,71.7183099 C56.09,73.9274489 57.880861,75.7183099 60.09,75.7183099 L60.09,75.7183099 L123.98,75.7183099 C126.189139,75.7183099 127.98,73.9274489 127.98,71.7183099 L127.98,71.7183099 L127.98,26.084507 C127.98,23.875368 126.189139,22.084507 123.98,22.084507 L123.98,22.084507 Z" id="Seat"></path>
                        </g>
                        <path d="M236.335581,126.985915 C220.760045,107.996532 210.221265,93.9186526 204.719241,84.7522767 C195.298441,69.0572157 187.587966,55.0915102 185.154732,49.7566735 C179.352374,37.0350712 198.512698,31.0781214 202.849114,37.0118986 C209.412453,45.9929061 223.429415,74.2536081 244.9,121.794005 L236.335581,126.985915 Z" id="Legs-[skin]" fill="#B28B67"></path>
                        <path d="M204.418478,121.464789 L175.431506,48.6149226 C169.231769,35.3348777 199.171449,26.6055814 203.727787,32.7858482 C214.072084,46.816967 238.658088,102.167696 241.74,106.348035 L204.418478,121.464789 Z" id="LegLower" fill="#2F3676"></path>
                        <path d="M149.469147,122.425583 C148.682222,112.481367 147.232741,78.0555645 148.72258,62.119439 C149.1507,57.5400356 149.601441,53.1124583 150.055437,48.9589735 C151.404875,36.6133471 174.301665,36.985587 172.474136,48.7149791 C167.922867,77.9258013 159.920343,118.864353 159.346298,122.401582 C158.54175,127.359159 149.963705,128.675212 149.469147,122.425583 Z" id="Legs-[skin]" fill="#B28B67" transform="translate(160.327486, 83.219992) rotate(39.000000) translate(-160.327486, -83.219992) "></path>
                        <g id="Shoe/Flat-Sneaker-Shoe" transform="translate(149.705000, 110.422535) rotate(30.000000) translate(-149.705000, -110.422535) translate(125.610000, 94.647887)" fill="#E4E4E4">
                            <path d="M1.95308745,20.4758171 C1.17769582,22.6117695 0.79,24.2274247 0.79,25.3227826 C0.79,26.7450929 1.02732722,28.8205973 1.50198166,31.5492958 C3.15461312,31.5492958 18.0070903,31.5492958 46.0594133,31.5492958 C47.217303,27.7274987 46.5489019,25.6642334 44.0542101,25.3595 C41.5595182,25.0547665 39.4871353,24.7796166 37.8370613,24.5340502 L17.3236696,15.4037516 C16.8191063,15.1791757 16.2280222,15.4061503 16.0034463,15.9107136 C15.9997621,15.9189911 15.9961905,15.9273183 15.9927326,15.9356928 L14.7439383,18.9600975 L14.7439383,18.9600975 C12.4345062,20.0358947 10.5578527,20.5737932 9.1139781,20.5737932 C8.01490863,20.5737932 6.52351529,20.1585984 4.63979807,19.3282086 L4.63980208,19.3281995 C3.62907563,18.882646 2.44852744,19.3408092 2.0029739,20.3515356 C1.98496238,20.3923943 1.96832424,20.4338447 1.95308745,20.4758171 Z" id="shoe"></path>
                        </g>
                        <g id="Shoe/Flat-Sneaker-Shoe" transform="translate(227.520000, 104.112676)" fill="#E4E4E4">
                            <path d="M1.95308745,20.4758171 C1.17769582,22.6117695 0.79,24.2274247 0.79,25.3227826 C0.79,26.7450929 1.02732722,28.8205973 1.50198166,31.5492958 C3.15461312,31.5492958 18.0070903,31.5492958 46.0594133,31.5492958 C47.217303,27.7274987 46.5489019,25.6642334 44.0542101,25.3595 C41.5595182,25.0547665 39.4871353,24.7796166 37.8370613,24.5340502 L17.3236696,15.4037516 C16.8191063,15.1791757 16.2280222,15.4061503 16.0034463,15.9107136 C15.9997621,15.9189911 15.9961905,15.9273183 15.9927326,15.9356928 L14.7439383,18.9600975 L14.7439383,18.9600975 C12.4345062,20.0358947 10.5578527,20.5737932 9.1139781,20.5737932 C8.01490863,20.5737932 6.52351529,20.1585984 4.63979807,19.3282086 L4.63980208,19.3281995 C3.62907563,18.882646 2.44852744,19.3408092 2.0029739,20.3515356 C1.98496238,20.3923943 1.96832424,20.4338447 1.95308745,20.4758171 Z" id="shoe"></path>
                        </g>
                        <path d="M165.001052,52.2535623 C140.908565,48.3348897 124.771091,45.6553165 116.588629,44.2148427 C93.2653863,40.1089246 86.4641304,27.5782889 90.4853961,0.238377534 L133.458073,0.238377534 C139.144817,1.87796679 162.906236,12.0182945 204.742332,30.6593605 C212.26947,34.3899418 210.86767,45.3895761 209.491842,49.013469 C209.435731,49.1612652 196.746417,70.8699835 171.423901,114.139624 L136.270439,91.7812318 L165.06707,54.888193 C165.827562,53.3589196 165.805556,52.4807094 165.001052,52.2535623 Z" id="Leg-and-Butt" fill="#5C63AB"></path>
                    </g>
                    <g id="Body/Hoodie" transform="translate(17.380000, 122.253521)">
                        <path d="M53.9632632,73.3678017 L70.4722027,73.4326195 C60.2786943,106.286217 54.7757144,123.71813 53.9632632,125.728358 C52.1352478,130.251372 56.0035741,137.139845 57.657824,140.841658 C52.2699873,143.248686 52.844067,134.334479 46.047456,137.491431 C39.8438245,140.372949 35.1247375,145.594069 27.9573378,141.178659 C27.0761481,140.635811 26.1105078,138.591887 28.4436169,136.99467 C34.2562425,133.015417 42.6325882,126.051009 43.7643644,123.75862 C45.3077435,120.632539 48.7073764,103.835599 53.9632632,73.3678017 L53.9632632,73.3678017 Z M150.717152,72.7301857 L175.916786,91.2051367 C182.751445,93.0464153 188.461583,95.3372769 193.047198,98.0777214 C194.130399,99.0631676 195.43955,101.05886 190.94725,100.713954 L190.046772,100.647871 C185.841164,100.355087 181.672865,100.309957 181.094338,101.737766 C180.474488,103.267562 183.192985,105.09703 181.939998,107.161124 C181.104673,108.537187 177.158264,105.08676 170.10077,96.8098426 L145.146521,86.4785499 L150.717152,72.7301857 Z" id="Arms-[skin]" fill="#B28B67"></path>
                        <path d="M96.9645821,7.56145151 L103.667858,5.80069959 C130.822479,25.368521 144.853482,66.2971532 177.741948,85.7516405 L171.099206,95.6222363 C116.826751,93.6824736 99.054246,43.8169418 96.9645821,7.56145151 Z" id="Coat-Back" fill="#E87613" transform="translate(137.353265, 50.711468) rotate(5.000000) translate(-137.353265, -50.711468) "></path>
                        <path d="M71.1,89.915493 C98.4906871,89.915493 118.638702,89.915493 131.544046,89.915493 C134.306031,89.915493 133.785587,85.9336856 133.386326,83.9244438 C128.778364,60.735365 110.79063,35.7386601 110.79063,2.72959009 L93.3557221,0 C78.9348131,23.1559265 73.9478128,51.6655605 71.1,89.915493 Z" id="Shirt" fill="#DDE3E9"></path>
                        <path d="M92.0429247,-5.32907052e-15 C92.6314491,-4.88498131e-15 93.1706094,0.0367323038 93.6604057,0.110196911 L99.1225539,0.421766716 C114.782249,53.4091674 119.101099,88.7615362 112.079105,106.478873 L112.079105,106.478873 L64.5046816,106.479459 C61.6860535,113.041354 58.988861,118.562285 56.4131042,123.042254 L56.4131042,123.042254 L43.45,123.042254 C42.229973,83.6580086 51.6088227,50.230615 71.5865493,22.7600727 C69.0541728,22.0350415 67.048521,20.3399987 65.57,17.6764317 C59.19751,6.19634146 61.4989144,-0.124298535 68.3090852,-2.20192859 C75.119256,-4.27955865 81.1925022,-1.59872116e-14 92.0429247,-5.32907052e-15 Z" id="Coat-Front" fill="#FF9B21"></path>
                        <path d="M82.16,106.478873 L64.5046246,106.479591 C67.7925045,98.8252689 71.2456197,89.7545259 74.8639703,79.2673623 C76.3607188,91.7642618 78.7925451,100.835333 82.16,106.478873 Z" id="Shade" fill-opacity="0.1" fill="#000000"></path>
                    </g>
                </g>
                <polygon id="Path" fill="#969696" fill-rule="nonzero" transform="translate(308.668031, 596.000000) scale(-1, 1) rotate(10.000000) translate(-308.668031, -596.000000) " points="328.762318 611.98184 276 612 288.573744 580.01816 341.336062 580"></polygon>
                <g id="box" transform="translate(21.000000, 628.000000)">
                    <rect id="Rectangle" fill="#B27363" fill-rule="nonzero" x="0" y="14.5301229" width="97" height="67"></rect>
                    <polygon id="Path" fill="#98574C" fill-rule="nonzero" points="97 14.5301229 0 14.5301229 17.6589744 -0.469877097 79.3410256 -0.469877097"></polygon>
                    <line x1="49" y1="-0.469877097" x2="49" y2="15.5301229" id="Path" stroke="#B27363" stroke-width="20"></line>
                    <line x1="30" y1="50.5301229" x2="67" y2="50.5301229" id="Path" stroke="#B27363" stroke-width="9"></line>
                    <line x1="30" y1="54.5301229" x2="67" y2="54.5301229" id="Path" stroke="#B27363" stroke-width="9"></line>
                </g>
                <g id="woman-sitting-laptop" transform="translate(0.000000, 453.000000)">
                    <path d="M166.403102,177.452364 C166.874596,180.230227 174.872862,243.738716 176.17185,244.788344 C177.470837,245.837972 191.268033,248.160991 192.449907,246.410405 C192.687159,243.632287 193.029397,199.344775 193.762073,195.383037" id="Path" fill="#000000" fill-rule="nonzero" transform="translate(180.082587, 212.248045) rotate(10.000000) translate(-180.082587, -212.248045) "></path>
                    <path d="M19.897247,151.910993 C14.3581208,149.190706 25.8894395,203.040898 56.2900183,203.029945 C86.6905971,203.018989 137.879035,156.883504 146.163991,156.880519 C164.453634,156.873928 207.736478,192.621769 211.131125,192.620545 C213.731262,190.031208 218.931943,185.499634 218.931943,183.720108 C218.931943,181.940583 177.504332,114.004423 146.487563,114.015599 C134.460657,114.008776 32.4036844,158.059516 19.897247,151.910993 Z" id="Path" fill="#000000" fill-rule="nonzero" transform="translate(118.744374, 158.522772) rotate(10.000000) translate(-118.744374, -158.522772) "></path>
                    <path d="M37.6447656,139.337675 C43.7323304,137.969107 51.3073835,134.428244 58.012885,130.80438 C39.7719816,136.709692 24.825016,140.542039 20.5115311,138.432933 C17.5723016,137.000965 19.4297072,151.352785 26.3364871,165.17512 C25.0863782,162.498365 23.3095329,142.558821 37.6447656,139.337675 Z" id="Path" fill="#000000" fill-rule="nonzero" transform="translate(38.590398, 147.989750) rotate(10.000000) translate(-38.590398, -147.989750) "></path>
                    <path d="M60.6516243,48.3054473 C65.4279611,48.432753 90.2933519,47.6889008 97.1064224,54.2051062 C102.160382,59.0333769 117.865532,100.61924 120.284763,115.220841 C109.724498,120.610114 33.5572894,157.258745 9.99402708,141.16132 C9.47900956,128.645902 11.9158786,78.9248103 27.3382094,52.8390011 C32.9762616,49.0671417 56.0596372,48.183685 60.6516243,48.3054473 Z" id="Path" fill="#969696" fill-rule="nonzero" transform="translate(65.108453, 96.756138) rotate(10.000000) translate(-65.108453, -96.756138) "></path>
                    <path d="M78.9804488,36.3620148 L64.8563463,36.3671044 L64.8507187,51.9531957 C64.8493093,55.8566891 78.973424,55.818141 78.9748213,51.9481061 L78.9804488,36.3620148 Z" id="Path" fill="#F8CDBA" fill-rule="nonzero" transform="translate(71.915584, 45.613881) rotate(10.000000) translate(-71.915584, -45.613881) "></path>
                    <path d="M65.7405699,45.5953127 C65.7411927,43.8703909 70.652172,39.5340601 73.6869245,39.6832017 C73.761902,37.8024536 66.7559894,35.0228466 66.7559894,35.0228466 L65.7434288,37.677365 L65.7405699,45.5953127 Z" id="Path" fill="#1F161E" fill-rule="nonzero" transform="translate(69.714046, 40.309080) rotate(10.000000) translate(-69.714046, -40.309080) "></path>
                    <path d="M98.1574216,37.1516662 C98.4875617,35.6368878 98.6544935,34.0915647 98.6553927,32.5418562 C98.6595664,20.9785233 89.5771814,11.6055158 78.3595543,11.6095567 C67.1419272,11.6136003 58.0527715,20.9931559 58.0485962,32.5564887 C58.0485962,34.106197 58.214191,35.6514002 58.5432373,37.1659411 L98.1574216,37.1516662 Z" id="Path" fill="#1F161E" fill-rule="nonzero" transform="translate(78.351994, 24.387749) rotate(10.000000) translate(-78.351994, -24.387749) "></path>
                    <path d="M91.6485263,24.1338954 C89.2046087,23.7654689 86.7667903,21.8536674 85.065828,20.6030459 C75.3646616,27.6729847 69.1519701,27.7744403 68.4813802,27.7746819 C67.8107902,27.7749236 65.0771428,31.6784373 63.8189347,32.1198543 L63.7081173,32.0537497 C64.7335427,37.6473462 68.8421409,42.1859923 74.327796,43.7849925 C79.813451,45.3839928 85.7390745,43.7701976 89.6440217,39.6137434 C93.5489688,35.4572892 94.766176,29.4682035 92.7901918,24.133484 C92.411075,24.1804315 92.0276093,24.1805697 91.6485263,24.1338954 Z" id="Path" fill="#F8CDBA" fill-rule="nonzero" transform="translate(78.715465, 32.497827) rotate(10.000000) translate(-78.715465, -32.497827) "></path>
                    <ellipse id="Oval" fill="#1F161E" fill-rule="nonzero" transform="translate(70.247387, 6.856312) rotate(10.000000) translate(-70.247387, -6.856312) " cx="70.2473873" cy="6.85631246" rx="5.73791705" ry="5.72655544"></ellipse>
                    <path d="M69.7088317,24.9067168 C68.2263785,24.9740505 67.0601182,26.1380023 67.059608,27.5506965 C67.0590981,28.9633908 68.2245182,30.1265024 69.7069231,30.1927676" id="Path" stroke="#1F161E" stroke-linecap="round" transform="translate(68.384220, 27.549742) rotate(10.000000) translate(-68.384220, -27.549742) "></path>
                    <path d="M87.8559221,29.3765598 C88.8181369,30.3326427 91.2937376,32.0041362 87.8543316,33.7816021" id="Path" stroke="#1F161E" stroke-linecap="round" transform="translate(88.737442, 31.579081) rotate(10.000000) translate(-88.737442, -31.579081) "></path>
                    <path d="M79.2645531,33.2187114 C79.2643151,33.8782092 79.5571251,35.4538501 81.0291117,35.8611007" id="Path" stroke="#1F161E" stroke-linecap="round" transform="translate(80.146832, 34.539906) rotate(10.000000) translate(-80.146832, -34.539906) "></path>
                    <ellipse id="Oval" fill="#FA9E9F" fill-rule="nonzero" transform="translate(74.802326, 31.810426) rotate(10.000000) translate(-74.802326, -31.810426) " cx="74.8023262" cy="31.8104261" rx="2.20689108" ry="1.32151295"></ellipse>
                    <ellipse id="Oval" fill="#FA9E9F" fill-rule="nonzero" transform="translate(92.190338, 34.869942) rotate(10.000000) translate(-92.190338, -34.869942) " cx="92.1903381" cy="34.8699416" rx="2.20689108" ry="1.32151295"></ellipse>
                    <path d="M94.1925693,98.523908 L109.999142,94.4892664 C111.516744,97.0300546 118.901204,122.181538 118.901204,122.181538 L94.4988367,132.378211 C94.819049,127.61098 95.788075,105.826149 94.1925693,98.523908 Z" id="Path" fill="#F8CDBA" fill-rule="nonzero" transform="translate(106.546886, 113.433739) rotate(10.000000) translate(-106.546886, -113.433739) "></path>
                    <path d="M42.7167079,82.8291153 C42.7160327,84.6992704 41.0479952,91.8187053 40.0639853,95.1641881" id="Path" stroke="#1F161E" stroke-linecap="round" transform="translate(41.390347, 88.996652) rotate(10.000000) translate(-41.390347, -88.996652) "></path>
                    <path d="M99.3983182,96.6539832 C99.0316939,93.7177677 96.8864396,77.1717502 93.2292025,68.4639388" id="Path" stroke="#1F161E" stroke-linecap="round" transform="translate(96.313760, 82.558961) rotate(10.000000) translate(-96.313760, -82.558961) "></path>
                    <path d="M94.1925693,98.523908 L109.999142,94.4892664 C111.516744,97.0300546 118.901204,122.181538 118.901204,122.181538 L94.4988367,132.378211 C94.819049,127.61098 95.788075,105.826149 94.1925693,98.523908 Z" id="Path" fill="#F8CDBA" fill-rule="nonzero" transform="translate(106.546886, 113.433739) rotate(10.000000) translate(-106.546886, -113.433739) "></path>
                    <path d="M204.665134,208.539958 C205.009215,209.075638 209.604872,214.826827 211.231824,214.893922 C212.858775,214.961016 222.739697,208.155562 222.307104,206.694946 C221.874512,205.234331 215.677223,206.184091 214.611265,205.676871 C213.545307,205.169652 211.175125,202.756567 210.797922,201.679454" id="Path" fill="#1F161E" fill-rule="nonzero" transform="translate(213.493011, 208.286934) rotate(10.000000) translate(-213.493011, -208.286934) "></path>
                    <path d="M172.272214,245.437213 C172.156733,246.071399 171.533865,253.549953 172.647534,254.76071 C173.761203,255.971467 185.378983,258.069668 186.05453,256.692589 C186.730077,255.315511 181.665807,251.58674 181.276552,250.455704 C180.887298,249.324669 180.806217,245.885466 181.27859,244.81125" id="Path" fill="#1F161E" fill-rule="nonzero" transform="translate(179.055498, 250.977802) rotate(10.000000) translate(-179.055498, -250.977802) "></path>
                    <polygon id="Path" fill="#969696" fill-rule="nonzero" transform="translate(156.382234, 115.491899) rotate(10.000000) translate(-156.382234, -115.491899) " points="176.476522 132.223817 123.714203 132.242829 136.287947 98.759981 189.050266 98.7409683"></polygon>
                    <polygon id="Rectangle" fill="#969696" fill-rule="nonzero" transform="translate(103.990373, 122.822301) rotate(10.000000) translate(-103.990373, -122.822301) " points="77.5078399 122.39134 130.473225 122.372254 130.472906 123.253263 77.5075218 123.272348"></polygon>
                    <path d="M35.3945513,99.3668272 C34.3788264,103.146573 29.424497,119.267774 31.4634252,122.038956 C33.5023535,124.810137 83.7182675,118.49122 97.1642444,114.334067 C100.588813,113.219614 103.128571,110.296498 104.647444,109.923022 C108.67571,109.246678 112.56995,111.685344 113.690578,115.58605 C108.320821,118.170654 30.7893236,157.506367 5.67761225,140.021174 C0.932066044,136.666527 9.28038445,95.4744036 9.65661754,93.3925479 C13.8988086,93.9142323 35.3945513,99.3668272 35.3945513,99.3668272 Z" id="Path" fill="#F8CDBA" fill-rule="nonzero" transform="translate(58.956524, 118.939258) rotate(10.000000) translate(-58.956524, -118.939258) "></path>
                    <path d="M93.8632552,122.992552 C95.3652876,122.611863 96.6781882,122.243123 97.7574563,121.886346 C101.156618,120.697161 103.677591,117.577857 105.185192,117.179347 C109.185478,116.454385 113.054162,119.057585 114.166567,123.222827" id="Path" stroke="#1F161E" stroke-linecap="round" transform="translate(104.014911, 120.140675) rotate(10.000000) translate(-104.014911, -120.140675) "></path>
                </g>
                <g id="Hanging-Lamp" transform="translate(154.000000, 242.000000)">
                    <g id="Light" transform="translate(0.000000, 152.673469)">
                        <ellipse id="Hanging-Lamp-Light" fill="#F2DBB6" cx="49.5" cy="34.5" rx="42.5" ry="22.5"></ellipse>
                        <path d="M99,50 C99,22.3857625 76.8380951,0 49.5,0 C22.1619049,0 -7.10542736e-15,22.3857625 -7.10542736e-15,50" id="Hanging-Lamp" fill="#DDE3E9"></path>
                    </g>
                    <rect id="Wire" fill="#DDE3E9" x="47" y="0" width="5" height="160"></rect>
                </g>
                <g id="Hanging-Lamp" opacity="0.7" transform="translate(244.000000, 242.000000)">
                    <g id="Light" transform="translate(0.000000, 113.000000)">
                        <ellipse id="Hanging-Lamp-Light" fill="#ECCB97" cx="37" cy="27.8421053" rx="31.7676768" ry="18.1578947"></ellipse>
                        <path d="M74,40.3508772 C74,18.0657031 57.4345357,0 37,0 C16.5654643,0 -7.10542736e-15,18.0657031 -7.10542736e-15,40.3508772" id="Hanging-Lamp" fill="#DDE3E9"></path>
                    </g>
                    <rect id="Wire" fill="#DDE3E9" x="35" y="0" width="5" height="136"></rect>
                </g>
                <g id="Lamp" transform="translate(1031.000000, 299.000000)">
                    <path d="M60,35.23565 L78.5699674,16.6580209 C81.6911838,13.5308497 86.7565036,13.529805 89.8813422,16.6533549 C89.8821202,16.6541326 89.882898,16.6549104 89.8813422,16.6580209 L139.316042,66.1131165 C142.315196,69.1135086 144,73.182171 144,77.4244913 L144,405 L144,405" id="Body" stroke="#CBCBCB" stroke-width="8"></path>
                    <rect id="Lamp-Base" fill="#AFB9C5" x="114" y="404" width="59" height="7" rx="3"></rect>
                    <g id="Lamp-Top" transform="translate(48.083261, 48.083261) rotate(45.000000) translate(-48.083261, -48.083261) translate(14.583261, 14.583261)">
                        <path d="M33.0303119,0.383901642 C51.2557087,0.383901642 66.0303119,15.1585049 66.0303119,33.3839016 L66.0303119,61.3839016 L66.0303119,61.3839016 L0.03031192,61.3839016 L0.03031192,33.3839016 C0.03031192,15.1585049 14.8049152,0.383901642 33.0303119,0.383901642 Z" id="Lamp" fill="#C5CFD6"></path>
                        <ellipse id="Lamp" fill="#F2DBB6" cx="33.2089288" cy="60.4454002" rx="33" ry="6.5"></ellipse>
                    </g>
                </g>
            </g>
        </g>
    </g>
</svg>