<?xml version="1.0" encoding="UTF-8"?>
<svg width="185px" height="120px" viewBox="0 0 185 120" version="1.1" xmlns="http://www.w3.org/2000/svg" xmlns:xlink="http://www.w3.org/1999/xlink">
    <title>collaboration</title>
    <g id="Website" stroke="none" stroke-width="1" fill="none" fill-rule="evenodd">
        <g id="Home-Page" transform="translate(-618.000000, -3209.000000)" fill-rule="nonzero">
            <g id="collaboration" transform="translate(618.000000, 3209.000000)">
                <path d="M171.955493,64.5741571 L171.467994,71.2366471 C171.414006,71.974495 170.824814,72.5598844 170.086632,72.6090932 L170.086632,72.6090932 C169.670676,72.6368242 169.262236,72.4883225 168.961222,72.1999133 C168.660208,71.911504 168.494382,71.5097863 168.504306,71.0930241 L168.659516,64.5741571 L174.394612,46.1796021 L173.700423,34.9103581 L179.129091,34.7164754 L178.74133,47.7065047 L171.955493,64.5741571 Z" id="Path" fill="#A0616A"></path>
                <path d="M180.250867,37.0055037 C177.829816,36.4470555 175.757298,37.0979623 174.149596,39.3617194 L172.904819,29.9454304 C172.778448,28.722554 173.569565,27.5925261 174.761866,27.2928335 L174.761866,27.2928335 C176.032731,26.9733926 177.332149,27.7007271 177.724354,28.9510534 L180.250867,37.0055037 Z" id="Path" fill="#0B6FCC"></path>
                <path d="M180.536595,25.9532754 C174.942195,23.5737885 169.195024,25.0814073 162.390107,26.127755 C162.326783,24.8606178 161.559221,23.3184628 162.36325,22.4344377 C163.340075,21.3604314 163.250161,20.2319623 162.662348,19.0969864 C161.159234,16.1946723 163.312777,13.1064607 165.487196,10.538645 C166.481218,9.36741195 167.974382,8.74069546 169.506557,8.85162304 L173.534492,9.13933403 C175.54165,9.28270157 176.028209,10.6569613 176.59711,12.5871393 L176.59711,12.5871393 C177.558898,13.8952021 178.073669,15.1996335 177.749571,16.4972796 C179.190178,17.4817675 179.432216,18.6701487 178.784863,20.0098366 C178.235935,20.8533508 178.24178,21.6744377 178.809837,22.4728 C179.555863,23.4906519 180.127254,24.6255879 180.500584,25.8310764 L180.536595,25.9532754 Z" id="Path" fill="#2F2E41"></path>
                <polygon id="Path" fill="#A0616A" points="160.56733 112.797277 157.891309 112.797277 156.30199 90.6948691 163.087749 90.5009424"></polygon>
                <path d="M160.761221,119.970932 C160.04768,120.296586 159.449994,117.658147 158.848109,118.249627 C157.164549,119.904077 153.125822,119.533225 153.125822,119.533225 C152.851798,119.445142 152.625809,119.248667 152.500479,118.989552 C152.37515,118.730438 152.361419,118.431297 152.462484,118.161791 L152.462484,118.161791 C152.583975,117.837813 152.856955,117.594253 153.192632,117.510333 L154.983091,117.062718 L157.794371,112.118752 L160.664283,111.924869 L160.664283,111.924869 C161.960552,113.577458 162.427882,115.733005 161.932406,117.77405 C161.671977,118.837026 161.269923,119.738764 160.761221,119.970932 Z" id="Path" fill="#2F2E41"></path>
                <polygon id="Path" fill="#A0616A" points="178.38534 112.797277 175.70911 112.797277 174.119791 90.6948691 181.099476 89.337801"></polygon>
                <path d="M178.579125,119.970932 C177.865583,120.296586 177.267897,117.658147 176.666013,118.249627 C174.982452,119.904077 170.943726,119.533225 170.943726,119.533225 C170.669701,119.445142 170.443712,119.248667 170.318383,118.989552 C170.193054,118.730438 170.179323,118.431297 170.280387,118.161791 L170.280387,118.161791 C170.401879,117.837813 170.674859,117.594253 171.010536,117.510333 L172.800995,117.062718 L175.61227,112.118754 L178.676065,111.730991 L178.753447,111.857543 C179.951669,113.788689 180.260126,116.142341 179.599992,118.317032 C179.3452,119.133424 178.998383,119.779585 178.579125,119.970932 Z" id="Path" fill="#2F2E41"></path>
                <path d="M184.385391,91.6931581 C180.060396,93.6067728 177.469858,91.5356461 173.067227,92.1616838 C171.810075,92.3404461 170.329474,73.8546136 169.066195,73.9317717 C167.458165,74.0299916 166.065566,92.6599058 164.447782,92.5964182 C160.380671,92.4220458 156.346738,91.7841292 152.424327,90.6948942 C156.616844,74.4343183 161.567219,59.7311874 161.536735,47.6533068 L174.113939,46.6839016 L175.845332,49.4287937 C178.621104,55.9412775 181.456641,63.1737319 182.869529,70.7428042 L184.385391,91.6931581 Z" id="Path" fill="#2F2E41"></path>
                <circle id="Oval" fill="#A0616A" cx="167.740938" cy="16.8262241" r="5.81643141"></circle>
                <polygon id="Path" fill="#A0616A" points="174.139058 27.1019895 166.965445 27.4896335 165.802094 21.0915183 171.618639 20.1223037"></polygon>
                <path d="M174.695594,47.6533089 L165.504513,47.8746869 L161.536746,48.428823 C159.589102,41.9952838 157.949455,35.5764901 161.924509,30.2040063 L166.577652,25.5508628 L173.55737,25.3569801 L173.649826,25.4098136 C175.933072,26.7179384 177.003119,29.4350795 176.224978,31.9488209 C174.492898,37.5773759 174.712444,42.8924963 174.695594,47.6533089 Z" id="Path" fill="#0B6FCC"></path>
                <path d="M174.343745,16.7968796 C174.346063,15.060564 173.709541,13.3840733 172.555451,12.0868168 L172.555451,10.0208188 L166.248295,10.0208188 C165.277016,10.0208188 164.345516,10.4066486 163.658716,11.0934447 C162.971916,11.7802408 162.586075,12.7117386 162.586075,13.6830178 L162.586075,13.6830304 L166.790117,13.6830304 C165.656404,15.7698764 165.167531,17.9578429 166.259227,20.0657131 C166.91778,21.337355 166.947037,23.8636 166.044844,25.0766031 C166.51919,25.1036761 166.994693,25.1036761 167.469039,25.0766031 C169.417474,25.0766031 174.731238,25.3300545 176.014218,24.0593194 C177.313437,22.7725005 174.343745,18.769977 174.343745,16.7968796 Z" id="Path" fill="#2F2E41"></path>
                <path d="M164.563677,65.1842827 L127.304737,65.1842827 C126.814865,65.185717 126.418102,65.5824801 126.416668,66.0723518 L126.416668,105.18071 C126.418102,105.670582 126.814865,106.067345 127.304737,106.068779 L164.563677,106.068779 C165.053549,106.067345 165.450312,105.670582 165.451747,105.18071 L165.451747,66.0723518 C165.450312,65.5824801 165.053549,65.185717 164.563677,65.1842827 Z" id="Path" fill="#E6E6E6"></path>
                <path d="M163.675608,66.2943686 L128.19281,66.2943686 C127.82552,66.2957169 127.528106,66.5931303 127.526758,66.9604209 L127.526758,104.292641 C127.527835,104.660045 127.825407,104.957617 128.19281,104.958693 L163.675608,104.958693 C164.043012,104.957617 164.340584,104.660045 164.341661,104.292641 L164.341661,66.9604209 C164.340584,66.5930172 164.043012,66.2954451 163.675608,66.2943686 L163.675608,66.2943686 Z" id="Path" fill="#FFFFFF"></path>
                <path d="M161.342865,65.6842429 L160.855365,72.346733 C160.801376,73.0845805 160.212186,73.6699696 159.474004,73.7191812 L159.474004,73.7191812 C159.058047,73.7469114 158.649608,73.5984096 158.348594,73.3100006 C158.04758,73.0215915 157.881753,72.6198742 157.891675,72.203112 L158.046888,65.6842429 L162.893914,47.2655455 L163.087795,36.0204461 L168.516463,35.8265654 L168.128702,48.8165948 L161.342865,65.6842429 Z" id="Path" fill="#A0616A"></path>
                <path d="M169.098107,36.7959707 C166.796496,35.8600545 164.646901,36.173489 162.700031,38.1531372 L162.966752,28.6586869 C163.036226,27.4312604 163.996795,26.4412375 165.221564,26.3347351 L165.221564,26.3347351 C166.527038,26.221216 167.694428,27.1457217 167.883047,28.4424754 L169.098107,36.7959707 Z" id="Path" fill="#0B6FCC"></path>
                <path d="M161.042595,75.7376293 C161.253838,75.7376293 161.425085,75.9088801 161.425085,76.1201236 L161.425085,76.8851016 C161.425085,77.096345 161.253838,77.2675916 161.042595,77.2675916 L130.825824,77.2675916 C130.724381,77.2675916 130.627093,77.2272951 130.555362,77.1555641 C130.483631,77.0838331 130.443334,76.9865446 130.443334,76.8851016 L130.443334,76.1201194 C130.443334,76.0186764 130.483631,75.9213879 130.555362,75.8496568 C130.627093,75.7779258 130.724381,75.7376293 130.825824,75.7376293 L161.042595,75.7376293" id="Path" fill="#E6E6E6"></path>
                <path d="M161.042595,79.3712942 C161.253839,79.3712942 161.425085,79.5425426 161.425085,79.7537864 L161.425085,80.5187665 C161.425085,80.7300103 161.253839,80.9012586 161.042595,80.9012586 L130.825824,80.9012586 C130.724381,80.9012586 130.627092,80.8609611 130.555361,80.7892298 C130.48363,80.7174984 130.443334,80.6202097 130.443334,80.5187665 L130.443334,79.7537927 C130.443334,79.6523495 130.48363,79.5550608 130.555361,79.4833294 C130.627092,79.411598 130.724381,79.3712942 130.825824,79.3712942 L161.042595,79.3712942" id="Path" fill="#E6E6E6"></path>
                <path d="M161.042595,83.0049571 C161.253837,83.0049571 161.425085,83.1762047 161.425085,83.3874471 L161.425085,84.1524293 C161.425085,84.3636718 161.253837,84.5349194 161.042595,84.5349194 L130.825824,84.5349194 C130.614581,84.5349194 130.443334,84.3636727 130.443334,84.1524293 L130.443334,83.3874471 C130.443334,83.1762037 130.614581,83.0049571 130.825824,83.0049571 L161.042595,83.0049571" id="Path" fill="#0B6FCC"></path>
                <path d="M161.042595,86.7181424 C161.253838,86.7181424 161.425085,86.889389 161.425085,87.1006325 L161.425085,87.8656251 C161.425085,88.0768686 161.253838,88.2481152 161.042595,88.2481152 L130.825824,88.2481152 C130.724381,88.2481152 130.627093,88.2078187 130.555362,88.1360877 C130.483631,88.0643566 130.443334,87.9670681 130.443334,87.8656251 L130.443334,87.1006429 C130.443334,86.9991999 130.483631,86.9019114 130.555362,86.8301804 C130.627093,86.7584494 130.724381,86.7181424 130.825824,86.7181424 L161.042595,86.7181424" id="Path" fill="#E6E6E6"></path>
                <path d="M161.042595,90.3518031 C161.253839,90.3518031 161.425085,90.5230515 161.425085,90.7342953 L161.425085,91.4992754 C161.425085,91.7105192 161.253839,91.8817675 161.042595,91.8817675 L130.825824,91.8817675 C130.724381,91.8817675 130.627092,91.84147 130.555361,91.7697387 C130.48363,91.6980073 130.443334,91.6007186 130.443334,91.4992754 L130.443334,90.7342953 C130.443334,90.6328521 130.48363,90.5355634 130.555361,90.463832 C130.627092,90.3921006 130.724381,90.3518031 130.825824,90.3518031 L161.042595,90.3518031" id="Path" fill="#E6E6E6"></path>
                <path d="M161.042595,93.985466 C161.253837,93.985466 161.425085,94.1567136 161.425085,94.367956 L161.425085,95.1329382 C161.425085,95.3441807 161.253837,95.5154283 161.042595,95.5154283 L130.825824,95.5154283 C130.614581,95.5154283 130.443334,95.3441816 130.443334,95.1329382 L130.443334,94.367956 C130.443334,94.1567126 130.614581,93.985466 130.825824,93.985466 L161.042595,93.985466" id="Path" fill="#E6E6E6"></path>
                <path d="M27.6913675,111.758509 L24.7244356,111.923338 L17.966423,66.4303749 L11.6204859,111.840924 L8.40630785,111.09919 C6.62143246,91.524111 4.29752042,71.2907351 5.93386387,62.4744649 L28.5155162,62.4744649 C31.868888,71.2382806 29.6304503,91.8146325 27.6913675,111.758509 Z" id="Path" fill="#2F2E41"></path>
                <path d="M9.23248586,119.995382 L9.23248586,119.995382 C8.44108688,119.954801 7.70913156,119.563009 7.23646074,118.926973 C6.76378992,118.290937 6.59976807,117.477084 6.78917696,116.707615 L8.13928796,111.222798 C9.26790576,109.820528 10.2781927,109.881956 11.1851518,111.222798 L12.1121529,110.825437 L12.7742953,115.592945 L11.8610848,118.260842 C11.4590464,119.35209 10.3939114,120.054943 9.23248586,119.995382 L9.23248586,119.995382 Z" id="Path" fill="#2F2E41"></path>
                <path d="M27.1948545,119.995382 L27.1948545,119.995382 C27.9862511,119.954798 28.7182031,119.563005 29.1908715,118.92697 C29.6635399,118.290935 29.8275608,117.477084 29.6381529,116.707617 L28.288044,111.2228 C27.1594262,109.82053 26.1491393,109.881958 25.2421801,111.2228 L24.3151791,110.825439 L23.6530346,115.592947 L24.566245,118.260844 C24.9682853,119.352095 26.0334257,120.054948 27.1948545,119.995382 Z" id="Path" fill="#2F2E41"></path>
                <circle id="Oval" fill="#FFB8B8" cx="18.6257424" cy="9.39934031" r="6.59318325"></circle>
                <polygon id="Path" fill="#FFB8B8" points="22.5815707 21.5966492 14.175288 21.5966492 14.6697382 12.860733 22.5815707 12.860733"></polygon>
                <path d="M31.4824482,63.4634429 L4.78005654,63.4634429 C8.67331099,50.3359497 7.98888168,36.2730115 5.10971728,21.7615602 L12.3622178,19.4539455 L14.3401738,17.8056503 C16.8222681,20.8286429 19.5668314,20.8036691 22.5816524,17.6408209 L25.0540963,19.4539455 L32.3065969,21.9263895 C28.4812712,35.9073403 27.8590953,49.7662639 31.4824482,63.4634429 Z" id="Path" fill="#0B6FCC"></path>
                <path d="M11.5839791,7.69575079 C11.0240258,6.0956727 11.171143,4.33294073 11.9885864,2.8478199 C12.7942785,1.41898639 14.3458639,0.0796020942 17.3287288,0.00405026178 C23.8368168,-0.160781152 26.6569885,4.74623246 26.2903162,6.18515812 C25.923644,7.62408377 24.6117822,11.0476314 24.6117822,11.0476314 C24.6117822,11.0476314 25.4252942,7.75103874 23.7982723,7.4213801 C22.1712503,7.09172147 15.8665445,5.77308482 14.0361382,7.25655079 C12.9734875,8.07026448 12.42984,9.39207912 12.6124942,10.7179728 L11.5839791,7.69575079 Z" id="Path" fill="#2F2E41"></path>
                <path d="M38.2358178,65.4062995 L0.976881675,65.4062995 C0.487880255,65.4098198 0.09233293,65.8053672 0.0888125654,66.2943686 L0.0888125654,105.402727 C0.0902467994,105.892598 0.487009958,106.289362 0.976881675,106.290796 L38.2358178,106.290796 C38.7256895,106.289362 39.1224527,105.892598 39.1238869,105.402727 L39.1238869,66.2943686 C39.1224527,65.8044969 38.7256895,65.4077337 38.2358178,65.4062995 Z" id="Path" fill="#E6E6E6"></path>
                <path d="M37.3477487,66.5163874 L1.8649466,66.5163874 C1.49754322,66.5174628 1.19997078,66.8150343 1.19889424,67.1824377 L1.19889424,104.514658 C1.19997077,104.882061 1.49754288,105.179633 1.8649466,105.18071 L37.3477487,105.18071 C37.7151524,105.179633 38.0127245,104.882061 38.013801,104.514658 L38.013801,67.1824377 C38.0127245,66.8150343 37.7151521,66.5174628 37.3477487,66.5163874 L37.3477487,66.5163874 Z" id="Path" fill="#FFFFFF"></path>
                <path d="M30.6178471,68.5940565 L30.6178471,68.5940565 C29.9367275,68.3291779 29.3920711,67.7995114 29.1082922,67.1260471 C28.8245132,66.4525828 28.8258526,65.6928491 29.1120042,65.0203895 L31.3176188,59.8371958 L30.9879602,43.3542387 L29.8341613,37.750023 L35.7680251,35.4424084 L36.9218325,43.189399 L34.7790408,60.990999 L34.2850094,66.3265424 C34.2068829,67.1703058 33.7371769,67.9284491 33.0164538,68.3740933 C32.2957308,68.8197375 31.4076026,68.9011829 30.6178471,68.5940565 L30.6178471,68.5940565 Z" id="Path" fill="#FFB8B8"></path>
                <path d="M6.30397696,68.5940565 L6.30397696,68.5940565 C6.98509599,68.3291767 7.52975132,67.7995094 7.81352907,67.1260447 C8.09730681,66.45258 8.09596625,65.6928464 7.80981361,65.0203874 L5.60421361,59.8371916 L5.93387225,43.3542346 L7.08767958,37.7500293 L1.15381571,35.4424147 L8.37696335e-06,43.1894052 L2.14279162,60.990999 L2.63682304,66.3265424 C2.71494956,67.170304 3.1846542,67.9284459 3.90537525,68.3740899 C4.62609631,68.8197339 5.51422241,68.9011806 6.30397696,68.5940565 L6.30397696,68.5940565 Z" id="Path" fill="#FFB8B8"></path>
                <path d="M36.2625068,35.9369026 C33.9100494,36.538043 31.6793954,37.5418371 29.6693236,38.9038346 L28.1858576,34.4534366 L31.9769382,21.7615602 L31.9769382,21.7615602 C34.0692352,22.4589959 35.5295141,24.3556717 35.6688209,26.5567435 C35.5811363,29.6950099 35.7798547,32.8347338 36.2625068,35.9369026 L36.2625068,35.9369026 Z" id="Path" fill="#0B6FCC"></path>
                <path d="M0.659317277,35.9369026 C3.01177486,36.5380426 5.24242893,37.5418367 7.25250052,38.9038346 L8.73596649,34.4534366 L5.43937592,21.5967246 L5.43937592,21.5967246 C3.34708063,22.2941571 1.39232251,24.3556565 1.25300733,26.5567246 C1.34069065,29.6949974 1.1419709,32.8347276 0.659317277,35.9369026 L0.659317277,35.9369026 Z" id="Path" fill="#0B6FCC"></path>
                <path d="M34.7147351,75.7534031 C34.9259785,75.7534031 35.0972251,75.9246498 35.0972251,76.1358932 L35.0972251,76.9008754 C35.0972251,77.1121188 34.9259785,77.2833654 34.7147351,77.2833654 L4.4979644,77.2833654 C4.39652139,77.2833654 4.2992329,77.243069 4.22750186,77.1713379 C4.15577082,77.0996069 4.11547435,77.0023184 4.11547435,76.9008754 L4.11547435,76.1358932 C4.11547435,76.0344502 4.15577082,75.9371617 4.22750186,75.8654307 C4.2992329,75.7936996 4.39652139,75.7534031 4.4979644,75.7534031 L34.7147351,75.7534031" id="Path" fill="#E6E6E6"></path>
                <path d="M34.7147351,79.3870639 C34.9259788,79.3870639 35.0972251,79.5583123 35.0972251,79.769556 L35.0972251,80.5345361 C35.0972251,80.7457799 34.9259788,80.9170283 34.7147351,80.9170283 L4.4979644,80.9170283 C4.3965212,80.9170283 4.29923271,80.8767308 4.22750173,80.8049994 C4.15577075,80.733268 4.11547435,80.6359793 4.11547435,80.5345361 L4.11547435,79.769556 C4.11547435,79.6681128 4.15577075,79.5708241 4.22750173,79.4990927 C4.29923271,79.4273614 4.3965212,79.3870639 4.4979644,79.3870639 L34.7147351,79.3870639" id="Path" fill="#E6E6E6"></path>
                <path d="M34.7147351,83.0207246 C34.9259784,83.0207246 35.0972251,83.1919756 35.0972251,83.4032188 L35.0972251,84.168199 C35.0972251,84.3794422 34.9259784,84.5506911 34.7147351,84.5506911 L4.4979644,84.5506911 C4.28672064,84.5506911 4.11547435,84.3794427 4.11547435,84.168199 L4.11547435,83.4032168 C4.11547435,83.191973 4.28672064,83.0207246 4.4979644,83.0207246 L34.7147351,83.0207246" id="Path" fill="#0B6FCC"></path>
                <path d="M34.7147351,86.733912 C34.9259785,86.733912 35.0972251,86.9051587 35.0972251,87.1164021 L35.0972251,87.8813843 C35.0972251,88.0926277 34.9259785,88.2638743 34.7147351,88.2638743 L4.4979644,88.2638743 C4.39652139,88.2638743 4.2992329,88.2235779 4.22750186,88.1518468 C4.15577082,88.0801158 4.11547435,87.9828273 4.11547435,87.8813843 L4.11547435,87.1164021 C4.11547435,87.0149591 4.15577082,86.9176706 4.22750186,86.8459396 C4.2992329,86.7742085 4.39652139,86.733912 4.4979644,86.733912 L34.7147351,86.733912" id="Path" fill="#E6E6E6"></path>
                <path d="M34.7147351,90.3675749 C34.9259785,90.3675749 35.0972251,90.5388215 35.0972251,90.7500649 L35.0972251,91.5150492 C35.0972251,91.7262926 34.9259785,91.8975393 34.7147351,91.8975393 L4.4979644,91.8975393 C4.39652139,91.8975393 4.2992329,91.8572428 4.22750186,91.7855118 C4.15577082,91.7137807 4.11547435,91.6164922 4.11547435,91.5150492 L4.11547435,90.7500649 C4.11547435,90.6486219 4.15577082,90.5513334 4.22750186,90.4796024 C4.2992329,90.4078713 4.39652139,90.3675749 4.4979644,90.3675749 L34.7147351,90.3675749" id="Path" fill="#E6E6E6"></path>
                <path d="M34.7147351,94.0012356 C34.9259784,94.0012356 35.0972251,94.1724845 35.0972251,94.3837277 L35.0972251,95.1487079 C35.0972251,95.3599511 34.9259784,95.5312 34.7147351,95.5312 L4.4979644,95.5312 C4.28672064,95.5312 4.11547435,95.3599516 4.11547435,95.1487079 L4.11547435,94.3837277 C4.11547435,94.172484 4.28672064,94.0012356 4.4979644,94.0012356 L34.7147351,94.0012356" id="Path" fill="#E6E6E6"></path>
                <path d="M110.120595,39.0750492 L72.861644,39.0750492 C72.3714453,39.0750492 71.9742221,39.4729196 71.9735749,39.9631183 L71.9735749,105.185141 C71.9750091,105.675013 72.3717723,106.071776 72.861644,106.07321 L110.120595,106.07321 C110.610466,106.071776 111.00723,105.675013 111.008664,105.185141 L111.008664,39.9631204 C111.008018,39.4729209 110.610794,39.0750492 110.120595,39.0750492 Z" id="Path" fill="#E6E6E6"></path>
                <path d="M109.883035,40.7090953 C109.864952,40.6295831 109.833417,40.553745 109.789791,40.4848545 C109.665626,40.2982845 109.456634,40.1858809 109.232526,40.1851372 L73.7497152,40.1851372 C73.3819852,40.1851372 73.0836628,40.4834596 73.0836628,40.8511895 L73.0836628,104.297072 C73.0847394,104.664476 73.3823115,104.962048 73.7497152,104.963125 L109.232526,104.963125 C109.599931,104.962053 109.897506,104.664478 109.898604,104.297072 L109.898604,40.8511895 C109.899018,40.8033776 109.893801,40.7556814 109.883035,40.7090953 Z" id="Path" fill="#FFFFFF"></path>
                <path d="M106.599506,74.6433152 C106.81075,74.6433152 106.981996,74.8145636 106.981996,75.0258073 L106.981996,75.7907874 C106.981996,76.0020312 106.81075,76.1732796 106.599506,76.1732796 L76.3827351,76.1732796 C76.2812915,76.1732796 76.1840025,76.1329829 76.1122711,76.0612515 C76.0405396,75.98952 76.0002429,75.892231 76.0002429,75.7907874 L76.0002429,75.0258073 C76.0002429,74.9243638 76.0405396,74.8270747 76.1122711,74.7553433 C76.1840025,74.6836119 76.2812915,74.6433152 76.3827351,74.6433152 L106.599506,74.6433152" id="Path" fill="#E6E6E6"></path>
                <path d="M106.599506,78.276978 C106.810749,78.276978 106.981996,78.4482246 106.981996,78.6594681 L106.981996,79.4244503 C106.981996,79.6356937 106.810749,79.8069403 106.599506,79.8069403 L76.3827351,79.8069403 C76.2812919,79.8069403 76.1840032,79.7666439 76.1122718,79.6949129 C76.0405404,79.6231819 76.0002429,79.5258935 76.0002429,79.4244503 L76.0002429,78.6594681 C76.0002429,78.5580249 76.0405404,78.4607364 76.1122718,78.3890054 C76.1840032,78.3172744 76.2812919,78.276978 76.3827351,78.276978 L106.599506,78.276978" id="Path" fill="#E6E6E6"></path>
                <path d="M106.599506,81.9106513 C106.810748,81.9106513 106.981996,82.0818989 106.981996,82.2931414 L106.981996,83.0581236 C106.981996,83.269366 106.810748,83.4406136 106.599506,83.4406136 L76.3827351,83.4406136 C76.1714913,83.4406136 76.0002429,83.2693673 76.0002429,83.0581236 L76.0002429,82.2931414 C76.0002429,82.0818976 76.1714913,81.9106513 76.3827351,81.9106513 L106.599506,81.9106513" id="Path" fill="#0B6FCC"></path>
                <path d="M106.599506,85.6238262 C106.810749,85.6238262 106.981996,85.7950728 106.981996,86.0063162 L106.981996,86.7712984 C106.981996,86.9825419 106.810749,87.1537885 106.599506,87.1537885 L76.3827351,87.1537885 C76.2812919,87.1537885 76.1840032,87.1134921 76.1122718,87.0417611 C76.0405404,86.9700301 76.0002429,86.8727416 76.0002429,86.7712984 L76.0002429,86.0063162 C76.0002429,85.904873 76.0405404,85.8075845 76.1122718,85.7358536 C76.1840032,85.6641226 76.2812919,85.6238262 76.3827351,85.6238262 L106.599506,85.6238262" id="Path" fill="#E6E6E6"></path>
                <path d="M106.599506,89.2574869 C106.81075,89.2574869 106.981996,89.4287353 106.981996,89.6399791 L106.981996,90.4049592 C106.981996,90.6162029 106.81075,90.7874513 106.599506,90.7874513 L76.3827351,90.7874513 C76.2812917,90.7874513 76.184003,90.7471539 76.1122717,90.6754226 C76.0405404,90.6036913 76.0002429,90.5064026 76.0002429,90.4049592 L76.0002429,89.6399791 C76.0002429,89.5385355 76.0405396,89.4412465 76.1122711,89.369515 C76.1840025,89.2977836 76.2812915,89.2574869 76.3827351,89.2574869 L106.599506,89.2574869" id="Path" fill="#E6E6E6"></path>
                <path d="M106.599506,92.8911497 C106.810748,92.8911497 106.981996,93.0623973 106.981996,93.2736398 L106.981996,94.038622 C106.981996,94.2498645 106.810748,94.421112 106.599506,94.421112 L76.3827351,94.421112 C76.1714913,94.421112 76.0002429,94.2498658 76.0002429,94.038622 L76.0002429,93.2736398 C76.0002429,93.062396 76.1714913,92.8911497 76.3827351,92.8911497 L106.599506,92.8911497" id="Path" fill="#E6E6E6"></path>
                <path d="M76.6014325,46.2799602 C76.3562989,46.2802026 76.1573969,46.4788622 76.1573969,46.7239958 L76.1573969,67.3528524 C76.1573969,67.5979702 76.3563146,67.7966075 76.6014325,67.796888 L106.380806,67.796888 C106.625924,67.7966075 106.824842,67.5979702 106.824842,67.3528524 L106.824842,46.7239958 C106.824842,46.4788622 106.62594,46.2802026 106.380806,46.2799602 L76.6014325,46.2799602 Z" id="Path" fill="#0B6FCC"></path>
                <path d="M122.849083,30.2592482 C123.65823,30.6031225 124.462827,30.9843812 125.240105,31.392534 L125.446511,30.999445 C124.658609,30.5856565 123.842951,30.1991853 123.022968,29.8505445 L122.849083,30.2592482 Z" id="Path" fill="#CCCCCC"></path>
                <path d="M132.043506,35.574222 L131.747338,35.9052963 C132.402331,36.4909089 133.040415,37.1111058 133.644241,37.7484377 L133.966427,37.4431644 C133.354371,36.796934 132.707388,36.1680733 132.043506,35.574222 Z" id="Path" fill="#CCCCCC"></path>
                <path d="M127.530743,32.7172649 C128.272679,33.1879686 129.004209,33.6950953 129.704517,34.2246639 L129.972498,33.8703895 C129.262434,33.333667 128.520714,32.8194995 127.768371,32.3422869 L127.530743,32.7172649 Z" id="Path" fill="#CCCCCC"></path>
                <path d="M117.833311,28.5939016 C118.687776,28.8024754 119.542888,29.0484503 120.37502,29.3247916 L120.515081,28.9033047 C119.67146,28.6232901 118.804637,28.3739539 117.938683,28.1624524 L117.833311,28.5939016 Z" id="Path" fill="#CCCCCC"></path>
                <path d="M142.197328,54.0068628 L141.758932,54.0772293 C141.897692,54.9423162 142.000679,55.8256168 142.064854,56.7026283 L142.50759,56.6701047 C142.442538,55.7805089 142.338258,54.8845257 142.197328,54.0068628 Z" id="Path" fill="#CCCCCC"></path>
                <path d="M140.47214,48.9552105 C140.759202,49.7844147 141.013083,50.6367099 141.226869,51.4883539 L141.657462,51.3801634 C141.440649,50.5161613 141.182857,49.651399 140.891893,48.8099455 L140.47214,48.9552105 Z" id="Path" fill="#CCCCCC"></path>
                <path d="M138.321782,44.1318618 C138.747171,44.9009005 139.143939,45.696823 139.501248,46.4973068 L139.906693,46.3164838 C139.54439,45.5044084 139.141774,44.6971016 138.710314,43.9170052 L138.321782,44.1318618 Z" id="Path" fill="#CCCCCC"></path>
                <path d="M135.381137,39.7429026 C135.929891,40.4287916 136.455883,41.1463372 136.94458,41.8753738 L137.313598,41.6282073 C136.817962,40.8887623 136.284383,40.1611351 135.728038,39.4655979 L135.381137,39.7429026 Z" id="Path" fill="#CCCCCC"></path>
                <path d="M113.841701,25.4933696 C112.834356,26.2938597 111.235043,27.020023 109.95408,27.4294953 C111.192404,27.9543749 112.718942,28.8231623 113.649196,29.7120712 L113.053384,27.7958974 C113.785998,27.8638555 114.519772,27.9550387 115.240859,28.0706136 L115.311106,27.6322178 C114.573072,27.5138366 113.821784,27.4207832 113.071881,27.3517005 L113.841701,25.4933696 Z" id="Path" fill="#CCCCCC"></path>
                <path d="M43.1467037,46.3165864 L43.5521487,46.4974094 C43.909133,45.6972565 44.3059016,44.901334 44.7315058,44.1319644 L44.3429759,43.9170953 C43.9111895,44.6975288 43.5087832,45.5048356 43.1467037,46.3165864 Z" id="Path" fill="#CCCCCC"></path>
                <path d="M41.3958241,51.3800545 L41.8264168,51.488245 C42.0399791,50.6377927 42.2938681,49.7854974 42.5811455,48.9549927 L42.1613948,48.8099455 C41.8701047,49.6524838 41.6124209,50.517244 41.3958241,51.3800545 Z" id="Path" fill="#CCCCCC"></path>
                <path d="M40.5455895,56.6700942 L40.9885403,56.7026178 C41.0525005,55.8256063 41.155378,54.9423058 41.294356,54.0772188 L40.8559581,54.0067539 C40.7150283,54.8844168 40.6106325,55.7805089 40.5455895,56.6700942 Z" id="Path" fill="#CCCCCC"></path>
                <path d="M45.7397969,41.6280963 L46.1085927,41.8752628 C46.5969696,41.1467686 47.1229571,40.4293319 47.6721529,39.7427916 L47.3254681,39.4654869 C46.7684712,40.1615665 46.234999,40.8891937 45.7397969,41.6280963 Z" id="Path" fill="#CCCCCC"></path>
                <path d="M57.6065592,30.9994471 L57.8129654,31.3925361 C58.5912188,30.9840586 59.3957068,30.6027979 60.2039874,30.2592503 L60.0303204,29.850555 C59.2109801,30.1988649 58.3955435,30.5853361 57.6065592,30.9994471 Z" id="Path" fill="#CCCCCC"></path>
                <path d="M62.5384209,28.9032942 L62.678266,29.3247812 C63.5103979,29.0484503 64.3656209,28.8024775 65.2200838,28.5938911 L65.114712,28.1624314 C64.2486492,28.3739435 63.3818283,28.6232796 62.5384209,28.9032942 Z" id="Path" fill="#CCCCCC"></path>
                <path d="M49.0866429,37.4430471 L49.409045,37.7483204 C50.0123309,37.1114304 50.650511,36.4912356 51.3058408,35.9051791 L51.0098911,35.5741047 C50.3453654,36.1684 49.6982743,36.7971602 49.0866429,37.4430471 Z" id="Path" fill="#CCCCCC"></path>
                <path d="M53.0807874,33.8702806 L53.3485529,34.224555 C54.0492859,33.6948796 54.7807162,33.1877508 55.5226534,32.7172649 L55.2848084,32.3422869 C54.5326806,32.8192775 53.791177,33.3333424 53.0807874,33.8702806 Z" id="Path" fill="#CCCCCC"></path>
                <path d="M73.0992042,27.4295016 C71.8182157,27.0195749 70.2189005,26.2934262 69.2115707,25.492934 L69.9814136,27.3517068 C69.2315497,27.4207749 68.480289,27.5138429 67.7422827,27.6322241 L67.8125298,28.0706199 C68.5335581,27.9550597 69.2673508,27.8638743 69.9998827,27.7959183 L69.4040712,29.711644 C70.3343288,28.8227476 71.8608586,27.9539476 73.0992042,27.4295016 Z" id="Path" fill="#CCCCCC"></path>
                <path d="M91.4910848,34.3120398 C87.6899639,34.3120398 84.6085466,31.2306225 84.6085466,27.4295016 C84.6085466,23.6283807 87.6899639,20.5469634 91.4910848,20.5469634 C95.2922057,20.5469634 98.373623,23.6283807 98.373623,27.4295016 C98.3692975,31.2288293 95.2904126,34.3077142 91.4910848,34.3120398 Z M91.4910848,20.9909927 C87.935198,20.9909927 85.0525822,23.8736085 85.0525822,27.4294953 C85.0525822,30.9853821 87.935198,33.8679979 91.4910848,33.8679979 C95.0469716,33.8679979 97.9295874,30.9853821 97.9295874,27.4294953 C97.9255757,23.8752725 95.0453076,20.9950072 91.4910848,20.9909927 L91.4910848,20.9909927 Z" id="Shape" fill="#0B6FCC"></path>
                <rect id="Rectangle" fill="#0B6FCC" x="90.8250681" y="24.0992419" width="1.33210471" height="6.66051937"></rect>
                <polygon id="Rectangle" fill="#0B6FCC" transform="translate(91.491120, 27.429502) rotate(90.000000) translate(-91.491120, -27.429502) " points="90.8250681 24.0992419 92.1571728 24.0992419 92.1571728 30.7597613 90.8250681 30.7597613"></polygon>
            </g>
        </g>
    </g>
</svg>