<svg xmlns="http://www.w3.org/2000/svg" xmlns:xlink="http://www.w3.org/1999/xlink" width="720" height="488" viewBox="0 0 720 488">
  <defs>
    <filter id="Rectangle_126" x="-12.5" y="-11.5" width="756" height="520" filterUnits="userSpaceOnUse">
      <feOffset dx="8" dy="8" input="SourceAlpha"/>
      <feGaussianBlur stdDeviation="7.5" result="blur"/>
      <feFlood flood-color="#0b6fcc" flood-opacity="0.102"/>
      <feComposite operator="in" in2="blur"/>
      <feComposite in="SourceGraphic"/>
    </filter>
    <filter id="Rectangle_71" x="363" y="91" width="74" height="30" filterUnits="userSpaceOnUse">
      <feOffset dx="2" dy="1" input="SourceAlpha"/>
      <feGaussianBlur stdDeviation="2" result="blur-2"/>
      <feFlood flood-opacity="0.161"/>
      <feComposite operator="in" in2="blur-2"/>
      <feComposite in="SourceGraphic"/>
    </filter>
    <filter id="Rectangle_66" x="430" y="91" width="74" height="30" filterUnits="userSpaceOnUse">
      <feOffset dx="2" dy="1" input="SourceAlpha"/>
      <feGaussianBlur stdDeviation="2" result="blur-3"/>
      <feFlood flood-opacity="0.161"/>
      <feComposite operator="in" in2="blur-3"/>
      <feComposite in="SourceGraphic"/>
    </filter>
    <filter id="Path_63" x="497" y="91" width="74" height="30" filterUnits="userSpaceOnUse">
      <feOffset dx="2" dy="1" input="SourceAlpha"/>
      <feGaussianBlur stdDeviation="2" result="blur-4"/>
      <feFlood flood-opacity="0.161"/>
      <feComposite operator="in" in2="blur-4"/>
      <feComposite in="SourceGraphic"/>
    </filter>
    <filter id="Path_61" x="564" y="91" width="74" height="30" filterUnits="userSpaceOnUse">
      <feOffset dx="2" dy="1" input="SourceAlpha"/>
      <feGaussianBlur stdDeviation="2" result="blur-5"/>
      <feFlood flood-opacity="0.161"/>
      <feComposite operator="in" in2="blur-5"/>
      <feComposite in="SourceGraphic"/>
    </filter>
    <filter id="Path_64" x="296" y="91" width="74" height="30" filterUnits="userSpaceOnUse">
      <feOffset dx="2" dy="1" input="SourceAlpha"/>
      <feGaussianBlur stdDeviation="2" result="blur-6"/>
      <feFlood flood-opacity="0.161"/>
      <feComposite operator="in" in2="blur-6"/>
      <feComposite in="SourceGraphic"/>
    </filter>
    <filter id="Rectangle_92" x="226" y="90" width="80" height="36" filterUnits="userSpaceOnUse">
      <feOffset dx="2" dy="3" input="SourceAlpha"/>
      <feGaussianBlur stdDeviation="3" result="blur-7"/>
      <feFlood flood-opacity="0.161"/>
      <feComposite operator="in" in2="blur-7"/>
      <feComposite in="SourceGraphic"/>
    </filter>
    <filter id="Rectangle_63" x="385" y="7" width="65" height="36" filterUnits="userSpaceOnUse">
      <feOffset dy="3" input="SourceAlpha"/>
      <feGaussianBlur stdDeviation="3" result="blur-8"/>
      <feFlood flood-opacity="0.161"/>
      <feComposite operator="in" in2="blur-8"/>
      <feComposite in="SourceGraphic"/>
    </filter>
    <filter id="Rectangle_88" x="228" y="382" width="101" height="36" filterUnits="userSpaceOnUse">
      <feOffset dx="4" dy="3" input="SourceAlpha"/>
      <feGaussianBlur stdDeviation="3" result="blur-9"/>
      <feFlood flood-opacity="0.161"/>
      <feComposite operator="in" in2="blur-9"/>
      <feComposite in="SourceGraphic"/>
    </filter>
    <filter id="Rectangle_82" x="316" y="382" width="74" height="36" filterUnits="userSpaceOnUse">
      <feOffset dx="4" dy="3" input="SourceAlpha"/>
      <feGaussianBlur stdDeviation="3" result="blur-10"/>
      <feFlood flood-opacity="0.161"/>
      <feComposite operator="in" in2="blur-10"/>
      <feComposite in="SourceGraphic"/>
    </filter>
    <filter id="Rectangle_83" x="377" y="382" width="74" height="36" filterUnits="userSpaceOnUse">
      <feOffset dx="4" dy="3" input="SourceAlpha"/>
      <feGaussianBlur stdDeviation="3" result="blur-11"/>
      <feFlood flood-opacity="0.161"/>
      <feComposite operator="in" in2="blur-11"/>
      <feComposite in="SourceGraphic"/>
    </filter>
    <filter id="Rectangle_84" x="438" y="382" width="74" height="36" filterUnits="userSpaceOnUse">
      <feOffset dx="4" dy="3" input="SourceAlpha"/>
      <feGaussianBlur stdDeviation="3" result="blur-12"/>
      <feFlood flood-opacity="0.161"/>
      <feComposite operator="in" in2="blur-12"/>
      <feComposite in="SourceGraphic"/>
    </filter>
    <filter id="Rectangle_85" x="499" y="382" width="74" height="36" filterUnits="userSpaceOnUse">
      <feOffset dx="4" dy="3" input="SourceAlpha"/>
      <feGaussianBlur stdDeviation="3" result="blur-13"/>
      <feFlood flood-opacity="0.161"/>
      <feComposite operator="in" in2="blur-13"/>
      <feComposite in="SourceGraphic"/>
    </filter>
    <filter id="Rectangle_90" x="310" y="409" width="120" height="36" filterUnits="userSpaceOnUse">
      <feOffset dx="4" dy="3" input="SourceAlpha"/>
      <feGaussianBlur stdDeviation="3" result="blur-14"/>
      <feFlood flood-opacity="0.161"/>
      <feComposite operator="in" in2="blur-14"/>
      <feComposite in="SourceGraphic"/>
    </filter>
    <filter id="Rectangle_91" x="228" y="409" width="95" height="36" filterUnits="userSpaceOnUse">
      <feOffset dx="4" dy="3" input="SourceAlpha"/>
      <feGaussianBlur stdDeviation="3" result="blur-15"/>
      <feFlood flood-opacity="0.161"/>
      <feComposite operator="in" in2="blur-15"/>
      <feComposite in="SourceGraphic"/>
    </filter>
    <filter id="Rectangle_86" x="228" y="310" width="95" height="36" filterUnits="userSpaceOnUse">
      <feOffset dx="4" dy="3" input="SourceAlpha"/>
      <feGaussianBlur stdDeviation="3" result="blur-16"/>
      <feFlood flood-opacity="0.161"/>
      <feComposite operator="in" in2="blur-16"/>
      <feComposite in="SourceGraphic"/>
    </filter>
    <filter id="Rectangle_77" x="310" y="279" width="120" height="36" filterUnits="userSpaceOnUse">
      <feOffset dx="4" dy="3" input="SourceAlpha"/>
      <feGaussianBlur stdDeviation="3" result="blur-17"/>
      <feFlood flood-opacity="0.161"/>
      <feComposite operator="in" in2="blur-17"/>
      <feComposite in="SourceGraphic"/>
    </filter>
    <filter id="Rectangle_89" x="228" y="279" width="95" height="36" filterUnits="userSpaceOnUse">
      <feOffset dx="4" dy="3" input="SourceAlpha"/>
      <feGaussianBlur stdDeviation="3" result="blur-18"/>
      <feFlood flood-opacity="0.161"/>
      <feComposite operator="in" in2="blur-18"/>
      <feComposite in="SourceGraphic"/>
    </filter>
    <filter id="Rectangle_87" x="228" y="208" width="101" height="36" filterUnits="userSpaceOnUse">
      <feOffset dx="4" dy="3" input="SourceAlpha"/>
      <feGaussianBlur stdDeviation="3" result="blur-19"/>
      <feFlood flood-opacity="0.161"/>
      <feComposite operator="in" in2="blur-19"/>
      <feComposite in="SourceGraphic"/>
    </filter>
    <filter id="Rectangle_76" x="316" y="208" width="101" height="36" filterUnits="userSpaceOnUse">
      <feOffset dx="4" dy="3" input="SourceAlpha"/>
      <feGaussianBlur stdDeviation="3" result="blur-20"/>
      <feFlood flood-opacity="0.161"/>
      <feComposite operator="in" in2="blur-20"/>
      <feComposite in="SourceGraphic"/>
    </filter>
    <filter id="Rectangle_65" x="404" y="208" width="111" height="36" filterUnits="userSpaceOnUse">
      <feOffset dx="4" dy="3" input="SourceAlpha"/>
      <feGaussianBlur stdDeviation="3" result="blur-21"/>
      <feFlood flood-opacity="0.161"/>
      <feComposite operator="in" in2="blur-21"/>
      <feComposite in="SourceGraphic"/>
    </filter>
    <clipPath id="clip-Studio_Blue">
      <rect width="720" height="488"/>
    </clipPath>
  </defs>
  <g id="Studio_Blue" data-name="Studio – Blue" clip-path="url(#clip-Studio_Blue)">
    <g transform="matrix(1, 0, 0, 1, 0, 0)" filter="url(#Rectangle_126)">
      <g id="Rectangle_126-2" data-name="Rectangle 126" transform="translate(2 3)" fill="#fff" stroke="rgba(11,111,204,0.1)" stroke-linejoin="round" stroke-width="0.5">
        <rect width="711" height="475" rx="1" stroke="none"/>
        <rect x="0.25" y="0.25" width="710.5" height="474.5" rx="0.75" fill="none"/>
      </g>
    </g>
    <g id="Rectangle_116" data-name="Rectangle 116" transform="translate(6 3)" fill="#e4e4e4" stroke="#bababa" stroke-width="0.25" opacity="0.1">
      <rect width="206" height="474" stroke="none"/>
      <rect x="0.125" y="0.125" width="205.75" height="473.75" fill="none"/>
    </g>
    <rect id="Rectangle_78" data-name="Rectangle 78" width="213" height="20" transform="translate(233 64)" fill="#e4e4e4" opacity="0.4"/>
    <g transform="matrix(1, 0, 0, 1, 0, 0)" filter="url(#Rectangle_71)">
      <rect id="Rectangle_71-2" data-name="Rectangle 71" width="62" height="18" transform="translate(367 96)" fill="#d9dada" opacity="0.4"/>
    </g>
    <g transform="matrix(1, 0, 0, 1, 0, 0)" filter="url(#Rectangle_66)">
      <rect id="Rectangle_66-2" data-name="Rectangle 66" width="62" height="18" transform="translate(434 96)" fill="#d9dada" opacity="0.4"/>
    </g>
    <g transform="matrix(1, 0, 0, 1, 0, 0)" filter="url(#Path_63)">
      <path id="Path_63-2" data-name="Path 63" d="M0,0H62V18H0Z" transform="translate(501 96)" fill="#d9dada" opacity="0.4"/>
    </g>
    <g transform="matrix(1, 0, 0, 1, 0, 0)" filter="url(#Path_61)">
      <path id="Path_61-2" data-name="Path 61" d="M0,0H62V18H0Z" transform="translate(568 96)" fill="#d9dada" opacity="0.4"/>
    </g>
    <g transform="matrix(1, 0, 0, 1, 0, 0)" filter="url(#Path_64)">
      <path id="Path_64-2" data-name="Path 64" d="M0,0H62V18H0Z" transform="translate(300 96)" fill="#d9dada" opacity="0.4"/>
    </g>
    <path id="Path_62" data-name="Path 62" d="M0,0H177.5V20H0Z" transform="translate(452.5 64)" fill="#e4e4e4" opacity="0.4"/>
    <g transform="matrix(1, 0, 0, 1, 0, 0)" filter="url(#Rectangle_92)">
      <rect id="Rectangle_92-2" data-name="Rectangle 92" width="62" height="18" rx="3" transform="translate(233 96)" fill="#f7f7f7" opacity="0.595"/>
    </g>
    <g id="stoplight" transform="translate(458 -373.624)">
      <path id="Path_38" data-name="Path 38" d="M80.563,46.733a.581.581,0,1,1-.6.581.593.593,0,0,1,.6-.581M87.2,49.374H81.255v-.625a1.582,1.582,0,0,0,.95-1.435,1.643,1.643,0,0,0-3.284,0,1.582,1.582,0,0,0,.942,1.432v.629H73.912a.583.583,0,0,0-.594.572v8.7a.584.584,0,0,0,.594.573H84.6v5.046H76.485v-1.4a.594.594,0,0,0-1.188,0v1.968a.583.583,0,0,0,.594.573h2.19v.752a.146.146,0,0,0,.149.143h1.522a.146.146,0,0,0,.148-.143v-.752h1.313v.752a.146.146,0,0,0,.149.143h1.522a.146.146,0,0,0,.148-.143v-.752H85.2a.583.583,0,0,0,.594-.573V58.643a.583.583,0,0,0-.594-.573H74.506V50.52h12.1v5.642a.594.594,0,0,0,1.188,0V49.947a.584.584,0,0,0-.594-.573ZM77.064,52.9a.146.146,0,0,0-.149.143v1.175a.146.146,0,0,0,.149.143h2.072a.146.146,0,0,0,.148-.143V53.047a.146.146,0,0,0-.148-.143Zm4.912,0a.146.146,0,0,0-.149.143v1.175a.146.146,0,0,0,.149.143h2.072a.146.146,0,0,0,.148-.143V53.047a.146.146,0,0,0-.148-.143Z" transform="translate(-507 338.367)" fill="#3880f0"/>
    </g>
    <text id="Studio" transform="translate(43 25)" fill="rgba(0,0,0,0.75)" font-size="12" font-family="OpenSans, Open Sans"><tspan x="0" y="0">Studio</tspan></text>
    <line id="Line_21" data-name="Line 21" x2="1" y2="489" transform="translate(211.5 -11.5)" fill="none" stroke="#d1d3d4" stroke-width="1" opacity="0.25"/>
    <g id="Group_11" data-name="Group 11" transform="translate(300 -1042)" opacity="0.796">
      <path id="upload-solid" d="M6.938,9.073H5.063A.561.561,0,0,1,4.5,8.511V4.573H2.445a.468.468,0,0,1-.33-.8L5.679.207a.454.454,0,0,1,.64,0L9.886,3.774a.468.468,0,0,1-.33.8H7.5V8.511A.561.561,0,0,1,6.938,9.073ZM12,8.886v2.625a.561.561,0,0,1-.562.563H.563A.561.561,0,0,1,0,11.511V8.886a.561.561,0,0,1,.563-.562H3.75v.188A1.313,1.313,0,0,0,5.063,9.823H6.938A1.313,1.313,0,0,0,8.25,8.511V8.323h3.188A.561.561,0,0,1,12,8.886ZM9.094,10.948a.469.469,0,1,0-.469.469A.47.47,0,0,0,9.094,10.948Zm1.5,0a.469.469,0,1,0-.469.469A.47.47,0,0,0,10.594,10.948Z" transform="translate(-134 1055.925)" fill="rgba(8,131,65,0.98)"/>
      <path id="Icon_material-add-box" data-name="Icon material-add-box" d="M15.167,4.5H5.833A1.333,1.333,0,0,0,4.5,5.833v9.333A1.333,1.333,0,0,0,5.833,16.5h9.333A1.337,1.337,0,0,0,16.5,15.167V5.833A1.337,1.337,0,0,0,15.167,4.5Zm-1.333,6.667H11.167v2.667H9.833V11.167H7.167V9.833H9.833V7.167h1.333V9.833h2.667Z" transform="translate(-119.5 1051.5)" fill="#0b6fcc"/>
    </g>
    <line id="Line_22" data-name="Line 22" x2="203" transform="translate(8.5 41.5)" fill="none" stroke="#d1d3d4" stroke-width="1"/>
    <line id="Line_23" data-name="Line 23" x2="155" transform="translate(56.5 61.5)" fill="none" stroke="#d1d3d4" stroke-width="1"/>
    <line id="Line_29" data-name="Line 29" y2="20" transform="translate(101.5 41.5)" fill="none" stroke="#d1d3d4" stroke-width="1"/>
    <line id="Line_27" data-name="Line 27" y2="20" transform="translate(146.5 41.5)" fill="none" stroke="#d1d3d4" stroke-width="1"/>
    <text id="APIs" transform="translate(23 56)" fill="rgba(0,0,0,0.75)" font-size="9" font-family="OpenSans, Open Sans"><tspan x="0" y="0">APIs</tspan></text>
    <text id="https:_petstore.swagger.io_v1" data-name="https://petstore.swagger.io/v1" transform="translate(240 78)" fill="rgba(0,0,0,0.75)" font-size="10" font-family="OpenSans, Open Sans" opacity="0.55"><tspan x="0" y="0">https://petstore.swagger.io/v1</tspan></text>
    <text id="_pets" data-name=" /pets" transform="translate(459 78)" fill="rgba(0,0,0,0.75)" font-size="10" font-family="OpenSans, Open Sans" opacity="0.55"><tspan x="0" y="0" xml:space="preserve"> /pets</tspan></text>
    <text id="GET" transform="translate(252 108)" fill="#72c896" font-size="10" font-family="OpenSans-Semibold, Open Sans" font-weight="600"><tspan x="0" y="0">GET</tspan></text>
    <text id="POST" transform="translate(319 109)" fill="#008eff" font-size="10" font-family="OpenSans-Semibold, Open Sans" font-weight="600"><tspan x="0" y="0">POST</tspan></text>
    <text id="PATCH" transform="translate(383 109)" fill="#dd55f9" font-size="10" font-family="OpenSans-Semibold, Open Sans" font-weight="600"><tspan x="0" y="0">PATCH</tspan></text>
    <text id="DELETE" transform="translate(448 109)" fill="#f56565" font-size="10" font-family="OpenSans-Semibold, Open Sans" font-weight="600"><tspan x="0" y="0">DELETE</tspan></text>
    <text id="Docs" transform="translate(64 56)" fill="rgba(0,0,0,0.75)" font-size="9" font-family="OpenSans, Open Sans"><tspan x="0" y="0">Docs</tspan></text>
    <text id="Files" transform="translate(110 56)" fill="rgba(0,0,0,0.75)" font-size="9" font-family="OpenSans, Open Sans"><tspan x="0" y="0">Files</tspan></text>
    <path id="Icon_awesome-folder" data-name="Icon awesome-folder" d="M12.234,6.188H7.172L5.484,4.5H1.266A1.266,1.266,0,0,0,0,5.766v7.594a1.266,1.266,0,0,0,1.266,1.266H12.234A1.266,1.266,0,0,0,13.5,13.359V7.453A1.266,1.266,0,0,0,12.234,6.188Z" transform="translate(33 88.333)" fill="#0b6fcc" opacity="0.1"/>
    <path id="Icon_awesome-folder-open" data-name="Icon awesome-folder-open" d="M13.423,9.846l-1.7,2.91a1.5,1.5,0,0,1-1.3.744H1.055a.563.563,0,0,1-.486-.846l1.7-2.91A1.5,1.5,0,0,1,3.563,9h9.374a.562.562,0,0,1,.486.846Zm-9.86-1.6H11.25V7.125A1.125,1.125,0,0,0,10.125,6H6.375l-1.5-1.5H1.125A1.125,1.125,0,0,0,0,5.625v6.517L1.619,9.366A2.258,2.258,0,0,1,3.563,8.25Z" transform="translate(19 69.5)" fill="#0b6fcc" opacity="0.1"/>
    <path id="Icon_awesome-folder-open-2" data-name="Icon awesome-folder-open" d="M13.423,9.846l-1.7,2.91a1.5,1.5,0,0,1-1.3.744H1.055a.563.563,0,0,1-.486-.846l1.7-2.91A1.5,1.5,0,0,1,3.563,9h9.374a.562.562,0,0,1,.486.846Zm-9.86-1.6H11.25V7.125A1.125,1.125,0,0,0,10.125,6H6.375l-1.5-1.5H1.125A1.125,1.125,0,0,0,0,5.625v6.517L1.619,9.366A2.258,2.258,0,0,1,3.563,8.25Z" transform="translate(20 280.5)" fill="#ef932b"/>
    <path id="Icon_awesome-folder-open-3" data-name="Icon awesome-folder-open" d="M13.423,9.846l-1.7,2.91a1.5,1.5,0,0,1-1.3.744H1.055a.563.563,0,0,1-.486-.846l1.7-2.91A1.5,1.5,0,0,1,3.563,9h9.374a.562.562,0,0,1,.486.846Zm-9.86-1.6H11.25V7.125A1.125,1.125,0,0,0,10.125,6H6.375l-1.5-1.5H1.125A1.125,1.125,0,0,0,0,5.625v6.517L1.619,9.366A2.258,2.258,0,0,1,3.563,8.25Z" transform="translate(17 377.5)" fill="#ef932b"/>
    <path id="Icon_awesome-cloud" data-name="Icon awesome-cloud" d="M11.34,6.355A2.027,2.027,0,0,0,9.45,3.6a2.015,2.015,0,0,0-1.124.342,3.375,3.375,0,0,0-6.3,1.683c0,.057,0,.114,0,.171a3.038,3.038,0,0,0,1.008,5.9H10.8a2.7,2.7,0,0,0,.54-5.345Z" transform="translate(55 132.75)" fill="#dd55f9"/>
    <path id="Icon_awesome-cloud-2" data-name="Icon awesome-cloud" d="M11.34,6.355A2.027,2.027,0,0,0,9.45,3.6a2.015,2.015,0,0,0-1.124.342,3.375,3.375,0,0,0-6.3,1.683c0,.057,0,.114,0,.171a3.038,3.038,0,0,0,1.008,5.9H10.8a2.7,2.7,0,0,0,.54-5.345Z" transform="translate(32 213.75)" fill="#0b6fcc" opacity="0.1"/>
    <text id="Form" transform="translate(410 26)" fill="rgba(0,0,0,0.85)" font-size="9" font-family="OpenSans, Open Sans" opacity="0.847"><tspan x="0" y="0">Form</tspan></text>
    <text id="OPERATION_ID" data-name="OPERATION ID" transform="translate(233 134)" fill="rgba(0,0,0,0.75)" font-size="9" font-family="OpenSans, Open Sans"><tspan x="0" y="0">OPERATION ID</tspan></text>
    <text id="DESCRIPTION" transform="translate(233 171)" fill="rgba(0,0,0,0.75)" font-size="9" font-family="OpenSans, Open Sans"><tspan x="0" y="0">DESCRIPTION</tspan></text>
    <text id="Get_all_Pets" data-name="Get all Pets" transform="translate(235 57)" fill="rgba(0,0,0,0.75)" font-size="14" font-family="OpenSans-Bold, Open Sans" font-weight="700"><tspan x="0" y="0">Get all Pets</tspan></text>
    <text id="Code" transform="translate(463 26)" fill="rgba(0,0,0,0.85)" font-size="9" font-family="OpenSans, Open Sans" opacity="0.847"><tspan x="0" y="0">Code</tspan></text>
    <text id="Preview" transform="translate(514 26)" fill="rgba(0,0,0,0.85)" font-size="9" font-family="OpenSans, Open Sans" opacity="0.847"><tspan x="0" y="0">Preview</tspan></text>
    <text id="Preview-2" data-name="Preview" transform="translate(580 26)" fill="rgba(0,0,0,0.85)" font-size="9" font-family="OpenSans, Open Sans" opacity="0.847"><tspan x="0" y="0">Preview</tspan></text>
    <text id="_16_Problems" data-name="16 Problems" transform="translate(629 26)" fill="rgba(245,101,101,0.85)" font-size="9" font-family="OpenSans-Bold, Open Sans" opacity="0.847" font-weight="700"><tspan x="0" y="0">16</tspan><tspan y="0" xml:space="preserve" fill="rgba(0,0,0,0.85)" font-family="OpenSans, Open Sans" font-weight="400"> Problems</tspan></text>
    <text id="Overview" transform="translate(37 273)" fill="rgba(0,0,0,0.75)" font-size="9" font-family="OpenSans, Open Sans" opacity="0.847"><tspan x="0" y="0">Overview</tspan></text>
    <text id="Paths" transform="translate(37 295)" fill="rgba(0,0,0,0.75)" font-size="9" font-family="OpenSans, Open Sans" opacity="0.847"><tspan x="0" y="0">Paths</tspan></text>
    <text id="Pets" transform="translate(58 415)" fill="rgba(0,0,0,0.75)" font-size="9" font-family="OpenSans, Open Sans" opacity="0.847"><tspan x="0" y="0">Pets</tspan></text>
    <text id="Models" transform="translate(34 392)" fill="rgba(0,0,0,0.75)" font-size="9" font-family="OpenSans, Open Sans" opacity="0.847"><tspan x="0" y="0">Models</tspan></text>
    <text id="oas3.yaml" transform="translate(79 146)" fill="rgba(0,0,0,0.75)" font-size="9" font-family="OpenSans, Open Sans" opacity="0.848"><tspan x="0" y="0">oas3.yaml</tspan></text>
    <text id="_pets-2" data-name="/pets" transform="translate(37 311)" fill="rgba(0,0,0,0.75)" font-size="9" font-family="OpenSans, Open Sans" opacity="0.848"><tspan x="0" y="0">/pets</tspan></text>
    <text id="pet.json" transform="translate(79 166)" fill="rgba(0,0,0,0.75)" font-size="9" font-family="OpenSans, Open Sans" opacity="0.848"><tspan x="0" y="0">pet.json</tspan></text>
    <text id="Petstore" transform="translate(53 125)" fill="rgba(0,0,0,0.75)" font-size="9" font-family="OpenSans, Open Sans" opacity="0.848"><tspan x="0" y="0">Petstore</tspan></text>
    <text id="Petstore_API" data-name="Petstore API" transform="translate(19 251)" fill="rgba(0,0,0,0.75)" font-size="9" font-family="OpenSans, Open Sans" opacity="0.849"><tspan x="0" y="0">Petstore API</tspan></text>
    <line id="Line_24" data-name="Line 24" x2="203" transform="translate(8.5 234.5)" fill="none" stroke="#d1d3d4" stroke-width="1" opacity="0.25"/>
    <path id="Icon_awesome-folder-open-4" data-name="Icon awesome-folder-open" d="M13.423,9.846l-1.7,2.91a1.5,1.5,0,0,1-1.3.744H1.055a.563.563,0,0,1-.486-.846l1.7-2.91A1.5,1.5,0,0,1,3.563,9h9.374a.562.562,0,0,1,.486.846Zm-9.86-1.6H11.25V7.125A1.125,1.125,0,0,0,10.125,6H6.375l-1.5-1.5H1.125A1.125,1.125,0,0,0,0,5.625v6.517L1.619,9.366A2.258,2.258,0,0,1,3.563,8.25Z" transform="translate(33 110.5)" fill="#ef932b"/>
    <path id="Icon_awesome-cube" data-name="Icon awesome-cube" d="M6.306.308.82,2.365A1.268,1.268,0,0,0,0,3.552V9.489A1.265,1.265,0,0,0,.7,10.62l5.485,2.743a1.257,1.257,0,0,0,1.131,0L12.8,10.62a1.263,1.263,0,0,0,.7-1.131V3.552a1.264,1.264,0,0,0-.82-1.184L7.194.311A1.244,1.244,0,0,0,6.306.308Zm.446,1.638,5.063,1.9v.029L6.751,5.931,1.688,3.874V3.845ZM7.6,11.335V7.408l4.22-1.714V9.225Z" transform="translate(55.449 152.808)" fill="#ef932b"/>
    <path id="Icon_awesome-cube-2" data-name="Icon awesome-cube" d="M6.306.308.82,2.365A1.268,1.268,0,0,0,0,3.552V9.489A1.265,1.265,0,0,0,.7,10.62l5.485,2.743a1.257,1.257,0,0,0,1.131,0L12.8,10.62a1.263,1.263,0,0,0,.7-1.131V3.552a1.264,1.264,0,0,0-.82-1.184L7.194.311A1.244,1.244,0,0,0,6.306.308Zm.446,1.638,5.063,1.9v.029L6.751,5.931,1.688,3.874V3.845ZM7.6,11.335V7.408l4.22-1.714V9.225Z" transform="translate(37.449 403.808)" fill="#ef932b"/>
    <path id="Icon_awesome-cube-3" data-name="Icon awesome-cube" d="M6.306.308.82,2.365A1.268,1.268,0,0,0,0,3.552V9.489A1.265,1.265,0,0,0,.7,10.62l5.485,2.743a1.257,1.257,0,0,0,1.131,0L12.8,10.62a1.263,1.263,0,0,0,.7-1.131V3.552a1.264,1.264,0,0,0-.82-1.184L7.194.311A1.244,1.244,0,0,0,6.306.308Zm.446,1.638,5.063,1.9v.029L6.751,5.931,1.688,3.874V3.845ZM7.6,11.335V7.408l4.22-1.714V9.225Z" transform="translate(37.449 425.808)" fill="#0b6fcc" opacity="0.1"/>
    <path id="Icon_awesome-cube-4" data-name="Icon awesome-cube" d="M6.306.308.82,2.365A1.268,1.268,0,0,0,0,3.552V9.489A1.265,1.265,0,0,0,.7,10.62l5.485,2.743a1.257,1.257,0,0,0,1.131,0L12.8,10.62a1.263,1.263,0,0,0,.7-1.131V3.552a1.264,1.264,0,0,0-.82-1.184L7.194.311A1.244,1.244,0,0,0,6.306.308Zm.446,1.638,5.063,1.9v.029L6.751,5.931,1.688,3.874V3.845ZM7.6,11.335V7.408l4.22-1.714V9.225Z" transform="translate(37.449 443.808)" fill="#0b6fcc" opacity="0.1"/>
    <path id="Icon_awesome-star" data-name="Icon awesome-star" d="M7.467.449,5.819,3.79l-3.687.537A.808.808,0,0,0,1.686,5.7L4.353,8.3l-.631,3.671a.807.807,0,0,0,1.171.85l3.3-1.734,3.3,1.734a.808.808,0,0,0,1.171-.85L12.029,8.3,14.7,5.7a.808.808,0,0,0-.447-1.378L10.563,3.79,8.916.449a.808.808,0,0,0-1.448,0Z" transform="translate(17.559 263.001)" fill="#0b6fcc" opacity="0.1"/>
    <g id="Group_18" data-name="Group 18" transform="translate(295 -1043)" opacity="0.7">
      <rect id="Rectangle_10" data-name="Rectangle 10" width="32" height="14" transform="translate(-258 1362)" fill="#72c896" opacity="0.851"/>
      <g id="Group_2" data-name="Group 2" transform="translate(-250 1362)">
        <text id="GET-2" data-name="GET" transform="translate(0 10)" fill="rgba(255,255,255,0.85)" font-size="9" font-family="OpenSans-Bold, Open Sans" font-weight="700"><tspan x="0" y="0">GET</tspan></text>
      </g>
    </g>
    <rect id="Rectangle_94" data-name="Rectangle 94" width="32" height="14" transform="translate(76 319)" fill="#008eff" opacity="0.851"/>
    <g id="Group_17" data-name="Group 17" transform="translate(333 -1042)" opacity="0.7">
      <text id="POST-2" data-name="POST" transform="translate(-252 1371)" fill="rgba(255,255,255,0.85)" font-size="9" font-family="OpenSans-Bold, Open Sans" font-weight="700"><tspan x="0" y="0">POST</tspan></text>
    </g>
    <rect id="Rectangle_93" data-name="Rectangle 93" width="32" height="14" transform="translate(111 319)" fill="#ed8937" opacity="0.7"/>
    <g id="Group_15" data-name="Group 15" transform="translate(370 -1043)">
      <text id="PUT" transform="translate(-252 1372)" fill="rgba(255,255,255,0.85)" font-size="9" font-family="OpenSans-Bold, Open Sans" font-weight="700"><tspan x="0" y="0">PUT</tspan></text>
    </g>
    <g id="Group_12" data-name="Group 12" transform="translate(406 -1042)" opacity="0.7">
      <rect id="Rectangle_10-2" data-name="Rectangle 10" width="43" height="13" transform="translate(-258 1362)" fill="#f56565" opacity="0.851"/>
      <g id="Group_2-2" data-name="Group 2" transform="translate(-253 1361)">
        <text id="DELETE-2" data-name="DELETE" transform="translate(0 10)" fill="#fff" font-size="9" font-family="OpenSans-Bold, Open Sans" font-weight="700"><tspan x="0" y="0">DELETE</tspan></text>
      </g>
    </g>
    <rect id="Rectangle_59" data-name="Rectangle 59" width="61" height="18" rx="3" transform="translate(624 13)" fill="#d9dada" opacity="0.55"/>
    <rect id="Rectangle_60" data-name="Rectangle 60" width="54" height="18" rx="3" transform="translate(498 13)" fill="#d9dada" opacity="0.55"/>
    <g transform="matrix(1, 0, 0, 1, 0, 0)" filter="url(#Rectangle_63)">
      <rect id="Rectangle_63-2" data-name="Rectangle 63" width="47" height="18" rx="3" transform="translate(394 13)" fill="#d9dada" opacity="0.55"/>
    </g>
    <rect id="Rectangle_64" data-name="Rectangle 64" width="47" height="18" rx="3" transform="translate(446 13)" fill="#d9dada" opacity="0.55"/>
    <rect id="Rectangle_61" data-name="Rectangle 61" width="47" height="18" rx="3" transform="translate(572 13)" fill="#d9dada" opacity="0.55"/>
    <g id="Icon_awesome-code" data-name="Icon awesome-code" transform="translate(448.002 16.997)" fill="none" stroke-linecap="square" opacity="0.3">
      <path d="M5.663,10.391l-1.239-.36a.244.244,0,0,1-.167-.3L7.03.179a.244.244,0,0,1,.3-.167l1.239.36a.244.244,0,0,1,.167.3l-2.772,9.55a.243.243,0,0,1-.3.167ZM3.348,8.112l.884-.942a.244.244,0,0,0-.016-.349L2.375,5.2l1.84-1.619a.242.242,0,0,0,.016-.349l-.884-.942A.244.244,0,0,0,3,2.281L.076,5.023a.242.242,0,0,0,0,.355L3,8.122a.242.242,0,0,0,.345-.01Zm6.646.012L12.921,5.38a.242.242,0,0,0,0-.355L9.994,2.279a.246.246,0,0,0-.345.01l-.884.942a.244.244,0,0,0,.016.349L10.621,5.2,8.781,6.82a.242.242,0,0,0-.016.349l.884.942a.244.244,0,0,0,.345.012Z" stroke="none"/>
      <path d="M 5.732635498046875 10.40101718902588 C 5.709818840026855 10.40101718902588 5.686581611633301 10.39775276184082 5.663461685180664 10.39088916778564 L 4.424501895904541 10.0313892364502 C 4.294511795043945 9.994829177856445 4.221391677856445 9.858748435974121 4.257951736450195 9.728758811950684 L 7.030391693115234 0.1785588711500168 C 7.060590267181396 0.07119685411453247 7.158709049224854 0.002618325175717473 7.265188694000244 0.002618325175717473 C 7.287620544433594 0.002618325175717473 7.310402393341064 0.005657021421939135 7.333022117614746 0.01201887242496014 L 8.571981430053711 0.3715188801288605 C 8.701972007751465 0.4080788791179657 8.775092124938965 0.5441588759422302 8.738541603088379 0.6741488575935364 L 5.966092109680176 10.22433853149414 C 5.934365272521973 10.33120918273926 5.838105201721191 10.40101718902588 5.732635498046875 10.40101718902588 Z M 9.826040267944336 8.189825057983398 C 9.760868072509766 8.189821243286133 9.696103096008301 8.163882255554199 9.648462295532227 8.112009048461914 L 8.764942169189453 7.169579029083252 C 8.669482231140137 7.070058822631836 8.67760181427002 6.911628723144531 8.781191825866699 6.820229053497314 L 10.62136173248291 5.201448917388916 L 8.781191825866699 3.580638885498047 C 8.67760181427002 3.489238977432251 8.671511650085449 3.330818891525269 8.764942169189453 3.231298923492432 L 9.648462295532227 2.28886890411377 C 9.696938514709473 2.238285303115845 9.761808395385742 2.212854623794556 9.826638221740723 2.212854623794556 C 9.88675594329834 2.212854623794556 9.946840286254883 2.234732627868652 9.993751525878906 2.278708934783936 L 12.92055225372314 5.024748802185059 C 13.02414226531982 5.120208740234375 13.02414226531982 5.28472900390625 12.92055225372314 5.380188941955566 L 9.993751525878906 8.124198913574219 C 9.94610595703125 8.167952537536621 9.885902404785156 8.189827919006348 9.826040267944336 8.189825057983398 Z M 3.171524047851562 8.18953800201416 C 3.11131739616394 8.189536094665527 3.050662279129028 8.16715145111084 3.002731800079346 8.122159004211426 L 0.07593189924955368 5.378159046173096 C -0.02765809930860996 5.282699108123779 -0.02765809930860996 5.118178844451904 0.07593189924955368 5.022718906402588 L 3.002731800079346 2.280738830566406 C 3.050382852554321 2.236008405685425 3.110589504241943 2.214094161987305 3.170449733734131 2.214094161987305 C 3.235621452331543 2.214094161987305 3.30038046836853 2.24008321762085 3.348021984100342 2.29089879989624 L 4.231542110443115 3.233328819274902 C 4.327002048492432 3.332848787307739 4.318881988525391 3.491278886795044 4.215291976928711 3.582668781280518 L 2.375131845474243 5.201448917388916 L 4.215291976928711 6.820229053497314 C 4.318881988525391 6.911628723144531 4.324971675872803 7.070058822631836 4.231542110443115 7.169579029083252 L 3.348021984100342 8.112009048461914 C 3.300637245178223 8.163602828979492 3.236339807510376 8.189540863037109 3.171524047851562 8.18953800201416 Z" stroke="none" fill="#222"/>
    </g>
    <g id="Icon_feather-book" data-name="Icon feather-book" transform="translate(497 15)" opacity="0.3">
      <path id="Path_46" data-name="Path 46" d="M6,29.25c0-2.071.49-3.75,1.094-3.75H13" transform="translate(0 -19)" fill="none" stroke="#222" stroke-linecap="square" stroke-linejoin="round" stroke-width="1"/>
      <g id="Path_47" data-name="Path 47" transform="translate(0 0)" fill="none" stroke-linecap="square" stroke-linejoin="round">
        <path d="M7.094,3H13v8.75H7.094A1.094,1.094,0,0,1,6,10.656V4.094A1.094,1.094,0,0,1,7.094,3Z" stroke="none"/>
        <path d="M 7.09375 3.999999046325684 C 7.042059898376465 3.999999046325684 7 4.042058944702148 7 4.093749046325684 L 7 10.65624904632568 C 7 10.70793914794922 7.042059898376465 10.74999904632568 7.09375 10.74999904632568 L 12 10.74999904632568 L 12 3.999999046325684 L 7.09375 3.999999046325684 M 7.09375 2.999999046325684 L 13 2.999999046325684 L 13 11.74999904632568 L 7.09375 11.74999904632568 C 6.489689826965332 11.74999904632568 6 11.26030921936035 6 10.65624904632568 L 6 4.093749046325684 C 6 3.489688873291016 6.489689826965332 2.999999046325684 7.09375 2.999999046325684 Z" stroke="none" fill="#222"/>
      </g>
    </g>
    <g id="Icon_material-format-list-bulleted" data-name="Icon material-format-list-bulleted" transform="translate(393.25 11.25)" fill="none" stroke-linecap="square" opacity="0.3">
      <path d="M4.561,9.993a.811.811,0,1,0,.811.811A.81.81,0,0,0,4.561,9.993Zm0-3.243a.811.811,0,1,0,.811.811A.81.81,0,0,0,4.561,6.75Zm0,6.486a.811.811,0,1,0,.811.811A.813.813,0,0,0,4.561,13.236Zm1.622,1.351H13.75V13.507H6.182Zm0-3.243H13.75V10.264H6.182Zm0-4.324V8.1H13.75V7.02Z" stroke="none"/>
      <path d="M 4.560810089111328 6.750003814697266 C 5.00946044921875 6.750003814697266 5.371620178222656 7.112164497375488 5.371620178222656 7.560813903808594 C 5.371620178222656 8.009464263916016 5.00946044921875 8.371623992919922 4.560810089111328 8.371623992919922 C 4.112159729003906 8.371623992919922 3.75 8.009464263916016 3.75 7.560813903808594 C 3.75 7.112164497375488 4.112159729003906 6.750003814697266 4.560810089111328 6.750003814697266 Z M 6.182430267333984 7.02027416229248 L 13.75 7.02027416229248 L 13.75 8.101354598999023 L 6.182430267333984 8.101354598999023 L 6.182430267333984 7.02027416229248 Z M 4.560810089111328 9.993244171142578 C 5.00946044921875 9.993244171142578 5.371620178222656 10.35540390014648 5.371620178222656 10.80405426025391 C 5.371620178222656 11.25270462036133 5.00946044921875 11.61486434936523 4.560810089111328 11.61486434936523 C 4.112159729003906 11.61486434936523 3.75 11.25270462036133 3.75 10.80405426025391 C 3.75 10.35540390014648 4.112159729003906 9.993244171142578 4.560810089111328 9.993244171142578 Z M 6.182430267333984 10.26351451873779 L 13.75 10.26351451873779 L 13.75 11.34459400177002 L 6.182430267333984 11.34459400177002 L 6.182430267333984 10.26351451873779 Z M 4.560810089111328 13.23648452758789 C 5.00946044921875 13.23648452758789 5.371620178222656 13.60405445098877 5.371620178222656 14.04729461669922 C 5.371620178222656 14.49054431915283 5.004050254821777 14.85810470581055 4.560810089111328 14.85810470581055 C 4.117569923400879 14.85810470581055 3.75 14.49054431915283 3.75 14.04729461669922 C 3.75 13.60405445098877 4.112159729003906 13.23648452758789 4.560810089111328 13.23648452758789 Z M 6.182430267333984 13.50675392150879 L 13.75 13.50675392150879 L 13.75 14.58783435821533 L 6.182430267333984 14.58783435821533 L 6.182430267333984 13.50675392150879 Z" stroke="none" fill="#222"/>
    </g>
    <line id="Line_25" data-name="Line 25" x2="203" transform="translate(8.5 41.5)" fill="none" stroke="#d1d3d4" stroke-width="1"/>
    <line id="Line_26" data-name="Line 26" x2="156" transform="translate(55.5 61.5)" fill="none" stroke="#d1d3d4" stroke-width="1"/>
    <line id="Line_32" data-name="Line 32" y2="20" transform="translate(55.5 41.5)" fill="none" stroke="#d1d3d4" stroke-width="1"/>
    <line id="Line_30" data-name="Line 30" y2="20" transform="translate(101.5 41.5)" fill="none" stroke="#d1d3d4" stroke-width="1"/>
    <line id="Line_28" data-name="Line 28" y2="20" transform="translate(146.5 41.5)" fill="none" stroke="#d1d3d4" stroke-width="1"/>
    <rect id="Rectangle_95" data-name="Rectangle 95" width="134" height="7" rx="3.5" transform="translate(43 75)" fill="#0b6fcc" opacity="0.1"/>
    <rect id="Rectangle_112" data-name="Rectangle 112" width="120" height="7" rx="3.5" transform="translate(56 96)" fill="#0b6fcc" opacity="0.1"/>
    <rect id="Rectangle_96" data-name="Rectangle 96" width="120" height="7" rx="3.5" transform="translate(233 143)" fill="#0b6fcc" opacity="0.1"/>
    <rect id="Rectangle_110" data-name="Rectangle 110" width="452" height="7" rx="3.5" transform="translate(233 176)" fill="#0b6fcc" opacity="0.1"/>
    <rect id="Rectangle_111" data-name="Rectangle 111" width="452" height="7" rx="3.5" transform="translate(233 189)" fill="#0b6fcc" opacity="0.1"/>
    <rect id="Rectangle_97" data-name="Rectangle 97" width="50" height="7" rx="3.5" transform="translate(37 343)" fill="#0b6fcc" opacity="0.1"/>
    <rect id="Rectangle_101" data-name="Rectangle 101" width="33" height="12" rx="4" transform="translate(37 361)" fill="#0b6fcc" opacity="0.1"/>
    <rect id="Rectangle_108" data-name="Rectangle 108" width="33" height="12" rx="4" transform="translate(229 15)" fill="#0b6fcc" opacity="0.1"/>
    <rect id="Rectangle_109" data-name="Rectangle 109" width="33" height="12" rx="4" transform="translate(269 15)" fill="#0b6fcc" opacity="0.1"/>
    <rect id="Rectangle_106" data-name="Rectangle 106" width="12" height="12" rx="4" transform="translate(147 14)" fill="#0b6fcc" opacity="0.1"/>
    <rect id="Rectangle_107" data-name="Rectangle 107" width="12" height="12" rx="4" transform="translate(128 14)" fill="#0b6fcc" opacity="0.1"/>
    <rect id="Rectangle_103" data-name="Rectangle 103" width="33" height="12" rx="4" transform="translate(115 361)" fill="#0b6fcc" opacity="0.1"/>
    <rect id="Rectangle_105" data-name="Rectangle 105" width="33" height="12" rx="4" transform="translate(154 361)" fill="#0b6fcc" opacity="0.1"/>
    <rect id="Rectangle_104" data-name="Rectangle 104" width="33" height="12" rx="4" transform="translate(76 361)" fill="#0b6fcc" opacity="0.1"/>
    <path id="Icon_awesome-folder-2" data-name="Icon awesome-folder" d="M12.234,6.188H7.172L5.484,4.5H1.266A1.266,1.266,0,0,0,0,5.766v7.594a1.266,1.266,0,0,0,1.266,1.266H12.234A1.266,1.266,0,0,0,13.5,13.359V7.453A1.266,1.266,0,0,0,12.234,6.188Z" transform="translate(32 168.333)" fill="#0b6fcc" opacity="0.1"/>
    <rect id="Rectangle_98" data-name="Rectangle 98" width="120" height="7" rx="3.5" transform="translate(56 175)" fill="#0b6fcc" opacity="0.1"/>
    <path id="Icon_awesome-cloud-3" data-name="Icon awesome-cloud" d="M11.34,6.355A2.027,2.027,0,0,0,9.45,3.6a2.015,2.015,0,0,0-1.124.342,3.375,3.375,0,0,0-6.3,1.683c0,.057,0,.114,0,.171a3.038,3.038,0,0,0,1.008,5.9H10.8a2.7,2.7,0,0,0,.54-5.345Z" transform="translate(32 193.75)" fill="#0b6fcc" opacity="0.1"/>
    <rect id="Rectangle_102" data-name="Rectangle 102" width="120" height="7" rx="3.5" transform="translate(57 196)" fill="#0b6fcc" opacity="0.1"/>
    <rect id="Rectangle_99" data-name="Rectangle 99" width="120" height="7" rx="3.5" transform="translate(56 219)" fill="#0b6fcc" opacity="0.1"/>
    <rect id="Rectangle_100" data-name="Rectangle 100" width="120" height="7" rx="3.5" transform="translate(60 432)" fill="#0b6fcc" opacity="0.1"/>
    <rect id="Rectangle_125" data-name="Rectangle 125" width="120" height="7" rx="3.5" transform="translate(60 450)" fill="#0b6fcc" opacity="0.1"/>
    <g id="Group_21" data-name="Group 21" transform="translate(6 14)">
      <g transform="matrix(1, 0, 0, 1, -6, -14)" filter="url(#Rectangle_88)">
        <rect id="Rectangle_88-2" data-name="Rectangle 88" width="83" height="18" rx="3" transform="translate(233 388)" fill="#f7f7f7" opacity="0.595"/>
      </g>
      <g transform="matrix(1, 0, 0, 1, -6, -14)" filter="url(#Rectangle_82)">
        <rect id="Rectangle_82-2" data-name="Rectangle 82" width="56" height="18" rx="3" transform="translate(321 388)" fill="#fff" opacity="0.595"/>
      </g>
      <g transform="matrix(1, 0, 0, 1, -6, -14)" filter="url(#Rectangle_83)">
        <rect id="Rectangle_83-2" data-name="Rectangle 83" width="56" height="18" rx="3" transform="translate(382 388)" fill="#f7f7f7" opacity="0.595"/>
      </g>
      <g transform="matrix(1, 0, 0, 1, -6, -14)" filter="url(#Rectangle_84)">
        <rect id="Rectangle_84-2" data-name="Rectangle 84" width="56" height="18" rx="3" transform="translate(443 388)" fill="#f7f7f7" opacity="0.595"/>
      </g>
      <g transform="matrix(1, 0, 0, 1, -6, -14)" filter="url(#Rectangle_85)">
        <rect id="Rectangle_85-2" data-name="Rectangle 85" width="56" height="18" rx="3" transform="translate(504 388)" fill="#f7f7f7" opacity="0.595"/>
      </g>
      <g transform="matrix(1, 0, 0, 1, -6, -14)" filter="url(#Rectangle_90)">
        <rect id="Rectangle_90-2" data-name="Rectangle 90" width="102" height="18" rx="3" transform="translate(315 415)" fill="#f7f7f7" opacity="0.595"/>
      </g>
      <g transform="matrix(1, 0, 0, 1, -6, -14)" filter="url(#Rectangle_91)">
        <rect id="Rectangle_91-2" data-name="Rectangle 91" width="77" height="18" rx="3" transform="translate(233 415)" fill="#f7f7f7" opacity="0.595"/>
      </g>
      <text id="Response" transform="translate(248 387)" fill="rgba(0,0,0,0.75)" font-size="9" font-family="OpenSans, Open Sans"><tspan x="0" y="0">Response</tspan></text>
      <text id="_200" data-name="200" transform="translate(336 387)" fill="rgba(0,0,0,0.75)" font-size="9" font-family="OpenSans, Open Sans"><tspan x="0" y="0">200</tspan></text>
      <text id="_201" data-name="201" transform="translate(397 387)" fill="rgba(0,0,0,0.75)" font-size="9" font-family="OpenSans, Open Sans"><tspan x="0" y="0">201</tspan></text>
      <text id="_401" data-name="401" transform="translate(458 387)" fill="rgba(0,0,0,0.75)" font-size="9" font-family="OpenSans, Open Sans"><tspan x="0" y="0">401</tspan></text>
      <text id="_404" data-name="404" transform="translate(519 387)" fill="rgba(0,0,0,0.75)" font-size="9" font-family="OpenSans, Open Sans"><tspan x="0" y="0">404</tspan></text>
      <text id="Add_Body" data-name="Add Body" transform="translate(246 414)" fill="rgba(0,0,0,0.75)" font-size="9" font-family="OpenSans, Open Sans"><tspan x="0" y="0">Add Body</tspan></text>
      <text id="application_json" data-name="application/json" transform="translate(327 414)" fill="rgba(0,0,0,0.75)" font-size="9" font-family="OpenSans, Open Sans"><tspan x="0" y="0">application/json</tspan></text>
      <path id="Icon_ionic-md-arrow-dropdown" data-name="Icon ionic-md-arrow-dropdown" d="M9,13.5,13.5,18,18,13.5Z" transform="translate(389 396)" opacity="0.6"/>
      <circle id="Ellipse_5" data-name="Ellipse 5" cx="4.5" cy="4.5" r="4.5" transform="translate(322 379)" fill="#38a169"/>
      <circle id="Ellipse_6" data-name="Ellipse 6" cx="4.5" cy="4.5" r="4.5" transform="translate(383 379)" fill="#38a169"/>
      <circle id="Ellipse_7" data-name="Ellipse 7" cx="4.5" cy="4.5" r="4.5" transform="translate(442 379)" fill="#f56565"/>
      <circle id="Ellipse_8" data-name="Ellipse 8" cx="4.5" cy="4.5" r="4.5" transform="translate(503 379)" fill="#f56565"/>
      <rect id="Rectangle_114" data-name="Rectangle 114" width="452" height="24" rx="4" transform="translate(228 429)" fill="#0b6fcc" opacity="0.12"/>
    </g>
    <g id="Group_20" data-name="Group 20" transform="translate(6 11)">
      <g transform="matrix(1, 0, 0, 1, -6, -11)" filter="url(#Rectangle_86)">
        <rect id="Rectangle_86-2" data-name="Rectangle 86" width="77" height="18" rx="3" transform="translate(233 316)" fill="#f7f7f7" opacity="0.595"/>
      </g>
      <g transform="matrix(1, 0, 0, 1, -6, -11)" filter="url(#Rectangle_77)">
        <rect id="Rectangle_77-2" data-name="Rectangle 77" width="102" height="18" rx="3" transform="translate(315 285)" fill="#f7f7f7" opacity="0.595"/>
      </g>
      <g transform="matrix(1, 0, 0, 1, -6, -11)" filter="url(#Rectangle_89)">
        <rect id="Rectangle_89-2" data-name="Rectangle 89" width="77" height="18" rx="3" transform="translate(233 285)" fill="#f7f7f7" opacity="0.595"/>
      </g>
      <text id="Schema" transform="translate(252 318)" fill="rgba(0,0,0,0.75)" font-size="9" font-family="OpenSans, Open Sans"><tspan x="0" y="0">Schema</tspan></text>
      <text id="Add_Body-2" data-name="Add Body" transform="translate(246 287)" fill="rgba(0,0,0,0.75)" font-size="9" font-family="OpenSans, Open Sans"><tspan x="0" y="0">Add Body</tspan></text>
      <text id="application_json-2" data-name="application/json" transform="translate(320 287)" fill="rgba(0,0,0,0.75)" font-size="9" font-family="OpenSans, Open Sans"><tspan x="0" y="0">application/json</tspan></text>
      <path id="Icon_ionic-md-arrow-dropdown-2" data-name="Icon ionic-md-arrow-dropdown" d="M9,13.5,13.5,18,18,13.5Z" transform="translate(382 267.5)" opacity="0.6"/>
      <rect id="Rectangle_113" data-name="Rectangle 113" width="452" height="24" rx="4" transform="translate(227 333)" fill="#0b6fcc" opacity="0.12"/>
      <path id="Icon_material-add" data-name="Icon material-add" d="M13.5,10.929H10.929V13.5h-.857V10.929H7.5v-.857h2.571V7.5h.857v2.571H13.5Z" transform="translate(229.5 272.5)" fill="rgba(0,0,0,0.75)"/>
      <path id="Icon_material-add-2" data-name="Icon material-add" d="M13.5,10.929H10.929V13.5h-.857V10.929H7.5v-.857h2.571V7.5h.857v2.571H13.5Z" transform="translate(233.5 304.5)" fill="rgba(0,0,0,0.75)"/>
    </g>
    <path id="Icon_material-add-3" data-name="Icon material-add" d="M13.5,10.929H10.929V13.5h-.857V10.929H7.5v-.857h2.571V7.5h.857v2.571H13.5Z" transform="translate(236.5 386.5)" fill="rgba(0,0,0,0.75)"/>
    <path id="Icon_material-add-4" data-name="Icon material-add" d="M13.5,10.929H10.929V13.5h-.857V10.929H7.5v-.857h2.571V7.5h.857v2.571H13.5Z" transform="translate(235.5 413.5)" fill="rgba(0,0,0,0.75)"/>
    <g id="Group_22" data-name="Group 22" transform="translate(6 7)">
      <g transform="matrix(1, 0, 0, 1, -6, -7)" filter="url(#Rectangle_87)">
        <rect id="Rectangle_87-2" data-name="Rectangle 87" width="83" height="18" rx="3" transform="translate(233 214)" fill="#f7f7f7" opacity="0.595"/>
      </g>
      <text id="Security" transform="translate(252 220)" fill="rgba(0,0,0,0.75)" font-size="9" font-family="OpenSans, Open Sans"><tspan x="0" y="0">Security</tspan></text>
      <path id="Icon_material-add-5" data-name="Icon material-add" d="M13.5,10.929H10.929V13.5h-.857V10.929H7.5v-.857h2.571V7.5h.857v2.571H13.5Z" transform="translate(233.5 206.5)" fill="rgba(0,0,0,0.75)"/>
      <g transform="matrix(1, 0, 0, 1, -6, -7)" filter="url(#Rectangle_76)">
        <rect id="Rectangle_76-2" data-name="Rectangle 76" width="83" height="18" rx="3" transform="translate(321 214)" fill="#f7f7f7" opacity="0.595"/>
      </g>
      <g transform="matrix(1, 0, 0, 1, -6, -7)" filter="url(#Rectangle_65)">
        <rect id="Rectangle_65-2" data-name="Rectangle 65" width="93" height="18" rx="3" transform="translate(409 214)" fill="#f7f7f7" opacity="0.595"/>
      </g>
      <text id="Header" transform="translate(341 220)" fill="rgba(0,0,0,0.75)" font-size="9" font-family="OpenSans, Open Sans"><tspan x="0" y="0">Header</tspan></text>
      <text id="Query_Param" data-name="Query Param" transform="translate(422 220)" fill="rgba(0,0,0,0.75)" font-size="9" font-family="OpenSans, Open Sans"><tspan x="0" y="0">Query Param</tspan></text>
      <rect id="Rectangle_115" data-name="Rectangle 115" width="452" height="24" rx="4" transform="translate(228 233)" fill="#0b6fcc" opacity="0.12"/>
      <path id="Icon_material-add-6" data-name="Icon material-add" d="M13.5,10.929H10.929V13.5h-.857V10.929H7.5v-.857h2.571V7.5h.857v2.571H13.5Z" transform="translate(405.5 206.5)" fill="rgba(0,0,0,0.75)"/>
      <path id="Icon_material-add-7" data-name="Icon material-add" d="M13.5,10.929H10.929V13.5h-.857V10.929H7.5v-.857h2.571V7.5h.857v2.571H13.5Z" transform="translate(323.5 206.5)" fill="rgba(0,0,0,0.75)"/>
    </g>
  </g>
</svg>
