<?xml version="1.0" encoding="UTF-8"?>
<svg width="168px" height="121px" viewBox="0 0 168 121" version="1.1" xmlns="http://www.w3.org/2000/svg" xmlns:xlink="http://www.w3.org/1999/xlink">
    <title>governance</title>
    <g id="Website" stroke="none" stroke-width="1" fill="none" fill-rule="evenodd">
        <g id="Home-Page" transform="translate(-1056.000000, -3209.000000)" fill-rule="nonzero">
            <g id="governance" transform="translate(1056.000000, 3209.000000)">
                <polygon id="Path" fill="#3F3D56" points="167.793505 119.995266 63.2567527 119.995266 63.2567527 119.598118 167.865432 119.598118"></polygon>
                <path d="M0.856015175,-9.10470409e-06 C0.383473977,0.000549884778 -9.10470409e-06,0.383483081 -9.10470409e-06,0.856024279 L-9.10470409e-06,50.1624528 C-9.10470409e-06,50.6349904 0.383477527,51.0179181 0.856015175,51.018468 L98.6128789,51.018468 C99.0854123,51.0179121 99.4688923,50.6349862 99.4688923,50.1624528 L99.4688923,0.856015175 C99.4688923,0.383478236 99.0854158,0.00054679921 98.6128789,-9.10470409e-06 L0.856015175,-9.10470409e-06 Z" id="Path" fill="#E6E6E6"></path>
                <path d="M2.22563763,1.36962428 C1.75310455,1.37017917 1.36962428,1.75310455 1.36962428,2.22563763 L1.36962428,48.7928303 C1.36962428,49.2653673 1.7531007,49.6482987 2.22563763,49.6488546 L97.2432546,49.6488546 C97.7157958,49.6483047 98.0992789,49.2653715 98.0992789,48.7928303 L98.0992789,2.22563763 C98.0992789,1.75310029 97.715792,1.37017315 97.2432546,1.36962428 L2.22563763,1.36962428 Z" id="Path" fill="#FFFFFF"></path>
                <path d="M30.7309238,31.3301335 L10.5289803,31.3301335 C9.86741792,31.3293919 9.33130063,30.7932746 9.33055903,30.1317123 L9.33055903,9.92976874 C9.33130063,9.26820668 9.86741822,8.73208992 10.5289803,8.73134932 L30.7309238,8.73134932 C31.3924852,8.73209092 31.9286016,9.26820739 31.9293432,9.92976874 L31.9293432,30.1317123 C31.9286016,30.7932739 31.3924855,31.3293909 30.7309238,31.3301335 Z M10.5289803,9.07375539 C10.0564429,9.07430426 9.6735109,9.45723139 9.67295599,9.92976874 L9.67295599,30.1317123 C9.67350588,30.6042535 10.0564391,30.9871867 10.5289803,30.9877366 L30.7309238,30.9877366 C31.2034608,30.9871807 31.5863873,30.6042492 31.5869372,30.1317123 L31.5869372,9.92976874 C31.5863823,9.45723565 31.2034569,9.07431028 30.7309238,9.07375539 L10.5289803,9.07375539 Z" id="Shape" fill="#3F3D56"></path>
                <path d="M41.1743017,10.6145718 C40.701764,10.6151358 40.3188364,10.9980675 40.3182865,11.4706052 L40.3182865,28.5908959 C40.3188364,29.0634336 40.701764,29.4463653 41.1743017,29.4469202 L58.2945924,29.4469202 C58.7671301,29.4463653 59.1500577,29.0634336 59.1506076,28.5908959 L59.1506076,11.4705961 C59.1500577,10.9980584 58.7671301,10.6151267 58.2945924,10.6145718 L41.1743017,10.6145718 Z" id="Path" fill="#E6E6E6"></path>
                <path d="M12.1554064,10.6145718 C11.6828694,10.6151368 11.2999429,10.9980682 11.299393,11.4706052 L11.299393,28.5908959 C11.2999429,29.0634328 11.6828694,29.4463643 12.1554064,29.4469202 L29.2756898,29.4469202 C29.7482268,29.4463643 30.1311533,29.0634328 30.1317032,28.5908959 L30.1317032,11.4705961 C30.1311533,10.9980591 29.7482268,10.6151277 29.2756898,10.6145718 L12.1554064,10.6145718 Z" id="Path" fill="#3F3D56"></path>
                <path d="M70.1931951,10.6145718 C69.7206575,10.6151358 69.3377298,10.9980675 69.33718,11.4706052 L69.33718,28.5908959 C69.3377298,29.0634336 69.7206575,29.4463653 70.1931951,29.4469202 L87.3134859,29.4469202 C87.7860271,29.4463703 88.1689603,29.0634371 88.1695102,28.5908959 L88.1695102,11.4705961 C88.1689603,10.9980549 87.7860271,10.6151217 87.3134859,10.6145718 L70.1931951,10.6145718 Z" id="Path" fill="#0B6FCC"></path>
                <path d="M40.6536461,10.8832225 C40.1811085,10.8837865 39.7981808,11.2667182 39.797631,11.7392558 L39.797631,28.8595466 C39.7981808,29.3320842 40.1811085,29.715016 40.6536461,29.7155709 L57.7739369,29.7155709 C58.2464781,29.715021 58.6294113,29.3320878 58.6299612,28.8595466 L58.6299612,11.7392467 C58.6294113,11.2667055 58.2464781,10.8837723 57.7739369,10.8832225 L40.6536461,10.8832225 Z" id="Path-Copy" fill="#0B6FCC"></path>
                <path d="M88.9399083,31.3301335 L68.7379703,31.3301335 C68.0764195,31.3293639 67.5403187,30.793263 67.539549,30.1317123 L67.539549,9.92976874 C67.5403197,9.26821873 68.0764202,8.73211895 68.7379703,8.73134932 L88.9399083,8.73134932 C89.6014576,8.73211996 90.1375571,9.26821944 90.1383278,9.92976874 L90.1383278,30.1317123 C90.1375581,30.7932623 89.6014584,31.3293629 88.9399083,31.3301335 Z M68.7379703,9.07375539 C68.2654329,9.07430426 67.8825009,9.45723139 67.881946,9.92976874 L67.881946,30.1317123 C67.8824959,30.6042535 68.2654291,30.9871867 68.7379703,30.9877366 L88.9399083,30.9877366 C89.4124457,30.9871817 89.7953728,30.6042496 89.7959217,30.1317123 L89.7959217,9.92976874 C89.7953668,9.45723565 89.4124414,9.07431028 88.9399083,9.07375539 L68.7379703,9.07375539 Z" id="Shape" fill="#0B6FCC"></path>
                <path d="M59.4003593,31.5987842 L39.1984212,31.5987842 C38.5368705,31.5980146 38.0007696,31.0619137 38,30.400363 L38,10.1984194 C38.0007706,9.53686941 38.5368712,9.00076964 39.1984212,9 L59.4003593,9 C60.0619086,9.00077064 60.5980081,9.53687012 60.5987788,10.1984194 L60.5987788,30.400363 C60.5980091,31.061913 60.0619093,31.5980136 59.4003593,31.5987842 Z M39.1984212,9.34240607 C38.7258839,9.34295494 38.3429519,9.72588208 38.342397,10.1984194 L38.342397,30.400363 C38.3429468,30.8729042 38.72588,31.2558374 39.1984212,31.2563873 L59.4003593,31.2563873 C59.8728967,31.2558324 60.2558238,30.8729003 60.2563727,30.400363 L60.2563727,10.1984194 C60.2558178,9.72588634 59.8728924,9.34296096 59.4003593,9.34240607 L39.1984212,9.34240607 Z" id="Shape-Copy" fill="#0B6FCC"></path>
                <circle id="Oval" fill="#3F3D56" opacity="0.8" cx="12.4978124" cy="37.8358434" r="2.91044977"></circle>
                <circle id="Oval" fill="#3F3D56" opacity="0.4" cx="28.9332929" cy="37.8358434" r="2.91044977"></circle>
                <circle id="Oval" fill="#3F3D56" opacity="0.6" cx="20.7155527" cy="37.8358434" r="2.91044977"></circle>
                <circle id="Oval" fill="#0B6FCC" opacity="0.8" cx="70.7068024" cy="37.8358434" r="2.91044977"></circle>
                <circle id="Oval-Copy" fill="#0B6FCC" opacity="0.8" cx="41.1672534" cy="38.1044941" r="2.91044977"></circle>
                <circle id="Oval" fill="#0B6FCC" opacity="0.4" cx="87.1422829" cy="37.8358434" r="2.91044977"></circle>
                <circle id="Oval-Copy-2" fill="#0B6FCC" opacity="0.4" cx="57.6027338" cy="38.1044941" r="2.91044977"></circle>
                <circle id="Oval" fill="#0B6FCC" opacity="0.6" cx="78.9245426" cy="37.8358434" r="2.91044977"></circle>
                <circle id="Oval-Copy-3" fill="#0B6FCC" opacity="0.6" cx="49.3849936" cy="38.1044941" r="2.91044977"></circle>
                <polygon id="Path" fill="#FFFFFF" points="77.009044 25.5572686 72.9044613 20.28 75.2913505 18.4233687 77.2348407 20.9220637 83.8002428 13.9917451 85.9957511 16.0716237"></polygon>
                <polygon id="Path-Copy-2" fill="#FFFFFF" points="47.469495 25.8259193 43.3649123 20.5486507 45.7518015 18.6920194 47.6952917 21.1907144 54.2606938 14.2603958 56.4562021 16.3402744"></polygon>
                <path d="M115.548011,57.7483484 C115.353927,57.5570119 115.05252,57.5273442 114.824855,57.6771678 L110.407371,60.5544055 C110.260406,60.6501427 110.164542,60.8071342 110.146509,60.9816025 C110.128477,61.1560708 110.190207,61.3293504 110.314485,61.4531217 L121.548597,72.6385693 C121.65888,72.7483796 121.808603,72.8093636 121.964225,72.8078878 C122.119848,72.8063577 122.268364,72.7424934 122.376506,72.6305736 L126.058084,68.8201712 C126.279528,68.5899666 126.274222,68.2243531 126.046192,68.0006713 L115.548011,57.7483484 Z" id="Path" fill="#3F3D56"></path>
                <path d="M111.277619,60.8621772 L111.734781,60.5706992 C111.635606,60.7473865 111.671364,60.9691262 111.821052,61.1056816 C111.970741,61.2422371 112.194823,61.2575407 112.361687,61.1426039 L115.320036,59.1087387 C115.457241,59.0145652 115.52875,58.8504082 115.504272,58.6858036 C115.479794,58.5211989 115.363613,58.3849531 115.204942,58.3347788 L115.440473,58.1846076 C115.50345,58.1444547 115.585914,58.1537199 115.63841,58.2068467 L125.590512,67.9870689 C125.62051,68.0174245 125.636997,68.0585956 125.636268,68.1012659 C125.635489,68.1439363 125.617558,68.1844991 125.586506,68.213776 L121.972139,71.7355575 C121.909848,71.7942881 121.812174,71.792932 121.751537,71.7324947 L111.250942,61.1080589 C111.216879,61.0741083 111.200075,61.0265272 111.205263,60.978715 C111.21045,60.9309028 111.237067,60.8880326 111.277619,60.8621772 L111.277619,60.8621772 Z" id="Path" fill="#FFFFFF"></path>
                <polygon id="Path" fill="#0B6FCC" points="122.763824 65.8275569 119.710835 68.7061002 112.449105 61.5314112 116.134507 59.1326859"></polygon>
                <path d="M112.731378,63.3021232 C112.772545,63.2608251 112.772545,63.1940059 112.731378,63.1527077 L112.096336,62.5176783 C112.054518,62.477774 111.988725,62.477774 111.946907,62.5176783 C111.905738,62.5589756 111.905738,62.6257965 111.946907,62.6670938 L112.581948,63.3021232 C112.623766,63.3420277 112.68956,63.3420277 112.731378,63.3021232 L112.731378,63.3021232 Z" id="Path" fill="#E6E6E6"></path>
                <path d="M113.801137,64.2224595 L113.166097,63.5874191 C113.124833,63.5461552 113.057931,63.5461547 113.016667,63.5874182 C112.975403,63.6286817 112.975403,63.6955834 113.016666,63.7368473 L113.651709,64.3718895 C113.692973,64.413153 113.759874,64.4131526 113.801138,64.3718886 C113.842401,64.3306246 113.842401,64.263723 113.801137,64.2224595 L113.801137,64.2224595 Z" id="Path" fill="#E6E6E6"></path>
                <circle id="Oval" fill="#0B6FCC" cx="122.693366" cy="68.2983168" r="1"></circle>
                <path d="M143.363594,69.7594561 L142.813912,72.4391527 C142.653244,73.2224181 142.92658,74.0315354 143.529329,74.5569034 C144.132079,75.0822714 144.970941,75.2425658 145.724932,74.9764516 L145.724932,74.9764516 C146.838457,74.5834421 147.448846,73.3869215 147.113381,72.2547296 L146.374039,69.7594489 L153.063933,50.1915132 L147.37753,50.1915132 L143.363594,69.7594561 Z" id="Path" fill="#FFB8B8"></path>
                <circle id="Oval" fill="#FFB8B8" cx="137.342691" cy="25.6061627" r="5.18466646"></circle>
                <path d="M136.506455,34.8047636 L143.363594,33.9685275 C141.790483,31.9961226 141.195687,29.9367478 141.691122,27.7803769 L135.502971,28.4493651 L136.506455,34.8047636 Z" id="Path" fill="#FFB8B8"></path>
                <path d="M127.976841,63.7385536 L144.199832,60.0591114 C147.667433,57.3622889 149.920083,52.0129202 151.660168,45.5444376 C152.928286,40.8304152 150.649879,35.8117785 146.171898,33.8681135 C146.064838,33.8216455 145.95669,33.7769171 145.847456,33.7339284 L142.192864,32.2960552 L136.171959,32.7977973 L134.023832,33.3836504 C133.093013,33.6375135 132.399685,34.4167432 132.255775,35.3707666 C129.367779,45.9677645 127.464024,55.7964036 127.976841,63.7385536 Z" id="Path" fill="#0B6FCC"></path>
                <polygon id="Path" fill="#0B6FCC" points="146.541305 53.3692261 153.732929 53.3692261 151.391381 39.3204856 146.541305 39.8221548"></polygon>
                <path d="M122.290439,114.247246 L126.63887,114.247246 L135.753849,82.2193821 L139.27131,114.247246 L144.367085,114.247246 L146.374053,62.9023156 C145.608109,58.9629396 145.624483,54.2680297 146.039559,49.1880364 C149.625968,46.6772486 148.312598,40.7170088 148.709552,34.7286483 C148.713384,34.670451 148.694807,34.6129927 148.65763,34.568054 L146.34647,33.3667794 C146.282594,33.2929526 146.178531,33.2684912 146.088454,33.3061293 C145.998376,33.3437673 145.942653,33.4349941 145.950291,33.5323193 C145.891513,37.7193123 147.020289,42.6987278 145.203323,46.010329 C143.229241,39.2622282 140.656328,33.5962671 135.647705,32.3312176 C135.552998,32.3077802 135.453784,32.3097329 135.360073,32.3368789 L134.427442,32.6033445 C134.215916,32.6643051 134.06055,32.8447155 134.031642,33.0629437 C134.002735,33.2811719 134.105772,33.4958113 134.294131,33.609742 C138.876224,36.4406094 141.837844,41.1804583 142.025623,49.1880291 C138.460403,54.2336558 134.98843,57.2203466 128.73832,60.8934974 C128.100072,61.2700161 127.678949,61.9276489 127.603994,62.6648795 L122.290439,114.247246 Z" id="Path" fill="#2F2E41"></path>
                <path d="M138.014628,30.3163266 L141.691122,29.6200989 L143.878328,25.8836212 C144.967183,24.0234927 144.732262,21.673427 143.296742,20.0656443 L143.296742,20.0656443 C142.189321,18.8253278 140.534783,18.2213302 138.888736,18.4564789 L134.123905,19.1371684 C133.294047,19.2557189 132.545807,19.7005259 132.045185,20.3729068 C131.544563,21.0452877 131.332955,21.8896447 131.457307,22.7186531 L134.666737,23.2646968 L138.014628,30.3163266 Z" id="Path" fill="#2F2E41"></path>
                <path d="M117.199395,119.850031 L124.858565,119.850031 C125.590293,119.850031 126.285881,119.531943 126.764504,118.978458 C127.243127,118.424973 127.457507,117.690764 127.351914,116.966695 L126.871127,113.669865 L123.394782,113.412357 L116.486569,116.643616 C115.842258,116.944988 115.457094,117.618992 115.524534,118.327098 L115.524534,118.327098 C115.606769,119.190588 116.331998,119.850031 117.199395,119.850031 L117.199395,119.850031 Z" id="Path" fill="#2F2E41"></path>
                <path d="M134.593116,119.850031 L142.252286,119.850031 C142.984015,119.850031 143.679603,119.531944 144.158226,118.978459 C144.636849,118.424974 144.851229,117.690764 144.745635,116.966695 L144.264849,113.669865 L140.788505,113.412357 L133.880293,116.643616 C133.235981,116.944987 132.850816,117.618992 132.918255,118.327098 L132.918255,118.327098 C133.00049,119.190588 133.72572,119.850031 134.593116,119.850031 L134.593116,119.850031 Z" id="Path" fill="#2F2E41"></path>
                <path d="M120.036098,63.6043994 L116.722591,64.7562064 C115.913383,65.037497 115.322196,65.7379846 115.180879,66.5829523 C115.039563,67.4279201 115.370648,68.282653 116.04429,68.8119423 L116.04429,68.8119423 C116.82975,69.4290899 117.920096,69.4804315 118.760072,68.9398215 L121.780203,66.9960601 L132.092564,56.5138926 L133.690734,44.1932395 C134.104456,41.003778 132.855596,37.824679 130.381637,35.7695982 L130.381637,35.7695982 L127.018694,54.5376073 L120.036098,63.6043994 Z" id="Path" fill="#FFB9B9"></path>
                <path d="M127.140605,50.8605086 L134.499483,50.8605086 L134.332236,33.2995375 L134.332236,33.2995375 C130.746957,34.1958572 128.154731,37.3104523 127.924205,40.9988759 L127.140605,50.8605086 Z" id="Path" fill="#0B6FCC"></path>
                <ellipse id="Oval" fill="#FFB8B8" cx="135.829499" cy="26.3102568" rx="1" ry="1.09256449"></ellipse>
            </g>
        </g>
    </g>
</svg>