<?xml version="1.0" encoding="UTF-8"?>
<svg width="168px" height="120px" viewBox="0 0 168 120" version="1.1" xmlns="http://www.w3.org/2000/svg" xmlns:xlink="http://www.w3.org/1999/xlink">
    <title>visibility</title>
    <g id="Website" stroke="none" stroke-width="1" fill="none" fill-rule="evenodd">
        <g id="Home-Page" transform="translate(-159.000000, -3209.000000)" fill-rule="nonzero">
            <g id="visibility" transform="translate(159.000000, 3209.000000)">
                <circle id="Oval" fill="#E6E6E6" cx="7.76481899" cy="21.7466357" r="2.67703502"></circle>
                <circle id="Oval" fill="#E6E6E6" cx="15.7959221" cy="21.7466357" r="2.67703502"></circle>
                <circle id="Oval" fill="#E6E6E6" cx="23.8270252" cy="21.7466357" r="2.67703502"></circle>
                <circle id="Oval" fill="#E6E6E6" cx="31.8581283" cy="21.7466357" r="2.67703502"></circle>
                <circle id="Oval" fill="#E6E6E6" cx="39.8892314" cy="21.7466357" r="2.67703502"></circle>
                <circle id="Oval" fill="#E6E6E6" cx="47.9203345" cy="21.7466357" r="2.67703502"></circle>
                <circle id="Oval" fill="#E6E6E6" cx="55.9514376" cy="21.7466357" r="2.67703502"></circle>
                <path d="M62.1375437,25.0066448 L1.57871293,25.0066448 C0.977339482,25.0059381 0.490006215,24.5186049 0.489299509,23.9172314 L0.489299509,19.5760674 C0.490005136,18.9746935 0.977339034,18.4873596 1.57871293,18.486654 L62.1375437,18.486654 C62.7389171,18.4873607 63.2262504,18.974694 63.2269571,19.5760674 L63.2269571,23.9172314 C63.2262493,24.5186044 62.7389167,25.0059371 62.1375437,25.0066448 L62.1375437,25.0066448 Z M1.57871293,18.922419 C1.21787619,18.9228169 0.925064484,19.2152346 0.925064484,19.5760714 L0.925064484,23.9172314 C0.925064484,24.2780674 1.21787695,24.5704839 1.57871293,24.5708779 L62.1375437,24.5708779 C62.4983794,24.5704839 62.7911902,24.2780671 62.7911902,23.9172314 L62.7911902,19.5760674 C62.7911902,19.215231 62.4983801,18.922813 62.1375437,18.922419 L1.57871293,18.922419 Z" id="Shape" fill="#E6E6E6"></path>
                <path d="M14.5386835,0.625934534 C14.8842084,0.626329577 15.1642131,0.906334338 15.1646082,1.25185925 L15.1646082,14.8157126 C15.1642131,15.1612375 14.8842084,15.4412423 14.5386835,15.4416373 L1.25187496,15.4416373 C0.90635005,15.4412423 0.626345289,15.1612375 0.625950245,14.8157126 L0.625950245,1.25186907 C0.626345289,0.906344158 0.90635005,0.626339397 1.25187496,0.625934534 L14.5386835,0.625934534 M14.5386835,5.58200513e-15 L1.25187496,5.58200513e-15 C0.560486765,5.58200513e-15 5.89198037e-06,0.560490693 5.89198037e-06,1.25187889 L5.89198037e-06,14.8157126 C5.89198037e-06,15.5071008 0.560486765,16.0675817 1.25187496,16.0675817 L14.5386835,16.0675817 C15.2300712,16.0675817 15.7905525,15.5071003 15.7905525,14.8157126 L15.7905525,1.25186907 C15.7905525,0.560481322 15.2300712,5.58200513e-15 14.5386835,5.58200513e-15 L14.5386835,5.58200513e-15 Z" id="Shape" fill="#E6E6E6"></path>
                <path d="M12.4662285,4.19128579 L3.6013689,4.19128579 C3.48910071,4.19196877 3.38506459,4.13246961 3.32873068,4.03535569 C3.27239677,3.93824177 3.27239677,3.81839326 3.32873068,3.72127934 C3.38506459,3.62416542 3.48910071,3.56466625 3.6013689,3.56534924 L12.4662285,3.56534924 C12.5784967,3.56466625 12.6825328,3.62416542 12.7388667,3.72127934 C12.7952006,3.81839326 12.7952006,3.93824177 12.7388667,4.03535569 C12.6825328,4.13246961 12.5784967,4.19196877 12.4662285,4.19128579 L12.4662285,4.19128579 Z" id="Path" fill="#0B6FCC"></path>
                <path d="M12.4662285,6.40757777 L3.6013689,6.40757777 C3.48910071,6.40826075 3.38506459,6.34876159 3.32873068,6.25164767 C3.27239677,6.15453375 3.27239677,6.03468524 3.32873068,5.93757132 C3.38506459,5.8404574 3.48910071,5.78095823 3.6013689,5.78164122 L12.4662285,5.78164122 C12.5784967,5.78095823 12.6825328,5.8404574 12.7388667,5.93757132 C12.7952006,6.03468524 12.7952006,6.15453375 12.7388667,6.25164767 C12.6825328,6.34876159 12.5784967,6.40826075 12.4662285,6.40757777 Z" id="Path" fill="#0B6FCC"></path>
                <path d="M12.4662285,8.62371656 L3.6013689,8.62371656 C3.48910071,8.62439954 3.38506459,8.56490038 3.32873068,8.46778646 C3.27239677,8.37067254 3.27239677,8.25082403 3.32873068,8.15371011 C3.38506459,8.05659619 3.48910071,7.99709702 3.6013689,7.99778001 L12.4662285,7.99778001 C12.5784967,7.99709702 12.6825328,8.05659619 12.7388667,8.15371011 C12.7952006,8.25082403 12.7952006,8.37067254 12.7388667,8.46778646 C12.6825328,8.56490038 12.5784967,8.62439954 12.4662285,8.62371656 Z" id="Path" fill="#0B6FCC"></path>
                <path d="M12.4662285,10.8400066 L3.6013689,10.8400066 C3.48910071,10.8406896 3.38506459,10.7811904 3.32873068,10.6840765 C3.27239677,10.5869626 3.27239677,10.467114 3.32873068,10.3700001 C3.38506459,10.2728862 3.48910071,10.213387 3.6013689,10.21407 L12.4662285,10.21407 C12.5784967,10.213387 12.6825328,10.2728862 12.7388667,10.3700001 C12.7952006,10.467114 12.7952006,10.5869626 12.7388667,10.6840765 C12.6825328,10.7811904 12.5784967,10.8406896 12.4662285,10.8400066 Z" id="Path" fill="#0B6FCC"></path>
                <path d="M12.4662285,13.0562946 L3.6013689,13.0562946 C3.42852131,13.0562946 3.28840065,12.9161739 3.28840065,12.7433264 C3.28840065,12.5704788 3.42852131,12.4303581 3.6013689,12.4303581 L12.4662285,12.4303581 C12.6390761,12.4303581 12.7791967,12.5704788 12.7791967,12.7433264 C12.7791967,12.9161739 12.6390761,13.0562946 12.4662285,13.0562946 L12.4662285,13.0562946 Z" id="Path" fill="#0B6FCC"></path>
                <path d="M59.918948,0.625934534 C60.2644729,0.626329577 60.5444776,0.906334338 60.5448727,1.25185925 L60.5448727,14.8157126 C60.5444776,15.1612375 60.2644729,15.4412423 59.918948,15.4416373 L46.6321394,15.4416373 C46.2866145,15.4412423 46.0066098,15.1612375 46.0062147,14.8157126 L46.0062147,1.25186907 C46.0066098,0.906344158 46.2866145,0.626339397 46.6321394,0.625934534 L59.918948,0.625934534 M59.918948,5.58200513e-15 L46.6321394,5.58200513e-15 C45.9407512,5.58200513e-15 45.3802704,0.560490693 45.3802704,1.25187889 L45.3802704,14.8157126 C45.3802704,15.5071008 45.9407512,16.0675817 46.6321394,16.0675817 L59.918948,16.0675817 C60.6103361,16.0675817 61.170817,15.5071008 61.170817,14.8157126 L61.170817,1.25186907 C61.170817,0.560480873 60.6103361,5.58200513e-15 59.918948,5.58200513e-15 L59.918948,5.58200513e-15 Z" id="Shape" fill="#E6E6E6"></path>
                <path d="M57.8464949,4.19128579 L48.9816412,4.19128579 C48.869373,4.19196877 48.7653369,4.13246961 48.709003,4.03535569 C48.6526691,3.93824177 48.6526691,3.81839326 48.709003,3.72127934 C48.7653369,3.62416542 48.869373,3.56466625 48.9816412,3.56534924 L57.8465028,3.56534924 C58.0185976,3.56641117 58.1575506,3.70621942 58.1575506,3.87831751 C58.1575506,4.05041561 58.0185976,4.19022386 57.8465028,4.19128579 L57.8464949,4.19128579 Z" id="Path" fill="#0B6FCC"></path>
                <path d="M57.8464949,6.40757777 L48.9816412,6.40757777 C48.869373,6.40826075 48.7653369,6.34876159 48.709003,6.25164767 C48.6526691,6.15453375 48.6526691,6.03468524 48.709003,5.93757132 C48.7653369,5.8404574 48.869373,5.78095823 48.9816412,5.78164122 L57.8465028,5.78164122 C58.0185976,5.78270315 58.1575506,5.9225114 58.1575506,6.09460949 C58.1575506,6.26670759 58.0185976,6.40651584 57.8465028,6.40757777 L57.8464949,6.40757777 Z" id="Path" fill="#0B6FCC"></path>
                <path d="M57.8464949,8.62371656 L48.9816412,8.62371656 C48.869373,8.62439954 48.7653369,8.56490038 48.709003,8.46778646 C48.6526691,8.37067254 48.6526691,8.25082403 48.709003,8.15371011 C48.7653369,8.05659619 48.869373,7.99709702 48.9816412,7.99778001 L57.8465028,7.99778001 C58.0185976,7.99884194 58.1575506,8.13865019 58.1575506,8.31074828 C58.1575506,8.48284638 58.0185976,8.62265462 57.8465028,8.62371656 L57.8464949,8.62371656 Z" id="Path" fill="#0B6FCC"></path>
                <path d="M57.8464949,10.8400066 L48.9816412,10.8400066 C48.869373,10.8406896 48.7653369,10.7811904 48.709003,10.6840765 C48.6526691,10.5869626 48.6526691,10.467114 48.709003,10.3700001 C48.7653369,10.2728862 48.869373,10.213387 48.9816412,10.21407 L57.8465028,10.21407 C58.0185976,10.215132 58.1575506,10.3549402 58.1575506,10.5270383 C58.1575506,10.6991364 58.0185976,10.8389446 57.8465028,10.8400066 L57.8464949,10.8400066 Z" id="Path" fill="#0B6FCC"></path>
                <path d="M57.8464949,13.0562946 L48.9816412,13.0562946 C48.8087937,13.0562946 48.668673,12.9161739 48.668673,12.7433264 C48.668673,12.5704788 48.8087937,12.4303581 48.9816412,12.4303581 L57.8465028,12.4303581 C58.0193504,12.4303581 58.159471,12.5704788 58.159471,12.7433264 C58.159471,12.9161739 58.0193504,13.0562946 57.8465028,13.0562946 L57.8464949,13.0562946 Z" id="Path" fill="#0B6FCC"></path>
                <path d="M105.078793,26.7060766 C105.424318,26.7064716 105.704323,26.9864764 105.704718,27.3320013 L105.704718,40.8958409 C105.704322,41.2413654 105.424318,41.5213695 105.078793,41.5217656 L91.7919849,41.5217656 C91.4464605,41.5213695 91.1664564,41.2413654 91.1660602,40.8958409 L91.1660602,27.3320111 C91.1664553,26.9864862 91.44646,26.7064815 91.7919849,26.7060766 L105.078793,26.7060766 M105.078793,26.0801421 L91.7919849,26.0801421 C91.1005967,26.0801421 90.5401159,26.6406426 90.5401159,27.3320308 L90.5401159,40.8958704 C90.5401159,41.5872586 91.1005967,42.1477394 91.7919849,42.1477394 L105.078793,42.1477394 C105.770181,42.1477394 106.330663,41.5872581 106.330663,40.8958704 L106.330663,27.3320111 C106.330663,26.6406229 105.770182,26.0801421 105.078793,26.0801421 L105.078793,26.0801421 Z" id="Shape" fill="#0B6FCC"></path>
                <path d="M103.00634,30.2714278 L94.1414789,30.2714278 C94.0292107,30.2721108 93.9251746,30.2126117 93.8688407,30.1154977 C93.8125068,30.0183838 93.8125068,29.8985353 93.8688407,29.8014214 C93.9251746,29.7043075 94.0292107,29.6448083 94.1414789,29.6454913 L103.00634,29.6454913 C103.178435,29.6465532 103.317388,29.7863615 103.317388,29.9584596 C103.317388,30.1305577 103.178435,30.2703659 103.00634,30.2714278 Z" id="Path" fill="#0B6FCC"></path>
                <path d="M103.00634,32.4877139 L94.1414789,32.4877139 C93.9686313,32.4877139 93.8285106,32.3475933 93.8285106,32.1747457 C93.8285106,32.0018981 93.9686313,31.8617774 94.1414789,31.8617774 L103.00634,31.8617774 C103.179188,31.8617774 103.319309,32.0018981 103.319309,32.1747457 C103.319309,32.3475933 103.179188,32.4877139 103.00634,32.4877139 Z" id="Path" fill="#0B6FCC"></path>
                <path d="M103.00634,34.7038566 L94.1414789,34.7038566 C94.0292947,34.7044148 93.9253908,34.6448877 93.8691358,34.5478259 C93.8128808,34.4507641 93.8128808,34.3310166 93.8691358,34.2339548 C93.9253908,34.136893 94.0292947,34.0773659 94.1414789,34.077924 L103.00634,34.077924 C103.178435,34.078984 103.317388,34.2187922 103.317388,34.3908903 C103.317388,34.5629884 103.178435,34.7027967 103.00634,34.7038566 L103.00634,34.7038566 Z" id="Path" fill="#0B6FCC"></path>
                <path d="M103.00634,36.9201486 L94.1414789,36.9201486 C94.0292107,36.9208316 93.9251746,36.8613325 93.8688407,36.7642185 C93.8125068,36.6671046 93.8125068,36.5472561 93.8688407,36.4501422 C93.9251746,36.3530283 94.0292107,36.2935291 94.1414789,36.2942121 L103.00634,36.2942121 C103.178435,36.295274 103.317388,36.4350823 103.317388,36.6071804 C103.317388,36.7792785 103.178435,36.9190867 103.00634,36.9201486 Z" id="Path" fill="#0B6FCC"></path>
                <path d="M103.00634,39.1364387 L94.1414789,39.1364387 C94.0292107,39.1371216 93.9251746,39.0776225 93.8688407,38.9805086 C93.8125068,38.8833946 93.8125068,38.7635461 93.8688407,38.6664322 C93.9251746,38.5693183 94.0292107,38.5098191 94.1414789,38.5105021 L103.00634,38.5105021 C103.178435,38.511564 103.317388,38.6513723 103.317388,38.8234704 C103.317388,38.9955685 103.178435,39.1353767 103.00634,39.1364387 Z" id="Path" fill="#0B6FCC"></path>
                <path d="M37.4026861,16.0675777 L23.7679777,16.0675777 C23.0002455,16.0666762 22.3781,15.4445316 22.3771974,14.6767993 L22.3771974,4.92040851 C22.3780329,4.15262357 23.0001929,3.53039588 23.7679777,3.52947692 L37.4026861,3.52947692 C38.1705254,3.53032444 38.792771,4.15256921 38.7936196,4.92040851 L38.7936196,14.6767993 C38.7926996,15.4445842 38.170471,16.0667434 37.4026861,16.0675777 L37.4026861,16.0675777 Z M23.7679777,4.15541146 C23.3457228,4.15593429 23.0035713,4.49815345 23.0031319,4.92040851 L23.0031319,14.6767993 C23.0035844,15.0990242 23.3457529,15.4411918 23.7679777,15.4416432 L37.4026861,15.4416432 C37.8249404,15.4412039 38.1671592,15.0990535 38.1676831,14.6767993 L38.1676831,4.92040851 C38.1671724,4.49812406 37.8249705,4.15592224 37.4026861,4.15541146 L23.7679777,4.15541146 Z" id="Shape" fill="#E6E6E6"></path>
                <path d="M35.0178442,7.89528513 L26.1529768,7.89528513 C25.9808819,7.8942232 25.8419289,7.75441495 25.8419289,7.58231686 C25.8419289,7.41021876 25.9808819,7.27041051 26.1529768,7.26934858 L35.0178442,7.26934858 C35.1301124,7.2686656 35.2341485,7.32816476 35.2904824,7.42527868 C35.3468163,7.5223926 35.3468163,7.64224111 35.2904824,7.73935503 C35.2341485,7.83646895 35.1301124,7.89596812 35.0178442,7.89528513 L35.0178442,7.89528513 Z" id="Path" fill="#0B6FCC"></path>
                <path d="M35.0178442,10.1115771 L26.1529768,10.1115771 C25.9808819,10.1105152 25.8419289,9.97070693 25.8419289,9.79860884 C25.8419289,9.62651074 25.9808819,9.48670249 26.1529768,9.48564056 L35.0178442,9.48564056 C35.1301124,9.48495758 35.2341485,9.54445674 35.2904824,9.64157066 C35.3468163,9.73868458 35.3468163,9.85853309 35.2904824,9.95564701 C35.2341485,10.0527609 35.1301124,10.1122601 35.0178442,10.1115771 L35.0178442,10.1115771 Z" id="Path" fill="#0B6FCC"></path>
                <path d="M35.0178442,12.3277159 L26.1529768,12.3277159 C25.9808819,12.326654 25.8419289,12.1868457 25.8419289,12.0147476 C25.8419289,11.8426495 25.9808819,11.7028413 26.1529768,11.7017794 L35.0178442,11.7017794 C35.1301124,11.7010964 35.2341485,11.7605955 35.2904824,11.8577095 C35.3468163,11.9548234 35.3468163,12.0746719 35.2904824,12.1717858 C35.2341485,12.2688997 35.1301124,12.3283989 35.0178442,12.3277159 Z" id="Path" fill="#0B6FCC"></path>
                <path d="M82.6449034,21.4738959 L69.5497316,17.6762887 C68.8126301,17.4615902 68.388387,16.6907805 68.6013545,15.9531771 L71.3187516,6.58285827 C71.5334002,5.84568814 72.3042456,5.42136877 73.0419044,5.63433191 L86.1370763,9.43193912 C86.874294,9.64661662 87.2986047,10.4175487 87.0855574,11.1552393 L84.3681604,20.5255601 C84.1534302,21.2627061 83.3825385,21.6869401 82.6449034,21.4738959 L82.6449034,21.4738959 Z M72.8675666,6.23549853 C72.4618755,6.11839259 72.0379475,6.3517726 71.9199182,6.75719607 L69.202525,16.1275169 C69.0853593,16.53316 69.3186858,16.9570905 69.7240773,17.0751241 L82.8192471,20.8727293 C83.2249154,20.9899151 83.6488899,20.75662 83.7670016,20.3512203 L86.4843987,10.9809015 C86.6015236,10.5751848 86.3681756,10.151213 85.9627444,10.0331038 L72.8675666,6.23549853 Z" id="Shape" fill="#E6E6E6"></path>
                <path d="M82.6306134,12.9607424 L74.1165447,10.4916589 C73.9508643,10.4432563 73.8556493,10.2698547 73.9037242,10.1040789 C73.951799,9.93830315 74.1250119,9.84274543 74.2908825,9.89049231 L82.8049473,12.3595777 C82.9709543,12.4077203 83.0665023,12.5813229 83.0183597,12.74733 C82.9702171,12.913337 82.7966146,13.008885 82.6306075,12.9607424 L82.6306134,12.9607424 Z" id="Path" fill="#0B6FCC"></path>
                <path d="M82.0133224,15.0893342 L73.4992517,12.6202488 C73.391864,12.5891063 73.3092479,12.5030388 73.2825242,12.3944671 C73.2558005,12.2858954 73.2890291,12.1713141 73.3696931,12.0938848 C73.4503572,12.0164555 73.5662018,11.9879417 73.6735895,12.0190841 L82.1876642,14.4881676 C82.3533445,14.5365702 82.4485595,14.7099718 82.4004847,14.8757476 C82.3524098,15.0415234 82.1791969,15.1370811 82.0133264,15.0893342 L82.0133224,15.0893342 Z" id="Path" fill="#0B6FCC"></path>
                <path d="M81.3960727,17.2177768 L72.882002,14.7486933 C72.7163216,14.7002907 72.6211066,14.5268891 72.6691815,14.3611133 C72.7172563,14.1953375 72.8904692,14.0997798 73.0563398,14.1475267 L81.5704105,16.6166121 C81.6777982,16.6477546 81.7604142,16.733822 81.787138,16.8423938 C81.8138617,16.9509655 81.7806331,17.0655468 81.699969,17.1429761 C81.619305,17.2204054 81.5034604,17.2489192 81.3960727,17.2177768 Z" id="Path" fill="#0B6FCC"></path>
                <rect id="Rectangle" fill="#E6E6E6" x="30.6590946" y="119.366679" width="137.344517" height="1"></rect>
                <polygon id="Path" fill="#E6E6E6" points="110.403928 118.445499 88.0695908 118.445499 88.8267103 108.603535 109.646809 108.603535"></polygon>
                <rect id="Rectangle" fill="#E6E6E6" x="86.9339666" y="117.309997" width="24.9840452" height="2.27127987"></rect>
                <path d="M142.012423,45.196965 L56.6502776,45.196965 C55.3958865,45.196965 54.3790016,46.2138499 54.3790016,47.4682409 L54.3790016,47.4682409 L54.3790016,99.5183313 L144.283703,99.5183313 L144.283703,47.4682409 C144.283703,46.8658616 144.04441,46.288154 143.618463,45.8622071 C143.192517,45.4362602 142.61481,45.196965 142.012431,45.196965 L142.012423,45.196965 Z" id="Path" fill="#3F3D56"></path>
                <path d="M54.3790016,99.5183313 L54.3790016,108.035619 C54.3790016,108.637999 54.6182962,109.215706 55.0442431,109.641653 C55.47019,110.067599 56.0478979,110.306893 56.6502776,110.306893 L142.012423,110.306893 C143.266814,110.306893 144.283703,109.29001 144.283703,108.035619 L144.283703,108.035619 L144.283703,99.5183313 L54.3790016,99.5183313 Z" id="Path" fill="#E6E6E6"></path>
                <rect id="Rectangle" fill="#E6E6E6" x="58.9215535" y="49.9287908" width="81.0088694" height="45.4255365"></rect>
                <circle id="Oval" fill="#3F3D56" cx="99.4259902" cy="104.817979" r="2.27127791"></circle>
                <circle id="Oval" fill="#FFFFFF" cx="61.4474376" cy="51.4164334" r="1"></circle>
                <circle id="Oval" fill="#FFFFFF" cx="63.0835208" cy="51.4164334" r="1"></circle>
                <circle id="Oval" fill="#FFFFFF" cx="64.719602" cy="51.4164334" r="1"></circle>
                <rect id="Rectangle" fill="#FFFFFF" x="61.0164059" y="52.8810638" width="76.5792628" height="38.1499974"></rect>
                <path d="M66.1068786,58.6838848 C65.9574224,58.6838848 65.8361578,58.8051494 65.8361578,58.9546056 L65.8361578,72.6388831 C65.8361578,72.7883385 65.9574232,72.909602 66.1068786,72.909602 L81.9100144,72.909602 C82.0594698,72.909602 82.1807352,72.7883385 82.1807352,72.6388831 L82.1807352,58.9546056 C82.1807352,58.8051494 82.0594706,58.6838848 81.9100144,58.6838848 L66.1068786,58.6838848 Z" id="Path" fill="#E6E6E6"></path>
                <path d="M91.4808393,58.7279018 C91.3313505,58.7279018 91.2100223,58.8491338 91.2100223,58.9986226 L91.2100223,72.6388831 C91.2100223,72.7883712 91.3313512,72.909602 91.4808393,72.909602 L107.233638,72.909602 C107.38306,72.9094179 107.504263,72.7883055 107.504263,72.6388831 L107.504263,58.9986226 C107.504263,58.8491995 107.383061,58.7280859 107.233638,58.7279018 L91.4808393,58.7279018 Z" id="Path" fill="#E6E6E6"></path>
                <path d="M116.588693,58.5849172 C116.43927,58.5851012 116.318068,58.7062148 116.318068,58.855638 L116.318068,72.6388831 C116.318068,72.788306 116.43927,72.909419 116.588693,72.909602 L132.505288,72.909602 C132.654711,72.909419 132.775913,72.788306 132.775913,72.6388831 L132.775913,58.855638 C132.775913,58.7062148 132.654711,58.5851012 132.505288,58.5849172 L116.588693,58.5849172 Z" id="Path" fill="#E6E6E6"></path>
                <path d="M66.3958095,79.683274 C66.0870998,79.6838523 65.8371473,79.9342734 65.8371473,80.2429836 C65.8371473,80.5516939 66.0870998,80.802115 66.3958095,80.8026933 L81.2538795,80.8026933 C81.5625893,80.802115 81.8125417,80.5516939 81.8125417,80.2429836 C81.8125417,79.9342734 81.5625893,79.6838523 81.2538795,79.683274 L66.3958095,79.683274 Z" id="Path" fill="#E6E6E6"></path>
                <path d="M66.3958095,82.3455948 C66.0870737,82.3461731 65.8371002,82.5966153 65.8371002,82.9053516 C65.8371002,83.2140879 66.0870737,83.46453 66.3958095,83.4651083 L73.085564,83.4651083 C73.3942997,83.46453 73.6442733,83.2140879 73.6442733,82.9053516 C73.6442733,82.5966153 73.3942997,82.3461731 73.085564,82.3455948 L66.3958095,82.3455948 Z" id="Path" fill="#0B6FCC"></path>
                <path d="M92.0424177,79.683274 C91.7337079,79.6838523 91.4837555,79.9342734 91.4837555,80.2429836 C91.4837555,80.5516939 91.7337079,80.802115 92.0424177,80.8026933 L106.90049,80.8026933 C107.209199,80.802115 107.459152,80.5516939 107.459152,80.2429836 C107.459152,79.9342734 107.209199,79.6838523 106.90049,79.683274 L92.0424177,79.683274 Z" id="Path" fill="#E6E6E6"></path>
                <path d="M92.0424177,82.3455948 C91.7336819,82.3461731 91.4837084,82.5966153 91.4837084,82.9053516 C91.4837084,83.2140879 91.7336819,83.46453 92.0424177,83.4651083 L98.7322704,83.4651083 C99.0410061,83.46453 99.2909796,83.2140879 99.2909796,82.9053516 C99.2909796,82.5966153 99.0410061,82.3461731 98.7322704,82.3455948 L92.0424177,82.3455948 Z" id="Path" fill="#0B6FCC"></path>
                <path d="M117.048045,79.683274 C116.739335,79.6838523 116.489383,79.9342734 116.489383,80.2429836 C116.489383,80.5516939 116.739335,80.802115 117.048045,80.8026933 L131.906115,80.8026933 C132.214825,80.802115 132.464777,80.5516939 132.464777,80.2429836 C132.464777,79.9342734 132.214825,79.6838523 131.906115,79.683274 L117.048045,79.683274 Z" id="Path" fill="#E6E6E6"></path>
                <path d="M66.3958095,76.9336831 C66.0870998,76.9342614 65.8371473,77.1846825 65.8371473,77.4933928 C65.8371473,77.8021031 66.0870998,78.0525242 66.3958095,78.0531025 L81.2538795,78.0531025 C81.5625893,78.0525242 81.8125417,77.8021031 81.8125417,77.4933928 C81.8125417,77.1846825 81.5625893,76.9342614 81.2538795,76.9336831 L66.3958095,76.9336831 Z" id="Path" fill="#E6E6E6"></path>
                <path d="M92.0424177,76.9336831 C91.7337079,76.9342614 91.4837555,77.1846825 91.4837555,77.4933928 C91.4837555,77.8021031 91.7337079,78.0525242 92.0424177,78.0531025 L106.90049,78.0531025 C107.209199,78.0525242 107.459152,77.8021031 107.459152,77.4933928 C107.459152,77.1846825 107.209199,76.9342614 106.90049,76.9336831 L92.0424177,76.9336831 Z" id="Path" fill="#E6E6E6"></path>
                <path d="M117.048045,76.9336831 C116.739335,76.9342614 116.489383,77.1846825 116.489383,77.4933928 C116.489383,77.8021031 116.739335,78.0525242 117.048045,78.0531025 L131.906115,78.0531025 C132.214825,78.0525242 132.464777,77.8021031 132.464777,77.4933928 C132.464777,77.1846825 132.214825,76.9342614 131.906115,76.9336831 L117.048045,76.9336831 Z" id="Path" fill="#E6E6E6"></path>
                <path d="M117.048045,82.3455948 C116.739309,82.3461731 116.489336,82.5966153 116.489336,82.9053516 C116.489336,83.2140879 116.739309,83.46453 117.048045,83.4651083 L123.737713,83.4651083 C124.046449,83.46453 124.296423,83.2140879 124.296423,82.9053516 C124.296423,82.5966153 124.046449,82.3461731 123.737713,82.3455948 L117.048045,82.3455948 Z" id="Path" fill="#0B6FCC"></path>
            </g>
        </g>
    </g>
</svg>