<?xml version="1.0" encoding="UTF-8"?>
<svg width="580px" height="334px" viewBox="0 0 580 334" version="1.1" xmlns="http://www.w3.org/2000/svg" xmlns:xlink="http://www.w3.org/1999/xlink">
    <title>Hero Image</title>
    <g id="Website" stroke="none" stroke-width="1" fill="none" fill-rule="evenodd">
        <g id="Use-Cases-/-Governance" transform="translate(-687.000000, -182.000000)">
            <g id="Governance-/-Hero" transform="translate(650.000000, 152.000000)">
                <g id="governance" stroke-width="1" fill-rule="evenodd" transform="translate(322.500000, 212.500000)">
                    <path d="M8.06788523,58.7512305 C7.77815956,58.4621997 7.32822312,58.4173841 6.98836886,58.6437059 L0.394012467,62.9900285 C0.174625205,63.134648 0.0315198774,63.3717977 0.00460189911,63.6353475 C-0.0223160792,63.8988973 0.0698330934,64.1606515 0.255353303,64.3476191 L17.0254738,81.2442295 C17.190103,81.4101077 17.4136061,81.5022294 17.6459174,81.5 C17.8782287,81.4976886 18.0999318,81.401216 18.2613644,81.2321512 L23.757171,75.4762005 C24.0877392,75.1284561 24.0798189,74.5761644 23.739418,74.2382733 L8.06788523,58.7512305 Z" id="Path" fill="#3F3D56" fill-rule="nonzero"></path>
                    <path d="M1.60917141,63.5678311 L2.29022913,63.129083 C2.1424836,63.395042 2.19575403,63.7288163 2.41875254,63.9343667 C2.64175105,64.1399172 2.97557829,64.1629529 3.22416404,63.9899441 L7.63137179,60.9284631 C7.83577322,60.7867081 7.94230352,60.5396104 7.90583721,60.2918389 C7.86937091,60.0440673 7.69628975,59.8389829 7.45990968,59.7634579 L7.81079311,59.5374123 C7.90461272,59.4769721 8.02746276,59.4909186 8.1056691,59.5708878 L22.9318355,74.292593 C22.9765246,74.3382859 23.0010864,74.4002588 23,74.4644884 C22.9988398,74.528718 22.9721264,74.5897754 22.9258674,74.6338445 L17.541356,79.9350153 C17.4485579,80.0234197 17.3030477,80.0213785 17.2127144,79.930405 L1.56942962,63.9379451 C1.51868456,63.8868408 1.49365108,63.8152192 1.50137895,63.7432498 C1.50910682,63.6712804 1.54875993,63.6067499 1.60917141,63.5678311 L1.60917141,63.5678311 Z" id="Path" fill="#FFFFFF" fill-rule="nonzero"></path>
                    <polygon id="Path" fill="#0B6FCC" fill-rule="nonzero" points="18.5 71.1401263 13.9122517 75.5 3 64.6331362 8.53807927 61"></polygon>
                    <path d="M3.94527028,67.4468288 C4.01824324,67.3734578 4.01824324,67.2547457 3.94527028,67.1813748 L2.81960612,66.0531709 C2.74548172,65.9822764 2.62885678,65.9822764 2.55473238,66.0531709 C2.48175587,66.1265404 2.48175587,66.2452554 2.55473238,66.3186249 L3.68039332,67.4468288 C3.7545188,67.5177237 3.8711448,67.5177237 3.94527028,67.4468288 L3.94527028,67.4468288 Z" id="Path" fill="#E6E6E6" fill-rule="nonzero"></path>
                    <path d="M5.44515099,68.6803203 L4.31967976,67.554849 C4.24654922,67.4817176 4.12798047,67.4817169 4.05484904,67.5548474 C3.98171762,67.627978 3.98171689,67.7465467 4.05484743,67.8196781 L5.18032189,68.9451526 C5.25345333,69.0182831 5.37202205,69.0182824 5.44515257,68.945151 C5.51828309,68.8720195 5.51828239,68.7534508 5.44515099,68.6803203 L5.44515099,68.6803203 Z" id="Path" fill="#E6E6E6" fill-rule="nonzero"></path>
                    <circle id="Oval" fill="#0B6FCC" fill-rule="nonzero" cx="18.5" cy="74.5" r="1"></circle>
                    <path d="M49.3957624,77.0635269 L48.5681949,81.043579 C48.3263029,82.2069336 48.7378202,83.4086849 49.6452836,84.1889942 C50.552747,84.9693034 51.8156856,85.2073827 52.9508481,84.8121333 L52.9508481,84.8121333 C54.6273037,84.2284111 55.5462675,82.4512642 55.0412123,80.7696624 L53.9281041,77.0635161 L64,48 L55.4388993,48 L49.3957624,77.0635269 Z" id="Path" fill="#FFB8B8" fill-rule="nonzero"></path>
                    <circle id="Oval" fill="#FFB8B8" fill-rule="nonzero" cx="40.75" cy="10.75" r="7.75"></circle>
                    <path d="M39.0319154,24.5 L49.5,23.2500006 C47.0984944,20.3016647 46.1904813,17.2233268 46.9468096,14 L37.5,15 L39.0319154,24.5 Z" id="Path" fill="#FFB8B8" fill-rule="nonzero"></path>
                    <path d="M26.6245264,68 L50.8430289,62.5 C56.0196395,58.4688096 59.3825087,50.4726151 61.9801965,40.8035781 C63.8733069,33.7570943 60.4719861,26.2552755 53.7870291,23.3499004 C53.6272039,23.2804404 53.4657558,23.2135808 53.3026849,23.1493215 L47.8469253,21 L38.8586144,21.7500001 L35.651781,22.6257287 C34.262207,23.0052013 33.2271724,24.1699877 33.0123359,25.5960545 C28.7009897,41.4363638 25.8589673,56.1281366 26.6245264,68 Z" id="Path" fill="#0B6FCC" fill-rule="nonzero"></path>
                    <polygon id="Path" fill="#0B6FCC" fill-rule="nonzero" points="54 52.5 65 52.5 61.4184686 31.5 54 32.2498931"></polygon>
                    <path d="M18,143.5 L24.5013459,143.5 L38.129168,95.613946 L43.3881292,143.5 L51.006832,143.5 L54.0074536,66.732279 C52.8622892,60.8423709 52.8867698,53.8228359 53.5073509,46.2275483 C58.8693966,42.4735757 56.9057749,33.5621988 57.4992617,24.6087774 C57.5049905,24.5217645 57.4772159,24.4358564 57.4216326,24.368667 L53.9662133,22.5725964 C53.8707123,22.4622153 53.7151276,22.4256421 53.580453,22.4819162 C53.4457784,22.5381902 53.3624659,22.6745869 53.3738862,22.8201013 C53.2860069,29.0802308 54.9736415,36.5251407 52.2570928,41.4764393 C49.3056395,31.387102 45.4588729,22.915712 37.9704712,21.0242894 C37.8288743,20.9892472 37.6805403,20.9921668 37.5404319,21.0327538 L36.1460532,21.4311564 C35.8298013,21.5223008 35.5975127,21.7920392 35.5542933,22.1183203 C35.511074,22.4446015 35.6651243,22.7655169 35.9467396,22.9358589 C42.7974356,27.1683944 47.2253589,34.2551194 47.5061078,46.2275374 C42.175741,53.7714422 36.9847876,58.236955 27.6402374,63.7288199 C26.6859913,64.2917671 26.0563694,65.2750184 25.9443046,66.3772794 L18,143.5 Z" id="Path" fill="#2F2E41" fill-rule="nonzero"></path>
                    <path d="M41.2855536,18 L46.7430384,16.9477528 L49.9897857,11.3006078 C51.6061106,8.48929275 51.2573872,4.93750872 49.1264631,2.50757805 C47.4825782,0.633019295 45.0265385,-0.279835655 42.5831027,0.0755575487 L35.5100629,1.10432121 C34.2781999,1.28349313 33.1674923,1.95575448 32.4243559,2.97196081 C31.6812195,3.98816714 31.3671027,5.26429049 31.5516938,6.51721671 L36.3158564,7.3424827 L41.2855536,18 Z" id="Path" fill="#2F2E41" fill-rule="nonzero"></path>
                    <path d="M10.0532114,151.5 L21.6762228,151.5 C22.7866413,151.5 23.8422153,151.030602 24.5685398,150.21383 C25.2948643,149.397059 25.620192,148.313595 25.4599513,147.245095 L24.7303437,142.380002 L19.4548895,142 L8.97147823,146.768332 C7.99371774,147.213062 7.40922041,148.207683 7.51156119,149.252626 L7.51156119,149.252626 C7.63635561,150.526867 8.73691209,151.5 10.0532114,151.5 L10.0532114,151.5 Z" id="Path" fill="#2F2E41" fill-rule="nonzero"></path>
                    <path d="M36.5532113,151.5 L48.1762225,151.5 C49.2866412,151.5 50.3422158,151.030603 51.0685405,150.213831 C51.7948652,149.39706 52.1201925,148.313595 51.9599508,147.245095 L51.2303433,142.380002 L45.9548919,142 L35.4714808,146.768332 C34.4937193,147.213061 33.9092208,148.207682 34.0115611,149.252626 L34.0115611,149.252626 C34.1363555,150.526867 35.236912,151.5 36.5532113,151.5 L36.5532113,151.5 Z" id="Path" fill="#2F2E41" fill-rule="nonzero"></path>
                    <path d="M14.3493989,67.4911698 L9.36670375,69.2080787 C8.1498564,69.6273767 7.26085651,70.671539 7.04835164,71.9310666 C6.83584677,73.1905942 7.333717,74.464678 8.34670783,75.2536484 L8.34670783,75.2536484 C9.52784549,76.1735821 11.1674556,76.2501131 12.4305716,75.4442679 L16.9721,72.5468542 L32.4793376,56.9219036 L34.8825904,38.5564658 C35.5047251,33.802184 33.626749,29.0633488 29.9065273,26 L29.9065273,26 L24.8494943,53.9760091 L14.3493989,67.4911698 Z" id="Path" fill="#FFB9B9" fill-rule="nonzero"></path>
                    <path d="M25,49 L36,49 L35.7499989,22.5 L35.7499989,22.5 C30.39075,23.8525716 26.5159096,28.5525834 26.1713197,34.1185184 L25,49 Z" id="Path" fill="#0B6FCC" fill-rule="nonzero"></path>
                    <ellipse id="Oval" fill="#FFB8B8" fill-rule="nonzero" cx="38.25" cy="11.75" rx="1.25" ry="1.75"></ellipse>
                </g>
                <g id="collaboration" stroke-width="1" fill-rule="evenodd" transform="translate(219.500000, 116.500000)">
                    <path d="M21.9881129,0 L0.511887147,0 C0.229522821,0.000841923431 0.000826699104,0.233749668 0,0.521313959 L0,23.478686 C0.000826699104,23.7662503 0.229522821,23.9991581 0.511887147,24 L21.9881129,24 C22.2704772,23.9991581 22.4991733,23.7662503 22.5,23.478686 L22.5,0.521313959 C22.4991733,0.233749668 22.2704772,0.000841923431 21.9881129,0 Z" id="Path" fill="#E6E6E6" fill-rule="nonzero"></path>
                    <path d="M21.6110237,1 L0.888976329,1 C0.674477649,1.00078465 0.50078744,1.17385896 0.5,1.38759705 L0.5,23.112403 C0.500628698,23.3262069 0.674411589,23.4993735 0.888976329,23.5 L21.6110237,23.5 C21.8255884,23.4993735 21.9993713,23.3262069 22,23.112403 L22,1.38759705 C21.9993713,1.17379314 21.8255884,1.00062647 21.6110237,1 L21.6110237,1 Z" id="Path" fill="#FFFFFF" fill-rule="nonzero"></path>
                    <path d="M19.7777782,6.5 C19.9005079,6.5 20,6.6119314 20,6.7500024 L20,7.25000034 C20,7.38807134 19.9005079,7.5 19.7777782,7.5 L2.22222182,7.5 C2.16328473,7.5 2.10676137,7.47366179 2.06508655,7.4267776 C2.02341174,7.37989341 2,7.3163046 2,7.25000034 L2,6.74999966 C2,6.6836954 2.02341174,6.62010659 2.06508655,6.5732224 C2.10676137,6.52633821 2.16328473,6.5 2.22222182,6.5 L19.7777782,6.5" id="Path" fill="#E6E6E6" fill-rule="nonzero"></path>
                    <path d="M19.7777782,8.5 C19.9005081,8.5 20,8.61192965 20,8.75000068 L20,9.24999932 C20,9.38807035 19.9005081,9.5 19.7777782,9.5 L2.22222182,9.5 C2.16328462,9.5 2.10676126,9.47366115 2.06508648,9.42677681 C2.0234117,9.37989247 2,9.3163036 2,9.24999932 L2,8.75000479 C2,8.6837005 2.0234117,8.62011163 2.06508648,8.57322729 C2.10676126,8.52634295 2.16328462,8.5 2.22222182,8.5 L19.7777782,8.5" id="Path" fill="#E6E6E6" fill-rule="nonzero"></path>
                    <path d="M19.7777782,10.5 C19.9005073,10.5 20,10.6119293 20,10.7499997 L20,11.2500003 C20,11.3880707 19.9005073,11.5 19.7777782,11.5 L2.22222182,11.5 C2.0994921,11.5 2,11.3880713 2,11.2500003 L2,10.7499997 C2,10.6119287 2.0994921,10.5 2.22222182,10.5 L19.7777782,10.5" id="Path" fill="#CC0B0B" fill-rule="nonzero"></path>
                    <path d="M19.7777782,12.5 C19.9005079,12.5 20,12.6119279 20,12.7499979 L20,13.2500021 C20,13.3880721 19.9005079,13.5 19.7777782,13.5 L2.22222182,13.5 C2.16328473,13.5 2.10676137,13.473662 2.06508655,13.4267781 C2.02341174,13.3798942 2,13.3163059 2,13.2500021 L2,12.7500048 C2,12.683701 2.02341174,12.6201126 2.06508655,12.5732287 C2.10676137,12.5263449 2.16328473,12.5 2.22222182,12.5 L19.7777782,12.5" id="Path" fill="#E6E6E6" fill-rule="nonzero"></path>
                    <path d="M19.7777782,15 C19.9005081,15 20,15.1119297 20,15.2500007 L20,15.7499993 C20,15.8880703 19.9005081,16 19.7777782,16 L2.22222182,16 C2.16328462,16 2.10676126,15.9736612 2.06508648,15.9267768 C2.0234117,15.8798925 2,15.8163036 2,15.7499993 L2,15.2500007 C2,15.1836964 2.0234117,15.1201075 2.06508648,15.0732232 C2.10676126,15.0263388 2.16328462,15 2.22222182,15 L19.7777782,15" id="Path" fill="#E6E6E6" fill-rule="nonzero"></path>
                    <path d="M19.7777782,17 C19.9005073,17 20,17.1119293 20,17.2499997 L20,17.7500003 C20,17.8880707 19.9005073,18 19.7777782,18 L2.22222182,18 C2.0994921,18 2,17.8880713 2,17.7500003 L2,17.2499997 C2,17.1119287 2.0994921,17 2.22222182,17 L19.7777782,17" id="Path" fill="#E6E6E6" fill-rule="nonzero"></path>
                </g>
                <g id="collaboration-copy" stroke-width="1" fill-rule="evenodd" transform="translate(101.000000, 68.500000)">
                    <path d="M35.1809806,0.357142857 L0.819019435,0.357142857 C0.367236513,0.358458363 0.00132271857,0.722376713 0,1.17169592 L0,37.0425898 C0.00132271857,37.491909 0.367236513,37.8558274 0.819019435,37.8571429 L35.1809806,37.8571429 C35.6327635,37.8558274 35.9986773,37.491909 36,37.0425898 L36,1.17169592 C35.9986773,0.722376713 35.6327635,0.358458363 35.1809806,0.357142857 Z" id="Path" fill="#E6E6E6" fill-rule="nonzero"></path>
                    <path d="M34.8758287,0.857142857 L1.62417132,0.857142857 C1.27997576,0.858398293 1.00126357,1.1353172 1,1.47729813 L1,36.2369876 C1.00100884,36.5790738 1.27986976,36.8561405 1.62417132,36.8571429 L34.8758287,36.8571429 C35.2201302,36.8561405 35.4989912,36.5790738 35.5,36.2369876 L35.5,1.47729813 C35.4989912,1.13521188 35.2201302,0.858145207 34.8758287,0.857142857 L34.8758287,0.857142857 Z" id="Path" fill="#FFFFFF" fill-rule="nonzero"></path>
                    <path d="M31.6481488,9.85714286 C31.8424708,9.85714286 32,10.02504 32,10.2321465 L32,10.9821434 C32,11.1892499 31.8424708,11.3571429 31.6481488,11.3571429 L3.85185121,11.3571429 C3.75853415,11.3571429 3.66903883,11.3176355 3.6030537,11.2473093 C3.53706858,11.176983 3.5,11.0815998 3.5,10.9821434 L3.5,10.2321423 C3.5,10.132686 3.53706858,10.0373027 3.6030537,9.96697646 C3.66903883,9.89665018 3.75853415,9.85714286 3.85185121,9.85714286 L31.6481488,9.85714286" id="Path" fill="#E6E6E6" fill-rule="nonzero"></path>
                    <path d="M31.6481488,13.3571429 C31.8424712,13.3571429 32,13.5250373 32,13.7321439 L32,14.4821418 C32,14.6892484 31.8424712,14.8571429 31.6481488,14.8571429 L3.85185121,14.8571429 C3.75853398,14.8571429 3.66903866,14.8176346 3.60305359,14.7473081 C3.53706852,14.6769816 3.5,14.5815983 3.5,14.4821418 L3.5,13.73215 C3.5,13.6326936 3.53706852,13.5373103 3.60305359,13.4669838 C3.66903866,13.3966573 3.75853398,13.3571429 3.85185121,13.3571429 L31.6481488,13.3571429" id="Path" fill="#E6E6E6" fill-rule="nonzero"></path>
                    <path d="M31.6481488,16.3571429 C31.84247,16.3571429 32,16.5250368 32,16.7321423 L32,17.4821434 C32,17.6892489 31.84247,17.8571429 31.6481488,17.8571429 L3.85185121,17.8571429 C3.65752915,17.8571429 3.5,17.6892499 3.5,17.4821434 L3.5,16.7321423 C3.5,16.5250358 3.65752915,16.3571429 3.85185121,16.3571429 L31.6481488,16.3571429" id="Path" fill="#0B6FCC" fill-rule="nonzero"></path>
                    <path d="M31.6481488,19.8571429 C31.8424708,19.8571429 32,20.0250347 32,20.2321398 L32,20.9821459 C32,21.189251 31.8424708,21.3571429 31.6481488,21.3571429 L3.85185121,21.3571429 C3.75853415,21.3571429 3.66903883,21.3176358 3.6030537,21.24731 C3.53706858,21.1769842 3.5,21.0816016 3.5,20.9821459 L3.5,20.23215 C3.5,20.1326943 3.53706858,20.0373118 3.6030537,19.966986 C3.66903883,19.8966602 3.75853415,19.8571429 3.85185121,19.8571429 L31.6481488,19.8571429" id="Path" fill="#E6E6E6" fill-rule="nonzero"></path>
                    <path d="M31.6481488,23.3571429 C31.8424712,23.3571429 32,23.5250373 32,23.7321439 L32,24.4821418 C32,24.6892484 31.8424712,24.8571429 31.6481488,24.8571429 L3.85185121,24.8571429 C3.75853398,24.8571429 3.66903866,24.8176346 3.60305359,24.7473081 C3.53706852,24.6769816 3.5,24.5815983 3.5,24.4821418 L3.5,23.7321439 C3.5,23.6326874 3.53706852,23.5373041 3.60305359,23.4669776 C3.66903866,23.3966511 3.75853398,23.3571429 3.85185121,23.3571429 L31.6481488,23.3571429" id="Path" fill="#E6E6E6" fill-rule="nonzero"></path>
                    <path d="M31.6481488,27.3571429 C31.84247,27.3571429 32,27.5250368 32,27.7321423 L32,28.4821434 C32,28.6892489 31.84247,28.8571429 31.6481488,28.8571429 L3.85185121,28.8571429 C3.65752915,28.8571429 3.5,28.6892499 3.5,28.4821434 L3.5,27.7321423 C3.5,27.5250358 3.65752915,27.3571429 3.85185121,27.3571429 L31.6481488,27.3571429" id="Path" fill="#E6E6E6" fill-rule="nonzero"></path>
                </g>
                <g id="collaboration-copy-3" stroke-width="1" fill-rule="evenodd" transform="translate(356.500000, 122.500000)">
                    <path d="M35.1809806,0.357142857 L0.819019435,0.357142857 C0.367236513,0.358458363 0.00132271857,0.722376713 0,1.17169592 L0,37.0425898 C0.00132271857,37.491909 0.367236513,37.8558274 0.819019435,37.8571429 L35.1809806,37.8571429 C35.6327635,37.8558274 35.9986773,37.491909 36,37.0425898 L36,1.17169592 C35.9986773,0.722376713 35.6327635,0.358458363 35.1809806,0.357142857 Z" id="Path" fill="#E6E6E6" fill-rule="nonzero"></path>
                    <path d="M34.8758287,0.857142857 L1.62417132,0.857142857 C1.27997576,0.858398293 1.00126357,1.1353172 1,1.47729813 L1,36.2369876 C1.00100884,36.5790738 1.27986976,36.8561405 1.62417132,36.8571429 L34.8758287,36.8571429 C35.2201302,36.8561405 35.4989912,36.5790738 35.5,36.2369876 L35.5,1.47729813 C35.4989912,1.13521188 35.2201302,0.858145207 34.8758287,0.857142857 L34.8758287,0.857142857 Z" id="Path" fill="#FFFFFF" fill-rule="nonzero"></path>
                    <path d="M31.6481488,9.85714286 C31.8424708,9.85714286 32,10.02504 32,10.2321465 L32,10.9821434 C32,11.1892499 31.8424708,11.3571429 31.6481488,11.3571429 L3.85185121,11.3571429 C3.75853415,11.3571429 3.66903883,11.3176355 3.6030537,11.2473093 C3.53706858,11.176983 3.5,11.0815998 3.5,10.9821434 L3.5,10.2321423 C3.5,10.132686 3.53706858,10.0373027 3.6030537,9.96697646 C3.66903883,9.89665018 3.75853415,9.85714286 3.85185121,9.85714286 L31.6481488,9.85714286" id="Path" fill="#E6E6E6" fill-rule="nonzero"></path>
                    <path d="M31.6481488,13.3571429 C31.8424712,13.3571429 32,13.5250373 32,13.7321439 L32,14.4821418 C32,14.6892484 31.8424712,14.8571429 31.6481488,14.8571429 L3.85185121,14.8571429 C3.75853398,14.8571429 3.66903866,14.8176346 3.60305359,14.7473081 C3.53706852,14.6769816 3.5,14.5815983 3.5,14.4821418 L3.5,13.73215 C3.5,13.6326936 3.53706852,13.5373103 3.60305359,13.4669838 C3.66903866,13.3966573 3.75853398,13.3571429 3.85185121,13.3571429 L31.6481488,13.3571429" id="Path" fill="#E6E6E6" fill-rule="nonzero"></path>
                    <path d="M31.6481488,16.3571429 C31.84247,16.3571429 32,16.5250368 32,16.7321423 L32,17.4821434 C32,17.6892489 31.84247,17.8571429 31.6481488,17.8571429 L3.85185121,17.8571429 C3.65752915,17.8571429 3.5,17.6892499 3.5,17.4821434 L3.5,16.7321423 C3.5,16.5250358 3.65752915,16.3571429 3.85185121,16.3571429 L31.6481488,16.3571429" id="Path" fill="#0B6FCC" fill-rule="nonzero"></path>
                    <path d="M31.6481488,19.8571429 C31.8424708,19.8571429 32,20.0250347 32,20.2321398 L32,20.9821459 C32,21.189251 31.8424708,21.3571429 31.6481488,21.3571429 L3.85185121,21.3571429 C3.75853415,21.3571429 3.66903883,21.3176358 3.6030537,21.24731 C3.53706858,21.1769842 3.5,21.0816016 3.5,20.9821459 L3.5,20.23215 C3.5,20.1326943 3.53706858,20.0373118 3.6030537,19.966986 C3.66903883,19.8966602 3.75853415,19.8571429 3.85185121,19.8571429 L31.6481488,19.8571429" id="Path" fill="#E6E6E6" fill-rule="nonzero"></path>
                    <path d="M31.6481488,23.3571429 C31.8424712,23.3571429 32,23.5250373 32,23.7321439 L32,24.4821418 C32,24.6892484 31.8424712,24.8571429 31.6481488,24.8571429 L3.85185121,24.8571429 C3.75853398,24.8571429 3.66903866,24.8176346 3.60305359,24.7473081 C3.53706852,24.6769816 3.5,24.5815983 3.5,24.4821418 L3.5,23.7321439 C3.5,23.6326874 3.53706852,23.5373041 3.60305359,23.4669776 C3.66903866,23.3966511 3.75853398,23.3571429 3.85185121,23.3571429 L31.6481488,23.3571429" id="Path" fill="#E6E6E6" fill-rule="nonzero"></path>
                    <path d="M31.6481488,27.3571429 C31.84247,27.3571429 32,27.5250368 32,27.7321423 L32,28.4821434 C32,28.6892489 31.84247,28.8571429 31.6481488,28.8571429 L3.85185121,28.8571429 C3.65752915,28.8571429 3.5,28.6892499 3.5,28.4821434 L3.5,27.7321423 C3.5,27.5250358 3.65752915,27.3571429 3.85185121,27.3571429 L31.6481488,27.3571429" id="Path" fill="#E6E6E6" fill-rule="nonzero"></path>
                </g>
                <g id="collaboration-copy-4" stroke-width="1" fill-rule="evenodd" transform="translate(412.500000, 122.500000)">
                    <path d="M35.1809806,0.357142857 L0.819019435,0.357142857 C0.367236513,0.358458363 0.00132271857,0.722376713 0,1.17169592 L0,37.0425898 C0.00132271857,37.491909 0.367236513,37.8558274 0.819019435,37.8571429 L35.1809806,37.8571429 C35.6327635,37.8558274 35.9986773,37.491909 36,37.0425898 L36,1.17169592 C35.9986773,0.722376713 35.6327635,0.358458363 35.1809806,0.357142857 Z" id="Path" fill="#E6E6E6" fill-rule="nonzero"></path>
                    <path d="M34.8758287,0.857142857 L1.62417132,0.857142857 C1.27997576,0.858398293 1.00126357,1.1353172 1,1.47729813 L1,36.2369876 C1.00100884,36.5790738 1.27986976,36.8561405 1.62417132,36.8571429 L34.8758287,36.8571429 C35.2201302,36.8561405 35.4989912,36.5790738 35.5,36.2369876 L35.5,1.47729813 C35.4989912,1.13521188 35.2201302,0.858145207 34.8758287,0.857142857 L34.8758287,0.857142857 Z" id="Path" fill="#FFFFFF" fill-rule="nonzero"></path>
                    <path d="M31.6481488,9.85714286 C31.8424708,9.85714286 32,10.02504 32,10.2321465 L32,10.9821434 C32,11.1892499 31.8424708,11.3571429 31.6481488,11.3571429 L3.85185121,11.3571429 C3.75853415,11.3571429 3.66903883,11.3176355 3.6030537,11.2473093 C3.53706858,11.176983 3.5,11.0815998 3.5,10.9821434 L3.5,10.2321423 C3.5,10.132686 3.53706858,10.0373027 3.6030537,9.96697646 C3.66903883,9.89665018 3.75853415,9.85714286 3.85185121,9.85714286 L31.6481488,9.85714286" id="Path" fill="#E6E6E6" fill-rule="nonzero"></path>
                    <path d="M31.6481488,13.3571429 C31.8424712,13.3571429 32,13.5250373 32,13.7321439 L32,14.4821418 C32,14.6892484 31.8424712,14.8571429 31.6481488,14.8571429 L3.85185121,14.8571429 C3.75853398,14.8571429 3.66903866,14.8176346 3.60305359,14.7473081 C3.53706852,14.6769816 3.5,14.5815983 3.5,14.4821418 L3.5,13.73215 C3.5,13.6326936 3.53706852,13.5373103 3.60305359,13.4669838 C3.66903866,13.3966573 3.75853398,13.3571429 3.85185121,13.3571429 L31.6481488,13.3571429" id="Path" fill="#E6E6E6" fill-rule="nonzero"></path>
                    <path d="M31.6481488,16.3571429 C31.84247,16.3571429 32,16.5250368 32,16.7321423 L32,17.4821434 C32,17.6892489 31.84247,17.8571429 31.6481488,17.8571429 L3.85185121,17.8571429 C3.65752915,17.8571429 3.5,17.6892499 3.5,17.4821434 L3.5,16.7321423 C3.5,16.5250358 3.65752915,16.3571429 3.85185121,16.3571429 L31.6481488,16.3571429" id="Path" fill="#0B6FCC" fill-rule="nonzero"></path>
                    <path d="M31.6481488,19.8571429 C31.8424708,19.8571429 32,20.0250347 32,20.2321398 L32,20.9821459 C32,21.189251 31.8424708,21.3571429 31.6481488,21.3571429 L3.85185121,21.3571429 C3.75853415,21.3571429 3.66903883,21.3176358 3.6030537,21.24731 C3.53706858,21.1769842 3.5,21.0816016 3.5,20.9821459 L3.5,20.23215 C3.5,20.1326943 3.53706858,20.0373118 3.6030537,19.966986 C3.66903883,19.8966602 3.75853415,19.8571429 3.85185121,19.8571429 L31.6481488,19.8571429" id="Path" fill="#E6E6E6" fill-rule="nonzero"></path>
                    <path d="M31.6481488,23.3571429 C31.8424712,23.3571429 32,23.5250373 32,23.7321439 L32,24.4821418 C32,24.6892484 31.8424712,24.8571429 31.6481488,24.8571429 L3.85185121,24.8571429 C3.75853398,24.8571429 3.66903866,24.8176346 3.60305359,24.7473081 C3.53706852,24.6769816 3.5,24.5815983 3.5,24.4821418 L3.5,23.7321439 C3.5,23.6326874 3.53706852,23.5373041 3.60305359,23.4669776 C3.66903866,23.3966511 3.75853398,23.3571429 3.85185121,23.3571429 L31.6481488,23.3571429" id="Path" fill="#E6E6E6" fill-rule="nonzero"></path>
                    <path d="M31.6481488,27.3571429 C31.84247,27.3571429 32,27.5250368 32,27.7321423 L32,28.4821434 C32,28.6892489 31.84247,28.8571429 31.6481488,28.8571429 L3.85185121,28.8571429 C3.65752915,28.8571429 3.5,28.6892499 3.5,28.4821434 L3.5,27.7321423 C3.5,27.5250358 3.65752915,27.3571429 3.85185121,27.3571429 L31.6481488,27.3571429" id="Path" fill="#E6E6E6" fill-rule="nonzero"></path>
                </g>
                <g id="collaboration-copy-5" stroke-width="1" fill-rule="evenodd" transform="translate(468.500000, 122.500000)">
                    <path d="M35.1809806,0.357142857 L0.819019435,0.357142857 C0.367236513,0.358458363 0.00132271857,0.722376713 0,1.17169592 L0,37.0425898 C0.00132271857,37.491909 0.367236513,37.8558274 0.819019435,37.8571429 L35.1809806,37.8571429 C35.6327635,37.8558274 35.9986773,37.491909 36,37.0425898 L36,1.17169592 C35.9986773,0.722376713 35.6327635,0.358458363 35.1809806,0.357142857 Z" id="Path" fill="#E6E6E6" fill-rule="nonzero"></path>
                    <path d="M34.8758287,0.857142857 L1.62417132,0.857142857 C1.27997576,0.858398293 1.00126357,1.1353172 1,1.47729813 L1,36.2369876 C1.00100884,36.5790738 1.27986976,36.8561405 1.62417132,36.8571429 L34.8758287,36.8571429 C35.2201302,36.8561405 35.4989912,36.5790738 35.5,36.2369876 L35.5,1.47729813 C35.4989912,1.13521188 35.2201302,0.858145207 34.8758287,0.857142857 L34.8758287,0.857142857 Z" id="Path" fill="#FFFFFF" fill-rule="nonzero"></path>
                    <path d="M31.6481488,9.85714286 C31.8424708,9.85714286 32,10.02504 32,10.2321465 L32,10.9821434 C32,11.1892499 31.8424708,11.3571429 31.6481488,11.3571429 L3.85185121,11.3571429 C3.75853415,11.3571429 3.66903883,11.3176355 3.6030537,11.2473093 C3.53706858,11.176983 3.5,11.0815998 3.5,10.9821434 L3.5,10.2321423 C3.5,10.132686 3.53706858,10.0373027 3.6030537,9.96697646 C3.66903883,9.89665018 3.75853415,9.85714286 3.85185121,9.85714286 L31.6481488,9.85714286" id="Path" fill="#E6E6E6" fill-rule="nonzero"></path>
                    <path d="M31.6481488,13.3571429 C31.8424712,13.3571429 32,13.5250373 32,13.7321439 L32,14.4821418 C32,14.6892484 31.8424712,14.8571429 31.6481488,14.8571429 L3.85185121,14.8571429 C3.75853398,14.8571429 3.66903866,14.8176346 3.60305359,14.7473081 C3.53706852,14.6769816 3.5,14.5815983 3.5,14.4821418 L3.5,13.73215 C3.5,13.6326936 3.53706852,13.5373103 3.60305359,13.4669838 C3.66903866,13.3966573 3.75853398,13.3571429 3.85185121,13.3571429 L31.6481488,13.3571429" id="Path" fill="#E6E6E6" fill-rule="nonzero"></path>
                    <path d="M31.6481488,16.3571429 C31.84247,16.3571429 32,16.5250368 32,16.7321423 L32,17.4821434 C32,17.6892489 31.84247,17.8571429 31.6481488,17.8571429 L3.85185121,17.8571429 C3.65752915,17.8571429 3.5,17.6892499 3.5,17.4821434 L3.5,16.7321423 C3.5,16.5250358 3.65752915,16.3571429 3.85185121,16.3571429 L31.6481488,16.3571429" id="Path" fill="#0B6FCC" fill-rule="nonzero"></path>
                    <path d="M31.6481488,19.8571429 C31.8424708,19.8571429 32,20.0250347 32,20.2321398 L32,20.9821459 C32,21.189251 31.8424708,21.3571429 31.6481488,21.3571429 L3.85185121,21.3571429 C3.75853415,21.3571429 3.66903883,21.3176358 3.6030537,21.24731 C3.53706858,21.1769842 3.5,21.0816016 3.5,20.9821459 L3.5,20.23215 C3.5,20.1326943 3.53706858,20.0373118 3.6030537,19.966986 C3.66903883,19.8966602 3.75853415,19.8571429 3.85185121,19.8571429 L31.6481488,19.8571429" id="Path" fill="#E6E6E6" fill-rule="nonzero"></path>
                    <path d="M31.6481488,23.3571429 C31.8424712,23.3571429 32,23.5250373 32,23.7321439 L32,24.4821418 C32,24.6892484 31.8424712,24.8571429 31.6481488,24.8571429 L3.85185121,24.8571429 C3.75853398,24.8571429 3.66903866,24.8176346 3.60305359,24.7473081 C3.53706852,24.6769816 3.5,24.5815983 3.5,24.4821418 L3.5,23.7321439 C3.5,23.6326874 3.53706852,23.5373041 3.60305359,23.4669776 C3.66903866,23.3966511 3.75853398,23.3571429 3.85185121,23.3571429 L31.6481488,23.3571429" id="Path" fill="#E6E6E6" fill-rule="nonzero"></path>
                    <path d="M31.6481488,27.3571429 C31.84247,27.3571429 32,27.5250368 32,27.7321423 L32,28.4821434 C32,28.6892489 31.84247,28.8571429 31.6481488,28.8571429 L3.85185121,28.8571429 C3.65752915,28.8571429 3.5,28.6892499 3.5,28.4821434 L3.5,27.7321423 C3.5,27.5250358 3.65752915,27.3571429 3.85185121,27.3571429 L31.6481488,27.3571429" id="Path" fill="#E6E6E6" fill-rule="nonzero"></path>
                </g>
                <g id="collaboration-copy-6" stroke-width="1" fill-rule="evenodd" transform="translate(524.500000, 122.500000)">
                    <path d="M35.1809806,0.357142857 L0.819019435,0.357142857 C0.367236513,0.358458363 0.00132271857,0.722376713 0,1.17169592 L0,37.0425898 C0.00132271857,37.491909 0.367236513,37.8558274 0.819019435,37.8571429 L35.1809806,37.8571429 C35.6327635,37.8558274 35.9986773,37.491909 36,37.0425898 L36,1.17169592 C35.9986773,0.722376713 35.6327635,0.358458363 35.1809806,0.357142857 Z" id="Path" fill="#E6E6E6" fill-rule="nonzero"></path>
                    <path d="M34.8758287,0.857142857 L1.62417132,0.857142857 C1.27997576,0.858398293 1.00126357,1.1353172 1,1.47729813 L1,36.2369876 C1.00100884,36.5790738 1.27986976,36.8561405 1.62417132,36.8571429 L34.8758287,36.8571429 C35.2201302,36.8561405 35.4989912,36.5790738 35.5,36.2369876 L35.5,1.47729813 C35.4989912,1.13521188 35.2201302,0.858145207 34.8758287,0.857142857 L34.8758287,0.857142857 Z" id="Path" fill="#FFFFFF" fill-rule="nonzero"></path>
                    <path d="M31.6481488,9.85714286 C31.8424708,9.85714286 32,10.02504 32,10.2321465 L32,10.9821434 C32,11.1892499 31.8424708,11.3571429 31.6481488,11.3571429 L3.85185121,11.3571429 C3.75853415,11.3571429 3.66903883,11.3176355 3.6030537,11.2473093 C3.53706858,11.176983 3.5,11.0815998 3.5,10.9821434 L3.5,10.2321423 C3.5,10.132686 3.53706858,10.0373027 3.6030537,9.96697646 C3.66903883,9.89665018 3.75853415,9.85714286 3.85185121,9.85714286 L31.6481488,9.85714286" id="Path" fill="#E6E6E6" fill-rule="nonzero"></path>
                    <path d="M31.6481488,13.3571429 C31.8424712,13.3571429 32,13.5250373 32,13.7321439 L32,14.4821418 C32,14.6892484 31.8424712,14.8571429 31.6481488,14.8571429 L3.85185121,14.8571429 C3.75853398,14.8571429 3.66903866,14.8176346 3.60305359,14.7473081 C3.53706852,14.6769816 3.5,14.5815983 3.5,14.4821418 L3.5,13.73215 C3.5,13.6326936 3.53706852,13.5373103 3.60305359,13.4669838 C3.66903866,13.3966573 3.75853398,13.3571429 3.85185121,13.3571429 L31.6481488,13.3571429" id="Path" fill="#E6E6E6" fill-rule="nonzero"></path>
                    <path d="M31.6481488,16.3571429 C31.84247,16.3571429 32,16.5250368 32,16.7321423 L32,17.4821434 C32,17.6892489 31.84247,17.8571429 31.6481488,17.8571429 L3.85185121,17.8571429 C3.65752915,17.8571429 3.5,17.6892499 3.5,17.4821434 L3.5,16.7321423 C3.5,16.5250358 3.65752915,16.3571429 3.85185121,16.3571429 L31.6481488,16.3571429" id="Path" fill="#0B6FCC" fill-rule="nonzero"></path>
                    <path d="M31.6481488,19.8571429 C31.8424708,19.8571429 32,20.0250347 32,20.2321398 L32,20.9821459 C32,21.189251 31.8424708,21.3571429 31.6481488,21.3571429 L3.85185121,21.3571429 C3.75853415,21.3571429 3.66903883,21.3176358 3.6030537,21.24731 C3.53706858,21.1769842 3.5,21.0816016 3.5,20.9821459 L3.5,20.23215 C3.5,20.1326943 3.53706858,20.0373118 3.6030537,19.966986 C3.66903883,19.8966602 3.75853415,19.8571429 3.85185121,19.8571429 L31.6481488,19.8571429" id="Path" fill="#E6E6E6" fill-rule="nonzero"></path>
                    <path d="M31.6481488,23.3571429 C31.8424712,23.3571429 32,23.5250373 32,23.7321439 L32,24.4821418 C32,24.6892484 31.8424712,24.8571429 31.6481488,24.8571429 L3.85185121,24.8571429 C3.75853398,24.8571429 3.66903866,24.8176346 3.60305359,24.7473081 C3.53706852,24.6769816 3.5,24.5815983 3.5,24.4821418 L3.5,23.7321439 C3.5,23.6326874 3.53706852,23.5373041 3.60305359,23.4669776 C3.66903866,23.3966511 3.75853398,23.3571429 3.85185121,23.3571429 L31.6481488,23.3571429" id="Path" fill="#E6E6E6" fill-rule="nonzero"></path>
                    <path d="M31.6481488,27.3571429 C31.84247,27.3571429 32,27.5250368 32,27.7321423 L32,28.4821434 C32,28.6892489 31.84247,28.8571429 31.6481488,28.8571429 L3.85185121,28.8571429 C3.65752915,28.8571429 3.5,28.6892499 3.5,28.4821434 L3.5,27.7321423 C3.5,27.5250358 3.65752915,27.3571429 3.85185121,27.3571429 L31.6481488,27.3571429" id="Path" fill="#E6E6E6" fill-rule="nonzero"></path>
                </g>
                <g id="collaboration-copy-2" stroke-width="1" fill-rule="evenodd" transform="translate(37.500000, 30.500000)">
                    <path d="M54.7259698,0 L1.27403023,0 C0.571256799,0.00206972843 0.00205756221,0.574634599 0,1.28156348 L0,57.7184365 C0.00205756221,58.4253654 0.571256799,58.9979303 1.27403023,59 L54.7259698,59 C55.4287432,58.9979303 55.9979424,58.4253654 56,57.7184365 L56,1.28156348 C55.9979424,0.574634599 55.4287432,0.00206972843 54.7259698,0 Z" id="Path" fill="#E6E6E6" fill-rule="nonzero"></path>
                    <path d="M53.5411281,1.5 L2.45887188,1.5 C1.93010769,1.5019529 1.50194113,1.93271564 1.5,2.46468598 L1.5,56.535314 C1.50154981,57.0674482 1.92994485,57.4984408 2.45887188,57.5 L53.5411281,57.5 C54.0700552,57.4984408 54.4984502,57.0674482 54.5,56.535314 L54.5,2.46468598 C54.4984502,1.93255181 54.0700552,1.50155921 53.5411281,1.5 L53.5411281,1.5 Z" id="Path" fill="#FFFFFF" fill-rule="nonzero"></path>
                    <path d="M49.4506183,15.5 C49.7540334,15.5 50,15.7798285 50,16.125006 L50,17.3750009 C50,17.7201784 49.7540334,18 49.4506183,18 L6.04938171,18 C5.90367613,18 5.76393782,17.9341545 5.66090842,17.816944 C5.55787901,17.6997335 5.5,17.5407615 5.5,17.3750009 L5.5,16.1249991 C5.5,15.9592385 5.55787901,15.8002665 5.66090842,15.683056 C5.76393782,15.5658455 5.90367613,15.5 6.04938171,15.5 L49.4506183,15.5" id="Path" fill="#E6E6E6" fill-rule="nonzero"></path>
                    <path d="M49.4506183,21 C49.7540339,21 50,21.2798241 50,21.6250017 L50,22.8749983 C50,23.2201759 49.7540339,23.5 49.4506183,23.5 L6.04938171,23.5 C5.90367586,23.5 5.76393755,23.4341529 5.66090823,23.316942 C5.55787892,23.1997312 5.5,23.040759 5.5,22.8749983 L5.5,21.625012 C5.5,21.4592513 5.55787892,21.3002791 5.66090823,21.1830682 C5.76393755,21.0658574 5.90367586,21 6.04938171,21 L49.4506183,21" id="Path" fill="#E6E6E6" fill-rule="nonzero"></path>
                    <path d="M49.4506183,25.5 C49.7540321,25.5 50,25.7798232 50,26.1249991 L50,27.3750009 C50,27.7201768 49.7540321,28 49.4506183,28 L6.04938171,28 C5.74596657,28 5.5,27.7201784 5.5,27.3750009 L5.5,26.1249991 C5.5,25.7798216 5.74596657,25.5 6.04938171,25.5 L49.4506183,25.5" id="Path" fill="#0BA5CC" fill-rule="nonzero"></path>
                    <path d="M49.4506183,31 C49.7540334,31 50,31.2798197 50,31.6249949 L50,32.8750051 C50,33.2201803 49.7540334,33.5 49.4506183,33.5 L6.04938171,33.5 C5.90367613,33.5 5.76393782,33.4341549 5.66090842,33.3169452 C5.55787901,33.1997356 5.5,33.0407646 5.5,32.8750051 L5.5,31.625012 C5.5,31.4592525 5.55787901,31.3002815 5.66090842,31.1830719 C5.76393782,31.0658622 5.90367613,31 6.04938171,31 L49.4506183,31" id="Path" fill="#E6E6E6" fill-rule="nonzero"></path>
                    <path d="M49.4506183,36.5 C49.7540339,36.5 50,36.7798241 50,37.1250017 L50,38.3749983 C50,38.7201759 49.7540339,39 49.4506183,39 L6.04938171,39 C5.90367586,39 5.76393755,38.9341529 5.66090823,38.816942 C5.55787892,38.6997312 5.5,38.540759 5.5,38.3749983 L5.5,37.1250017 C5.5,36.959241 5.55787892,36.8002688 5.66090823,36.683058 C5.76393755,36.5658471 5.90367586,36.5 6.04938171,36.5 L49.4506183,36.5" id="Path" fill="#E6E6E6" fill-rule="nonzero"></path>
                    <path d="M49.4506183,42 C49.7540321,42 50,42.2798232 50,42.6249991 L50,43.8750009 C50,44.2201768 49.7540321,44.5 49.4506183,44.5 L6.04938171,44.5 C5.74596657,44.5 5.5,44.2201784 5.5,43.8750009 L5.5,42.6249991 C5.5,42.2798216 5.74596657,42 6.04938171,42 L49.4506183,42" id="Path" fill="#E6E6E6" fill-rule="nonzero"></path>
                </g>
                <g id="collaboration" stroke-width="1" fill-rule="evenodd" transform="translate(144.500000, 87.500000)">
                    <path d="M31.7606075,0 L0.739392545,0 C0.331532963,0.00121026493 0.00119412093,0.336015147 0,0.749388816 L0,33.7506112 C0.00119412093,34.1639849 0.331532963,34.4987897 0.739392545,34.5 L31.7606075,34.5 C32.168467,34.4987897 32.4988059,34.1639849 32.5,33.7506112 L32.5,0.749388816 C32.4988059,0.336015147 32.168467,0.00121026493 31.7606075,0 Z" id="Path" fill="#E6E6E6" fill-rule="nonzero"></path>
                    <path d="M30.9481964,1 L1.55180363,1 C1.2475148,1.00113338 1.00111707,1.25112961 1,1.5598624 L1,32.9401376 C1.00089187,33.2489655 1.24742109,33.4990951 1.55180363,33.5 L30.9481964,33.5 C31.2525789,33.4990951 31.4991081,33.2489655 31.5,32.9401376 L31.5,1.5598624 C31.4991081,1.25103453 31.2525789,1.0009049 30.9481964,1 L30.9481964,1 Z" id="Path" fill="#FFFFFF" fill-rule="nonzero"></path>
                    <path d="M28.6851858,9 C28.8590529,9 29,9.1678971 29,9.37500359 L29,10.1250005 C29,10.332107 28.8590529,10.5 28.6851858,10.5 L3.81481424,10.5 C3.73132003,10.5 3.65124527,10.4604927 3.59220595,10.3901664 C3.53316663,10.3198401 3.5,10.2244569 3.5,10.1250005 L3.5,9.37499949 C3.5,9.27554311 3.53316663,9.18015989 3.59220595,9.1098336 C3.65124527,9.03950732 3.73132003,9 3.81481424,9 L28.6851858,9" id="Path" fill="#E6E6E6" fill-rule="nonzero"></path>
                    <path d="M28.6851858,12 C28.8590531,12 29,12.1678945 29,12.375001 L29,13.124999 C29,13.3321055 28.8590531,13.5 28.6851858,13.5 L3.81481424,13.5 C3.73131987,13.5 3.65124511,13.4604917 3.59220584,13.3901652 C3.53316657,13.3198387 3.5,13.2244554 3.5,13.124999 L3.5,12.3750072 C3.5,12.2755508 3.53316657,12.1801675 3.59220584,12.1098409 C3.65124511,12.0395144 3.73131987,12 3.81481424,12 L28.6851858,12" id="Path" fill="#E6E6E6" fill-rule="nonzero"></path>
                    <path d="M28.6851858,15 C28.8590521,15 29,15.1678939 29,15.3749995 L29,16.1250005 C29,16.3321061 28.8590521,16.5 28.6851858,16.5 L3.81481424,16.5 C3.64094714,16.5 3.5,16.332107 3.5,16.1250005 L3.5,15.3749995 C3.5,15.167893 3.64094714,15 3.81481424,15 L28.6851858,15" id="Path" fill="#CC8F0B" fill-rule="nonzero"></path>
                    <path d="M28.6851858,18 C28.8590529,18 29,18.1678918 29,18.3749969 L29,19.1250031 C29,19.3321082 28.8590529,19.5 28.6851858,19.5 L3.81481424,19.5 C3.73132003,19.5 3.65124527,19.4604929 3.59220595,19.3901671 C3.53316663,19.3198413 3.5,19.2244588 3.5,19.1250031 L3.5,18.3750072 C3.5,18.2755515 3.53316663,18.1801689 3.59220595,18.1098431 C3.65124527,18.0395173 3.73132003,18 3.81481424,18 L28.6851858,18" id="Path" fill="#E6E6E6" fill-rule="nonzero"></path>
                    <path d="M28.6851858,21.5 C28.8590531,21.5 29,21.6678945 29,21.875001 L29,22.624999 C29,22.8321055 28.8590531,23 28.6851858,23 L3.81481424,23 C3.73131987,23 3.65124511,22.9604917 3.59220584,22.8901652 C3.53316657,22.8198387 3.5,22.7244554 3.5,22.624999 L3.5,21.875001 C3.5,21.7755446 3.53316657,21.6801613 3.59220584,21.6098348 C3.65124511,21.5395083 3.73131987,21.5 3.81481424,21.5 L28.6851858,21.5" id="Path" fill="#E6E6E6" fill-rule="nonzero"></path>
                    <path d="M28.6851858,24.5 C28.8590521,24.5 29,24.6678939 29,24.8749995 L29,25.6250005 C29,25.8321061 28.8590521,26 28.6851858,26 L3.81481424,26 C3.64094714,26 3.5,25.832107 3.5,25.6250005 L3.5,24.8749995 C3.5,24.667893 3.64094714,24.5 3.81481424,24.5 L28.6851858,24.5" id="Path" fill="#E6E6E6" fill-rule="nonzero"></path>
                </g>
                <g id="collaboration" stroke-width="1" fill-rule="evenodd" transform="translate(184.500000, 99.500000)">
                    <path d="M26.8743602,0 L0.625639846,0 C0.280527892,0.00101732415 0.00101041002,0.282447515 0,0.629921034 L0,28.370079 C0.00101041002,28.7175525 0.280527892,28.9989827 0.625639846,29 L26.8743602,29 C27.2194721,28.9989827 27.4989896,28.7175525 27.5,28.370079 L27.5,0.629921034 C27.4989896,0.282447515 27.2194721,0.00101732415 26.8743602,0 Z" id="Path" fill="#E6E6E6" fill-rule="nonzero"></path>
                    <path d="M26.52961,1 L1.47038998,1 C1.21099623,1.00095901 1.00095225,1.21249429 1,1.47372972 L1,28.0262703 C1.00076029,28.2875862 1.21091634,28.4992343 1.47038998,28.5 L26.52961,28.5 C26.7890837,28.4992343 26.9992397,28.2875862 27,28.0262703 L27,1.47372972 C26.9992397,1.21241384 26.7890837,1.00076568 26.52961,1 L26.52961,1 Z" id="Path" fill="#FFFFFF" fill-rule="nonzero"></path>
                    <path d="M24.2283956,7.5 C24.3783985,7.5 24.5,7.6119314 24.5,7.7500024 L24.5,8.25000034 C24.5,8.38807134 24.3783985,8.5 24.2283956,8.5 L2.77160444,8.5 C2.69957022,8.5 2.63048611,8.47366179 2.57955023,8.4267776 C2.52861434,8.37989341 2.5,8.3163046 2.5,8.25000034 L2.5,7.74999966 C2.5,7.6836954 2.52861434,7.62010659 2.57955023,7.5732224 C2.63048611,7.52633821 2.69957022,7.5 2.77160444,7.5 L24.2283956,7.5" id="Path" fill="#E6E6E6" fill-rule="nonzero"></path>
                    <path d="M24.2283956,10.5 C24.3783988,10.5 24.5,10.6119297 24.5,10.7500007 L24.5,11.2499993 C24.5,11.3880703 24.3783988,11.5 24.2283956,11.5 L2.77160444,11.5 C2.69957009,11.5 2.63048598,11.4736612 2.57955014,11.4267768 C2.5286143,11.3798925 2.5,11.3163036 2.5,11.2499993 L2.5,10.7500048 C2.5,10.6837005 2.5286143,10.6201116 2.57955014,10.5732273 C2.63048598,10.526343 2.69957009,10.5 2.77160444,10.5 L24.2283956,10.5" id="Path" fill="#E6E6E6" fill-rule="nonzero"></path>
                    <path d="M24.2283956,12.5 C24.3783979,12.5 24.5,12.6119293 24.5,12.7499997 L24.5,13.2500003 C24.5,13.3880707 24.3783979,13.5 24.2283956,13.5 L2.77160444,13.5 C2.62160145,13.5 2.5,13.3880713 2.5,13.2500003 L2.5,12.7499997 C2.5,12.6119287 2.62160145,12.5 2.77160444,12.5 L24.2283956,12.5" id="Path" fill="#0BCC2A" fill-rule="nonzero"></path>
                    <path d="M24.2283956,15.5 C24.3783985,15.5 24.5,15.6119279 24.5,15.7499979 L24.5,16.2500021 C24.5,16.3880721 24.3783985,16.5 24.2283956,16.5 L2.77160444,16.5 C2.69957022,16.5 2.63048611,16.473662 2.57955023,16.4267781 C2.52861434,16.3798942 2.5,16.3163059 2.5,16.2500021 L2.5,15.7500048 C2.5,15.683701 2.52861434,15.6201126 2.57955023,15.5732287 C2.63048611,15.5263449 2.69957022,15.5 2.77160444,15.5 L24.2283956,15.5" id="Path" fill="#E6E6E6" fill-rule="nonzero"></path>
                    <path d="M24.2283956,18 C24.3783988,18 24.5,18.1119297 24.5,18.2500007 L24.5,18.7499993 C24.5,18.8880703 24.3783988,19 24.2283956,19 L2.77160444,19 C2.69957009,19 2.63048598,18.9736612 2.57955014,18.9267768 C2.5286143,18.8798925 2.5,18.8163036 2.5,18.7499993 L2.5,18.2500007 C2.5,18.1836964 2.5286143,18.1201075 2.57955014,18.0732232 C2.63048598,18.0263388 2.69957009,18 2.77160444,18 L24.2283956,18" id="Path" fill="#E6E6E6" fill-rule="nonzero"></path>
                    <path d="M24.2283956,20.5 C24.3783979,20.5 24.5,20.6119293 24.5,20.7499997 L24.5,21.2500003 C24.5,21.3880707 24.3783979,21.5 24.2283956,21.5 L2.77160444,21.5 C2.62160145,21.5 2.5,21.3880713 2.5,21.2500003 L2.5,20.7499997 C2.5,20.6119287 2.62160145,20.5 2.77160444,20.5 L24.2283956,20.5" id="Path" fill="#E6E6E6" fill-rule="nonzero"></path>
                </g>
                <g id="Group" stroke-width="1" fill-rule="evenodd" transform="translate(140.000000, 198.500000) scale(1, -1) translate(-140.000000, -198.500000) translate(37.500000, 143.500000)">
                    <g id="collaboration" transform="translate(182.000000, 86.000000)" fill-rule="nonzero">
                        <path d="M21.9881129,0 L0.511887147,0 C0.229522821,0.000841923431 0.000826699104,0.233749668 0,0.521313959 L0,23.478686 C0.000826699104,23.7662503 0.229522821,23.9991581 0.511887147,24 L21.9881129,24 C22.2704772,23.9991581 22.4991733,23.7662503 22.5,23.478686 L22.5,0.521313959 C22.4991733,0.233749668 22.2704772,0.000841923431 21.9881129,0 Z" id="Path" fill="#E6E6E6"></path>
                        <path d="M21.6110237,1 L0.888976329,1 C0.674477649,1.00078465 0.50078744,1.17385896 0.5,1.38759705 L0.5,23.112403 C0.500628698,23.3262069 0.674411589,23.4993735 0.888976329,23.5 L21.6110237,23.5 C21.8255884,23.4993735 21.9993713,23.3262069 22,23.112403 L22,1.38759705 C21.9993713,1.17379314 21.8255884,1.00062647 21.6110237,1 L21.6110237,1 Z" id="Path" fill="#FFFFFF"></path>
                        <path d="M19.7777782,6.5 C19.9005079,6.5 20,6.6119314 20,6.7500024 L20,7.25000034 C20,7.38807134 19.9005079,7.5 19.7777782,7.5 L2.22222182,7.5 C2.16328473,7.5 2.10676137,7.47366179 2.06508655,7.4267776 C2.02341174,7.37989341 2,7.3163046 2,7.25000034 L2,6.74999966 C2,6.6836954 2.02341174,6.62010659 2.06508655,6.5732224 C2.10676137,6.52633821 2.16328473,6.5 2.22222182,6.5 L19.7777782,6.5" id="Path" fill="#E6E6E6"></path>
                        <path d="M19.7777782,8.5 C19.9005081,8.5 20,8.61192965 20,8.75000068 L20,9.24999932 C20,9.38807035 19.9005081,9.5 19.7777782,9.5 L2.22222182,9.5 C2.16328462,9.5 2.10676126,9.47366115 2.06508648,9.42677681 C2.0234117,9.37989247 2,9.3163036 2,9.24999932 L2,8.75000479 C2,8.6837005 2.0234117,8.62011163 2.06508648,8.57322729 C2.10676126,8.52634295 2.16328462,8.5 2.22222182,8.5 L19.7777782,8.5" id="Path" fill="#E6E6E6"></path>
                        <path d="M19.7777782,10.5 C19.9005073,10.5 20,10.6119293 20,10.7499997 L20,11.2500003 C20,11.3880707 19.9005073,11.5 19.7777782,11.5 L2.22222182,11.5 C2.0994921,11.5 2,11.3880713 2,11.2500003 L2,10.7499997 C2,10.6119287 2.0994921,10.5 2.22222182,10.5 L19.7777782,10.5" id="Path" fill="#CC0B0B"></path>
                        <path d="M19.7777782,12.5 C19.9005079,12.5 20,12.6119279 20,12.7499979 L20,13.2500021 C20,13.3880721 19.9005079,13.5 19.7777782,13.5 L2.22222182,13.5 C2.16328473,13.5 2.10676137,13.473662 2.06508655,13.4267781 C2.02341174,13.3798942 2,13.3163059 2,13.2500021 L2,12.7500048 C2,12.683701 2.02341174,12.6201126 2.06508655,12.5732287 C2.10676137,12.5263449 2.16328473,12.5 2.22222182,12.5 L19.7777782,12.5" id="Path" fill="#E6E6E6"></path>
                        <path d="M19.7777782,15 C19.9005081,15 20,15.1119297 20,15.2500007 L20,15.7499993 C20,15.8880703 19.9005081,16 19.7777782,16 L2.22222182,16 C2.16328462,16 2.10676126,15.9736612 2.06508648,15.9267768 C2.0234117,15.8798925 2,15.8163036 2,15.7499993 L2,15.2500007 C2,15.1836964 2.0234117,15.1201075 2.06508648,15.0732232 C2.10676126,15.0263388 2.16328462,15 2.22222182,15 L19.7777782,15" id="Path" fill="#E6E6E6"></path>
                        <path d="M19.7777782,17 C19.9005073,17 20,17.1119293 20,17.2499997 L20,17.7500003 C20,17.8880707 19.9005073,18 19.7777782,18 L2.22222182,18 C2.0994921,18 2,17.8880713 2,17.7500003 L2,17.2499997 C2,17.1119287 2.0994921,17 2.22222182,17 L19.7777782,17" id="Path" fill="#E6E6E6"></path>
                    </g>
                    <g id="collaboration-copy" transform="translate(63.500000, 38.000000)" fill-rule="nonzero">
                        <path d="M35.1809806,0.357142857 L0.819019435,0.357142857 C0.367236513,0.358458363 0.00132271857,0.722376713 0,1.17169592 L0,37.0425898 C0.00132271857,37.491909 0.367236513,37.8558274 0.819019435,37.8571429 L35.1809806,37.8571429 C35.6327635,37.8558274 35.9986773,37.491909 36,37.0425898 L36,1.17169592 C35.9986773,0.722376713 35.6327635,0.358458363 35.1809806,0.357142857 Z" id="Path" fill="#E6E6E6"></path>
                        <path d="M34.8758287,0.857142857 L1.62417132,0.857142857 C1.27997576,0.858398293 1.00126357,1.1353172 1,1.47729813 L1,36.2369876 C1.00100884,36.5790738 1.27986976,36.8561405 1.62417132,36.8571429 L34.8758287,36.8571429 C35.2201302,36.8561405 35.4989912,36.5790738 35.5,36.2369876 L35.5,1.47729813 C35.4989912,1.13521188 35.2201302,0.858145207 34.8758287,0.857142857 L34.8758287,0.857142857 Z" id="Path" fill="#FFFFFF"></path>
                        <path d="M31.6481488,9.85714286 C31.8424708,9.85714286 32,10.02504 32,10.2321465 L32,10.9821434 C32,11.1892499 31.8424708,11.3571429 31.6481488,11.3571429 L3.85185121,11.3571429 C3.75853415,11.3571429 3.66903883,11.3176355 3.6030537,11.2473093 C3.53706858,11.176983 3.5,11.0815998 3.5,10.9821434 L3.5,10.2321423 C3.5,10.132686 3.53706858,10.0373027 3.6030537,9.96697646 C3.66903883,9.89665018 3.75853415,9.85714286 3.85185121,9.85714286 L31.6481488,9.85714286" id="Path" fill="#E6E6E6"></path>
                        <path d="M31.6481488,13.3571429 C31.8424712,13.3571429 32,13.5250373 32,13.7321439 L32,14.4821418 C32,14.6892484 31.8424712,14.8571429 31.6481488,14.8571429 L3.85185121,14.8571429 C3.75853398,14.8571429 3.66903866,14.8176346 3.60305359,14.7473081 C3.53706852,14.6769816 3.5,14.5815983 3.5,14.4821418 L3.5,13.73215 C3.5,13.6326936 3.53706852,13.5373103 3.60305359,13.4669838 C3.66903866,13.3966573 3.75853398,13.3571429 3.85185121,13.3571429 L31.6481488,13.3571429" id="Path" fill="#E6E6E6"></path>
                        <path d="M31.6481488,16.3571429 C31.84247,16.3571429 32,16.5250368 32,16.7321423 L32,17.4821434 C32,17.6892489 31.84247,17.8571429 31.6481488,17.8571429 L3.85185121,17.8571429 C3.65752915,17.8571429 3.5,17.6892499 3.5,17.4821434 L3.5,16.7321423 C3.5,16.5250358 3.65752915,16.3571429 3.85185121,16.3571429 L31.6481488,16.3571429" id="Path" fill="#0B6FCC"></path>
                        <path d="M31.6481488,19.8571429 C31.8424708,19.8571429 32,20.0250347 32,20.2321398 L32,20.9821459 C32,21.189251 31.8424708,21.3571429 31.6481488,21.3571429 L3.85185121,21.3571429 C3.75853415,21.3571429 3.66903883,21.3176358 3.6030537,21.24731 C3.53706858,21.1769842 3.5,21.0816016 3.5,20.9821459 L3.5,20.23215 C3.5,20.1326943 3.53706858,20.0373118 3.6030537,19.966986 C3.66903883,19.8966602 3.75853415,19.8571429 3.85185121,19.8571429 L31.6481488,19.8571429" id="Path" fill="#E6E6E6"></path>
                        <path d="M31.6481488,23.3571429 C31.8424712,23.3571429 32,23.5250373 32,23.7321439 L32,24.4821418 C32,24.6892484 31.8424712,24.8571429 31.6481488,24.8571429 L3.85185121,24.8571429 C3.75853398,24.8571429 3.66903866,24.8176346 3.60305359,24.7473081 C3.53706852,24.6769816 3.5,24.5815983 3.5,24.4821418 L3.5,23.7321439 C3.5,23.6326874 3.53706852,23.5373041 3.60305359,23.4669776 C3.66903866,23.3966511 3.75853398,23.3571429 3.85185121,23.3571429 L31.6481488,23.3571429" id="Path" fill="#E6E6E6"></path>
                        <path d="M31.6481488,27.3571429 C31.84247,27.3571429 32,27.5250368 32,27.7321423 L32,28.4821434 C32,28.6892489 31.84247,28.8571429 31.6481488,28.8571429 L3.85185121,28.8571429 C3.65752915,28.8571429 3.5,28.6892499 3.5,28.4821434 L3.5,27.7321423 C3.5,27.5250358 3.65752915,27.3571429 3.85185121,27.3571429 L31.6481488,27.3571429" id="Path" fill="#E6E6E6"></path>
                    </g>
                    <g id="collaboration-copy-2" fill-rule="nonzero">
                        <path d="M54.7259698,0 L1.27403023,0 C0.571256799,0.00206972843 0.00205756221,0.574634599 0,1.28156348 L0,57.7184365 C0.00205756221,58.4253654 0.571256799,58.9979303 1.27403023,59 L54.7259698,59 C55.4287432,58.9979303 55.9979424,58.4253654 56,57.7184365 L56,1.28156348 C55.9979424,0.574634599 55.4287432,0.00206972843 54.7259698,0 Z" id="Path" fill="#E6E6E6"></path>
                        <path d="M53.5411281,1.5 L2.45887188,1.5 C1.93010769,1.5019529 1.50194113,1.93271564 1.5,2.46468598 L1.5,56.535314 C1.50154981,57.0674482 1.92994485,57.4984408 2.45887188,57.5 L53.5411281,57.5 C54.0700552,57.4984408 54.4984502,57.0674482 54.5,56.535314 L54.5,2.46468598 C54.4984502,1.93255181 54.0700552,1.50155921 53.5411281,1.5 L53.5411281,1.5 Z" id="Path" fill="#FFFFFF"></path>
                        <path d="M49.4506183,15.5 C49.7540334,15.5 50,15.7798285 50,16.125006 L50,17.3750009 C50,17.7201784 49.7540334,18 49.4506183,18 L6.04938171,18 C5.90367613,18 5.76393782,17.9341545 5.66090842,17.816944 C5.55787901,17.6997335 5.5,17.5407615 5.5,17.3750009 L5.5,16.1249991 C5.5,15.9592385 5.55787901,15.8002665 5.66090842,15.683056 C5.76393782,15.5658455 5.90367613,15.5 6.04938171,15.5 L49.4506183,15.5" id="Path" fill="#E6E6E6"></path>
                        <path d="M49.4506183,21 C49.7540339,21 50,21.2798241 50,21.6250017 L50,22.8749983 C50,23.2201759 49.7540339,23.5 49.4506183,23.5 L6.04938171,23.5 C5.90367586,23.5 5.76393755,23.4341529 5.66090823,23.316942 C5.55787892,23.1997312 5.5,23.040759 5.5,22.8749983 L5.5,21.625012 C5.5,21.4592513 5.55787892,21.3002791 5.66090823,21.1830682 C5.76393755,21.0658574 5.90367586,21 6.04938171,21 L49.4506183,21" id="Path" fill="#E6E6E6"></path>
                        <path d="M49.4506183,25.5 C49.7540321,25.5 50,25.7798232 50,26.1249991 L50,27.3750009 C50,27.7201768 49.7540321,28 49.4506183,28 L6.04938171,28 C5.74596657,28 5.5,27.7201784 5.5,27.3750009 L5.5,26.1249991 C5.5,25.7798216 5.74596657,25.5 6.04938171,25.5 L49.4506183,25.5" id="Path" fill="#0BA5CC"></path>
                        <path d="M49.4506183,31 C49.7540334,31 50,31.2798197 50,31.6249949 L50,32.8750051 C50,33.2201803 49.7540334,33.5 49.4506183,33.5 L6.04938171,33.5 C5.90367613,33.5 5.76393782,33.4341549 5.66090842,33.3169452 C5.55787901,33.1997356 5.5,33.0407646 5.5,32.8750051 L5.5,31.625012 C5.5,31.4592525 5.55787901,31.3002815 5.66090842,31.1830719 C5.76393782,31.0658622 5.90367613,31 6.04938171,31 L49.4506183,31" id="Path" fill="#E6E6E6"></path>
                        <path d="M49.4506183,36.5 C49.7540339,36.5 50,36.7798241 50,37.1250017 L50,38.3749983 C50,38.7201759 49.7540339,39 49.4506183,39 L6.04938171,39 C5.90367586,39 5.76393755,38.9341529 5.66090823,38.816942 C5.55787892,38.6997312 5.5,38.540759 5.5,38.3749983 L5.5,37.1250017 C5.5,36.959241 5.55787892,36.8002688 5.66090823,36.683058 C5.76393755,36.5658471 5.90367586,36.5 6.04938171,36.5 L49.4506183,36.5" id="Path" fill="#E6E6E6"></path>
                        <path d="M49.4506183,42 C49.7540321,42 50,42.2798232 50,42.6249991 L50,43.8750009 C50,44.2201768 49.7540321,44.5 49.4506183,44.5 L6.04938171,44.5 C5.74596657,44.5 5.5,44.2201784 5.5,43.8750009 L5.5,42.6249991 C5.5,42.2798216 5.74596657,42 6.04938171,42 L49.4506183,42" id="Path" fill="#E6E6E6"></path>
                    </g>
                    <g id="collaboration" transform="translate(107.000000, 57.000000)" fill-rule="nonzero">
                        <path d="M31.7606075,0 L0.739392545,0 C0.331532963,0.00121026493 0.00119412093,0.336015147 0,0.749388816 L0,33.7506112 C0.00119412093,34.1639849 0.331532963,34.4987897 0.739392545,34.5 L31.7606075,34.5 C32.168467,34.4987897 32.4988059,34.1639849 32.5,33.7506112 L32.5,0.749388816 C32.4988059,0.336015147 32.168467,0.00121026493 31.7606075,0 Z" id="Path" fill="#E6E6E6"></path>
                        <path d="M30.9481964,1 L1.55180363,1 C1.2475148,1.00113338 1.00111707,1.25112961 1,1.5598624 L1,32.9401376 C1.00089187,33.2489655 1.24742109,33.4990951 1.55180363,33.5 L30.9481964,33.5 C31.2525789,33.4990951 31.4991081,33.2489655 31.5,32.9401376 L31.5,1.5598624 C31.4991081,1.25103453 31.2525789,1.0009049 30.9481964,1 L30.9481964,1 Z" id="Path" fill="#FFFFFF"></path>
                        <path d="M28.6851858,9 C28.8590529,9 29,9.1678971 29,9.37500359 L29,10.1250005 C29,10.332107 28.8590529,10.5 28.6851858,10.5 L3.81481424,10.5 C3.73132003,10.5 3.65124527,10.4604927 3.59220595,10.3901664 C3.53316663,10.3198401 3.5,10.2244569 3.5,10.1250005 L3.5,9.37499949 C3.5,9.27554311 3.53316663,9.18015989 3.59220595,9.1098336 C3.65124527,9.03950732 3.73132003,9 3.81481424,9 L28.6851858,9" id="Path" fill="#E6E6E6"></path>
                        <path d="M28.6851858,12 C28.8590531,12 29,12.1678945 29,12.375001 L29,13.124999 C29,13.3321055 28.8590531,13.5 28.6851858,13.5 L3.81481424,13.5 C3.73131987,13.5 3.65124511,13.4604917 3.59220584,13.3901652 C3.53316657,13.3198387 3.5,13.2244554 3.5,13.124999 L3.5,12.3750072 C3.5,12.2755508 3.53316657,12.1801675 3.59220584,12.1098409 C3.65124511,12.0395144 3.73131987,12 3.81481424,12 L28.6851858,12" id="Path" fill="#E6E6E6"></path>
                        <path d="M28.6851858,15 C28.8590521,15 29,15.1678939 29,15.3749995 L29,16.1250005 C29,16.3321061 28.8590521,16.5 28.6851858,16.5 L3.81481424,16.5 C3.64094714,16.5 3.5,16.332107 3.5,16.1250005 L3.5,15.3749995 C3.5,15.167893 3.64094714,15 3.81481424,15 L28.6851858,15" id="Path" fill="#CC8F0B"></path>
                        <path d="M28.6851858,18 C28.8590529,18 29,18.1678918 29,18.3749969 L29,19.1250031 C29,19.3321082 28.8590529,19.5 28.6851858,19.5 L3.81481424,19.5 C3.73132003,19.5 3.65124527,19.4604929 3.59220595,19.3901671 C3.53316663,19.3198413 3.5,19.2244588 3.5,19.1250031 L3.5,18.3750072 C3.5,18.2755515 3.53316663,18.1801689 3.59220595,18.1098431 C3.65124527,18.0395173 3.73132003,18 3.81481424,18 L28.6851858,18" id="Path" fill="#E6E6E6"></path>
                        <path d="M28.6851858,21.5 C28.8590531,21.5 29,21.6678945 29,21.875001 L29,22.624999 C29,22.8321055 28.8590531,23 28.6851858,23 L3.81481424,23 C3.73131987,23 3.65124511,22.9604917 3.59220584,22.8901652 C3.53316657,22.8198387 3.5,22.7244554 3.5,22.624999 L3.5,21.875001 C3.5,21.7755446 3.53316657,21.6801613 3.59220584,21.6098348 C3.65124511,21.5395083 3.73131987,21.5 3.81481424,21.5 L28.6851858,21.5" id="Path" fill="#E6E6E6"></path>
                        <path d="M28.6851858,24.5 C28.8590521,24.5 29,24.6678939 29,24.8749995 L29,25.6250005 C29,25.8321061 28.8590521,26 28.6851858,26 L3.81481424,26 C3.64094714,26 3.5,25.832107 3.5,25.6250005 L3.5,24.8749995 C3.5,24.667893 3.64094714,24.5 3.81481424,24.5 L28.6851858,24.5" id="Path" fill="#E6E6E6"></path>
                    </g>
                    <g id="collaboration" transform="translate(147.000000, 69.000000)" fill-rule="nonzero">
                        <path d="M26.8743602,0 L0.625639846,0 C0.280527892,0.00101732415 0.00101041002,0.282447515 0,0.629921034 L0,28.370079 C0.00101041002,28.7175525 0.280527892,28.9989827 0.625639846,29 L26.8743602,29 C27.2194721,28.9989827 27.4989896,28.7175525 27.5,28.370079 L27.5,0.629921034 C27.4989896,0.282447515 27.2194721,0.00101732415 26.8743602,0 Z" id="Path" fill="#E6E6E6"></path>
                        <path d="M26.52961,1 L1.47038998,1 C1.21099623,1.00095901 1.00095225,1.21249429 1,1.47372972 L1,28.0262703 C1.00076029,28.2875862 1.21091634,28.4992343 1.47038998,28.5 L26.52961,28.5 C26.7890837,28.4992343 26.9992397,28.2875862 27,28.0262703 L27,1.47372972 C26.9992397,1.21241384 26.7890837,1.00076568 26.52961,1 L26.52961,1 Z" id="Path" fill="#FFFFFF"></path>
                        <path d="M24.2283956,7.5 C24.3783985,7.5 24.5,7.6119314 24.5,7.7500024 L24.5,8.25000034 C24.5,8.38807134 24.3783985,8.5 24.2283956,8.5 L2.77160444,8.5 C2.69957022,8.5 2.63048611,8.47366179 2.57955023,8.4267776 C2.52861434,8.37989341 2.5,8.3163046 2.5,8.25000034 L2.5,7.74999966 C2.5,7.6836954 2.52861434,7.62010659 2.57955023,7.5732224 C2.63048611,7.52633821 2.69957022,7.5 2.77160444,7.5 L24.2283956,7.5" id="Path" fill="#E6E6E6"></path>
                        <path d="M24.2283956,10.5 C24.3783988,10.5 24.5,10.6119297 24.5,10.7500007 L24.5,11.2499993 C24.5,11.3880703 24.3783988,11.5 24.2283956,11.5 L2.77160444,11.5 C2.69957009,11.5 2.63048598,11.4736612 2.57955014,11.4267768 C2.5286143,11.3798925 2.5,11.3163036 2.5,11.2499993 L2.5,10.7500048 C2.5,10.6837005 2.5286143,10.6201116 2.57955014,10.5732273 C2.63048598,10.526343 2.69957009,10.5 2.77160444,10.5 L24.2283956,10.5" id="Path" fill="#E6E6E6"></path>
                        <path d="M24.2283956,12.5 C24.3783979,12.5 24.5,12.6119293 24.5,12.7499997 L24.5,13.2500003 C24.5,13.3880707 24.3783979,13.5 24.2283956,13.5 L2.77160444,13.5 C2.62160145,13.5 2.5,13.3880713 2.5,13.2500003 L2.5,12.7499997 C2.5,12.6119287 2.62160145,12.5 2.77160444,12.5 L24.2283956,12.5" id="Path" fill="#0BCC2A"></path>
                        <path d="M24.2283956,15.5 C24.3783985,15.5 24.5,15.6119279 24.5,15.7499979 L24.5,16.2500021 C24.5,16.3880721 24.3783985,16.5 24.2283956,16.5 L2.77160444,16.5 C2.69957022,16.5 2.63048611,16.473662 2.57955023,16.4267781 C2.52861434,16.3798942 2.5,16.3163059 2.5,16.2500021 L2.5,15.7500048 C2.5,15.683701 2.52861434,15.6201126 2.57955023,15.5732287 C2.63048611,15.5263449 2.69957022,15.5 2.77160444,15.5 L24.2283956,15.5" id="Path" fill="#E6E6E6"></path>
                        <path d="M24.2283956,18 C24.3783988,18 24.5,18.1119297 24.5,18.2500007 L24.5,18.7499993 C24.5,18.8880703 24.3783988,19 24.2283956,19 L2.77160444,19 C2.69957009,19 2.63048598,18.9736612 2.57955014,18.9267768 C2.5286143,18.8798925 2.5,18.8163036 2.5,18.7499993 L2.5,18.2500007 C2.5,18.1836964 2.5286143,18.1201075 2.57955014,18.0732232 C2.63048598,18.0263388 2.69957009,18 2.77160444,18 L24.2283956,18" id="Path" fill="#E6E6E6"></path>
                        <path d="M24.2283956,20.5 C24.3783979,20.5 24.5,20.6119293 24.5,20.7499997 L24.5,21.2500003 C24.5,21.3880707 24.3783979,21.5 24.2283956,21.5 L2.77160444,21.5 C2.62160145,21.5 2.5,21.3880713 2.5,21.2500003 L2.5,20.7499997 C2.5,20.6119287 2.62160145,20.5 2.77160444,20.5 L24.2283956,20.5" id="Path" fill="#E6E6E6"></path>
                    </g>
                </g>
                <g id="Group-3" stroke-width="1" fill-rule="evenodd" transform="translate(269.000000, 112.000000)">
                    <g id="fa-solid:check-circle" fill-rule="nonzero">
                        <g id="Icon" transform="translate(0.938455, 0.937500)" fill="#0B6FCC">
                            <path d="M58.1842001,29.0625 C58.1842001,45.1133203 45.1592681,58.125 29.0921,58.125 C13.024932,58.125 0,45.1133203 0,29.0625 C0,13.0116797 13.024932,0 29.0921,0 C45.1592681,0 58.1842001,13.0116797 58.1842001,29.0625 Z M25.7270356,44.4508594 L47.3114969,22.8883594 C48.0444302,22.1561719 48.0444302,20.9689453 47.3114969,20.2367578 L44.6571947,17.5851562 C43.9242615,16.8528516 42.7358257,16.8528516 42.0027752,17.5851562 L24.3998258,35.1700781 L16.1814249,26.9600391 C15.4484917,26.2278516 14.2600559,26.2278516 13.5270054,26.9600391 L10.8727032,29.6116406 C10.1397699,30.3438281 10.1397699,31.5310547 10.8727032,32.2632422 L23.0726161,44.4507422 C23.8056666,45.1830469 24.9939851,45.1830469 25.7270356,44.4508594 L25.7270356,44.4508594 Z" id="Icon-Shape"></path>
                        </g>
                        <rect id="ViewBox" x="0" y="0" width="60.0611098" height="60"></rect>
                    </g>
                </g>
                <g id="box" stroke-width="1" fill-rule="evenodd" transform="translate(477.000000, 318.734939)">
                    <rect id="Rectangle" fill="#B27363" fill-rule="nonzero" x="0" y="8.26506145" width="48.5" height="33.5"></rect>
                    <polygon id="Path" fill="#98574C" fill-rule="nonzero" points="48.5 8.26506145 0 8.26506145 8.82948718 0.765061452 39.6705128 0.765061452"></polygon>
                    <line x1="24.5" y1="0.765061452" x2="24.5" y2="8.76506145" id="Path" stroke="#B27363" stroke-width="10"></line>
                    <line x1="15" y1="26.2650615" x2="33.5" y2="26.2650615" id="Path" stroke="#B27363" stroke-width="4.5"></line>
                    <line x1="15" y1="28.2650615" x2="33.5" y2="28.2650615" id="Path" stroke="#B27363" stroke-width="4.5"></line>
                </g>
                <g id="woman-sitting-laptop" stroke-width="1" fill-rule="evenodd" transform="translate(467.500000, 232.234939)">
                    <path d="M83.2015509,88.7261822 C83.4372978,90.1151133 87.4364312,121.869358 88.0859249,122.394172 C88.7354187,122.918986 95.6340165,124.080496 96.2249536,123.205203 C96.3435794,121.816144 96.5146986,99.6723876 96.8810364,97.6915187" id="Path" fill="#224094" fill-rule="nonzero" transform="translate(90.041294, 106.124022) rotate(10.000000) translate(-90.041294, -106.124022) "></path>
                    <path d="M9.9486235,75.9554966 C7.17906038,74.595353 12.9447197,101.520449 28.1450091,101.514973 C43.3452985,101.509494 68.9395176,78.4417522 73.0819955,78.4402595 C82.2268168,78.4369642 103.868239,96.3108844 105.565563,96.3102727 C106.865631,95.0156041 109.465972,92.7498168 109.465972,91.8600541 C109.465972,90.9702913 88.752166,57.0022113 73.2437815,57.0077997 C67.2303283,57.0043882 16.2018422,79.0297579 9.9486235,75.9554966 Z" id="Path" fill="#224094" fill-rule="nonzero" transform="translate(59.372187, 79.261386) rotate(10.000000) translate(-59.372187, -79.261386) "></path>
                    <path d="M18.8223828,69.6688377 C21.8661652,68.9845535 25.6536917,67.2141222 29.0064425,65.4021898 C19.8859908,68.3548462 12.412508,70.2710193 10.2557656,69.2164664 C8.78615079,68.5004824 9.71485361,75.6763923 13.1682435,82.58756 C12.5431891,81.2491823 11.6547665,71.2794103 18.8223828,69.6688377 Z" id="Path" fill="#224094" fill-rule="nonzero" transform="translate(19.295199, 73.994875) rotate(10.000000) translate(-19.295199, -73.994875) "></path>
                    <path d="M30.3258121,24.1527237 C32.7139805,24.2163765 45.1466759,23.8444504 48.5532112,27.1025531 C51.0801912,29.5166884 58.9327661,50.3096199 60.1423816,57.6104204 C54.8622488,60.3050572 16.7786447,78.6293724 4.99701354,70.58066 C4.73950478,64.3229509 5.95793931,39.4624052 13.6691047,26.4195005 C16.4881308,24.5335708 28.0298186,24.0918425 30.3258121,24.1527237 Z" id="Path" fill="#17263F" fill-rule="nonzero" transform="translate(32.554227, 48.378069) rotate(10.000000) translate(-32.554227, -48.378069) "></path>
                    <path d="M39.4902244,18.1810074 L32.4281731,18.1835522 L32.4253594,25.9765979 C32.4246547,27.9283445 39.486712,27.9090705 39.4874106,25.9740531 L39.4902244,18.1810074 Z" id="Path" fill="#F8CDBA" fill-rule="nonzero" transform="translate(35.957792, 22.806940) rotate(10.000000) translate(-35.957792, -22.806940) "></path>
                    <path d="M32.870285,22.7976564 C32.8705964,21.9351954 35.326086,19.7670301 36.8434623,19.8416008 C36.880951,18.9012268 33.3779947,17.5114233 33.3779947,17.5114233 L32.8717144,18.8386825 L32.870285,22.7976564 Z" id="Path" fill="#1F161E" fill-rule="nonzero" transform="translate(34.857023, 20.154540) rotate(10.000000) translate(-34.857023, -20.154540) "></path>
                    <path d="M49.0787108,18.5758331 C49.2437809,17.8184439 49.3272468,17.0457823 49.3276964,16.2709281 C49.3297832,10.4892616 44.7885907,5.80275789 39.1797772,5.80477836 C33.5709636,5.80680014 29.0263857,10.4965779 29.0242981,16.2782444 C29.0242981,17.0530985 29.1070955,17.8257001 29.2716186,18.5829706 L49.0787108,18.5758331 Z" id="Path" fill="#1F161E" fill-rule="nonzero" transform="translate(39.175997, 12.193874) rotate(10.000000) translate(-39.175997, -12.193874) "></path>
                    <path d="M45.8242631,12.0669477 C44.6023043,11.8827345 43.3833952,10.9268337 42.532914,10.3015229 C37.6823308,13.8364924 34.5759851,13.8872201 34.2406901,13.887341 C33.9053951,13.8874618 32.5385714,15.8392186 31.9094673,16.0599272 L31.8540586,16.0268749 C32.3667713,18.8236731 34.4210704,21.0929961 37.163898,21.8924963 C39.9067255,22.6919964 42.8695373,21.8850988 44.8220108,19.8068717 C46.7744844,17.7286446 47.383088,14.7341018 46.3950959,12.066742 C46.2055375,12.0902158 46.0138047,12.0902848 45.8242631,12.0669477 Z" id="Path" fill="#F8CDBA" fill-rule="nonzero" transform="translate(39.357733, 16.248913) rotate(10.000000) translate(-39.357733, -16.248913) "></path>
                    <ellipse id="Oval" fill="#1F161E" fill-rule="nonzero" transform="translate(35.123694, 3.428156) rotate(10.000000) translate(-35.123694, -3.428156) " cx="35.1236937" cy="3.42815623" rx="2.86895852" ry="2.86327772"></ellipse>
                    <path d="M34.8544158,12.4533584 C34.1131893,12.4870252 33.5300591,13.0690011 33.529804,13.7753483 C33.529549,14.4816954 34.1122591,15.0632512 34.8534615,15.0963838" id="Path" stroke="#1F161E" stroke-width="0.5" stroke-linecap="round" transform="translate(34.192110, 13.774871) rotate(10.000000) translate(-34.192110, -13.774871) "></path>
                    <path d="M43.927961,14.6882799 C44.4090685,15.1663214 45.6468688,16.0020681 43.9271658,16.8908011" id="Path" stroke="#1F161E" stroke-width="0.5" stroke-linecap="round" transform="translate(44.368721, 15.789540) rotate(10.000000) translate(-44.368721, -15.789540) "></path>
                    <path d="M39.6322765,16.6093557 C39.6321576,16.9391046 39.7785626,17.726925 40.5145559,17.9305503" id="Path" stroke="#1F161E" stroke-width="0.5" stroke-linecap="round" transform="translate(40.073416, 17.269953) rotate(10.000000) translate(-40.073416, -17.269953) "></path>
                    <ellipse id="Oval" fill="#FA9E9F" fill-rule="nonzero" transform="translate(37.401163, 15.905213) rotate(10.000000) translate(-37.401163, -15.905213) " cx="37.4011631" cy="15.905213" rx="1.10344554" ry="1"></ellipse>
                    <ellipse id="Oval" fill="#FA9E9F" fill-rule="nonzero" transform="translate(46.095169, 17.434971) rotate(10.000000) translate(-46.095169, -17.434971) " cx="46.095169" cy="17.4349708" rx="1.10344554" ry="1"></ellipse>
                    <path d="M47.0962846,49.261954 L54.9995709,47.2446332 C55.758372,48.5150273 59.4506018,61.0907692 59.4506018,61.0907692 L47.2494184,66.1891056 C47.4095245,63.8054898 47.8940375,52.9130747 47.0962846,49.261954 Z" id="Path" fill="#F8CDBA" fill-rule="nonzero" transform="translate(53.273443, 56.716869) rotate(10.000000) translate(-53.273443, -56.716869) "></path>
                    <path d="M21.358354,41.4145576 C21.3580163,42.3496352 20.5239976,45.9093526 20.0319926,47.5820941" id="Path" stroke="#1F161E" stroke-width="0.5" stroke-linecap="round" transform="translate(20.695173, 44.498326) rotate(10.000000) translate(-20.695173, -44.498326) "></path>
                    <path d="M49.6991591,48.3269916 C49.5158469,46.8588838 48.4432198,38.5858751 46.6146012,34.2319694" id="Path" stroke="#1F161E" stroke-width="0.5" stroke-linecap="round" transform="translate(48.156880, 41.279481) rotate(10.000000) translate(-48.156880, -41.279481) "></path>
                    <path d="M47.0962846,49.261954 L54.9995709,47.2446332 C55.758372,48.5150273 59.4506018,61.0907692 59.4506018,61.0907692 L47.2494184,66.1891056 C47.4095245,63.8054898 47.8940375,52.9130747 47.0962846,49.261954 Z" id="Path" fill="#F8CDBA" fill-rule="nonzero" transform="translate(53.273443, 56.716869) rotate(10.000000) translate(-53.273443, -56.716869) "></path>
                    <path d="M102.332567,104.269979 C102.504607,104.537819 104.802436,107.413414 105.615912,107.446961 C106.429388,107.480508 111.369848,104.077781 111.153552,103.347473 C110.937256,102.617165 107.838612,103.092046 107.305633,102.838436 C106.772654,102.584826 105.587563,101.378283 105.398961,100.839727" id="Path" fill="#1F161E" fill-rule="nonzero" transform="translate(106.746506, 104.143467) rotate(10.000000) translate(-106.746506, -104.143467) "></path>
                    <path d="M86.136107,122.718607 C86.0783663,123.0357 85.7669324,126.774977 86.323767,127.380355 C86.8806016,127.985733 92.6894917,129.034834 93.0272652,128.346295 C93.3650386,127.657755 90.8329035,125.79337 90.6382762,125.227852 C90.443649,124.662334 90.4031083,122.942733 90.6392952,122.405625" id="Path" fill="#1F161E" fill-rule="nonzero" transform="translate(89.527749, 125.488901) rotate(10.000000) translate(-89.527749, -125.488901) "></path>
                    <polygon id="Path" fill="#969696" fill-rule="nonzero" transform="translate(78.191117, 57.745949) rotate(10.000000) translate(-78.191117, -57.745949) " points="88.2382608 66.1119084 61.8571017 66.1214147 68.1439737 49.3799905 94.5251328 49.3704841"></polygon>
                    <polygon id="Rectangle" fill="#969696" fill-rule="nonzero" transform="translate(51.995187, 61.411151) rotate(10.000000) translate(-51.995187, -61.411151) " points="38.7539199 61.19567 65.2366123 61.186127 65.2364532 61.6266313 38.7537609 61.6361742"></polygon>
                    <path d="M17.6972756,49.6834136 C17.1894132,51.5732865 14.7122485,59.6338871 15.7317126,61.0194778 C16.7511767,62.4050685 41.8591337,59.2456102 48.5821222,57.1670335 C50.2944065,56.6098069 51.5642855,55.1482489 52.3237221,54.961511 C54.3378552,54.6233389 56.2849748,55.8426719 56.8452891,57.7930249 C54.1604107,59.0853268 15.3946618,78.7531833 2.83880613,70.0105869 C0.466033022,68.3332637 4.64019223,47.7372018 4.82830877,46.696274 C6.94940431,46.9571162 17.6972756,49.6834136 17.6972756,49.6834136 Z" id="Path" fill="#F8CDBA" fill-rule="nonzero" transform="translate(29.478262, 59.469629) rotate(10.000000) translate(-29.478262, -59.469629) "></path>
                    <path d="M46.9316276,61.4962758 C47.6826438,61.3059316 48.3390941,61.1215613 48.8787282,60.9431728 C50.5783092,60.3485803 51.8387953,58.7889286 52.592596,58.5896737 C54.5927392,58.2271925 56.5270812,59.5287925 57.0832834,61.6114137" id="Path" stroke="#1F161E" stroke-width="0.5" stroke-linecap="round" transform="translate(52.007455, 60.070338) rotate(10.000000) translate(-52.007455, -60.070338) "></path>
                </g>
                <g id="plant-4" stroke-width="1" fill-rule="evenodd" transform="translate(578.000000, 306.734939)">
                    <path d="M14.5,35.7650615 L14.5,35.5042567 L13.8789042,34.7218424 L12.4555595,32.9614102 L10.9286989,31.0992641 C10.9286989,31.0992641 9.45877209,30.0743014 9.08093878,29.8969541 C7.70417633,29.2553744 6.34811708,28.7650615 4.72809209,28.7650615 C3.73175085,28.7650615 0.00776369802,28.9163282 0,29.5474758 C0,30.4837649 5.21461717,34.0281017 9.03953239,35.7494132 C10.7061396,35.7650615 14.5,35.7650615 14.5,35.7650615 Z" id="Path" fill="#1F161E" fill-rule="nonzero"></path>
                    <path d="M13.9226293,35.7650615 C8.57222146,31.6435661 -2.34772348,9.112725 0.451392843,0.765061452 C6.41484103,3.81365958 12.9574167,14.3254353 16.0434881,23.201697 C16.206841,23.7791189 16.3374841,24.3653523 16.4347905,24.9575848 L17.6869581,30.7145942 L18,35.7650615 L13.9226293,35.7650615 Z" id="Path" fill="#FBDC8E" fill-rule="nonzero"></path>
                    <path d="M17.3993638,35.7650615 C15.5935764,34.2913237 15.0168726,29.9278012 15.0012155,28.2993472 C14.9725108,25.2600908 15.4370052,23.0206388 18.0230389,19.6771945 C20.6090726,16.3337503 19.9123309,10.784944 23.3568965,7.04553112 C26.801462,3.3061182 29.0665249,2.26506145 33.1425941,2.26506145 C37.2186633,2.26506145 38.5103754,8.90474834 38.5,10.5751593 C38.452966,17.3092493 34.2281541,18.2611476 31.6551681,21.4787209 C29.7841427,23.8125761 29.6380096,25.7216172 29.0717439,26.8124979 C26.0290443,32.6838481 23.565658,34.9023217 21.7389945,35.7650615" id="Path" fill="#73E5E2" fill-rule="nonzero"></path>
                    <path d="M18.5,35.2650615 C18.5515464,23.8977896 30.4561856,6.82483724 33,4.26506145" id="Path" stroke="#FFFFFF" stroke-width="0.5" stroke-linecap="round" stroke-linejoin="round"></path>
                    <path d="M19.5,30.2650615 C18.100786,28.8430269 16.8275287,24.8118014 17.0192018,23.7650615" id="Path" stroke="#FFFFFF" stroke-width="0.5" stroke-linecap="round" stroke-linejoin="round"></path>
                    <path d="M15.5,34.7650615 C13.6381337,31.4312618 4.80455547,15.2133373 1.5,3.26506145" id="Path" stroke="#FFFFFF" stroke-width="0.5" stroke-linecap="round" stroke-linejoin="round"></path>
                    <polyline id="Path" fill="#B37361" fill-rule="nonzero" points="21.8583015 35.7650615 27.5 35.7650615 22.7767176 53.2650615 10.1471851 53.2650615 5.5 35.7650615 21.8583015 35.7650615"></polyline>
                    <path d="M2,30.2650615 C4.697882,30.4557899 8.09273828,30.5829422 10.5,32.2650615" id="Path" stroke="#FFFFFF" stroke-width="0.5" stroke-linecap="round" stroke-linejoin="round"></path>
                </g>
                <g id="speech-modal-1" stroke-width="1" fill-rule="evenodd" transform="translate(527.500000, 240.734939)" stroke="#0B6FCC" stroke-linecap="round" stroke-linejoin="round">
                    <path d="M3.27814411,0.265061452 C1.46767511,0.265061452 0,1.71704388 0,3.50815498 L0,19.9123276 C0,21.7034387 1.46767511,23.1554212 3.27814411,23.1554212 L26.2340247,23.1554212 L32.3245414,30.7650615 L32.2868361,23.1422557 L33.7218559,23.1422557 C35.5323249,23.1422557 37,21.6902733 37,19.8991622 L37,3.50157224 C36.9963304,1.7130324 35.5297296,0.265061452 33.7218559,0.265061452 L3.27814411,0.265061452 Z" id="Path"></path>
                </g>
                <g id="fa-solid:lightbulb" stroke-width="1" fill-rule="evenodd" transform="translate(540.500000, 245.000000)">
                    <g id="Icon" fill="#E3B161" fill-rule="nonzero">
                        <path d="M3.001875,14.1984375 C3.0021875,14.395 3.0603125,14.5875 3.169375,14.75125 L3.7034375,15.5540625 C3.88873476,15.8327983 4.20123059,16.0003125 4.5359375,16.0003125 L6.464375,16.0003125 C6.79908191,16.0003125 7.11157774,15.8327983 7.296875,15.5540625 L7.8309375,14.75125 C7.9399529,14.5874764 7.99821914,14.3951761 7.9984375,14.1984375 L7.9996875,13 L3.0003125,13 L3.001875,14.1984375 Z M0,5.5 C0,6.8865625 0.5140625,8.1515625 1.36125,9.118125 C1.8775,9.7071875 2.685,10.9378125 2.9928125,11.9759375 C2.9940625,11.9840625 2.995,11.9921875 2.99625,12.0003125 L8.00375,12.0003125 C8.005,11.9921875 8.0059375,11.984375 8.0071875,11.9759375 C8.315,10.9378125 9.1225,9.7071875 9.63875,9.118125 C10.4859375,8.1515625 11,6.8865625 11,5.5 C11,2.4565625 8.5284375,-0.009375 5.4828125,-2.66430624e-05 C2.295,0.0096875 0,2.5928125 0,5.5 Z M5.5,3 C4.1215625,3 3,4.1215625 3,5.5 C3,5.77625 2.77625,6 2.5,6 C2.22375,6 2,5.77625 2,5.5 C2,3.57 3.57,2 5.5,2 C5.77625,2 6,2.22375 6,2.5 C6,2.77625 5.77625,3 5.5,3 Z" id="Icon-Shape"></path>
                    </g>
                    <rect id="ViewBox" fill-rule="nonzero" x="0" y="0" width="11" height="16"></rect>
                </g>
                <g id="box" stroke-width="1" fill-rule="evenodd" transform="translate(214.000000, 341.500000) scale(-1, 1) translate(-214.000000, -341.500000) translate(189.500000, 320.500000)">
                    <rect id="Rectangle" fill="#B27363" fill-rule="nonzero" x="0" y="8.26506145" width="48.5" height="33.5"></rect>
                    <polygon id="Path" fill="#98574C" fill-rule="nonzero" points="48.5 8.26506145 0 8.26506145 8.82948718 0.765061452 39.6705128 0.765061452"></polygon>
                    <line x1="24.5" y1="0.765061452" x2="24.5" y2="8.76506145" id="Path" stroke="#B27363" stroke-width="10"></line>
                    <line x1="15" y1="26.2650615" x2="33.5" y2="26.2650615" id="Path" stroke="#B27363" stroke-width="4.5"></line>
                    <line x1="15" y1="28.2650615" x2="33.5" y2="28.2650615" id="Path" stroke="#B27363" stroke-width="4.5"></line>
                </g>
                <g id="woman-sitting-laptop" stroke-width="1" fill-rule="evenodd" transform="translate(186.000000, 299.000000) scale(-1, 1) translate(-186.000000, -299.000000) translate(129.500000, 234.000000)">
                    <path d="M83.2015509,88.7261822 C83.4372978,90.1151133 87.4364312,121.869358 88.0859249,122.394172 C88.7354187,122.918986 95.6340165,124.080496 96.2249536,123.205203 C96.3435794,121.816144 96.5146986,99.6723876 96.8810364,97.6915187" id="Path" fill="#000000" fill-rule="nonzero" transform="translate(90.041294, 106.124022) rotate(10.000000) translate(-90.041294, -106.124022) "></path>
                    <path d="M9.9486235,75.9554966 C7.17906038,74.595353 12.9447197,101.520449 28.1450091,101.514973 C43.3452985,101.509494 68.9395176,78.4417522 73.0819955,78.4402595 C82.2268168,78.4369642 103.868239,96.3108844 105.565563,96.3102727 C106.865631,95.0156041 109.465972,92.7498168 109.465972,91.8600541 C109.465972,90.9702913 88.752166,57.0022113 73.2437815,57.0077997 C67.2303283,57.0043882 16.2018422,79.0297579 9.9486235,75.9554966 Z" id="Path" fill="#000000" fill-rule="nonzero" transform="translate(59.372187, 79.261386) rotate(10.000000) translate(-59.372187, -79.261386) "></path>
                    <path d="M18.8223828,69.6688377 C21.8661652,68.9845535 25.6536917,67.2141222 29.0064425,65.4021898 C19.8859908,68.3548462 12.412508,70.2710193 10.2557656,69.2164664 C8.78615079,68.5004824 9.71485361,75.6763923 13.1682435,82.58756 C12.5431891,81.2491823 11.6547665,71.2794103 18.8223828,69.6688377 Z" id="Path" fill="#000000" fill-rule="nonzero" transform="translate(19.295199, 73.994875) rotate(10.000000) translate(-19.295199, -73.994875) "></path>
                    <path d="M30.3258121,24.1527237 C32.7139805,24.2163765 45.1466759,23.8444504 48.5532112,27.1025531 C51.0801912,29.5166884 58.9327661,50.3096199 60.1423816,57.6104204 C54.8622488,60.3050572 16.7786447,78.6293724 4.99701354,70.58066 C4.73950478,64.3229509 5.95793931,39.4624052 13.6691047,26.4195005 C16.4881308,24.5335708 28.0298186,24.0918425 30.3258121,24.1527237 Z" id="Path" fill="#969696" fill-rule="nonzero" transform="translate(32.554227, 48.378069) rotate(10.000000) translate(-32.554227, -48.378069) "></path>
                    <path d="M39.4902244,18.1810074 L32.4281731,18.1835522 L32.4253594,25.9765979 C32.4246547,27.9283445 39.486712,27.9090705 39.4874106,25.9740531 L39.4902244,18.1810074 Z" id="Path" fill="#F8CDBA" fill-rule="nonzero" transform="translate(35.957792, 22.806940) rotate(10.000000) translate(-35.957792, -22.806940) "></path>
                    <path d="M32.870285,22.7976564 C32.8705964,21.9351954 35.326086,19.7670301 36.8434623,19.8416008 C36.880951,18.9012268 33.3779947,17.5114233 33.3779947,17.5114233 L32.8717144,18.8386825 L32.870285,22.7976564 Z" id="Path" fill="#1F161E" fill-rule="nonzero" transform="translate(34.857023, 20.154540) rotate(10.000000) translate(-34.857023, -20.154540) "></path>
                    <path d="M49.0787108,18.5758331 C49.2437809,17.8184439 49.3272468,17.0457823 49.3276964,16.2709281 C49.3297832,10.4892616 44.7885907,5.80275789 39.1797772,5.80477836 C33.5709636,5.80680014 29.0263857,10.4965779 29.0242981,16.2782444 C29.0242981,17.0530985 29.1070955,17.8257001 29.2716186,18.5829706 L49.0787108,18.5758331 Z" id="Path" fill="#1F161E" fill-rule="nonzero" transform="translate(39.175997, 12.193874) rotate(10.000000) translate(-39.175997, -12.193874) "></path>
                    <path d="M45.8242631,12.0669477 C44.6023043,11.8827345 43.3833952,10.9268337 42.532914,10.3015229 C37.6823308,13.8364924 34.5759851,13.8872201 34.2406901,13.887341 C33.9053951,13.8874618 32.5385714,15.8392186 31.9094673,16.0599272 L31.8540586,16.0268749 C32.3667713,18.8236731 34.4210704,21.0929961 37.163898,21.8924963 C39.9067255,22.6919964 42.8695373,21.8850988 44.8220108,19.8068717 C46.7744844,17.7286446 47.383088,14.7341018 46.3950959,12.066742 C46.2055375,12.0902158 46.0138047,12.0902848 45.8242631,12.0669477 Z" id="Path" fill="#F8CDBA" fill-rule="nonzero" transform="translate(39.357733, 16.248913) rotate(10.000000) translate(-39.357733, -16.248913) "></path>
                    <ellipse id="Oval" fill="#1F161E" fill-rule="nonzero" transform="translate(35.123694, 3.428156) rotate(10.000000) translate(-35.123694, -3.428156) " cx="35.1236937" cy="3.42815623" rx="2.86895852" ry="2.86327772"></ellipse>
                    <path d="M34.8544158,12.4533584 C34.1131893,12.4870252 33.5300591,13.0690011 33.529804,13.7753483 C33.529549,14.4816954 34.1122591,15.0632512 34.8534615,15.0963838" id="Path" stroke="#1F161E" stroke-width="0.5" stroke-linecap="round" transform="translate(34.192110, 13.774871) rotate(10.000000) translate(-34.192110, -13.774871) "></path>
                    <path d="M43.927961,14.6882799 C44.4090685,15.1663214 45.6468688,16.0020681 43.9271658,16.8908011" id="Path" stroke="#1F161E" stroke-width="0.5" stroke-linecap="round" transform="translate(44.368721, 15.789540) rotate(10.000000) translate(-44.368721, -15.789540) "></path>
                    <path d="M39.6322765,16.6093557 C39.6321576,16.9391046 39.7785626,17.726925 40.5145559,17.9305503" id="Path" stroke="#1F161E" stroke-width="0.5" stroke-linecap="round" transform="translate(40.073416, 17.269953) rotate(10.000000) translate(-40.073416, -17.269953) "></path>
                    <ellipse id="Oval" fill="#FA9E9F" fill-rule="nonzero" transform="translate(37.401163, 15.905213) rotate(10.000000) translate(-37.401163, -15.905213) " cx="37.4011631" cy="15.905213" rx="1.10344554" ry="1"></ellipse>
                    <ellipse id="Oval" fill="#FA9E9F" fill-rule="nonzero" transform="translate(46.095169, 17.434971) rotate(10.000000) translate(-46.095169, -17.434971) " cx="46.095169" cy="17.4349708" rx="1.10344554" ry="1"></ellipse>
                    <path d="M47.0962846,49.261954 L54.9995709,47.2446332 C55.758372,48.5150273 59.4506018,61.0907692 59.4506018,61.0907692 L47.2494184,66.1891056 C47.4095245,63.8054898 47.8940375,52.9130747 47.0962846,49.261954 Z" id="Path" fill="#F8CDBA" fill-rule="nonzero" transform="translate(53.273443, 56.716869) rotate(10.000000) translate(-53.273443, -56.716869) "></path>
                    <path d="M21.358354,41.4145576 C21.3580163,42.3496352 20.5239976,45.9093526 20.0319926,47.5820941" id="Path" stroke="#1F161E" stroke-width="0.5" stroke-linecap="round" transform="translate(20.695173, 44.498326) rotate(10.000000) translate(-20.695173, -44.498326) "></path>
                    <path d="M49.6991591,48.3269916 C49.5158469,46.8588838 48.4432198,38.5858751 46.6146012,34.2319694" id="Path" stroke="#1F161E" stroke-width="0.5" stroke-linecap="round" transform="translate(48.156880, 41.279481) rotate(10.000000) translate(-48.156880, -41.279481) "></path>
                    <path d="M47.0962846,49.261954 L54.9995709,47.2446332 C55.758372,48.5150273 59.4506018,61.0907692 59.4506018,61.0907692 L47.2494184,66.1891056 C47.4095245,63.8054898 47.8940375,52.9130747 47.0962846,49.261954 Z" id="Path" fill="#F8CDBA" fill-rule="nonzero" transform="translate(53.273443, 56.716869) rotate(10.000000) translate(-53.273443, -56.716869) "></path>
                    <path d="M102.332567,104.269979 C102.504607,104.537819 104.802436,107.413414 105.615912,107.446961 C106.429388,107.480508 111.369848,104.077781 111.153552,103.347473 C110.937256,102.617165 107.838612,103.092046 107.305633,102.838436 C106.772654,102.584826 105.587563,101.378283 105.398961,100.839727" id="Path" fill="#1F161E" fill-rule="nonzero" transform="translate(106.746506, 104.143467) rotate(10.000000) translate(-106.746506, -104.143467) "></path>
                    <path d="M86.136107,122.718607 C86.0783663,123.0357 85.7669324,126.774977 86.323767,127.380355 C86.8806016,127.985733 92.6894917,129.034834 93.0272652,128.346295 C93.3650386,127.657755 90.8329035,125.79337 90.6382762,125.227852 C90.443649,124.662334 90.4031083,122.942733 90.6392952,122.405625" id="Path" fill="#1F161E" fill-rule="nonzero" transform="translate(89.527749, 125.488901) rotate(10.000000) translate(-89.527749, -125.488901) "></path>
                    <polygon id="Path" fill="#969696" fill-rule="nonzero" transform="translate(78.191117, 57.745949) rotate(10.000000) translate(-78.191117, -57.745949) " points="88.2382608 66.1119084 61.8571017 66.1214147 68.1439737 49.3799905 94.5251328 49.3704841"></polygon>
                    <polygon id="Rectangle" fill="#969696" fill-rule="nonzero" transform="translate(51.995187, 61.411151) rotate(10.000000) translate(-51.995187, -61.411151) " points="38.7539199 61.19567 65.2366123 61.186127 65.2364532 61.6266313 38.7537609 61.6361742"></polygon>
                    <path d="M17.6972756,49.6834136 C17.1894132,51.5732865 14.7122485,59.6338871 15.7317126,61.0194778 C16.7511767,62.4050685 41.8591337,59.2456102 48.5821222,57.1670335 C50.2944065,56.6098069 51.5642855,55.1482489 52.3237221,54.961511 C54.3378552,54.6233389 56.2849748,55.8426719 56.8452891,57.7930249 C54.1604107,59.0853268 15.3946618,78.7531833 2.83880613,70.0105869 C0.466033022,68.3332637 4.64019223,47.7372018 4.82830877,46.696274 C6.94940431,46.9571162 17.6972756,49.6834136 17.6972756,49.6834136 Z" id="Path" fill="#F8CDBA" fill-rule="nonzero" transform="translate(29.478262, 59.469629) rotate(10.000000) translate(-29.478262, -59.469629) "></path>
                    <path d="M46.9316276,61.4962758 C47.6826438,61.3059316 48.3390941,61.1215613 48.8787282,60.9431728 C50.5783092,60.3485803 51.8387953,58.7889286 52.592596,58.5896737 C54.5927392,58.2271925 56.5270812,59.5287925 57.0832834,61.6114137" id="Path" stroke="#1F161E" stroke-width="0.5" stroke-linecap="round" transform="translate(52.007455, 60.070338) rotate(10.000000) translate(-52.007455, -60.070338) "></path>
                </g>
                <g id="speech-modal-1" stroke-width="1" fill-rule="evenodd" transform="translate(145.000000, 239.000000)" stroke="#0B6FCC" stroke-linecap="round" stroke-linejoin="round">
                    <path d="M3.27814411,0.265061452 C1.46767511,0.265061452 0,1.71704388 0,3.50815498 L0,19.9123276 C0,21.7034387 1.46767511,23.1554212 3.27814411,23.1554212 L26.2340247,23.1554212 L32.3245414,30.7650615 L32.2868361,23.1422557 L33.7218559,23.1422557 C35.5323249,23.1422557 37,21.6902733 37,19.8991622 L37,3.50157224 C36.9963304,1.7130324 35.5297296,0.265061452 33.7218559,0.265061452 L3.27814411,0.265061452 Z" id="Path"></path>
                </g>
                <text id="." font-family="Poppins" font-size="12" font-weight="normal" fill="#000000">
                    <tspan x="152" y="255">.</tspan>
                </text>
            </g>
        </g>
    </g>
</svg>